<svg width="81" height="80" viewBox="0 0 81 80" fill="none" xmlns="http://www.w3.org/2000/svg">
<g id="Suit">
<path id="&#226;&#153;&#163; club" d="M56.2975 31.7793L55.1292 36.1643L59.6567 36.4715C68.1618 37.0485 74.8847 44.135 74.8847 52.7886C74.8847 61.8213 67.5622 69.1437 58.5295 69.1437C52.0921 69.1437 46.5163 65.425 43.8459 60.0018L40.4921 53.1905L37.1383 60.0018C34.468 65.425 28.8921 69.1437 22.4547 69.1437C13.4221 69.1437 6.09961 61.8213 6.09961 52.7886C6.09961 44.135 12.8225 37.0485 21.3275 36.4715L25.8551 36.1643L24.6868 31.7793C24.3289 30.4359 24.137 29.0208 24.137 27.5551C24.137 18.5224 31.4594 11.2 40.4921 11.2C49.5248 11.2 56.8473 18.5224 56.8473 27.5551C56.8473 29.0208 56.6554 30.4359 56.2975 31.7793Z" fill="#2C2C2C"/>
</g>
</svg>
