<svg width="1280" height="541" viewBox="0 0 1280 541" fill="none" xmlns="http://www.w3.org/2000/svg">
<g clip-path="url(#clip0_2269_3277)">
<rect width="1280" height="540.5" fill="#F4E8D1"/>
<circle cx="625.5" cy="260.5" r="152.5" fill="#BACAB5"/>
<path d="M794.201 409.518C794.201 409.024 793.732 408.58 792.793 408.185C791.855 407.789 790.694 407.345 789.311 406.851C787.928 406.308 786.421 405.69 784.791 404.999C783.161 404.307 781.654 403.418 780.271 402.331C778.888 401.244 777.727 399.911 776.789 398.33C775.85 396.749 775.381 394.848 775.381 392.625C775.381 390.402 775.973 388.426 777.159 386.697C778.394 384.968 779.925 383.536 781.753 382.4C783.63 381.214 785.655 380.325 787.829 379.732C790.002 379.139 792.052 378.843 793.979 378.843C796.053 378.843 798.079 379.016 800.054 379.362C802.03 379.707 803.759 380.374 805.241 381.362C806.772 382.301 807.983 383.61 808.872 385.289C809.81 386.919 810.28 389.043 810.28 391.661C810.28 392.402 810.23 393.217 810.131 394.107C810.033 394.946 809.835 395.737 809.539 396.478C809.292 397.169 808.896 397.762 808.353 398.256C807.81 398.7 807.093 398.923 806.204 398.923C804.722 398.923 803.537 398.651 802.648 398.108C801.808 397.564 801.141 396.897 800.647 396.107C800.153 395.317 799.733 394.452 799.388 393.514C799.091 392.575 798.745 391.711 798.35 390.92C797.955 390.13 797.436 389.463 796.794 388.92C796.152 388.377 795.263 388.105 794.127 388.105C792.892 388.105 792.077 388.5 791.682 389.29C791.336 390.081 791.163 391.242 791.163 392.773C791.163 394.65 791.632 396.157 792.571 397.293C793.559 398.429 794.769 399.392 796.201 400.182C797.683 400.973 799.264 401.689 800.944 402.331C802.672 402.973 804.253 403.69 805.686 404.48C807.168 405.27 808.378 406.258 809.316 407.444C810.304 408.629 810.798 410.185 810.798 412.112C810.798 414.335 810.156 416.261 808.872 417.891C807.587 419.472 805.982 420.781 804.056 421.818C802.129 422.855 800.054 423.621 797.832 424.115C795.609 424.609 793.559 424.856 791.682 424.856C790.002 424.856 788.175 424.658 786.199 424.263C784.223 423.868 782.37 423.226 780.642 422.337C778.962 421.398 777.554 420.213 776.418 418.78C775.282 417.348 774.714 415.594 774.714 413.52C774.714 411.741 775.233 410.21 776.27 408.926C777.307 407.641 778.764 406.999 780.642 406.999C781.975 406.999 783.087 407.221 783.976 407.666C784.914 408.111 785.779 408.605 786.569 409.148C787.359 409.642 788.175 410.111 789.014 410.556C789.854 411 790.842 411.223 791.978 411.223C792.324 411.223 792.768 411.148 793.312 411C793.905 410.803 794.201 410.309 794.201 409.518Z" fill="url(#paint0_linear_2269_3277)"/>
<path d="M728.745 407.593C728.745 403.308 729.249 399.527 730.257 396.251C731.316 392.974 732.803 390.227 734.719 388.008C736.635 385.79 738.953 384.127 741.676 383.018C744.398 381.858 747.423 381.279 750.75 381.279C753.774 381.279 756.597 381.833 759.219 382.942C761.84 384.001 764.109 385.412 766.024 387.177C767.99 388.891 769.503 390.857 770.561 393.075C771.671 395.293 772.225 397.536 772.225 399.805C772.225 404.543 769.629 406.913 764.436 406.913C762.874 406.913 761.563 406.736 760.504 406.383C759.446 405.98 758.589 405.476 757.933 404.871C757.278 404.216 756.799 403.46 756.497 402.603C756.194 401.746 756.043 400.838 756.043 399.88C756.043 398.318 755.74 396.931 755.136 395.721C754.531 394.512 753.447 393.907 751.884 393.907C750.977 393.907 750.019 394.209 749.011 394.814C748.053 395.419 747.171 396.251 746.364 397.309C745.557 398.368 744.902 399.628 744.398 401.09C743.894 402.502 743.642 404.039 743.642 405.703C743.642 408.425 744.272 410.618 745.532 412.282C746.792 413.945 748.658 414.777 751.128 414.777C752.136 414.777 753.094 414.626 754.001 414.323C754.959 413.97 755.892 413.592 756.799 413.189C757.757 412.735 758.715 412.357 759.673 412.055C760.63 411.702 761.588 411.525 762.546 411.525C765.722 411.525 767.94 412.256 769.2 413.718C770.461 415.18 771.091 417.398 771.091 420.373C771.091 420.574 771.04 420.776 770.94 420.978C770.889 421.129 770.813 421.356 770.713 421.658C770.108 423.271 769.15 424.758 767.839 426.12C766.529 427.43 764.941 428.565 763.075 429.522C761.21 430.531 759.118 431.287 756.799 431.791C754.48 432.345 752.01 432.623 749.389 432.623C746.314 432.623 743.516 432.043 740.995 430.883C738.475 429.724 736.307 428.06 734.492 425.893C732.677 423.725 731.266 421.104 730.257 418.029C729.249 414.903 728.745 411.425 728.745 407.593Z" fill="url(#paint1_linear_2269_3277)"/>
<path d="M722.154 362.544C720.592 362.259 717.834 365.367 716.857 366.864C711.941 365.109 710.14 366.497 709.77 367.158C709.239 368.962 711.381 372.346 712.321 373.474C709.611 377.828 710.04 379.756 710.593 380.176C712.057 381.027 715.744 380.234 717.238 379.717C720.029 383.171 721.916 383.801 722.51 383.684C724.228 382.986 724.7 379.02 724.721 377.125C728.379 375.542 729.751 373.95 730.043 373.196C730.256 371.404 726.467 369.728 724.568 369.204C724.431 364.628 723.004 362.864 722.154 362.544Z" fill="url(#paint2_linear_2269_3277)"/>
<path d="M713.173 414.457C713.173 414.108 713.173 413.638 713.173 413.045C713.173 412.418 713.156 411.756 713.121 411.059C713.121 410.327 713.121 409.577 713.121 408.811C713.121 408.044 713.121 407.312 713.121 406.615C713.121 406.162 713.121 405.43 713.121 404.419C713.156 403.408 713.208 402.293 713.278 401.073C713.382 399.853 713.539 398.598 713.748 397.309C713.958 395.984 714.254 394.799 714.637 393.754C715.021 392.673 715.509 391.785 716.101 391.087C716.728 390.39 717.478 390.042 718.349 390.042C718.593 390.042 718.802 390.059 718.977 390.094C719.186 390.129 719.395 390.181 719.604 390.251C721.695 390.948 723.211 392.342 724.152 394.433C725.093 396.525 725.564 399.557 725.564 403.53C725.564 405.064 725.494 406.824 725.355 408.811C725.25 410.762 725.093 412.714 724.884 414.666C724.675 416.583 724.431 418.361 724.152 419.999C723.908 421.637 723.647 422.909 723.368 423.815C722.462 426.569 720.963 427.946 718.872 427.946C717.025 427.946 715.613 426.778 714.637 424.443C713.661 422.142 713.173 418.814 713.173 414.457Z" fill="url(#paint3_linear_2269_3277)"/>
<path d="M653.112 376.593C654.174 376.593 655.05 376.832 655.74 377.31C656.43 377.788 657.014 378.319 657.492 378.903C658.023 379.433 658.474 379.938 658.845 380.416C659.27 380.893 659.721 381.132 660.199 381.132C660.677 381.132 661.208 380.893 661.792 380.416C662.429 379.885 663.225 379.327 664.181 378.743C665.137 378.159 666.251 377.628 667.526 377.151C668.853 376.62 670.419 376.354 672.224 376.354C673.551 376.354 674.693 376.726 675.648 377.469C676.604 378.212 677.48 379.035 678.276 379.938C679.073 380.787 679.842 381.584 680.586 382.327C681.329 383.07 682.125 383.442 682.975 383.442C683.824 383.442 684.594 383.097 685.284 382.406C685.974 381.663 686.771 380.867 687.673 380.017C688.576 379.168 689.664 378.398 690.938 377.708C692.265 376.965 693.938 376.593 695.955 376.593C699.778 376.593 702.857 378.584 705.193 382.566C707.582 386.547 708.776 392.201 708.776 399.528C708.776 401.545 708.644 403.642 708.378 405.819C708.166 407.996 707.874 410.093 707.502 412.11C707.13 414.074 706.706 415.879 706.228 417.525C705.803 419.118 705.379 420.392 704.954 421.348C704.211 422.887 703.122 424.082 701.689 424.931C700.255 425.834 698.583 426.285 696.672 426.285C695.238 426.285 694.15 426.046 693.407 425.568C692.717 425.091 692.212 424.453 691.894 423.657C691.575 422.808 691.416 421.852 691.416 420.79C691.416 419.675 691.416 418.534 691.416 417.366C691.416 413.597 691.602 410.172 691.973 407.093C692.398 403.961 692.61 401.014 692.61 398.254C692.61 396.661 692.478 395.573 692.212 394.989C691.947 394.352 691.389 394.033 690.54 394.033C690.115 394.033 689.691 394.272 689.266 394.75C688.894 395.228 688.549 395.785 688.231 396.422C687.912 397.059 687.647 397.723 687.434 398.413C687.275 399.05 687.195 399.581 687.195 400.006C687.195 402.766 687.063 405.607 686.797 408.527C686.585 411.446 686.107 414.101 685.364 416.49C684.674 418.879 683.665 420.843 682.338 422.383C681.063 423.923 679.338 424.692 677.161 424.692C674.932 424.692 673.286 424.135 672.224 423.02C671.162 421.905 670.631 419.914 670.631 417.047C670.631 413.172 670.684 409.854 670.791 407.093C670.897 404.279 670.95 401.598 670.95 399.05C670.95 397.723 670.764 396.608 670.392 395.705C670.021 394.75 669.198 394.272 667.924 394.272C666.968 394.272 666.172 394.776 665.535 395.785C664.951 396.794 664.473 397.988 664.101 399.369C663.783 400.696 663.544 402.023 663.385 403.35C663.225 404.678 663.146 405.66 663.146 406.297C663.146 408.633 663.119 410.942 663.066 413.225C663.013 415.508 662.774 417.578 662.349 419.436C661.978 421.242 661.341 422.701 660.438 423.816C659.536 424.931 658.208 425.489 656.456 425.489C653.006 425.489 650.457 422.861 648.812 417.605C648.387 416.225 647.962 414.552 647.537 412.588C647.113 410.571 646.741 408.447 646.423 406.217C646.104 403.987 645.839 401.731 645.626 399.448C645.414 397.165 645.308 395.042 645.308 393.077C645.308 390.688 645.467 388.485 645.785 386.468C646.104 384.45 646.582 382.725 647.219 381.292C647.909 379.805 648.732 378.664 649.688 377.867C650.696 377.018 651.838 376.593 653.112 376.593Z" fill="url(#paint4_linear_2269_3277)"/>
<path d="M538.154 378.961C539.126 379.084 539.945 379.326 540.61 379.687C541.275 380.048 541.899 380.424 542.482 380.814C543.103 381.209 543.708 381.582 544.295 381.933C544.883 382.284 545.565 382.509 546.343 382.608C547.276 382.726 547.998 382.64 548.509 382.35C549.025 382.02 549.504 381.666 549.947 381.288C550.434 380.876 550.972 380.529 551.561 380.248C552.193 379.934 553.093 379.85 554.259 379.998C555.037 380.097 555.772 380.368 556.467 380.812C557.166 381.217 557.751 381.746 558.221 382.398C558.691 383.05 559.027 383.824 559.23 384.718C559.471 385.618 559.525 386.593 559.392 387.643C559.328 388.148 559.195 388.882 558.994 389.844C558.832 390.811 558.633 391.753 558.398 392.672C557.864 394.698 557.272 396.558 556.622 398.254C555.977 399.91 555.532 401.71 555.285 403.654C555.176 404.509 555.113 405.469 555.097 406.534C555.085 407.559 555.073 408.585 555.062 409.611C555.094 410.602 555.109 411.572 555.107 412.52C555.11 413.429 555.07 414.214 554.986 414.875C554.803 416.313 554.536 417.484 554.184 418.388C553.827 419.33 553.381 420.044 552.846 420.529C552.31 421.014 551.677 421.329 550.948 421.473C550.219 421.617 549.407 421.633 548.513 421.519C547.774 421.425 547.045 421.254 546.326 421.005C545.646 420.76 545.037 420.426 544.498 420.002C543.959 419.578 543.53 419.069 543.21 418.476C542.925 417.926 542.831 417.262 542.93 416.485C543.038 415.629 542.943 414.827 542.643 414.078C542.382 413.334 541.999 412.929 541.493 412.865C540.832 412.781 540.156 412.972 539.465 413.437C538.779 413.864 538.005 414.358 537.144 414.92C536.326 415.448 535.399 415.904 534.363 416.286C533.361 416.711 532.179 416.838 530.818 416.665C529.069 416.443 527.488 415.827 526.075 414.818C524.663 413.809 523.489 412.475 522.554 410.816C521.619 409.156 520.955 407.235 520.56 405.052C520.166 402.868 520.132 400.494 520.457 397.928C520.862 394.74 521.597 391.91 522.661 389.438C523.765 386.97 525.091 384.926 526.64 383.306C528.233 381.651 530.004 380.454 531.955 379.714C533.911 378.936 535.977 378.684 538.154 378.961ZM532.52 396.734C532.391 397.744 532.365 398.729 532.441 399.687C532.561 400.61 532.771 401.447 533.071 402.196C533.375 402.906 533.775 403.49 534.27 403.948C534.804 404.411 535.421 404.687 536.121 404.776C536.898 404.875 537.708 404.721 538.55 404.314C539.396 403.868 540.182 403.277 540.908 402.539C541.673 401.807 542.314 400.96 542.831 399.998C543.392 399.003 543.739 397.98 543.872 396.931C543.986 396.037 543.958 395.164 543.79 394.313C543.621 393.462 543.321 392.713 542.89 392.065C542.502 391.384 541.981 390.824 541.326 390.385C540.714 389.913 540 389.624 539.184 389.521C538.328 389.412 537.521 389.547 536.762 389.924C536.008 390.263 535.331 390.77 534.732 391.444C534.172 392.124 533.694 392.932 533.298 393.87C532.908 394.768 532.648 395.723 532.52 396.734Z" fill="url(#paint5_linear_2269_3277)"/>
<path d="M615.773 382.604C616.668 382.667 617.429 382.847 618.055 383.144C618.682 383.44 619.272 383.751 619.824 384.078C620.413 384.408 620.984 384.718 621.54 385.01C622.095 385.301 622.73 385.472 623.446 385.522C624.306 385.583 624.962 385.468 625.414 385.176C625.869 384.848 626.289 384.5 626.675 384.132C627.1 383.73 627.574 383.386 628.098 383.099C628.66 382.779 629.479 382.657 630.553 382.733C631.269 382.784 631.955 382.995 632.613 383.365C633.273 383.7 633.835 384.153 634.298 384.726C634.761 385.298 635.108 385.989 635.338 386.797C635.605 387.607 635.704 388.496 635.635 389.462C635.602 389.928 635.518 390.606 635.383 391.496C635.284 392.388 635.151 393.26 634.982 394.112C634.597 395.992 634.151 397.723 633.643 399.307C633.137 400.854 632.821 402.523 632.694 404.313C632.639 405.101 632.63 405.982 632.669 406.956C632.711 407.894 632.752 408.833 632.794 409.771C632.873 410.677 632.937 411.563 632.983 412.43C633.032 413.261 633.035 413.981 632.992 414.589C632.898 415.914 632.714 416.998 632.438 417.843C632.16 418.722 631.788 419.398 631.323 419.869C630.858 420.339 630.295 420.659 629.636 420.829C628.976 420.998 628.234 421.053 627.411 420.995C626.731 420.947 626.055 420.827 625.385 420.635C624.751 420.447 624.177 420.172 623.662 419.812C623.148 419.451 622.73 419.008 622.407 418.481C622.118 417.993 621.999 417.391 622.049 416.675C622.105 415.887 621.977 415.158 621.665 414.489C621.388 413.821 621.017 413.471 620.551 413.438C619.943 413.395 619.334 413.604 618.726 414.065C618.12 414.489 617.438 414.981 616.678 415.539C615.958 416.064 615.133 416.527 614.205 416.929C613.31 417.369 612.236 417.545 610.983 417.456C609.372 417.342 607.895 416.86 606.552 416.009C605.209 415.158 604.068 413.998 603.128 412.528C602.189 411.058 601.483 409.335 601.011 407.358C600.54 405.382 600.388 403.212 600.555 400.849C600.763 397.913 601.291 395.288 602.138 392.973C603.022 390.661 604.131 388.724 605.464 387.163C606.837 385.569 608.396 384.384 610.142 383.609C611.891 382.797 613.768 382.462 615.773 382.604ZM611.525 399.143C611.459 400.074 611.485 400.976 611.603 401.848C611.76 402.686 611.994 403.441 612.306 404.11C612.621 404.744 613.017 405.258 613.493 405.652C614.004 406.048 614.582 406.269 615.227 406.314C615.943 406.365 616.675 406.183 617.424 405.768C618.176 405.318 618.865 404.737 619.491 404.026C620.153 403.317 620.696 402.51 621.12 401.604C621.582 400.665 621.848 399.713 621.916 398.746C621.974 397.922 621.905 397.126 621.707 396.356C621.51 395.587 621.198 394.917 620.77 394.347C620.381 393.743 619.876 393.258 619.254 392.89C618.671 392.489 618.003 392.262 617.251 392.208C616.464 392.153 615.732 392.317 615.058 392.701C614.385 393.049 613.792 393.547 613.279 394.194C612.801 394.844 612.405 395.607 612.091 396.485C611.779 397.326 611.591 398.212 611.525 399.143Z" fill="url(#paint6_linear_2269_3277)"/>
<path d="M491.797 383.82C493.602 383.82 495.168 384.298 496.496 385.254C497.876 386.209 498.566 387.271 498.566 388.439C498.566 389.448 498.566 390.377 498.566 391.226C498.619 392.076 498.778 392.793 499.044 393.377C499.309 393.96 499.761 394.438 500.398 394.81C501.035 395.128 501.964 395.288 503.185 395.288C504.087 395.288 505.202 395.235 506.53 395.128C507.91 394.969 509.715 394.89 511.945 394.89C512.635 394.943 513.245 395.102 513.776 395.367C514.201 395.58 514.599 395.925 514.971 396.403C515.342 396.88 515.528 397.571 515.528 398.473C515.528 400.331 514.679 401.871 512.98 403.092C511.281 404.313 509.157 404.923 506.609 404.923C505.654 404.923 504.698 404.87 503.742 404.764C502.787 404.605 501.911 404.525 501.114 404.525C500.159 404.525 499.416 404.632 498.885 404.844C498.407 405.056 498.035 405.322 497.77 405.64C497.557 405.959 497.425 406.33 497.372 406.755C497.372 407.18 497.372 407.631 497.372 408.109C497.372 409.383 497.451 410.657 497.61 411.931C497.77 413.205 498.088 414.347 498.566 415.356C499.044 416.311 499.708 417.108 500.557 417.745C501.406 418.329 502.495 418.621 503.822 418.621C505.043 418.621 505.972 418.196 506.609 417.346C507.299 416.497 507.963 415.568 508.6 414.559C509.237 413.551 509.98 412.621 510.83 411.772C511.679 410.923 512.874 410.498 514.413 410.498C515.528 410.498 516.537 410.737 517.439 411.215C518.395 411.692 519.218 412.383 519.908 413.285C520.598 414.135 521.129 415.143 521.501 416.311C521.926 417.479 522.138 418.753 522.138 420.134C522.138 422.47 521.634 424.646 520.625 426.664C519.669 428.681 518.262 430.433 516.404 431.92C514.599 433.353 512.396 434.494 509.795 435.344C507.193 436.193 504.3 436.618 501.114 436.618C496.443 436.618 492.7 435.583 489.886 433.512C487.072 431.442 485.055 428.708 483.834 425.31C483.568 424.514 483.303 423.425 483.037 422.045C482.772 420.665 482.533 419.125 482.321 417.426C482.161 415.674 482.002 413.869 481.843 412.011C481.737 410.1 481.684 408.215 481.684 406.357C481.684 402.641 481.843 399.296 482.161 396.323C482.48 393.35 482.931 391.067 483.515 389.474C483.993 388.2 484.55 387.192 485.188 386.448C485.825 385.705 486.488 385.148 487.178 384.776C487.922 384.351 488.665 384.086 489.408 383.98C490.204 383.873 491.001 383.82 491.797 383.82Z" fill="url(#paint7_linear_2269_3277)"/>
<path d="M460.944 411.812C460.944 411.281 460.44 410.803 459.431 410.378C458.422 409.953 457.174 409.476 455.688 408.945C454.201 408.361 452.582 407.697 450.83 406.954C449.078 406.211 447.459 405.255 445.973 404.087C444.486 402.919 443.238 401.486 442.23 399.787C441.221 398.088 440.717 396.044 440.717 393.655C440.717 391.266 441.354 389.142 442.628 387.284C443.955 385.426 445.601 383.886 447.565 382.665C449.583 381.391 451.759 380.436 454.095 379.799C456.431 379.161 458.634 378.843 460.705 378.843C462.935 378.843 465.111 379.029 467.235 379.4C469.359 379.772 471.217 380.489 472.809 381.551C474.455 382.559 475.756 383.966 476.711 385.771C477.72 387.523 478.225 389.806 478.225 392.62C478.225 393.416 478.171 394.292 478.065 395.248C477.959 396.15 477.747 397 477.428 397.796C477.163 398.539 476.738 399.176 476.154 399.707C475.57 400.185 474.8 400.424 473.845 400.424C472.252 400.424 470.978 400.132 470.022 399.548C469.12 398.964 468.403 398.247 467.872 397.398C467.341 396.548 466.89 395.619 466.518 394.611C466.2 393.602 465.828 392.673 465.403 391.823C464.979 390.974 464.421 390.257 463.731 389.673C463.041 389.089 462.085 388.797 460.864 388.797C459.537 388.797 458.661 389.222 458.236 390.071C457.865 390.921 457.679 392.168 457.679 393.814C457.679 395.832 458.183 397.451 459.192 398.672C460.254 399.893 461.554 400.928 463.094 401.778C464.687 402.627 466.386 403.397 468.191 404.087C470.049 404.777 471.748 405.547 473.287 406.396C474.88 407.246 476.181 408.308 477.189 409.582C478.251 410.856 478.782 412.528 478.782 414.599C478.782 416.988 478.092 419.058 476.711 420.81C475.331 422.509 473.606 423.916 471.535 425.031C469.465 426.146 467.235 426.969 464.846 427.5C462.457 428.03 460.254 428.296 458.236 428.296C456.431 428.296 454.467 428.084 452.343 427.659C450.22 427.234 448.229 426.544 446.371 425.588C444.566 424.58 443.053 423.306 441.832 421.766C440.611 420.226 440 418.342 440 416.112C440 414.201 440.557 412.555 441.672 411.175C442.787 409.794 444.353 409.104 446.371 409.104C447.804 409.104 448.999 409.343 449.954 409.821C450.963 410.299 451.892 410.829 452.742 411.413C453.591 411.944 454.467 412.449 455.369 412.926C456.272 413.404 457.334 413.643 458.555 413.643C458.926 413.643 459.404 413.564 459.988 413.404C460.625 413.192 460.944 412.661 460.944 411.812Z" fill="url(#paint8_linear_2269_3277)"/>
<path d="M603.002 429.237C602.639 429.204 602.284 429.167 601.935 429.125C592.619 428.013 588.454 423.923 587.36 421.704C587.261 421.503 587.187 421.316 587.137 421.149L575.757 426.002C577.499 427.246 579.567 429.963 580.604 431.414C583.35 435.894 587.486 438.562 591.224 440.053C593.924 441.13 595.984 441.534 598.024 441.991C602.195 442.924 612.085 444.417 619.799 444.168C629.443 443.857 633.798 441.68 639.086 438.569C643.316 436.081 645.618 432.762 646.241 431.414C646.966 430.274 648.48 427.184 648.729 423.949C648.978 420.714 647.796 417.727 644.374 417.727C642.508 417.727 639.77 417.789 637.531 421.771C635.291 425.753 627.887 427.619 624.466 428.304C621.355 428.926 613.951 430.232 603.002 429.237Z" fill="url(#paint9_linear_2269_3277)"/>
<path fill-rule="evenodd" clip-rule="evenodd" d="M556.963 415.331V410.871C557.016 409.066 557.122 407.182 557.281 405.217C557.494 403.2 557.812 401.182 558.237 399.165C558.662 397.095 559.246 395.263 559.989 393.67C560.785 392.024 561.768 390.697 562.935 389.689C564.103 388.68 565.537 388.175 567.236 388.175C568.138 388.175 568.961 388.282 569.704 388.494C570.448 388.653 571.164 388.866 571.855 389.131C572.598 389.343 573.314 389.556 574.005 389.768C574.695 389.98 575.412 390.087 576.155 390.087C576.898 390.087 577.641 389.98 578.385 389.768L580.774 389.131C581.57 388.866 582.393 388.653 583.242 388.494C584.092 388.282 584.994 388.175 585.95 388.175C587.755 388.175 589.454 388.627 591.046 389.529C592.639 390.432 594.019 391.626 595.187 393.113C596.408 394.599 597.364 396.325 598.054 398.289C598.798 400.2 599.169 402.165 599.169 404.182C599.169 406.093 598.851 407.739 598.214 409.119C597.63 410.5 596.886 411.694 595.984 412.703C595.081 413.658 594.099 414.508 593.037 415.251C592.029 415.941 591.073 416.578 590.17 417.162C589.268 417.693 588.498 418.251 587.861 418.835C587.277 419.366 586.985 419.95 586.985 420.587C586.985 421.027 587.11 421.399 587.36 421.704C588.454 423.923 592.619 428.013 601.935 429.125C601.855 429.709 601.756 430.287 601.638 430.86C601.319 432.611 600.709 434.178 599.806 435.558C598.904 436.938 597.656 438.027 596.063 438.823C594.767 439.514 593.154 439.924 591.224 440.053C587.486 438.562 583.35 435.894 580.604 431.414C579.567 429.963 577.499 427.246 575.757 426.002C575.12 425.259 574.403 424.887 573.606 424.887C572.863 424.887 572.332 425.232 572.014 425.922C571.748 426.612 571.616 427.807 571.616 429.506V432.293C571.616 433.302 571.456 434.231 571.138 435.08C570.872 435.93 570.368 436.62 569.625 437.151C568.882 437.735 567.767 438.027 566.28 438.027C564.581 438.027 563.148 437.602 561.98 436.752C560.812 435.956 559.856 434.655 559.113 432.85C558.37 431.045 557.812 428.709 557.441 425.843C557.122 422.923 556.963 419.419 556.963 415.331ZM575.677 405.934C575.677 407.049 575.996 407.819 576.633 408.243C577.27 408.668 578.039 408.88 578.942 408.88C580.163 408.88 581.251 408.403 582.207 407.447C583.163 406.491 583.64 405.191 583.64 403.545C583.64 402.377 583.269 401.554 582.526 401.076C581.835 400.598 581.039 400.36 580.137 400.36C578.862 400.36 577.801 400.917 576.951 402.032C576.102 403.094 575.677 404.394 575.677 405.934Z" fill="url(#paint10_linear_2269_3277)"/>
<path d="M646.733 460L646.74 454.817C646.74 454.212 646.578 453.74 646.253 453.4C645.933 453.055 645.515 452.882 645 452.882C644.7 452.882 644.415 452.952 644.145 453.092C643.875 453.227 643.655 453.442 643.485 453.737C643.315 454.027 643.23 454.4 643.23 454.855L642.525 454.57C642.515 453.995 642.633 453.492 642.878 453.062C643.128 452.627 643.468 452.29 643.898 452.05C644.328 451.81 644.813 451.69 645.353 451.69C646.198 451.69 646.863 451.947 647.348 452.463C647.833 452.972 648.075 453.66 648.075 454.525L648.068 460H646.733ZM637.043 460V451.9H638.235V454.067H638.385V460H637.043ZM641.895 460L641.903 454.87C641.903 454.25 641.743 453.765 641.423 453.415C641.103 453.06 640.678 452.882 640.148 452.882C639.623 452.882 639.198 453.062 638.873 453.422C638.548 453.782 638.385 454.26 638.385 454.855L637.68 454.435C637.68 453.91 637.805 453.44 638.055 453.025C638.305 452.61 638.645 452.285 639.075 452.05C639.505 451.81 639.993 451.69 640.538 451.69C641.083 451.69 641.558 451.805 641.963 452.035C642.368 452.265 642.68 452.595 642.9 453.025C643.12 453.45 643.23 453.957 643.23 454.547L643.223 460H641.895ZM650.179 450.467V449.087H651.514V450.467H650.179ZM650.179 460V451.9H651.514V460H650.179ZM659.531 460V455.942C659.531 455.557 659.496 455.187 659.426 454.832C659.361 454.477 659.244 454.16 659.074 453.88C658.909 453.595 658.684 453.37 658.399 453.205C658.119 453.04 657.764 452.957 657.334 452.957C656.999 452.957 656.694 453.015 656.419 453.13C656.149 453.24 655.916 453.41 655.721 453.64C655.526 453.87 655.374 454.16 655.264 454.51C655.159 454.855 655.106 455.262 655.106 455.732L654.229 455.462C654.229 454.677 654.369 454.005 654.649 453.445C654.934 452.88 655.331 452.447 655.841 452.147C656.356 451.842 656.961 451.69 657.656 451.69C658.181 451.69 658.629 451.772 658.999 451.937C659.369 452.102 659.676 452.322 659.921 452.597C660.166 452.867 660.359 453.172 660.499 453.512C660.639 453.847 660.736 454.19 660.791 454.54C660.851 454.885 660.881 455.212 660.881 455.522V460H659.531ZM653.756 460V451.9H654.956V454.067H655.106V460H653.756ZM662.981 450.467V449.087H664.316V450.467H662.981ZM662.981 460V451.9H664.316V460H662.981ZM674.092 460C673.612 460.095 673.137 460.133 672.667 460.113C672.202 460.098 671.787 460.005 671.422 459.835C671.057 459.66 670.78 459.39 670.59 459.025C670.43 458.705 670.342 458.382 670.327 458.057C670.317 457.727 670.312 457.355 670.312 456.94V449.65H671.647V456.88C671.647 457.21 671.65 457.492 671.655 457.727C671.665 457.962 671.717 458.165 671.812 458.335C671.992 458.655 672.277 458.842 672.667 458.898C673.062 458.952 673.537 458.937 674.092 458.852V460ZM668.67 453.002V451.9H674.092V453.002H668.67ZM675.737 460V451.9H676.929V453.857L676.734 453.602C676.829 453.352 676.952 453.122 677.102 452.912C677.257 452.702 677.429 452.53 677.619 452.395C677.829 452.225 678.067 452.095 678.332 452.005C678.597 451.915 678.867 451.862 679.142 451.847C679.417 451.827 679.674 451.845 679.914 451.9V453.152C679.634 453.077 679.327 453.057 678.992 453.092C678.657 453.127 678.347 453.25 678.062 453.46C677.802 453.645 677.599 453.87 677.454 454.135C677.314 454.4 677.217 454.687 677.162 454.997C677.107 455.302 677.079 455.615 677.079 455.935V460H675.737ZM684.696 460.225C683.901 460.225 683.206 460.05 682.611 459.7C682.021 459.345 681.561 458.852 681.231 458.222C680.901 457.587 680.736 456.847 680.736 456.002C680.736 455.117 680.898 454.352 681.223 453.707C681.548 453.057 682.001 452.557 682.581 452.207C683.166 451.852 683.851 451.675 684.636 451.675C685.451 451.675 686.143 451.862 686.713 452.237C687.288 452.612 687.718 453.147 688.003 453.842C688.293 454.537 688.418 455.365 688.378 456.325H687.028V455.845C687.013 454.85 686.811 454.107 686.421 453.617C686.031 453.122 685.451 452.875 684.681 452.875C683.856 452.875 683.228 453.14 682.798 453.67C682.368 454.2 682.153 454.96 682.153 455.95C682.153 456.905 682.368 457.645 682.798 458.17C683.228 458.695 683.841 458.957 684.636 458.957C685.171 458.957 685.636 458.835 686.031 458.59C686.426 458.345 686.736 457.992 686.961 457.532L688.243 457.975C687.928 458.69 687.453 459.245 686.818 459.64C686.188 460.03 685.481 460.225 684.696 460.225ZM681.703 456.325V455.252H687.688V456.325H681.703ZM692.204 460.225C691.599 460.225 691.092 460.115 690.682 459.895C690.277 459.67 689.969 459.375 689.759 459.01C689.554 458.645 689.452 458.245 689.452 457.81C689.452 457.385 689.532 457.017 689.692 456.707C689.857 456.392 690.087 456.132 690.382 455.927C690.677 455.717 691.029 455.552 691.439 455.432C691.824 455.327 692.254 455.237 692.729 455.162C693.209 455.082 693.694 455.01 694.184 454.945C694.674 454.88 695.132 454.817 695.557 454.757L695.077 455.035C695.092 454.315 694.947 453.782 694.642 453.437C694.342 453.092 693.822 452.92 693.082 452.92C692.592 452.92 692.162 453.032 691.792 453.257C691.427 453.477 691.169 453.837 691.019 454.337L689.752 453.955C689.947 453.245 690.324 452.687 690.884 452.282C691.444 451.877 692.182 451.675 693.097 451.675C693.832 451.675 694.462 451.807 694.987 452.072C695.517 452.332 695.897 452.727 696.127 453.257C696.242 453.507 696.314 453.78 696.344 454.075C696.374 454.365 696.389 454.67 696.389 454.99V460H695.204V458.057L695.482 458.237C695.177 458.892 694.749 459.387 694.199 459.722C693.654 460.058 692.989 460.225 692.204 460.225ZM692.407 459.107C692.887 459.107 693.302 459.022 693.652 458.852C694.007 458.677 694.292 458.45 694.507 458.17C694.722 457.885 694.862 457.575 694.927 457.24C695.002 456.99 695.042 456.712 695.047 456.407C695.057 456.097 695.062 455.86 695.062 455.695L695.527 455.897C695.092 455.957 694.664 456.015 694.244 456.07C693.824 456.125 693.427 456.185 693.052 456.25C692.677 456.31 692.339 456.382 692.039 456.467C691.819 456.537 691.612 456.627 691.417 456.737C691.227 456.847 691.072 456.99 690.952 457.165C690.837 457.335 690.779 457.547 690.779 457.802C690.779 458.022 690.834 458.232 690.944 458.432C691.059 458.632 691.234 458.795 691.469 458.92C691.709 459.045 692.022 459.107 692.407 459.107ZM701.399 460.218C700.434 460.218 699.642 460.007 699.022 459.587C698.407 459.162 698.029 458.57 697.889 457.81L699.254 457.592C699.364 458.032 699.617 458.382 700.012 458.642C700.407 458.897 700.897 459.025 701.482 459.025C702.037 459.025 702.472 458.91 702.787 458.68C703.102 458.45 703.259 458.137 703.259 457.742C703.259 457.512 703.207 457.327 703.102 457.187C702.997 457.042 702.779 456.907 702.449 456.782C702.124 456.657 701.632 456.507 700.972 456.332C700.257 456.142 699.694 455.945 699.284 455.74C698.874 455.535 698.582 455.297 698.407 455.027C698.232 454.757 698.144 454.43 698.144 454.045C698.144 453.57 698.274 453.155 698.534 452.8C698.794 452.44 699.157 452.162 699.622 451.967C700.092 451.772 700.637 451.675 701.257 451.675C701.872 451.675 702.422 451.772 702.907 451.967C703.392 452.162 703.782 452.44 704.077 452.8C704.377 453.155 704.554 453.57 704.609 454.045L703.244 454.292C703.179 453.857 702.969 453.515 702.614 453.265C702.264 453.015 701.812 452.882 701.257 452.867C700.732 452.847 700.304 452.94 699.974 453.145C699.649 453.35 699.487 453.627 699.487 453.977C699.487 454.172 699.547 454.34 699.667 454.48C699.792 454.62 700.019 454.752 700.349 454.877C700.684 455.002 701.169 455.145 701.804 455.305C702.519 455.485 703.082 455.682 703.492 455.897C703.907 456.107 704.202 456.357 704.377 456.647C704.552 456.932 704.639 457.285 704.639 457.705C704.639 458.485 704.352 459.1 703.777 459.55C703.202 459.995 702.409 460.218 701.399 460.218ZM709.368 460.21C708.848 460.21 708.401 460.128 708.026 459.962C707.656 459.797 707.348 459.577 707.103 459.302C706.858 459.027 706.666 458.722 706.526 458.387C706.386 458.052 706.286 457.71 706.226 457.36C706.171 457.01 706.143 456.682 706.143 456.377V451.9H707.493V455.957C707.493 456.337 707.528 456.705 707.598 457.06C707.668 457.415 707.786 457.735 707.951 458.02C708.121 458.305 708.346 458.53 708.626 458.695C708.911 458.86 709.266 458.942 709.691 458.942C710.026 458.942 710.331 458.885 710.606 458.77C710.881 458.655 711.116 458.485 711.311 458.26C711.506 458.03 711.656 457.74 711.761 457.39C711.866 457.04 711.918 456.632 711.918 456.167L712.796 456.437C712.796 457.217 712.653 457.89 712.368 458.455C712.088 459.02 711.691 459.455 711.176 459.76C710.666 460.06 710.063 460.21 709.368 460.21ZM712.068 460V457.832H711.918V451.9H713.261V460H712.068ZM715.361 460V451.9H716.553V453.857L716.358 453.602C716.453 453.352 716.576 453.122 716.726 452.912C716.881 452.702 717.053 452.53 717.243 452.395C717.453 452.225 717.691 452.095 717.956 452.005C718.221 451.915 718.491 451.862 718.766 451.847C719.041 451.827 719.298 451.845 719.538 451.9V453.152C719.258 453.077 718.951 453.057 718.616 453.092C718.281 453.127 717.971 453.25 717.686 453.46C717.426 453.645 717.223 453.87 717.078 454.135C716.938 454.4 716.841 454.687 716.786 454.997C716.731 455.302 716.703 455.615 716.703 455.935V460H715.361ZM724.32 460.225C723.525 460.225 722.83 460.05 722.235 459.7C721.645 459.345 721.185 458.852 720.855 458.222C720.525 457.587 720.36 456.847 720.36 456.002C720.36 455.117 720.522 454.352 720.847 453.707C721.172 453.057 721.625 452.557 722.205 452.207C722.79 451.852 723.475 451.675 724.26 451.675C725.075 451.675 725.767 451.862 726.337 452.237C726.912 452.612 727.342 453.147 727.627 453.842C727.917 454.537 728.042 455.365 728.002 456.325H726.652V455.845C726.637 454.85 726.435 454.107 726.045 453.617C725.655 453.122 725.075 452.875 724.305 452.875C723.48 452.875 722.852 453.14 722.422 453.67C721.992 454.2 721.777 454.96 721.777 455.95C721.777 456.905 721.992 457.645 722.422 458.17C722.852 458.695 723.465 458.957 724.26 458.957C724.795 458.957 725.26 458.835 725.655 458.59C726.05 458.345 726.36 457.992 726.585 457.532L727.867 457.975C727.552 458.69 727.077 459.245 726.442 459.64C725.812 460.03 725.105 460.225 724.32 460.225ZM721.327 456.325V455.252H727.312V456.325H721.327ZM732.732 460.218C731.767 460.218 730.975 460.007 730.355 459.587C729.74 459.162 729.362 458.57 729.222 457.81L730.587 457.592C730.697 458.032 730.95 458.382 731.345 458.642C731.74 458.897 732.23 459.025 732.815 459.025C733.37 459.025 733.805 458.91 734.12 458.68C734.435 458.45 734.592 458.137 734.592 457.742C734.592 457.512 734.54 457.327 734.435 457.187C734.33 457.042 734.112 456.907 733.782 456.782C733.457 456.657 732.965 456.507 732.305 456.332C731.59 456.142 731.027 455.945 730.617 455.74C730.207 455.535 729.915 455.297 729.74 455.027C729.565 454.757 729.477 454.43 729.477 454.045C729.477 453.57 729.607 453.155 729.867 452.8C730.127 452.44 730.49 452.162 730.955 451.967C731.425 451.772 731.97 451.675 732.59 451.675C733.205 451.675 733.755 451.772 734.24 451.967C734.725 452.162 735.115 452.44 735.41 452.8C735.71 453.155 735.887 453.57 735.942 454.045L734.577 454.292C734.512 453.857 734.302 453.515 733.947 453.265C733.597 453.015 733.145 452.882 732.59 452.867C732.065 452.847 731.637 452.94 731.307 453.145C730.982 453.35 730.82 453.627 730.82 453.977C730.82 454.172 730.88 454.34 731 454.48C731.125 454.62 731.352 454.752 731.682 454.877C732.017 455.002 732.502 455.145 733.137 455.305C733.852 455.485 734.415 455.682 734.825 455.897C735.24 456.107 735.535 456.357 735.71 456.647C735.885 456.932 735.972 457.285 735.972 457.705C735.972 458.485 735.685 459.1 735.11 459.55C734.535 459.995 733.742 460.218 732.732 460.218ZM741.402 460V451.457C741.402 451.247 741.412 451.035 741.432 450.82C741.452 450.6 741.497 450.387 741.567 450.182C741.637 449.972 741.752 449.78 741.912 449.605C742.097 449.4 742.299 449.255 742.519 449.17C742.739 449.08 742.962 449.025 743.187 449.005C743.417 448.985 743.634 448.975 743.839 448.975H744.867V450.085H743.914C743.519 450.085 743.224 450.182 743.029 450.377C742.834 450.567 742.737 450.857 742.737 451.247V460H741.402ZM740.029 453.002V451.9H744.867V453.002H740.029ZM749.221 460.225C748.416 460.225 747.721 460.043 747.136 459.677C746.556 459.312 746.108 458.807 745.793 458.162C745.478 457.517 745.321 456.777 745.321 455.942C745.321 455.092 745.481 454.347 745.801 453.707C746.121 453.067 746.573 452.57 747.158 452.215C747.743 451.855 748.431 451.675 749.221 451.675C750.031 451.675 750.728 451.857 751.313 452.222C751.898 452.582 752.346 453.085 752.656 453.73C752.971 454.37 753.128 455.107 753.128 455.942C753.128 456.787 752.971 457.532 752.656 458.177C752.341 458.817 751.891 459.32 751.306 459.685C750.721 460.045 750.026 460.225 749.221 460.225ZM749.221 458.957C750.061 458.957 750.686 458.677 751.096 458.117C751.506 457.557 751.711 456.832 751.711 455.942C751.711 455.027 751.503 454.3 751.088 453.76C750.673 453.215 750.051 452.942 749.221 452.942C748.656 452.942 748.191 453.07 747.826 453.325C747.461 453.58 747.188 453.932 747.008 454.382C746.828 454.832 746.738 455.352 746.738 455.942C746.738 456.852 746.948 457.582 747.368 458.132C747.788 458.682 748.406 458.957 749.221 458.957ZM754.779 460V451.9H755.972V453.857L755.777 453.602C755.872 453.352 755.994 453.122 756.144 452.912C756.299 452.702 756.472 452.53 756.662 452.395C756.872 452.225 757.109 452.095 757.374 452.005C757.639 451.915 757.909 451.862 758.184 451.847C758.459 451.827 758.717 451.845 758.957 451.9V453.152C758.677 453.077 758.369 453.057 758.034 453.092C757.699 453.127 757.389 453.25 757.104 453.46C756.844 453.645 756.642 453.87 756.497 454.135C756.357 454.4 756.259 454.687 756.204 454.997C756.149 455.302 756.122 455.615 756.122 455.935V460H754.779ZM764.503 463.6L766.071 459.34L766.093 460.6L762.553 451.9H763.956L766.731 458.898H766.251L768.853 451.9H770.211L765.801 463.6H764.503ZM774.606 460.225C773.801 460.225 773.106 460.043 772.521 459.677C771.941 459.312 771.494 458.807 771.179 458.162C770.864 457.517 770.706 456.777 770.706 455.942C770.706 455.092 770.866 454.347 771.186 453.707C771.506 453.067 771.959 452.57 772.544 452.215C773.129 451.855 773.816 451.675 774.606 451.675C775.416 451.675 776.114 451.857 776.699 452.222C777.284 452.582 777.731 453.085 778.041 453.73C778.356 454.37 778.514 455.107 778.514 455.942C778.514 456.787 778.356 457.532 778.041 458.177C777.726 458.817 777.276 459.32 776.691 459.685C776.106 460.045 775.411 460.225 774.606 460.225ZM774.606 458.957C775.446 458.957 776.071 458.677 776.481 458.117C776.891 457.557 777.096 456.832 777.096 455.942C777.096 455.027 776.889 454.3 776.474 453.76C776.059 453.215 775.436 452.942 774.606 452.942C774.041 452.942 773.576 453.07 773.211 453.325C772.846 453.58 772.574 453.932 772.394 454.382C772.214 454.832 772.124 455.352 772.124 455.942C772.124 456.852 772.334 457.582 772.754 458.132C773.174 458.682 773.791 458.957 774.606 458.957ZM783.24 460.21C782.72 460.21 782.273 460.128 781.898 459.962C781.528 459.797 781.22 459.577 780.975 459.302C780.73 459.027 780.538 458.722 780.398 458.387C780.258 458.052 780.158 457.71 780.098 457.36C780.043 457.01 780.015 456.682 780.015 456.377V451.9H781.365V455.957C781.365 456.337 781.4 456.705 781.47 457.06C781.54 457.415 781.658 457.735 781.823 458.02C781.993 458.305 782.218 458.53 782.498 458.695C782.783 458.86 783.138 458.942 783.563 458.942C783.898 458.942 784.203 458.885 784.478 458.77C784.753 458.655 784.988 458.485 785.183 458.26C785.378 458.03 785.528 457.74 785.633 457.39C785.738 457.04 785.79 456.632 785.79 456.167L786.668 456.437C786.668 457.217 786.525 457.89 786.24 458.455C785.96 459.02 785.563 459.455 785.048 459.76C784.538 460.06 783.935 460.21 783.24 460.21ZM785.94 460V457.832H785.79V451.9H787.133V460H785.94ZM789.233 460V451.9H790.425V453.857L790.23 453.602C790.325 453.352 790.448 453.122 790.598 452.912C790.753 452.702 790.925 452.53 791.115 452.395C791.325 452.225 791.563 452.095 791.828 452.005C792.093 451.915 792.363 451.862 792.638 451.847C792.913 451.827 793.17 451.845 793.41 451.9V453.152C793.13 453.077 792.823 453.057 792.488 453.092C792.153 453.127 791.843 453.25 791.558 453.46C791.298 453.645 791.095 453.87 790.95 454.135C790.81 454.4 790.713 454.687 790.658 454.997C790.603 455.302 790.575 455.615 790.575 455.935V460H789.233ZM803.599 460V455.942C803.599 455.557 803.564 455.187 803.494 454.832C803.429 454.477 803.311 454.16 803.141 453.88C802.976 453.595 802.751 453.37 802.466 453.205C802.186 453.04 801.831 452.957 801.401 452.957C801.066 452.957 800.761 453.015 800.486 453.13C800.216 453.24 799.984 453.41 799.789 453.64C799.594 453.87 799.441 454.16 799.331 454.51C799.226 454.855 799.174 455.262 799.174 455.732L798.296 455.462C798.296 454.677 798.436 454.005 798.716 453.445C799.001 452.88 799.399 452.447 799.909 452.147C800.424 451.842 801.029 451.69 801.724 451.69C802.249 451.69 802.696 451.772 803.066 451.937C803.436 452.102 803.744 452.322 803.989 452.597C804.234 452.867 804.426 453.172 804.566 453.512C804.706 453.847 804.804 454.19 804.859 454.54C804.919 454.885 804.949 455.212 804.949 455.522V460H803.599ZM797.824 460V449.2H799.024V455.162H799.174V460H797.824ZM810.349 460.225C809.544 460.225 808.849 460.043 808.264 459.677C807.684 459.312 807.236 458.807 806.921 458.162C806.606 457.517 806.449 456.777 806.449 455.942C806.449 455.092 806.609 454.347 806.929 453.707C807.249 453.067 807.701 452.57 808.286 452.215C808.871 451.855 809.559 451.675 810.349 451.675C811.159 451.675 811.856 451.857 812.441 452.222C813.026 452.582 813.474 453.085 813.784 453.73C814.099 454.37 814.256 455.107 814.256 455.942C814.256 456.787 814.099 457.532 813.784 458.177C813.469 458.817 813.019 459.32 812.434 459.685C811.849 460.045 811.154 460.225 810.349 460.225ZM810.349 458.957C811.189 458.957 811.814 458.677 812.224 458.117C812.634 457.557 812.839 456.832 812.839 455.942C812.839 455.027 812.631 454.3 812.216 453.76C811.801 453.215 811.179 452.942 810.349 452.942C809.784 452.942 809.319 453.07 808.954 453.325C808.589 453.58 808.316 453.932 808.136 454.382C807.956 454.832 807.866 455.352 807.866 455.942C807.866 456.852 808.076 457.582 808.496 458.132C808.916 458.682 809.534 458.957 810.349 458.957ZM825.59 460L825.597 454.817C825.597 454.212 825.435 453.74 825.11 453.4C824.79 453.055 824.372 452.882 823.857 452.882C823.557 452.882 823.272 452.952 823.002 453.092C822.732 453.227 822.512 453.442 822.342 453.737C822.172 454.027 822.087 454.4 822.087 454.855L821.382 454.57C821.372 453.995 821.49 453.492 821.735 453.062C821.985 452.627 822.325 452.29 822.755 452.05C823.185 451.81 823.67 451.69 824.21 451.69C825.055 451.69 825.72 451.947 826.205 452.463C826.69 452.972 826.932 453.66 826.932 454.525L826.925 460H825.59ZM815.9 460V451.9H817.092V454.067H817.242V460H815.9ZM820.752 460L820.76 454.87C820.76 454.25 820.6 453.765 820.28 453.415C819.96 453.06 819.535 452.882 819.005 452.882C818.48 452.882 818.055 453.062 817.73 453.422C817.405 453.782 817.242 454.26 817.242 454.855L816.537 454.435C816.537 453.91 816.662 453.44 816.912 453.025C817.162 452.61 817.502 452.285 817.932 452.05C818.362 451.81 818.85 451.69 819.395 451.69C819.94 451.69 820.415 451.805 820.82 452.035C821.225 452.265 821.537 452.595 821.757 453.025C821.977 453.45 822.087 453.957 822.087 454.547L822.08 460H820.752ZM832.323 460.225C831.528 460.225 830.833 460.05 830.238 459.7C829.648 459.345 829.188 458.852 828.858 458.222C828.528 457.587 828.363 456.847 828.363 456.002C828.363 455.117 828.525 454.352 828.85 453.707C829.175 453.057 829.628 452.557 830.208 452.207C830.793 451.852 831.478 451.675 832.263 451.675C833.078 451.675 833.77 451.862 834.34 452.237C834.915 452.612 835.345 453.147 835.63 453.842C835.92 454.537 836.045 455.365 836.005 456.325H834.655V455.845C834.64 454.85 834.438 454.107 834.048 453.617C833.658 453.122 833.078 452.875 832.308 452.875C831.483 452.875 830.855 453.14 830.425 453.67C829.995 454.2 829.78 454.96 829.78 455.95C829.78 456.905 829.995 457.645 830.425 458.17C830.855 458.695 831.468 458.957 832.263 458.957C832.798 458.957 833.263 458.835 833.658 458.59C834.053 458.345 834.363 457.992 834.588 457.532L835.87 457.975C835.555 458.69 835.08 459.245 834.445 459.64C833.815 460.03 833.108 460.225 832.323 460.225ZM829.33 456.325V455.252H835.315V456.325H829.33Z" fill="#D77842"/>
<path d="M717.174 88.9447C701.604 88.4971 679.446 122.747 672.18 138.725C621.886 128.981 606.463 145.117 603.856 152.082C601.376 170.372 627.176 200.036 637.964 209.592C618.122 255.864 625.14 273.934 631.129 277.185C646.6 283.273 681.197 270.113 694.926 262.882C727.127 292.26 746.366 295.578 751.96 293.564C767.591 284.241 766.295 245.06 763.693 226.635C796.841 205.85 807.791 188.375 809.506 180.624C808.914 162.915 769.672 152.274 750.469 150.003C742.36 105.797 725.903 90.7932 717.174 88.9447Z" fill="#6A8C79" fill-opacity="0.6"/>
<path fill-rule="evenodd" clip-rule="evenodd" d="M579.295 159.483C562.804 171.851 552.383 206.627 549.233 222.469C549.166 222.716 549.1 222.965 549.033 223.214L548.947 223.042C540.645 221.229 522.264 218.69 515.164 223.042C514.687 223.328 514.019 224.187 515.737 224.473C515.963 224.511 516.554 224.567 517.424 224.649L517.424 224.649C523.423 225.214 542.656 227.025 546.657 232.776L546.771 232.704C546.214 235.313 545.691 237.989 545.2 240.718C536.402 240.94 518.831 242.737 513.087 248.424C512.688 248.812 512.234 249.801 513.972 249.687C514.201 249.672 514.789 249.591 515.655 249.472C520.964 248.741 536.691 246.578 543.769 249.404C543.311 252.446 542.888 255.535 542.498 258.654C534.438 263.067 521.017 271.821 518.538 279.022C518.352 279.546 518.383 280.634 519.891 279.762C520.089 279.647 520.581 279.314 521.305 278.824C524.871 276.407 534.066 270.177 541.483 267.516C537.997 300.871 537.933 335.959 538.64 354.166C549.806 377.07 598.323 371.174 606.053 368.884C613.783 366.593 615.941 363.328 616.514 360.751C617.086 358.175 629.111 352.735 634.264 360.751C638.387 367.164 643.998 369.34 646.289 369.627C692.325 376.498 709.561 362.183 712.424 354.166C716.392 331.633 713.841 297.56 709.873 268.05C717.5 270.3 727.864 277.335 731.703 279.941L731.704 279.942L731.705 279.943C732.427 280.433 732.918 280.766 733.116 280.881C734.622 281.754 734.647 280.673 734.46 280.151C731.743 272.364 716.168 262.697 708.556 258.746C708.083 255.568 707.6 252.468 707.113 249.47C714.072 246.55 730.066 248.76 735.429 249.501C736.294 249.621 736.883 249.702 737.111 249.718C738.849 249.834 738.393 248.853 737.993 248.467C732.187 242.769 714.352 240.974 705.64 240.764C705.091 237.645 704.547 234.684 704.017 231.913C708.863 226.67 726.991 224.978 732.782 224.438L732.782 224.438L732.783 224.437L732.785 224.437L732.786 224.437C733.654 224.356 734.244 224.301 734.47 224.264C736.188 223.98 735.52 223.129 735.042 222.846C728.188 218.684 710.821 220.883 702.157 222.657L702.117 222.469C689.233 168.359 674.918 157.766 670.624 159.483C667.188 160.858 651.633 176.28 644.284 183.819C627.565 178.093 612.696 181.433 607.352 183.819C589.029 163.434 581.012 159.102 579.295 159.483Z" fill="#A95028"/>
<path d="M549.233 222.469L549.496 222.54L549.498 222.531L549.5 222.522L549.233 222.469ZM579.295 159.483L579.236 159.218L579.179 159.231L579.132 159.266L579.295 159.483ZM549.033 223.214L548.79 223.335L549.111 223.977L549.296 223.284L549.033 223.214ZM548.947 223.042L549.19 222.92L549.132 222.804L549.005 222.776L548.947 223.042ZM515.164 223.042L515.304 223.275L515.306 223.273L515.164 223.042ZM515.737 224.473L515.781 224.205H515.781L515.737 224.473ZM517.424 224.649L517.454 224.379L517.449 224.378L517.424 224.649ZM517.424 224.649L517.394 224.919L517.399 224.919L517.424 224.649ZM546.657 232.776L546.434 232.931L546.582 233.144L546.802 233.006L546.657 232.776ZM546.771 232.704L547.037 232.76L547.172 232.129L546.626 232.474L546.771 232.704ZM545.2 240.718L545.207 240.989L545.429 240.984L545.468 240.766L545.2 240.718ZM513.087 248.424L513.276 248.619L513.278 248.617L513.087 248.424ZM513.972 249.687L513.99 249.958H513.99L513.972 249.687ZM515.655 249.472L515.692 249.741H515.692L515.655 249.472ZM543.769 249.404L544.038 249.445L544.07 249.232L543.87 249.152L543.769 249.404ZM542.498 258.654L542.628 258.892L542.75 258.825L542.767 258.687L542.498 258.654ZM518.538 279.022L518.794 279.112L518.795 279.11L518.538 279.022ZM519.891 279.762L520.027 279.997L520.027 279.997L519.891 279.762ZM521.305 278.824L521.457 279.049L521.305 278.824ZM541.483 267.516L541.753 267.544L541.798 267.114L541.391 267.26L541.483 267.516ZM538.64 354.166L538.369 354.177L538.371 354.234L538.396 354.285L538.64 354.166ZM606.053 368.884L605.975 368.623L606.053 368.884ZM616.514 360.751L616.779 360.81L616.514 360.751ZM634.264 360.751L634.036 360.898L634.264 360.751ZM646.289 369.627L646.329 369.358L646.322 369.357L646.289 369.627ZM712.424 354.166L712.679 354.258L712.687 354.236L712.691 354.214L712.424 354.166ZM709.873 268.05L709.95 267.79L709.548 267.671L709.604 268.087L709.873 268.05ZM731.703 279.941L731.856 279.717L731.855 279.716L731.703 279.941ZM731.704 279.942L731.551 280.166L731.551 280.167L731.704 279.942ZM731.705 279.943L731.858 279.718L731.858 279.718L731.705 279.943ZM733.116 280.881L732.979 281.116L733.116 280.881ZM734.46 280.151L734.203 280.24L734.204 280.242L734.46 280.151ZM708.556 258.746L708.287 258.786L708.308 258.924L708.431 258.988L708.556 258.746ZM707.113 249.47L707.008 249.22L706.81 249.302L706.845 249.514L707.113 249.47ZM735.429 249.501L735.466 249.232L735.429 249.501ZM737.111 249.718L737.13 249.446L737.111 249.718ZM737.993 248.467L737.803 248.661L737.804 248.663L737.993 248.467ZM705.64 240.764L705.372 240.811L705.411 241.03L705.633 241.036L705.64 240.764ZM704.017 231.913L703.817 231.729L703.724 231.829L703.75 231.964L704.017 231.913ZM732.782 224.438L732.763 224.167L732.757 224.167L732.782 224.438ZM732.782 224.438L732.802 224.708L732.803 224.708L732.782 224.438ZM732.783 224.437L732.804 224.708L732.808 224.708L732.783 224.437ZM732.785 224.437L732.81 224.708L732.814 224.707L732.785 224.437ZM732.786 224.437L732.761 224.167L732.758 224.167L732.786 224.437ZM734.47 224.264L734.514 224.532H734.514L734.47 224.264ZM735.042 222.846L734.901 223.078L734.904 223.079L735.042 222.846ZM702.157 222.657L701.891 222.713L701.947 222.977L702.211 222.923L702.157 222.657ZM702.117 222.469L702.383 222.413L702.381 222.406L702.117 222.469ZM670.624 159.483L670.523 159.231V159.231L670.624 159.483ZM644.284 183.819L644.196 184.076L644.359 184.131L644.479 184.008L644.284 183.819ZM607.352 183.819L607.15 184L607.282 184.147L607.463 184.067L607.352 183.819ZM549.5 222.522C551.071 214.616 554.459 201.979 559.512 189.777C564.569 177.565 571.274 165.838 579.458 159.701L579.132 159.266C570.824 165.497 564.073 177.342 559.01 189.57C553.942 201.809 550.544 214.48 548.967 222.416L549.5 222.522ZM549.296 223.284C549.362 223.035 549.429 222.787 549.496 222.54L548.971 222.398C548.904 222.646 548.837 222.894 548.771 223.144L549.296 223.284ZM548.704 223.163L548.79 223.335L549.276 223.092L549.19 222.92L548.704 223.163ZM515.306 223.273C517.032 222.215 519.467 221.564 522.303 221.221C525.134 220.877 528.34 220.843 531.591 221.001C538.094 221.318 544.749 222.403 548.889 223.307L549.005 222.776C544.842 221.867 538.156 220.777 531.618 220.459C528.349 220.299 525.109 220.333 522.238 220.681C519.371 221.029 516.846 221.692 515.022 222.81L515.306 223.273ZM515.781 224.205C515.37 224.137 515.138 224.039 515.016 223.95C514.906 223.87 514.897 223.808 514.899 223.769C514.901 223.709 514.936 223.621 515.02 223.518C515.102 223.419 515.209 223.332 515.304 223.275L515.024 222.809C514.881 222.895 514.725 223.022 514.601 223.174C514.479 223.321 514.365 223.52 514.356 223.746C514.345 223.993 514.462 224.218 514.695 224.388C514.916 224.55 515.244 224.667 515.692 224.741L515.781 224.205ZM517.449 224.378C516.572 224.295 515.995 224.241 515.781 224.205L515.692 224.741C515.931 224.781 516.537 224.838 517.399 224.919L517.449 224.378ZM517.455 224.379L517.454 224.379L517.394 224.919L517.394 224.919L517.455 224.379ZM546.88 232.621C545.832 231.115 543.817 229.899 541.346 228.907C538.865 227.911 535.881 227.124 532.844 226.501C526.77 225.256 520.448 224.661 517.45 224.378L517.399 224.919C520.399 225.202 526.693 225.795 532.735 227.034C535.757 227.653 538.706 228.433 541.144 229.411C543.592 230.394 545.481 231.561 546.434 232.931L546.88 232.621ZM546.626 232.474L546.512 232.546L546.802 233.006L546.916 232.933L546.626 232.474ZM545.468 240.766C545.958 238.04 546.481 235.367 547.037 232.76L546.506 232.647C545.948 235.26 545.424 237.938 544.933 240.67L545.468 240.766ZM513.278 248.617C514.675 247.234 516.808 246.072 519.386 245.106C521.959 244.142 524.953 243.381 528.049 242.788C534.242 241.604 540.819 241.1 545.207 240.989L545.194 240.446C540.784 240.557 534.176 241.063 527.947 242.255C524.833 242.85 521.807 243.619 519.195 244.598C516.588 245.575 514.371 246.77 512.896 248.231L513.278 248.617ZM513.954 249.416C513.538 249.443 513.289 249.401 513.15 249.342C513.025 249.289 513.002 249.231 512.995 249.192C512.984 249.133 512.998 249.04 513.056 248.921C513.113 248.806 513.197 248.696 513.276 248.619L512.898 248.229C512.778 248.346 512.655 248.505 512.569 248.681C512.484 248.853 512.419 249.072 512.461 249.295C512.508 249.537 512.673 249.73 512.938 249.842C513.19 249.949 513.537 249.987 513.99 249.958L513.954 249.416ZM515.618 249.203C514.744 249.323 514.17 249.401 513.954 249.416L513.99 249.958C514.231 249.942 514.834 249.859 515.692 249.741L515.618 249.203ZM543.87 249.152C540.27 247.714 534.513 247.554 529.035 247.833C523.542 248.112 518.272 248.837 515.618 249.203L515.692 249.741C518.346 249.376 523.595 248.654 529.063 248.375C534.545 248.096 540.191 248.268 543.669 249.656L543.87 249.152ZM542.767 258.687C543.157 255.57 543.58 252.484 544.038 249.445L543.501 249.364C543.042 252.408 542.619 255.499 542.228 258.62L542.767 258.687ZM518.795 279.11C519.398 277.36 520.674 275.495 522.395 273.605C524.114 271.718 526.263 269.821 528.592 268.007C533.25 264.378 538.607 261.094 542.628 258.892L542.367 258.415C538.329 260.627 532.946 263.927 528.258 267.578C525.915 269.404 523.74 271.322 521.993 273.239C520.25 275.154 518.918 277.083 518.281 278.933L518.795 279.11ZM519.755 279.527C519.394 279.736 519.152 279.808 519.001 279.817C518.866 279.825 518.82 279.783 518.796 279.751C518.76 279.703 518.731 279.614 518.731 279.481C518.731 279.352 518.757 279.217 518.794 279.112L518.282 278.931C518.226 279.088 518.187 279.286 518.187 279.482C518.188 279.673 518.226 279.899 518.363 280.079C518.512 280.277 518.745 280.376 519.033 280.359C519.306 280.343 519.634 280.224 520.027 279.997L519.755 279.527ZM521.152 278.599C520.422 279.093 519.942 279.418 519.755 279.527L520.027 279.997C520.236 279.876 520.74 279.534 521.457 279.049L521.152 278.599ZM541.391 267.26C533.936 269.935 524.712 276.187 521.152 278.599L521.457 279.049C525.031 276.627 534.197 270.419 541.574 267.772L541.391 267.26ZM538.912 354.156C538.204 335.958 538.269 300.883 541.753 267.544L541.212 267.488C537.725 300.858 537.661 335.96 538.369 354.177L538.912 354.156ZM605.975 368.623C602.148 369.757 588.12 371.803 573.655 370.702C566.426 370.152 559.105 368.817 552.903 366.2C546.701 363.584 541.638 359.695 538.884 354.047L538.396 354.285C541.226 360.089 546.414 364.053 552.691 366.701C558.968 369.349 566.353 370.691 573.614 371.244C588.132 372.348 602.227 370.3 606.13 369.144L605.975 368.623ZM616.248 360.692C615.974 361.928 615.319 363.338 613.785 364.723C612.247 366.112 609.815 367.485 605.975 368.623L606.13 369.144C610.02 367.991 612.533 366.587 614.149 365.126C615.77 363.662 616.481 362.151 616.779 360.81L616.248 360.692ZM634.493 360.604C631.833 356.467 627.402 355.821 623.622 356.512C621.73 356.857 619.983 357.539 618.668 358.302C618.01 358.683 617.454 359.088 617.041 359.487C616.634 359.88 616.337 360.292 616.248 360.692L616.779 360.81C616.833 360.566 617.037 360.245 617.418 359.878C617.792 359.518 618.309 359.138 618.94 358.772C620.202 358.041 621.89 357.38 623.72 357.046C627.384 356.377 631.542 357.019 634.036 360.898L634.493 360.604ZM646.322 369.357C644.111 369.081 638.571 366.949 634.493 360.604L634.036 360.898C638.202 367.38 643.885 369.6 646.255 369.896L646.322 369.357ZM712.168 354.075C710.773 357.981 705.829 363.518 695.455 367.223C685.087 370.926 669.317 372.789 646.329 369.358L646.248 369.895C669.297 373.335 685.163 371.476 695.638 367.735C706.106 363.997 711.211 358.368 712.679 354.258L712.168 354.075ZM709.604 268.087C713.572 297.596 716.116 331.631 712.156 354.119L712.691 354.214C716.667 331.634 714.111 297.524 710.143 268.014L709.604 268.087ZM731.855 279.716C729.936 278.413 726.378 275.999 722.346 273.628C718.318 271.26 713.797 268.924 709.95 267.79L709.796 268.311C713.577 269.426 718.051 271.733 722.071 274.096C726.087 276.457 729.631 278.863 731.55 280.166L731.855 279.716ZM731.857 279.717L731.856 279.717L731.55 280.166L731.551 280.166L731.857 279.717ZM731.858 279.718L731.856 279.717L731.551 280.167L731.553 280.167L731.858 279.718ZM733.252 280.646C733.065 280.537 732.586 280.212 731.858 279.718L731.553 280.167C732.268 280.653 732.77 280.994 732.979 281.116L733.252 280.646ZM734.204 280.242C734.241 280.347 734.269 280.481 734.269 280.609C734.269 280.741 734.241 280.829 734.206 280.875C734.184 280.905 734.14 280.946 734.005 280.938C733.854 280.928 733.613 280.855 733.252 280.646L732.979 281.116C733.372 281.343 733.698 281.463 733.97 281.48C734.258 281.498 734.49 281.4 734.64 281.203C734.776 281.023 734.813 280.797 734.812 280.607C734.812 280.412 734.772 280.216 734.715 280.059L734.204 280.242ZM708.431 258.988C712.227 260.958 718.01 264.354 723.181 268.227C725.766 270.164 728.192 272.216 730.14 274.264C732.09 276.316 733.543 278.347 734.203 280.24L734.716 280.061C734.018 278.061 732.505 275.964 730.533 273.89C728.558 271.812 726.106 269.74 723.506 267.793C718.307 263.898 712.497 260.486 708.681 258.505L708.431 258.988ZM706.845 249.514C707.332 252.51 707.815 255.609 708.287 258.786L708.825 258.707C708.352 255.527 707.868 252.426 707.381 249.426L706.845 249.514ZM735.466 249.232C732.785 248.862 727.435 248.122 721.883 247.841C719.107 247.701 716.276 247.675 713.699 247.868C711.126 248.06 708.787 248.473 707.008 249.22L707.218 249.72C708.918 249.007 711.189 248.601 713.739 248.41C716.286 248.219 719.093 248.244 721.856 248.384C727.382 248.663 732.71 249.4 735.391 249.77L735.466 249.232ZM737.13 249.446C736.913 249.432 736.339 249.353 735.466 249.232L735.391 249.77C736.249 249.889 736.852 249.972 737.093 249.989L737.13 249.446ZM737.804 248.663C737.884 248.74 737.968 248.849 738.025 248.963C738.084 249.081 738.098 249.173 738.087 249.23C738.08 249.266 738.059 249.322 737.934 249.375C737.794 249.433 737.546 249.474 737.13 249.446L737.093 249.989C737.546 250.019 737.892 249.981 738.143 249.876C738.409 249.765 738.574 249.574 738.62 249.331C738.663 249.109 738.596 248.891 738.511 248.721C738.424 248.546 738.301 248.388 738.181 248.272L737.804 248.663ZM705.633 241.036C709.979 241.14 716.6 241.64 722.856 242.824C725.984 243.416 729.014 244.178 731.619 245.144C734.229 246.111 736.391 247.276 737.803 248.661L738.183 248.274C736.692 246.81 734.447 245.613 731.808 244.634C729.164 243.654 726.102 242.886 722.957 242.29C716.666 241.1 710.014 240.598 705.646 240.492L705.633 241.036ZM703.75 231.964C704.28 234.733 704.824 237.693 705.372 240.811L705.907 240.717C705.358 237.597 704.814 234.634 704.284 231.862L703.75 231.964ZM732.757 224.167C729.862 224.437 723.869 224.996 717.993 226.145C715.055 226.719 712.138 227.443 709.648 228.354C707.165 229.262 705.074 230.369 703.817 231.729L704.216 232.097C705.383 230.835 707.374 229.764 709.835 228.864C712.287 227.966 715.173 227.25 718.097 226.678C723.944 225.535 729.911 224.978 732.807 224.708L732.757 224.167ZM732.763 224.167L732.763 224.167L732.801 224.709L732.802 224.708L732.763 224.167ZM732.762 224.167L732.762 224.167L732.803 224.708L732.804 224.708L732.762 224.167ZM732.76 224.167L732.758 224.167L732.808 224.708L732.81 224.708L732.76 224.167ZM732.758 224.167L732.757 224.167L732.814 224.707L732.815 224.707L732.758 224.167ZM734.426 223.996C734.212 224.031 733.637 224.085 732.761 224.167L732.812 224.708C733.671 224.627 734.276 224.571 734.514 224.532L734.426 223.996ZM734.904 223.079C734.999 223.136 735.106 223.222 735.187 223.32C735.271 223.422 735.305 223.508 735.308 223.566C735.309 223.603 735.302 223.663 735.192 223.742C735.07 223.831 734.837 223.928 734.426 223.996L734.514 224.532C734.961 224.458 735.29 224.342 735.51 224.183C735.744 224.014 735.861 223.79 735.851 223.543C735.841 223.318 735.726 223.12 735.605 222.974C735.48 222.823 735.325 222.697 735.181 222.612L734.904 223.079ZM702.211 222.923C706.533 222.038 713.026 221.047 719.289 220.797C722.421 220.671 725.489 220.731 728.196 221.08C730.908 221.43 733.235 222.066 734.901 223.078L735.183 222.613C733.423 221.544 731.009 220.895 728.266 220.541C725.518 220.187 722.417 220.128 719.268 220.254C712.968 220.506 706.445 221.502 702.102 222.39L702.211 222.923ZM701.851 222.525L701.891 222.713L702.422 222.6L702.383 222.413L701.851 222.525ZM670.725 159.736C671.663 159.36 673.258 159.629 675.383 161.209C677.493 162.778 680.066 165.602 682.919 170.184C688.623 179.347 695.414 195.491 701.853 222.532L702.381 222.406C695.936 195.337 689.128 179.129 683.38 169.897C680.507 165.282 677.891 162.397 675.707 160.773C673.537 159.159 671.732 158.748 670.523 159.231L670.725 159.736ZM644.479 184.008C648.152 180.24 653.875 174.503 659.109 169.536C661.726 167.053 664.218 164.764 666.269 163.012C667.295 162.136 668.207 161.395 668.969 160.833C669.736 160.266 670.331 159.893 670.725 159.736L670.523 159.231C670.058 159.417 669.415 159.827 668.646 160.396C667.87 160.969 666.947 161.718 665.916 162.599C663.854 164.36 661.354 166.656 658.735 169.142C653.494 174.115 647.766 179.858 644.09 183.629L644.479 184.008ZM607.463 184.067C612.751 181.706 627.549 178.374 644.196 184.076L644.372 183.562C627.581 177.811 612.641 181.16 607.241 183.571L607.463 184.067ZM579.354 159.749C579.502 159.715 579.763 159.727 580.166 159.844C580.563 159.959 581.071 160.168 581.7 160.499C582.959 161.159 584.68 162.291 586.927 164.076C591.42 167.647 597.994 173.814 607.15 184L607.554 183.637C598.387 173.439 591.791 167.247 587.265 163.651C585.003 161.853 583.253 160.699 581.953 160.018C581.303 159.677 580.76 159.451 580.318 159.322C579.882 159.196 579.516 159.156 579.236 159.218L579.354 159.749Z" fill="#A95028"/>
<ellipse cx="581.431" cy="232.318" rx="5.72597" ry="8.87526" fill="white"/>
<ellipse cx="670.756" cy="232.318" rx="5.72597" ry="8.87526" fill="white"/>
<path d="M624.949 223.444C613.268 223.902 609.584 228.979 609.202 231.46C609.202 235.755 614.069 234.609 616.073 233.75C618.077 232.892 619.223 233.178 620.94 235.755C622.658 238.331 622.944 242.339 626.094 242.339C629.243 242.339 630.388 238.904 630.961 235.755C631.419 233.235 634.587 233.369 636.114 233.75C641.382 236.041 642.985 233.178 642.699 231.46C641.84 228.311 636.63 222.986 624.949 223.444Z" fill="white"/>
<path d="M625.807 258.945C616.623 259.922 606.331 281.808 603.335 291.773C573.007 290.054 565.23 300.762 564.253 305.061C564.253 316.004 581.775 331.377 588.875 336.132C580.902 364.896 586.465 374.953 590.242 376.386C599.818 378.731 619.098 368.244 626.589 362.903C647.849 377.598 659.418 378.014 662.544 376.386C670.986 369.664 667.104 346.749 664.108 336.132C681.929 321.28 686.971 310.142 687.361 305.452C685.603 295.095 661.697 291.969 650.233 292.164C641.948 266.839 631.083 259.335 625.807 258.945Z" fill="white"/>
<path d="M621.669 354.601C616.602 369.456 594.189 371.503 586.11 371.208L563.681 329.117C584.245 330.197 626.737 339.745 621.669 354.601Z" fill="#A95028" stroke="#A95028" stroke-width="0.543306"/>
<path d="M633.427 353.416C638.731 368.269 657.433 371.697 665.89 371.403L691.37 331.607C669.846 332.688 628.122 338.562 633.427 353.416Z" fill="#A95028" stroke="#A95028" stroke-width="0.543306"/>
<circle cx="25" cy="53" r="188" fill="#EDB586" fill-opacity="0.8"/>
<path d="M85.1345 125.525C72.266 125.155 53.9526 153.462 47.9478 166.668C6.38043 158.614 -6.3671 171.951 -8.52167 177.707C-10.5709 192.824 10.752 217.34 19.6682 225.238C3.26955 263.481 9.06954 278.416 14.0194 281.103C26.8056 286.135 55.4002 275.258 66.7467 269.282C93.3607 293.563 109.261 296.305 113.884 294.64C126.803 286.935 125.732 254.552 123.582 239.324C150.978 222.145 160.028 207.703 161.446 201.297C160.956 186.661 128.523 177.866 112.652 175.989C105.95 139.453 92.3488 127.053 85.1345 125.525Z" fill="#6A8C79" fill-opacity="0.6"/>
<circle cx="1186" cy="422" r="136" fill="#88A394" fill-opacity="0.8"/>
<circle cx="1108.18" cy="360.185" r="84.6135" transform="rotate(148.846 1108.18 360.185)" fill="#F4E8D1" fill-opacity="0.8"/>
<path d="M1044.08 47.5513C1034.81 44.3805 1015.11 60.8319 1007.77 69.0796C979.356 53.8506 967.08 60.6728 964.216 64.3718C959.318 74.9007 969.296 97.534 973.999 105.287C953.453 129.394 954.304 141.561 957.297 144.63C965.461 151.172 988.706 149.712 998.303 147.926C1012.18 171.581 1023.13 177.16 1026.86 176.992C1037.99 174.303 1044.52 150.517 1046.39 138.961C1070.18 132.648 1080.02 124.188 1082.49 119.85C1085.43 109.098 1063.83 95.3903 1052.72 90.4471C1056.08 62.3717 1048.98 50.2889 1044.08 47.5513Z" fill="#A95028" fill-opacity="0.8"/>
<path d="M284.688 395.542C278.634 397.772 275.39 414.268 275.057 421.49C254.225 425.527 250.78 434.067 250.851 437.129C252.713 444.495 267.197 451.843 272.815 453.828C272.312 474.557 277.791 480.375 280.594 480.692C287.478 480.631 298.75 470.269 302.914 465.391C319.814 471.642 327.72 469.942 329.56 468.31C334.133 462.339 327.603 447.578 323.766 440.944C333.308 427.894 334.826 419.532 334.293 416.308C331.338 409.637 314.616 411.627 306.886 413.722C296.963 398.092 288.328 394.901 284.688 395.542Z" fill="#A95028"/>
</g>
<defs>
<linearGradient id="paint0_linear_2269_3277" x1="746.099" y1="299.49" x2="820.65" y2="304.902" gradientUnits="userSpaceOnUse">
<stop stop-color="#EDB586"/>
<stop offset="1" stop-color="#A95028"/>
</linearGradient>
<linearGradient id="paint1_linear_2269_3277" x1="694.266" y1="292.732" x2="784.018" y2="299.768" gradientUnits="userSpaceOnUse">
<stop stop-color="#EDB586"/>
<stop offset="1" stop-color="#A95028"/>
</linearGradient>
<linearGradient id="paint2_linear_2269_3277" x1="705.799" y1="321.251" x2="746.368" y2="337.573" gradientUnits="userSpaceOnUse">
<stop stop-color="#EDB586"/>
<stop offset="1" stop-color="#A95028"/>
</linearGradient>
<linearGradient id="paint3_linear_2269_3277" x1="703.254" y1="324.674" x2="729.073" y2="325.459" gradientUnits="userSpaceOnUse">
<stop stop-color="#EDB586"/>
<stop offset="1" stop-color="#A95028"/>
</linearGradient>
<linearGradient id="paint4_linear_2269_3277" x1="594.977" y1="290.245" x2="724.995" y2="305.545" gradientUnits="userSpaceOnUse">
<stop stop-color="#EDB586"/>
<stop offset="1" stop-color="#A95028"/>
</linearGradient>
<linearGradient id="paint5_linear_2269_3277" x1="502.974" y1="300.622" x2="578.566" y2="316.621" gradientUnits="userSpaceOnUse">
<stop stop-color="#EDB586"/>
<stop offset="1" stop-color="#A95028"/>
</linearGradient>
<linearGradient id="paint6_linear_2269_3277" x1="579.615" y1="312.757" x2="649.555" y2="323.54" gradientUnits="userSpaceOnUse">
<stop stop-color="#EDB586"/>
<stop offset="1" stop-color="#A95028"/>
</linearGradient>
<linearGradient id="paint7_linear_2269_3277" x1="449.603" y1="292.767" x2="533.203" y2="298.697" gradientUnits="userSpaceOnUse">
<stop stop-color="#EDB586"/>
<stop offset="1" stop-color="#A95028"/>
</linearGradient>
<linearGradient id="paint8_linear_2269_3277" x1="409.246" y1="293.557" x2="489.37" y2="299.374" gradientUnits="userSpaceOnUse">
<stop stop-color="#EDB586"/>
<stop offset="1" stop-color="#A95028"/>
</linearGradient>
<linearGradient id="paint9_linear_2269_3277" x1="484.167" y1="291.564" x2="670.535" y2="319.836" gradientUnits="userSpaceOnUse">
<stop stop-color="#EDB586"/>
<stop offset="1" stop-color="#A95028"/>
</linearGradient>
<linearGradient id="paint10_linear_2269_3277" x1="484.167" y1="291.564" x2="670.535" y2="319.836" gradientUnits="userSpaceOnUse">
<stop stop-color="#EDB586"/>
<stop offset="1" stop-color="#A95028"/>
</linearGradient>
<clipPath id="clip0_2269_3277">
<rect width="1280" height="540.5" fill="white"/>
</clipPath>
</defs>
</svg>
