<svg width="576" height="337" viewBox="0 0 576 337" fill="none" xmlns="http://www.w3.org/2000/svg">
<rect width="576" height="336.75" fill="#F4E8D1"/>
<circle cx="195.621" cy="160.5" r="110.5" fill="#BACAB5"/>
<path d="M318.057 268.773C318.057 268.414 317.716 268.092 317.035 267.805C316.354 267.518 315.511 267.195 314.507 266.837C313.504 266.443 312.41 265.995 311.227 265.493C310.044 264.991 308.951 264.345 307.947 263.557C306.943 262.768 306.101 261.8 305.42 260.653C304.739 259.506 304.398 258.126 304.398 256.512C304.398 254.899 304.828 253.465 305.689 252.211C306.585 250.956 307.696 249.916 309.023 249.092C310.385 248.231 311.855 247.586 313.432 247.156C315.009 246.726 316.497 246.51 317.895 246.51C319.401 246.51 320.871 246.636 322.305 246.887C323.739 247.138 324.993 247.622 326.069 248.339C327.18 249.02 328.058 249.97 328.704 251.189C329.385 252.372 329.725 253.913 329.725 255.813C329.725 256.351 329.69 256.943 329.618 257.588C329.546 258.197 329.403 258.771 329.188 259.309C329.008 259.811 328.722 260.241 328.327 260.599C327.933 260.922 327.413 261.083 326.768 261.083C325.692 261.083 324.832 260.886 324.187 260.492C323.577 260.097 323.093 259.613 322.735 259.04C322.376 258.466 322.072 257.839 321.821 257.158C321.606 256.477 321.355 255.849 321.068 255.276C320.781 254.702 320.405 254.218 319.939 253.824C319.473 253.429 318.827 253.232 318.003 253.232C317.107 253.232 316.515 253.519 316.228 254.093C315.977 254.666 315.852 255.509 315.852 256.62C315.852 257.982 316.192 259.076 316.874 259.9C317.591 260.725 318.469 261.424 319.508 261.997C320.584 262.571 321.731 263.091 322.95 263.557C324.205 264.023 325.352 264.543 326.391 265.116C327.467 265.69 328.345 266.407 329.026 267.267C329.743 268.128 330.102 269.257 330.102 270.655C330.102 272.268 329.636 273.666 328.704 274.849C327.772 275.996 326.607 276.946 325.208 277.699C323.81 278.452 322.305 279.008 320.691 279.366C319.078 279.725 317.591 279.904 316.228 279.904C315.009 279.904 313.683 279.761 312.249 279.474C310.815 279.187 309.471 278.721 308.216 278.076C306.997 277.395 305.975 276.534 305.151 275.495C304.326 274.455 303.914 273.182 303.914 271.677C303.914 270.386 304.29 269.275 305.043 268.343C305.796 267.411 306.854 266.945 308.216 266.945C309.184 266.945 309.99 267.106 310.636 267.428C311.317 267.751 311.944 268.11 312.518 268.504C313.091 268.862 313.683 269.203 314.292 269.526C314.902 269.848 315.619 270.01 316.443 270.01C316.694 270.01 317.017 269.956 317.411 269.848C317.841 269.705 318.057 269.346 318.057 268.773Z" fill="url(#paint0_linear_2269_3548)"/>
<path d="M270.554 267.376C270.554 264.266 270.92 261.522 271.651 259.144C272.42 256.766 273.499 254.772 274.889 253.162C276.279 251.553 277.962 250.345 279.938 249.54C281.914 248.699 284.109 248.278 286.523 248.278C288.718 248.278 290.767 248.681 292.67 249.486C294.572 250.254 296.218 251.278 297.609 252.559C299.036 253.803 300.133 255.229 300.901 256.839C301.706 258.449 302.109 260.077 302.109 261.723C302.109 265.162 300.225 266.882 296.456 266.882C295.322 266.882 294.371 266.754 293.603 266.498C292.834 266.205 292.212 265.839 291.737 265.4C291.261 264.925 290.914 264.376 290.694 263.754C290.475 263.132 290.365 262.473 290.365 261.778C290.365 260.644 290.145 259.638 289.706 258.76C289.267 257.882 288.481 257.443 287.346 257.443C286.688 257.443 285.993 257.662 285.261 258.101C284.566 258.54 283.926 259.144 283.34 259.912C282.755 260.681 282.279 261.595 281.914 262.656C281.548 263.681 281.365 264.797 281.365 266.004C281.365 267.98 281.822 269.571 282.737 270.778C283.651 271.986 285.005 272.589 286.798 272.589C287.529 272.589 288.225 272.48 288.883 272.26C289.578 272.004 290.255 271.73 290.914 271.437C291.609 271.108 292.304 270.833 292.999 270.614C293.694 270.358 294.389 270.23 295.084 270.23C297.389 270.23 298.999 270.76 299.914 271.821C300.828 272.882 301.286 274.492 301.286 276.65C301.286 276.797 301.249 276.943 301.176 277.089C301.139 277.199 301.084 277.364 301.011 277.583C300.572 278.754 299.877 279.833 298.926 280.821C297.975 281.772 296.822 282.595 295.468 283.291C294.115 284.022 292.597 284.571 290.914 284.937C289.231 285.339 287.438 285.541 285.535 285.541C283.304 285.541 281.273 285.12 279.444 284.278C277.615 283.437 276.042 282.23 274.724 280.656C273.407 279.083 272.383 277.181 271.651 274.949C270.92 272.681 270.554 270.156 270.554 267.376Z" fill="url(#paint1_linear_2269_3548)"/>
<path d="M265.77 234.681C264.636 234.475 262.635 236.73 261.925 237.817C258.358 236.543 257.05 237.55 256.782 238.03C256.397 239.339 257.951 241.795 258.633 242.614C256.667 245.774 256.978 247.173 257.379 247.478C258.442 248.095 261.118 247.52 262.202 247.145C264.228 249.651 265.597 250.108 266.028 250.024C267.275 249.517 267.617 246.639 267.633 245.263C270.288 244.115 271.283 242.96 271.495 242.412C271.649 241.112 268.9 239.896 267.522 239.515C267.422 236.194 266.387 234.914 265.77 234.681Z" fill="url(#paint2_linear_2269_3548)"/>
<path d="M259.253 272.357C259.253 272.104 259.253 271.763 259.253 271.333C259.253 270.877 259.24 270.397 259.215 269.891C259.215 269.36 259.215 268.816 259.215 268.259C259.215 267.703 259.215 267.172 259.215 266.666C259.215 266.337 259.215 265.806 259.215 265.072C259.24 264.339 259.278 263.529 259.329 262.644C259.405 261.758 259.518 260.848 259.67 259.912C259.822 258.951 260.037 258.091 260.315 257.332C260.593 256.548 260.948 255.903 261.378 255.397C261.833 254.891 262.377 254.638 263.009 254.638C263.186 254.638 263.338 254.651 263.464 254.676C263.616 254.701 263.768 254.739 263.92 254.79C265.437 255.296 266.538 256.307 267.221 257.825C267.904 259.343 268.245 261.543 268.245 264.427C268.245 265.54 268.195 266.817 268.093 268.259C268.017 269.676 267.904 271.092 267.752 272.509C267.6 273.9 267.423 275.19 267.221 276.379C267.044 277.568 266.854 278.491 266.652 279.149C265.994 281.147 264.906 282.146 263.388 282.146C262.048 282.146 261.023 281.299 260.315 279.604C259.607 277.935 259.253 275.519 259.253 272.357Z" fill="url(#paint3_linear_2269_3548)"/>
<path d="M215.663 244.878C216.433 244.878 217.069 245.051 217.57 245.398C218.071 245.745 218.495 246.13 218.841 246.554C219.227 246.939 219.554 247.305 219.824 247.652C220.132 247.999 220.46 248.172 220.806 248.172C221.153 248.172 221.539 247.999 221.962 247.652C222.425 247.267 223.003 246.862 223.696 246.438C224.39 246.014 225.199 245.629 226.123 245.282C227.087 244.897 228.223 244.704 229.533 244.704C230.497 244.704 231.325 244.974 232.018 245.514C232.712 246.053 233.348 246.65 233.926 247.305C234.504 247.922 235.062 248.5 235.602 249.039C236.141 249.578 236.719 249.848 237.335 249.848C237.952 249.848 238.511 249.598 239.011 249.097C239.512 248.557 240.09 247.979 240.745 247.363C241.4 246.747 242.19 246.188 243.115 245.687C244.078 245.148 245.292 244.878 246.756 244.878C249.53 244.878 251.765 246.323 253.46 249.212C255.194 252.102 256.061 256.205 256.061 261.522C256.061 262.987 255.964 264.508 255.772 266.088C255.618 267.668 255.406 269.19 255.136 270.654C254.866 272.079 254.558 273.389 254.211 274.584C253.903 275.74 253.595 276.664 253.287 277.358C252.747 278.475 251.957 279.342 250.917 279.959C249.877 280.614 248.663 280.941 247.276 280.941C246.236 280.941 245.446 280.768 244.906 280.421C244.406 280.074 244.04 279.612 243.808 279.034C243.577 278.417 243.462 277.724 243.462 276.953C243.462 276.144 243.462 275.316 243.462 274.468C243.462 271.733 243.596 269.248 243.866 267.013C244.174 264.74 244.329 262.601 244.329 260.598C244.329 259.442 244.232 258.652 244.04 258.228C243.847 257.766 243.442 257.535 242.826 257.535C242.518 257.535 242.209 257.708 241.901 258.055C241.631 258.402 241.381 258.806 241.15 259.268C240.919 259.731 240.726 260.212 240.572 260.713C240.456 261.176 240.399 261.561 240.399 261.869C240.399 263.873 240.302 265.934 240.11 268.053C239.955 270.172 239.609 272.099 239.069 273.833C238.568 275.566 237.836 276.992 236.873 278.109C235.948 279.227 234.696 279.785 233.117 279.785C231.498 279.785 230.304 279.381 229.533 278.572C228.763 277.762 228.377 276.318 228.377 274.237C228.377 271.424 228.416 269.016 228.493 267.013C228.57 264.971 228.609 263.025 228.609 261.176C228.609 260.212 228.474 259.403 228.204 258.748C227.934 258.055 227.337 257.708 226.412 257.708C225.719 257.708 225.141 258.074 224.679 258.806C224.255 259.538 223.908 260.405 223.638 261.407C223.407 262.37 223.234 263.333 223.118 264.297C223.003 265.26 222.945 265.973 222.945 266.435C222.945 268.13 222.926 269.806 222.887 271.463C222.849 273.12 222.675 274.622 222.367 275.971C222.097 277.281 221.635 278.34 220.98 279.15C220.325 279.959 219.362 280.363 218.09 280.363C215.586 280.363 213.736 278.456 212.542 274.642C212.234 273.64 211.925 272.426 211.617 271.001C211.309 269.537 211.039 267.995 210.808 266.377C210.577 264.759 210.384 263.121 210.23 261.465C210.076 259.808 209.999 258.267 209.999 256.841C209.999 255.107 210.115 253.508 210.346 252.044C210.577 250.58 210.924 249.328 211.386 248.288C211.887 247.209 212.484 246.38 213.178 245.803C213.91 245.186 214.738 244.878 215.663 244.878Z" fill="url(#paint4_linear_2269_3548)"/>
<path d="M132.235 246.596C132.941 246.686 133.535 246.862 134.017 247.124C134.5 247.386 134.953 247.658 135.376 247.941C135.827 248.228 136.265 248.498 136.692 248.753C137.118 249.008 137.614 249.171 138.178 249.243C138.855 249.329 139.379 249.267 139.75 249.056C140.124 248.816 140.472 248.56 140.794 248.285C141.147 247.986 141.537 247.734 141.965 247.531C142.424 247.302 143.077 247.242 143.923 247.349C144.487 247.421 145.021 247.618 145.525 247.94C146.033 248.234 146.457 248.617 146.798 249.09C147.14 249.564 147.384 250.125 147.531 250.775C147.706 251.428 147.745 252.135 147.648 252.897C147.602 253.264 147.505 253.796 147.359 254.494C147.241 255.196 147.097 255.88 146.927 256.547C146.539 258.017 146.11 259.367 145.638 260.598C145.17 261.8 144.847 263.106 144.667 264.517C144.589 265.138 144.543 265.834 144.531 266.607C144.522 267.351 144.514 268.095 144.505 268.84C144.529 269.56 144.54 270.263 144.538 270.951C144.541 271.611 144.511 272.181 144.45 272.66C144.318 273.704 144.124 274.554 143.869 275.21C143.61 275.894 143.286 276.412 142.897 276.764C142.508 277.116 142.049 277.344 141.52 277.449C140.991 277.554 140.402 277.565 139.753 277.482C139.216 277.414 138.688 277.29 138.166 277.109C137.672 276.932 137.23 276.689 136.839 276.381C136.448 276.074 136.137 275.704 135.905 275.274C135.697 274.875 135.629 274.393 135.701 273.829C135.78 273.208 135.71 272.626 135.493 272.082C135.303 271.542 135.025 271.248 134.658 271.202C134.179 271.141 133.688 271.279 133.186 271.617C132.688 271.926 132.127 272.285 131.502 272.693C130.908 273.077 130.236 273.407 129.484 273.684C128.756 273.993 127.899 274.085 126.911 273.96C125.642 273.798 124.494 273.352 123.469 272.619C122.444 271.887 121.592 270.919 120.914 269.715C120.235 268.51 119.753 267.116 119.466 265.531C119.18 263.947 119.155 262.223 119.392 260.361C119.686 258.048 120.219 255.994 120.991 254.2C121.792 252.409 122.755 250.926 123.879 249.75C125.035 248.549 126.32 247.68 127.736 247.143C129.155 246.578 130.655 246.396 132.235 246.596ZM128.146 259.495C128.053 260.228 128.034 260.942 128.089 261.638C128.176 262.308 128.328 262.915 128.546 263.459C128.767 263.974 129.057 264.398 129.416 264.73C129.804 265.066 130.251 265.267 130.759 265.331C131.324 265.403 131.911 265.291 132.522 264.996C133.137 264.672 133.707 264.243 134.234 263.708C134.789 263.176 135.254 262.562 135.629 261.864C136.036 261.142 136.288 260.399 136.385 259.638C136.467 258.989 136.447 258.355 136.325 257.738C136.203 257.12 135.985 256.577 135.672 256.107C135.391 255.612 135.012 255.206 134.537 254.887C134.093 254.544 133.575 254.335 132.982 254.26C132.361 254.181 131.776 254.279 131.225 254.553C130.678 254.799 130.186 255.166 129.752 255.656C129.345 256.149 128.998 256.736 128.711 257.416C128.427 258.068 128.239 258.761 128.146 259.495Z" fill="url(#paint5_linear_2269_3548)"/>
<path d="M188.565 249.24C189.214 249.286 189.766 249.416 190.221 249.631C190.676 249.847 191.104 250.073 191.505 250.31C191.932 250.549 192.347 250.774 192.75 250.986C193.153 251.197 193.614 251.321 194.134 251.358C194.757 251.402 195.233 251.318 195.562 251.107C195.892 250.869 196.197 250.616 196.477 250.349C196.785 250.057 197.129 249.807 197.509 249.599C197.918 249.367 198.511 249.279 199.291 249.334C199.811 249.371 200.309 249.523 200.786 249.792C201.265 250.035 201.673 250.364 202.009 250.78C202.345 251.195 202.597 251.696 202.764 252.283C202.958 252.871 203.029 253.516 202.98 254.217C202.956 254.555 202.895 255.047 202.797 255.693C202.725 256.341 202.628 256.974 202.506 257.592C202.226 258.956 201.902 260.213 201.534 261.362C201.167 262.485 200.937 263.696 200.845 264.995C200.805 265.567 200.799 266.206 200.827 266.913C200.857 267.594 200.887 268.275 200.917 268.956C200.975 269.613 201.021 270.256 201.055 270.886C201.09 271.489 201.093 272.011 201.061 272.453C200.993 273.414 200.859 274.201 200.659 274.814C200.457 275.452 200.187 275.943 199.85 276.284C199.512 276.626 199.104 276.858 198.625 276.981C198.147 277.104 197.608 277.144 197.011 277.102C196.517 277.067 196.027 276.98 195.541 276.841C195.08 276.704 194.664 276.504 194.29 276.243C193.917 275.982 193.614 275.66 193.379 275.278C193.17 274.923 193.083 274.486 193.12 273.966C193.16 273.395 193.067 272.866 192.84 272.38C192.64 271.896 192.37 271.641 192.033 271.618C191.591 271.586 191.149 271.738 190.708 272.072C190.268 272.38 189.773 272.737 189.222 273.142C188.699 273.523 188.1 273.859 187.427 274.151C186.777 274.47 185.998 274.598 185.089 274.534C183.919 274.451 182.847 274.101 181.873 273.483C180.898 272.866 180.07 272.024 179.388 270.957C178.706 269.89 178.194 268.64 177.852 267.205C177.509 265.771 177.399 264.196 177.52 262.481C177.671 260.35 178.054 258.445 178.67 256.765C179.311 255.087 180.115 253.682 181.083 252.549C182.079 251.392 183.211 250.532 184.478 249.969C185.747 249.38 187.109 249.137 188.565 249.24ZM185.482 261.243C185.434 261.919 185.453 262.573 185.538 263.206C185.652 263.814 185.822 264.362 186.049 264.848C186.277 265.308 186.564 265.681 186.91 265.967C187.281 266.254 187.701 266.414 188.168 266.447C188.688 266.484 189.22 266.352 189.763 266.051C190.309 265.724 190.809 265.303 191.263 264.786C191.743 264.272 192.137 263.686 192.445 263.029C192.781 262.348 192.973 261.656 193.023 260.955C193.065 260.357 193.015 259.779 192.872 259.22C192.728 258.662 192.502 258.176 192.191 257.762C191.909 257.324 191.542 256.972 191.091 256.705C190.668 256.414 190.183 256.249 189.638 256.21C189.066 256.17 188.535 256.289 188.046 256.567C187.558 256.82 187.127 257.181 186.754 257.651C186.408 258.123 186.12 258.677 185.892 259.314C185.666 259.924 185.529 260.568 185.482 261.243Z" fill="url(#paint6_linear_2269_3548)"/>
<path d="M98.5908 250.123C99.9008 250.123 101.037 250.47 102.001 251.163C103.002 251.857 103.503 252.627 103.503 253.475C103.503 254.207 103.503 254.881 103.503 255.498C103.542 256.114 103.657 256.634 103.85 257.058C104.043 257.482 104.37 257.829 104.833 258.098C105.295 258.33 105.969 258.445 106.855 258.445C107.51 258.445 108.319 258.407 109.283 258.33C110.284 258.214 111.594 258.156 113.213 258.156C113.713 258.195 114.157 258.31 114.542 258.503C114.85 258.657 115.139 258.907 115.409 259.254C115.678 259.601 115.813 260.102 115.813 260.757C115.813 262.105 115.197 263.223 113.964 264.109C112.731 264.995 111.19 265.438 109.34 265.438C108.647 265.438 107.953 265.4 107.26 265.323C106.566 265.207 105.931 265.149 105.353 265.149C104.659 265.149 104.12 265.226 103.734 265.38C103.388 265.534 103.118 265.727 102.925 265.958C102.771 266.189 102.675 266.459 102.636 266.767C102.636 267.076 102.636 267.403 102.636 267.75C102.636 268.675 102.694 269.599 102.81 270.524C102.925 271.449 103.156 272.277 103.503 273.009C103.85 273.703 104.332 274.281 104.948 274.743C105.565 275.167 106.354 275.379 107.318 275.379C108.204 275.379 108.878 275.07 109.34 274.454C109.841 273.838 110.323 273.163 110.785 272.431C111.248 271.699 111.787 271.025 112.403 270.408C113.02 269.792 113.887 269.484 115.004 269.484C115.813 269.484 116.545 269.657 117.2 270.004C117.894 270.351 118.491 270.851 118.992 271.506C119.493 272.123 119.878 272.855 120.148 273.703C120.456 274.55 120.61 275.475 120.61 276.477C120.61 278.172 120.244 279.752 119.512 281.216C118.819 282.68 117.798 283.951 116.449 285.03C115.139 286.071 113.54 286.899 111.652 287.515C109.764 288.132 107.664 288.44 105.353 288.44C101.962 288.44 99.2458 287.689 97.2037 286.186C95.1617 284.683 93.6976 282.699 92.8114 280.233C92.6188 279.655 92.4261 278.866 92.2335 277.864C92.0408 276.862 91.8674 275.745 91.7133 274.512C91.5977 273.24 91.4822 271.93 91.3666 270.582C91.2895 269.195 91.251 267.827 91.251 266.478C91.251 263.781 91.3666 261.354 91.5977 259.196C91.8289 257.039 92.1564 255.382 92.5802 254.226C92.927 253.301 93.3316 252.569 93.7939 252.03C94.2563 251.491 94.7379 251.086 95.2387 250.816C95.7782 250.508 96.3176 250.315 96.857 250.238C97.4349 250.161 98.0128 250.123 98.5908 250.123Z" fill="url(#paint7_linear_2269_3548)"/>
<path d="M76.1998 270.437C76.1998 270.052 75.8337 269.705 75.1017 269.397C74.3696 269.089 73.4642 268.742 72.3854 268.357C71.3066 267.933 70.1314 267.451 68.86 266.912C67.5885 266.372 66.4133 265.679 65.3345 264.831C64.2557 263.983 63.3503 262.943 62.6182 261.71C61.8862 260.477 61.5201 258.994 61.5201 257.26C61.5201 255.526 61.9825 253.985 62.9072 252.637C63.8704 251.288 65.0648 250.171 66.4904 249.285C67.9545 248.36 69.5342 247.666 71.2295 247.204C72.9248 246.742 74.5237 246.51 76.0264 246.51C77.6446 246.51 79.2243 246.645 80.7655 246.915C82.3066 247.185 83.6552 247.705 84.811 248.475C86.0054 249.208 86.9494 250.229 87.6429 251.539C88.375 252.81 88.741 254.467 88.741 256.509C88.741 257.087 88.7025 257.722 88.6254 258.416C88.5484 259.071 88.3942 259.687 88.1631 260.265C87.9704 260.805 87.6622 261.267 87.2384 261.652C86.8145 261.999 86.2559 262.173 85.5623 262.173C84.4065 262.173 83.4818 261.961 82.7882 261.537C82.1333 261.113 81.6131 260.593 81.2278 259.976C80.8425 259.36 80.515 258.686 80.2453 257.954C80.0141 257.222 79.7444 256.547 79.4362 255.931C79.128 255.314 78.7234 254.794 78.2225 254.37C77.7217 253.947 77.0281 253.735 76.142 253.735C75.1787 253.735 74.543 254.043 74.2348 254.659C73.9651 255.276 73.8302 256.181 73.8302 257.376C73.8302 258.84 74.1962 260.015 74.9283 260.901C75.6989 261.787 76.6428 262.539 77.7602 263.155C78.9161 263.772 80.149 264.33 81.459 264.831C82.8075 265.332 84.0404 265.891 85.1578 266.507C86.3137 267.124 87.2576 267.894 87.9897 268.819C88.7603 269.744 89.1456 270.957 89.1456 272.46C89.1456 274.194 88.6447 275.696 87.6429 276.968C86.6412 278.201 85.389 279.222 83.8863 280.031C82.3837 280.84 80.7655 281.437 79.0317 281.822C77.2978 282.208 75.6989 282.4 74.2348 282.4C72.9248 282.4 71.4992 282.246 69.958 281.938C68.4169 281.63 66.972 281.129 65.6235 280.435C64.3135 279.703 63.2154 278.779 62.3293 277.661C61.4431 276.544 61 275.176 61 273.558C61 272.171 61.4046 270.977 62.2137 269.975C63.0228 268.973 64.1594 268.472 65.6235 268.472C66.6638 268.472 67.5307 268.646 68.2242 268.992C68.9563 269.339 69.6305 269.724 70.247 270.148C70.8635 270.533 71.4992 270.899 72.1542 271.246C72.8092 271.593 73.5798 271.766 74.4659 271.766C74.7357 271.766 75.0824 271.709 75.5062 271.593C75.9686 271.439 76.1998 271.054 76.1998 270.437Z" fill="url(#paint8_linear_2269_3548)"/>
<path d="M179.297 283.083C179.034 283.059 178.776 283.032 178.523 283.002C171.762 282.195 168.739 279.227 167.945 277.617C167.873 277.47 167.82 277.335 167.783 277.214L159.524 280.735C160.788 281.639 162.29 283.61 163.042 284.664C165.035 287.914 168.037 289.851 170.749 290.933C172.709 291.715 174.204 292.008 175.685 292.339C178.712 293.017 185.889 294.1 191.488 293.92C198.486 293.694 201.647 292.114 205.485 289.856C208.555 288.05 210.225 285.642 210.677 284.664C211.204 283.836 212.302 281.593 212.483 279.245C212.664 276.898 211.806 274.73 209.322 274.73C207.968 274.73 205.981 274.776 204.356 277.665C202.73 280.555 197.357 281.909 194.874 282.406C192.616 282.858 187.243 283.806 179.297 283.083Z" fill="url(#paint9_linear_2269_3548)"/>
<path fill-rule="evenodd" clip-rule="evenodd" d="M145.885 272.991V269.755C145.923 268.445 146 267.077 146.116 265.651C146.27 264.187 146.501 262.723 146.809 261.259C147.118 259.756 147.542 258.427 148.081 257.271C148.659 256.077 149.372 255.114 150.219 254.382C151.067 253.649 152.107 253.283 153.34 253.283C153.995 253.283 154.592 253.361 155.132 253.515C155.671 253.63 156.191 253.784 156.692 253.977C157.232 254.131 157.752 254.285 158.253 254.439C158.754 254.593 159.274 254.671 159.813 254.671C160.352 254.671 160.892 254.593 161.431 254.439L163.165 253.977C163.743 253.784 164.34 253.63 164.957 253.515C165.573 253.361 166.228 253.283 166.922 253.283C168.232 253.283 169.465 253.611 170.62 254.266C171.776 254.921 172.778 255.788 173.626 256.867C174.512 257.945 175.205 259.198 175.706 260.623C176.246 262.01 176.515 263.436 176.515 264.9C176.515 266.287 176.284 267.481 175.822 268.483C175.398 269.485 174.859 270.352 174.204 271.084C173.549 271.777 172.836 272.394 172.065 272.933C171.333 273.434 170.64 273.897 169.985 274.32C169.33 274.706 168.771 275.11 168.309 275.534C167.885 275.919 167.673 276.343 167.673 276.806C167.673 277.125 167.764 277.395 167.945 277.617C168.739 279.227 171.762 282.195 178.523 283.002C178.465 283.426 178.393 283.845 178.307 284.261C178.076 285.532 177.633 286.669 176.978 287.671C176.323 288.672 175.417 289.462 174.262 290.04C173.321 290.542 172.15 290.84 170.749 290.933C168.037 289.851 165.035 287.914 163.042 284.664C162.29 283.61 160.788 281.639 159.524 280.735C159.062 280.196 158.542 279.926 157.964 279.926C157.424 279.926 157.039 280.177 156.808 280.678C156.615 281.179 156.519 282.045 156.519 283.278V285.301C156.519 286.033 156.403 286.708 156.172 287.324C155.979 287.94 155.613 288.441 155.074 288.827C154.535 289.25 153.725 289.462 152.647 289.462C151.414 289.462 150.373 289.154 149.526 288.538C148.678 287.96 147.985 287.016 147.445 285.706C146.906 284.396 146.501 282.7 146.232 280.62C146 278.501 145.885 275.958 145.885 272.991ZM159.466 266.171C159.466 266.981 159.697 267.539 160.16 267.847C160.622 268.156 161.181 268.31 161.836 268.31C162.722 268.31 163.512 267.963 164.205 267.27C164.899 266.576 165.246 265.632 165.246 264.438C165.246 263.59 164.976 262.993 164.437 262.646C163.936 262.299 163.358 262.126 162.703 262.126C161.778 262.126 161.007 262.53 160.391 263.34C159.775 264.11 159.466 265.054 159.466 266.171Z" fill="url(#paint10_linear_2269_3548)"/>
<path d="M213.733 310L213.74 304.817C213.74 304.212 213.578 303.74 213.253 303.4C212.933 303.055 212.515 302.882 212 302.882C211.7 302.882 211.415 302.952 211.145 303.092C210.875 303.227 210.655 303.442 210.485 303.737C210.315 304.027 210.23 304.4 210.23 304.855L209.525 304.57C209.515 303.995 209.633 303.492 209.878 303.062C210.128 302.627 210.468 302.29 210.898 302.05C211.328 301.81 211.813 301.69 212.353 301.69C213.198 301.69 213.863 301.947 214.348 302.463C214.833 302.972 215.075 303.66 215.075 304.525L215.068 310H213.733ZM204.043 310V301.9H205.235V304.067H205.385V310H204.043ZM208.895 310L208.903 304.87C208.903 304.25 208.743 303.765 208.423 303.415C208.103 303.06 207.678 302.882 207.148 302.882C206.623 302.882 206.198 303.062 205.873 303.422C205.548 303.782 205.385 304.26 205.385 304.855L204.68 304.435C204.68 303.91 204.805 303.44 205.055 303.025C205.305 302.61 205.645 302.285 206.075 302.05C206.505 301.81 206.993 301.69 207.538 301.69C208.083 301.69 208.558 301.805 208.963 302.035C209.368 302.265 209.68 302.595 209.9 303.025C210.12 303.45 210.23 303.957 210.23 304.547L210.223 310H208.895ZM217.179 300.467V299.087H218.514V300.467H217.179ZM217.179 310V301.9H218.514V310H217.179ZM226.531 310V305.942C226.531 305.557 226.496 305.187 226.426 304.832C226.361 304.477 226.244 304.16 226.074 303.88C225.909 303.595 225.684 303.37 225.399 303.205C225.119 303.04 224.764 302.957 224.334 302.957C223.999 302.957 223.694 303.015 223.419 303.13C223.149 303.24 222.916 303.41 222.721 303.64C222.526 303.87 222.374 304.16 222.264 304.51C222.159 304.855 222.106 305.262 222.106 305.732L221.229 305.462C221.229 304.677 221.369 304.005 221.649 303.445C221.934 302.88 222.331 302.447 222.841 302.147C223.356 301.842 223.961 301.69 224.656 301.69C225.181 301.69 225.629 301.772 225.999 301.937C226.369 302.102 226.676 302.322 226.921 302.597C227.166 302.867 227.359 303.172 227.499 303.512C227.639 303.847 227.736 304.19 227.791 304.54C227.851 304.885 227.881 305.212 227.881 305.522V310H226.531ZM220.756 310V301.9H221.956V304.067H222.106V310H220.756ZM229.981 300.467V299.087H231.316V300.467H229.981ZM229.981 310V301.9H231.316V310H229.981ZM241.092 310C240.612 310.095 240.137 310.133 239.667 310.113C239.202 310.098 238.787 310.005 238.422 309.835C238.057 309.66 237.78 309.39 237.59 309.025C237.43 308.705 237.342 308.382 237.327 308.057C237.317 307.727 237.312 307.355 237.312 306.94V299.65H238.647V306.88C238.647 307.21 238.65 307.492 238.655 307.727C238.665 307.962 238.717 308.165 238.812 308.335C238.992 308.655 239.277 308.842 239.667 308.898C240.062 308.952 240.537 308.937 241.092 308.852V310ZM235.67 303.002V301.9H241.092V303.002H235.67ZM242.737 310V301.9H243.929V303.857L243.734 303.602C243.829 303.352 243.952 303.122 244.102 302.912C244.257 302.702 244.429 302.53 244.619 302.395C244.829 302.225 245.067 302.095 245.332 302.005C245.597 301.915 245.867 301.862 246.142 301.847C246.417 301.827 246.674 301.845 246.914 301.9V303.152C246.634 303.077 246.327 303.057 245.992 303.092C245.657 303.127 245.347 303.25 245.062 303.46C244.802 303.645 244.599 303.87 244.454 304.135C244.314 304.4 244.217 304.687 244.162 304.997C244.107 305.302 244.079 305.615 244.079 305.935V310H242.737ZM251.696 310.225C250.901 310.225 250.206 310.05 249.611 309.7C249.021 309.345 248.561 308.852 248.231 308.222C247.901 307.587 247.736 306.847 247.736 306.002C247.736 305.117 247.898 304.352 248.223 303.707C248.548 303.057 249.001 302.557 249.581 302.207C250.166 301.852 250.851 301.675 251.636 301.675C252.451 301.675 253.143 301.862 253.713 302.237C254.288 302.612 254.718 303.147 255.003 303.842C255.293 304.537 255.418 305.365 255.378 306.325H254.028V305.845C254.013 304.85 253.811 304.107 253.421 303.617C253.031 303.122 252.451 302.875 251.681 302.875C250.856 302.875 250.228 303.14 249.798 303.67C249.368 304.2 249.153 304.96 249.153 305.95C249.153 306.905 249.368 307.645 249.798 308.17C250.228 308.695 250.841 308.957 251.636 308.957C252.171 308.957 252.636 308.835 253.031 308.59C253.426 308.345 253.736 307.992 253.961 307.532L255.243 307.975C254.928 308.69 254.453 309.245 253.818 309.64C253.188 310.03 252.481 310.225 251.696 310.225ZM248.703 306.325V305.252H254.688V306.325H248.703ZM259.204 310.225C258.599 310.225 258.092 310.115 257.682 309.895C257.277 309.67 256.969 309.375 256.759 309.01C256.554 308.645 256.452 308.245 256.452 307.81C256.452 307.385 256.532 307.017 256.692 306.707C256.857 306.392 257.087 306.132 257.382 305.927C257.677 305.717 258.029 305.552 258.439 305.432C258.824 305.327 259.254 305.237 259.729 305.162C260.209 305.082 260.694 305.01 261.184 304.945C261.674 304.88 262.132 304.817 262.557 304.757L262.077 305.035C262.092 304.315 261.947 303.782 261.642 303.437C261.342 303.092 260.822 302.92 260.082 302.92C259.592 302.92 259.162 303.032 258.792 303.257C258.427 303.477 258.169 303.837 258.019 304.337L256.752 303.955C256.947 303.245 257.324 302.687 257.884 302.282C258.444 301.877 259.182 301.675 260.097 301.675C260.832 301.675 261.462 301.807 261.987 302.072C262.517 302.332 262.897 302.727 263.127 303.257C263.242 303.507 263.314 303.78 263.344 304.075C263.374 304.365 263.389 304.67 263.389 304.99V310H262.204V308.057L262.482 308.237C262.177 308.892 261.749 309.387 261.199 309.722C260.654 310.058 259.989 310.225 259.204 310.225ZM259.407 309.107C259.887 309.107 260.302 309.022 260.652 308.852C261.007 308.677 261.292 308.45 261.507 308.17C261.722 307.885 261.862 307.575 261.927 307.24C262.002 306.99 262.042 306.712 262.047 306.407C262.057 306.097 262.062 305.86 262.062 305.695L262.527 305.897C262.092 305.957 261.664 306.015 261.244 306.07C260.824 306.125 260.427 306.185 260.052 306.25C259.677 306.31 259.339 306.382 259.039 306.467C258.819 306.537 258.612 306.627 258.417 306.737C258.227 306.847 258.072 306.99 257.952 307.165C257.837 307.335 257.779 307.547 257.779 307.802C257.779 308.022 257.834 308.232 257.944 308.432C258.059 308.632 258.234 308.795 258.469 308.92C258.709 309.045 259.022 309.107 259.407 309.107ZM268.399 310.218C267.434 310.218 266.642 310.007 266.022 309.587C265.407 309.162 265.029 308.57 264.889 307.81L266.254 307.592C266.364 308.032 266.617 308.382 267.012 308.642C267.407 308.897 267.897 309.025 268.482 309.025C269.037 309.025 269.472 308.91 269.787 308.68C270.102 308.45 270.259 308.137 270.259 307.742C270.259 307.512 270.207 307.327 270.102 307.187C269.997 307.042 269.779 306.907 269.449 306.782C269.124 306.657 268.632 306.507 267.972 306.332C267.257 306.142 266.694 305.945 266.284 305.74C265.874 305.535 265.582 305.297 265.407 305.027C265.232 304.757 265.144 304.43 265.144 304.045C265.144 303.57 265.274 303.155 265.534 302.8C265.794 302.44 266.157 302.162 266.622 301.967C267.092 301.772 267.637 301.675 268.257 301.675C268.872 301.675 269.422 301.772 269.907 301.967C270.392 302.162 270.782 302.44 271.077 302.8C271.377 303.155 271.554 303.57 271.609 304.045L270.244 304.292C270.179 303.857 269.969 303.515 269.614 303.265C269.264 303.015 268.812 302.882 268.257 302.867C267.732 302.847 267.304 302.94 266.974 303.145C266.649 303.35 266.487 303.627 266.487 303.977C266.487 304.172 266.547 304.34 266.667 304.48C266.792 304.62 267.019 304.752 267.349 304.877C267.684 305.002 268.169 305.145 268.804 305.305C269.519 305.485 270.082 305.682 270.492 305.897C270.907 306.107 271.202 306.357 271.377 306.647C271.552 306.932 271.639 307.285 271.639 307.705C271.639 308.485 271.352 309.1 270.777 309.55C270.202 309.995 269.409 310.218 268.399 310.218ZM276.368 310.21C275.848 310.21 275.401 310.128 275.026 309.962C274.656 309.797 274.348 309.577 274.103 309.302C273.858 309.027 273.666 308.722 273.526 308.387C273.386 308.052 273.286 307.71 273.226 307.36C273.171 307.01 273.143 306.682 273.143 306.377V301.9H274.493V305.957C274.493 306.337 274.528 306.705 274.598 307.06C274.668 307.415 274.786 307.735 274.951 308.02C275.121 308.305 275.346 308.53 275.626 308.695C275.911 308.86 276.266 308.942 276.691 308.942C277.026 308.942 277.331 308.885 277.606 308.77C277.881 308.655 278.116 308.485 278.311 308.26C278.506 308.03 278.656 307.74 278.761 307.39C278.866 307.04 278.918 306.632 278.918 306.167L279.796 306.437C279.796 307.217 279.653 307.89 279.368 308.455C279.088 309.02 278.691 309.455 278.176 309.76C277.666 310.06 277.063 310.21 276.368 310.21ZM279.068 310V307.832H278.918V301.9H280.261V310H279.068ZM282.361 310V301.9H283.553V303.857L283.358 303.602C283.453 303.352 283.576 303.122 283.726 302.912C283.881 302.702 284.053 302.53 284.243 302.395C284.453 302.225 284.691 302.095 284.956 302.005C285.221 301.915 285.491 301.862 285.766 301.847C286.041 301.827 286.298 301.845 286.538 301.9V303.152C286.258 303.077 285.951 303.057 285.616 303.092C285.281 303.127 284.971 303.25 284.686 303.46C284.426 303.645 284.223 303.87 284.078 304.135C283.938 304.4 283.841 304.687 283.786 304.997C283.731 305.302 283.703 305.615 283.703 305.935V310H282.361ZM291.32 310.225C290.525 310.225 289.83 310.05 289.235 309.7C288.645 309.345 288.185 308.852 287.855 308.222C287.525 307.587 287.36 306.847 287.36 306.002C287.36 305.117 287.522 304.352 287.847 303.707C288.172 303.057 288.625 302.557 289.205 302.207C289.79 301.852 290.475 301.675 291.26 301.675C292.075 301.675 292.767 301.862 293.337 302.237C293.912 302.612 294.342 303.147 294.627 303.842C294.917 304.537 295.042 305.365 295.002 306.325H293.652V305.845C293.637 304.85 293.435 304.107 293.045 303.617C292.655 303.122 292.075 302.875 291.305 302.875C290.48 302.875 289.852 303.14 289.422 303.67C288.992 304.2 288.777 304.96 288.777 305.95C288.777 306.905 288.992 307.645 289.422 308.17C289.852 308.695 290.465 308.957 291.26 308.957C291.795 308.957 292.26 308.835 292.655 308.59C293.05 308.345 293.36 307.992 293.585 307.532L294.867 307.975C294.552 308.69 294.077 309.245 293.442 309.64C292.812 310.03 292.105 310.225 291.32 310.225ZM288.327 306.325V305.252H294.312V306.325H288.327ZM299.732 310.218C298.767 310.218 297.975 310.007 297.355 309.587C296.74 309.162 296.362 308.57 296.222 307.81L297.587 307.592C297.697 308.032 297.95 308.382 298.345 308.642C298.74 308.897 299.23 309.025 299.815 309.025C300.37 309.025 300.805 308.91 301.12 308.68C301.435 308.45 301.592 308.137 301.592 307.742C301.592 307.512 301.54 307.327 301.435 307.187C301.33 307.042 301.112 306.907 300.782 306.782C300.457 306.657 299.965 306.507 299.305 306.332C298.59 306.142 298.027 305.945 297.617 305.74C297.207 305.535 296.915 305.297 296.74 305.027C296.565 304.757 296.477 304.43 296.477 304.045C296.477 303.57 296.607 303.155 296.867 302.8C297.127 302.44 297.49 302.162 297.955 301.967C298.425 301.772 298.97 301.675 299.59 301.675C300.205 301.675 300.755 301.772 301.24 301.967C301.725 302.162 302.115 302.44 302.41 302.8C302.71 303.155 302.887 303.57 302.942 304.045L301.577 304.292C301.512 303.857 301.302 303.515 300.947 303.265C300.597 303.015 300.145 302.882 299.59 302.867C299.065 302.847 298.637 302.94 298.307 303.145C297.982 303.35 297.82 303.627 297.82 303.977C297.82 304.172 297.88 304.34 298 304.48C298.125 304.62 298.352 304.752 298.682 304.877C299.017 305.002 299.502 305.145 300.137 305.305C300.852 305.485 301.415 305.682 301.825 305.897C302.24 306.107 302.535 306.357 302.71 306.647C302.885 306.932 302.972 307.285 302.972 307.705C302.972 308.485 302.685 309.1 302.11 309.55C301.535 309.995 300.742 310.218 299.732 310.218ZM308.402 310V301.457C308.402 301.247 308.412 301.035 308.432 300.82C308.452 300.6 308.497 300.387 308.567 300.182C308.637 299.972 308.752 299.78 308.912 299.605C309.097 299.4 309.299 299.255 309.519 299.17C309.739 299.08 309.962 299.025 310.187 299.005C310.417 298.985 310.634 298.975 310.839 298.975H311.867V300.085H310.914C310.519 300.085 310.224 300.182 310.029 300.377C309.834 300.567 309.737 300.857 309.737 301.247V310H308.402ZM307.029 303.002V301.9H311.867V303.002H307.029ZM316.221 310.225C315.416 310.225 314.721 310.043 314.136 309.677C313.556 309.312 313.108 308.807 312.793 308.162C312.478 307.517 312.321 306.777 312.321 305.942C312.321 305.092 312.481 304.347 312.801 303.707C313.121 303.067 313.573 302.57 314.158 302.215C314.743 301.855 315.431 301.675 316.221 301.675C317.031 301.675 317.728 301.857 318.313 302.222C318.898 302.582 319.346 303.085 319.656 303.73C319.971 304.37 320.128 305.107 320.128 305.942C320.128 306.787 319.971 307.532 319.656 308.177C319.341 308.817 318.891 309.32 318.306 309.685C317.721 310.045 317.026 310.225 316.221 310.225ZM316.221 308.957C317.061 308.957 317.686 308.677 318.096 308.117C318.506 307.557 318.711 306.832 318.711 305.942C318.711 305.027 318.503 304.3 318.088 303.76C317.673 303.215 317.051 302.942 316.221 302.942C315.656 302.942 315.191 303.07 314.826 303.325C314.461 303.58 314.188 303.932 314.008 304.382C313.828 304.832 313.738 305.352 313.738 305.942C313.738 306.852 313.948 307.582 314.368 308.132C314.788 308.682 315.406 308.957 316.221 308.957ZM321.779 310V301.9H322.972V303.857L322.777 303.602C322.872 303.352 322.994 303.122 323.144 302.912C323.299 302.702 323.472 302.53 323.662 302.395C323.872 302.225 324.109 302.095 324.374 302.005C324.639 301.915 324.909 301.862 325.184 301.847C325.459 301.827 325.717 301.845 325.957 301.9V303.152C325.677 303.077 325.369 303.057 325.034 303.092C324.699 303.127 324.389 303.25 324.104 303.46C323.844 303.645 323.642 303.87 323.497 304.135C323.357 304.4 323.259 304.687 323.204 304.997C323.149 305.302 323.122 305.615 323.122 305.935V310H321.779ZM331.503 313.6L333.071 309.34L333.093 310.6L329.553 301.9H330.956L333.731 308.898H333.251L335.853 301.9H337.211L332.801 313.6H331.503ZM341.606 310.225C340.801 310.225 340.106 310.043 339.521 309.677C338.941 309.312 338.494 308.807 338.179 308.162C337.864 307.517 337.706 306.777 337.706 305.942C337.706 305.092 337.866 304.347 338.186 303.707C338.506 303.067 338.959 302.57 339.544 302.215C340.129 301.855 340.816 301.675 341.606 301.675C342.416 301.675 343.114 301.857 343.699 302.222C344.284 302.582 344.731 303.085 345.041 303.73C345.356 304.37 345.514 305.107 345.514 305.942C345.514 306.787 345.356 307.532 345.041 308.177C344.726 308.817 344.276 309.32 343.691 309.685C343.106 310.045 342.411 310.225 341.606 310.225ZM341.606 308.957C342.446 308.957 343.071 308.677 343.481 308.117C343.891 307.557 344.096 306.832 344.096 305.942C344.096 305.027 343.889 304.3 343.474 303.76C343.059 303.215 342.436 302.942 341.606 302.942C341.041 302.942 340.576 303.07 340.211 303.325C339.846 303.58 339.574 303.932 339.394 304.382C339.214 304.832 339.124 305.352 339.124 305.942C339.124 306.852 339.334 307.582 339.754 308.132C340.174 308.682 340.791 308.957 341.606 308.957ZM350.24 310.21C349.72 310.21 349.273 310.128 348.898 309.962C348.528 309.797 348.22 309.577 347.975 309.302C347.73 309.027 347.538 308.722 347.398 308.387C347.258 308.052 347.158 307.71 347.098 307.36C347.043 307.01 347.015 306.682 347.015 306.377V301.9H348.365V305.957C348.365 306.337 348.4 306.705 348.47 307.06C348.54 307.415 348.658 307.735 348.823 308.02C348.993 308.305 349.218 308.53 349.498 308.695C349.783 308.86 350.138 308.942 350.563 308.942C350.898 308.942 351.203 308.885 351.478 308.77C351.753 308.655 351.988 308.485 352.183 308.26C352.378 308.03 352.528 307.74 352.633 307.39C352.738 307.04 352.79 306.632 352.79 306.167L353.668 306.437C353.668 307.217 353.525 307.89 353.24 308.455C352.96 309.02 352.563 309.455 352.048 309.76C351.538 310.06 350.935 310.21 350.24 310.21ZM352.94 310V307.832H352.79V301.9H354.133V310H352.94ZM356.233 310V301.9H357.425V303.857L357.23 303.602C357.325 303.352 357.448 303.122 357.598 302.912C357.753 302.702 357.925 302.53 358.115 302.395C358.325 302.225 358.563 302.095 358.828 302.005C359.093 301.915 359.363 301.862 359.638 301.847C359.913 301.827 360.17 301.845 360.41 301.9V303.152C360.13 303.077 359.823 303.057 359.488 303.092C359.153 303.127 358.843 303.25 358.558 303.46C358.298 303.645 358.095 303.87 357.95 304.135C357.81 304.4 357.713 304.687 357.658 304.997C357.603 305.302 357.575 305.615 357.575 305.935V310H356.233ZM370.599 310V305.942C370.599 305.557 370.564 305.187 370.494 304.832C370.429 304.477 370.311 304.16 370.141 303.88C369.976 303.595 369.751 303.37 369.466 303.205C369.186 303.04 368.831 302.957 368.401 302.957C368.066 302.957 367.761 303.015 367.486 303.13C367.216 303.24 366.984 303.41 366.789 303.64C366.594 303.87 366.441 304.16 366.331 304.51C366.226 304.855 366.174 305.262 366.174 305.732L365.296 305.462C365.296 304.677 365.436 304.005 365.716 303.445C366.001 302.88 366.399 302.447 366.909 302.147C367.424 301.842 368.029 301.69 368.724 301.69C369.249 301.69 369.696 301.772 370.066 301.937C370.436 302.102 370.744 302.322 370.989 302.597C371.234 302.867 371.426 303.172 371.566 303.512C371.706 303.847 371.804 304.19 371.859 304.54C371.919 304.885 371.949 305.212 371.949 305.522V310H370.599ZM364.824 310V299.2H366.024V305.162H366.174V310H364.824ZM377.349 310.225C376.544 310.225 375.849 310.043 375.264 309.677C374.684 309.312 374.236 308.807 373.921 308.162C373.606 307.517 373.449 306.777 373.449 305.942C373.449 305.092 373.609 304.347 373.929 303.707C374.249 303.067 374.701 302.57 375.286 302.215C375.871 301.855 376.559 301.675 377.349 301.675C378.159 301.675 378.856 301.857 379.441 302.222C380.026 302.582 380.474 303.085 380.784 303.73C381.099 304.37 381.256 305.107 381.256 305.942C381.256 306.787 381.099 307.532 380.784 308.177C380.469 308.817 380.019 309.32 379.434 309.685C378.849 310.045 378.154 310.225 377.349 310.225ZM377.349 308.957C378.189 308.957 378.814 308.677 379.224 308.117C379.634 307.557 379.839 306.832 379.839 305.942C379.839 305.027 379.631 304.3 379.216 303.76C378.801 303.215 378.179 302.942 377.349 302.942C376.784 302.942 376.319 303.07 375.954 303.325C375.589 303.58 375.316 303.932 375.136 304.382C374.956 304.832 374.866 305.352 374.866 305.942C374.866 306.852 375.076 307.582 375.496 308.132C375.916 308.682 376.534 308.957 377.349 308.957ZM392.59 310L392.597 304.817C392.597 304.212 392.435 303.74 392.11 303.4C391.79 303.055 391.372 302.882 390.857 302.882C390.557 302.882 390.272 302.952 390.002 303.092C389.732 303.227 389.512 303.442 389.342 303.737C389.172 304.027 389.087 304.4 389.087 304.855L388.382 304.57C388.372 303.995 388.49 303.492 388.735 303.062C388.985 302.627 389.325 302.29 389.755 302.05C390.185 301.81 390.67 301.69 391.21 301.69C392.055 301.69 392.72 301.947 393.205 302.463C393.69 302.972 393.932 303.66 393.932 304.525L393.925 310H392.59ZM382.9 310V301.9H384.092V304.067H384.242V310H382.9ZM387.752 310L387.76 304.87C387.76 304.25 387.6 303.765 387.28 303.415C386.96 303.06 386.535 302.882 386.005 302.882C385.48 302.882 385.055 303.062 384.73 303.422C384.405 303.782 384.242 304.26 384.242 304.855L383.537 304.435C383.537 303.91 383.662 303.44 383.912 303.025C384.162 302.61 384.502 302.285 384.932 302.05C385.362 301.81 385.85 301.69 386.395 301.69C386.94 301.69 387.415 301.805 387.82 302.035C388.225 302.265 388.537 302.595 388.757 303.025C388.977 303.45 389.087 303.957 389.087 304.547L389.08 310H387.752ZM399.323 310.225C398.528 310.225 397.833 310.05 397.238 309.7C396.648 309.345 396.188 308.852 395.858 308.222C395.528 307.587 395.363 306.847 395.363 306.002C395.363 305.117 395.525 304.352 395.85 303.707C396.175 303.057 396.628 302.557 397.208 302.207C397.793 301.852 398.478 301.675 399.263 301.675C400.078 301.675 400.77 301.862 401.34 302.237C401.915 302.612 402.345 303.147 402.63 303.842C402.92 304.537 403.045 305.365 403.005 306.325H401.655V305.845C401.64 304.85 401.438 304.107 401.048 303.617C400.658 303.122 400.078 302.875 399.308 302.875C398.483 302.875 397.855 303.14 397.425 303.67C396.995 304.2 396.78 304.96 396.78 305.95C396.78 306.905 396.995 307.645 397.425 308.17C397.855 308.695 398.468 308.957 399.263 308.957C399.798 308.957 400.263 308.835 400.658 308.59C401.053 308.345 401.363 307.992 401.588 307.532L402.87 307.975C402.555 308.69 402.08 309.245 401.445 309.64C400.815 310.03 400.108 310.225 399.323 310.225ZM396.33 306.325V305.252H402.315V306.325H396.33Z" fill="#D77842"/>
<path d="M262.156 36.1202C250.857 35.7954 234.775 60.6517 229.503 72.248C193.002 65.1759 181.809 76.8869 179.917 81.9412C178.117 95.2153 196.841 116.743 204.67 123.678C190.271 157.26 195.364 170.374 199.71 172.733C210.938 177.152 236.047 167.601 246.01 162.353C269.38 183.674 283.342 186.082 287.402 184.62C298.746 177.854 297.805 149.419 295.917 136.048C319.974 120.963 327.92 108.28 329.165 102.656C328.735 89.8034 300.256 82.0805 286.319 80.4327C280.435 48.3503 268.491 37.4617 262.156 36.1202Z" fill="#6A8C79" fill-opacity="0.6"/>
<path fill-rule="evenodd" clip-rule="evenodd" d="M162.092 87.3126C150.124 96.2886 142.561 121.527 140.275 133.024C140.226 133.203 140.178 133.384 140.13 133.564L140.067 133.439C134.042 132.124 120.702 130.281 115.55 133.439C115.203 133.647 114.718 134.271 115.965 134.478C116.129 134.506 116.558 134.546 117.19 134.606L117.19 134.606C121.543 135.016 135.502 136.33 138.405 140.504L138.488 140.451C138.084 142.345 137.704 144.287 137.348 146.268C130.963 146.429 118.21 147.733 114.042 151.86C113.752 152.142 113.423 152.859 114.684 152.777C114.85 152.766 115.277 152.707 115.906 152.621C119.758 152.091 131.173 150.52 136.31 152.572C135.977 154.779 135.67 157.021 135.387 159.284C129.538 162.487 119.797 168.841 117.998 174.066C117.863 174.447 117.886 175.236 118.98 174.603C119.124 174.52 119.481 174.278 120.006 173.923C122.595 172.169 129.268 167.647 134.65 165.716C132.12 189.923 132.074 215.388 132.587 228.602C140.691 245.224 175.901 240.945 181.511 239.282C187.121 237.62 188.687 235.25 189.103 233.38C189.518 231.51 198.245 227.563 201.985 233.38C204.977 238.035 209.05 239.614 210.712 239.822C244.122 244.808 256.631 234.419 258.708 228.602C261.588 212.248 259.737 187.52 256.858 166.104C262.393 167.736 269.914 172.842 272.7 174.733C273.225 175.09 273.582 175.332 273.725 175.415C274.818 176.049 274.837 175.264 274.701 174.885C272.729 169.234 261.426 162.219 255.901 159.352C255.559 157.045 255.208 154.795 254.854 152.62C259.905 150.5 271.513 152.104 275.404 152.642L275.404 152.642L275.405 152.642C276.033 152.729 276.46 152.788 276.626 152.799C277.886 152.883 277.555 152.171 277.265 151.892C273.052 147.756 260.108 146.453 253.785 146.301C253.387 144.037 252.992 141.888 252.607 139.877C256.124 136.072 269.28 134.845 273.483 134.452C274.115 134.394 274.544 134.353 274.708 134.326C275.955 134.121 275.47 133.503 275.124 133.297C270.149 130.277 257.546 131.873 251.257 133.16L251.228 133.024C241.878 93.7537 231.49 86.0659 228.373 87.3126C225.88 88.3099 214.59 99.5022 209.257 104.974C197.123 100.818 186.332 103.242 182.454 104.974C169.156 90.1799 163.338 87.0356 162.092 87.3126Z" fill="#A95028"/>
<path d="M140.275 133.024L140.537 133.095L140.54 133.086L140.541 133.077L140.275 133.024ZM162.092 87.3126L162.033 87.0474L161.976 87.0601L161.929 87.0953L162.092 87.3126ZM140.13 133.564L139.887 133.686L140.208 134.328L140.392 133.634L140.13 133.564ZM140.067 133.439L140.31 133.318L140.252 133.202L140.125 133.174L140.067 133.439ZM115.55 133.439L115.689 133.672L115.691 133.671L115.55 133.439ZM115.965 134.478L116.01 134.21H116.01L115.965 134.478ZM117.19 134.606L117.164 134.876L117.165 134.876L117.19 134.606ZM117.19 134.606L117.215 134.335L117.215 134.335L117.19 134.606ZM138.405 140.504L138.182 140.659L138.33 140.872L138.55 140.734L138.405 140.504ZM138.488 140.451L138.754 140.508L138.889 139.877L138.343 140.222L138.488 140.451ZM137.348 146.268L137.355 146.539L137.576 146.534L137.616 146.316L137.348 146.268ZM114.042 151.86L114.231 152.055L114.233 152.053L114.042 151.86ZM114.684 152.777L114.666 152.506H114.666L114.684 152.777ZM115.906 152.621L115.869 152.352H115.869L115.906 152.621ZM136.31 152.572L136.578 152.612L136.61 152.399L136.41 152.32L136.31 152.572ZM135.387 159.284L135.517 159.522L135.639 159.456L135.656 159.318L135.387 159.284ZM117.998 174.066L118.254 174.157L118.255 174.155L117.998 174.066ZM118.98 174.603L118.844 174.368H118.844L118.98 174.603ZM120.006 173.923L119.854 173.698H119.854L120.006 173.923ZM134.65 165.716L134.92 165.744L134.965 165.314L134.558 165.46L134.65 165.716ZM132.587 228.602L132.316 228.612L132.318 228.669L132.343 228.721L132.587 228.602ZM181.511 239.282L181.588 239.543L181.511 239.282ZM189.103 233.38L188.838 233.322L189.103 233.38ZM201.985 233.38L201.757 233.527L201.985 233.38ZM210.712 239.822L210.752 239.553L210.745 239.552L210.712 239.822ZM258.708 228.602L258.964 228.693L258.972 228.671L258.976 228.649L258.708 228.602ZM256.858 166.104L256.934 165.843L256.533 165.725L256.588 166.14L256.858 166.104ZM272.7 174.733L272.853 174.509H272.853L272.7 174.733ZM273.725 175.415L273.862 175.18L273.725 175.415ZM274.701 174.885L274.444 174.975L274.445 174.977L274.701 174.885ZM255.901 159.352L255.633 159.392L255.653 159.529L255.776 159.593L255.901 159.352ZM254.854 152.62L254.749 152.369L254.552 152.452L254.586 152.663L254.854 152.62ZM275.404 152.642L275.449 152.374L275.441 152.373L275.404 152.642ZM275.404 152.642L275.36 152.91L275.369 152.911L275.404 152.642ZM275.405 152.642L275.443 152.373L275.441 152.373L275.405 152.642ZM276.626 152.799L276.607 153.07L276.626 152.799ZM277.265 151.892L277.075 152.086L277.077 152.088L277.265 151.892ZM253.785 146.301L253.518 146.348L253.556 146.567L253.779 146.573L253.785 146.301ZM252.607 139.877L252.408 139.693L252.315 139.794L252.34 139.928L252.607 139.877ZM273.483 134.452L273.458 134.182L273.483 134.452ZM274.708 134.326L274.752 134.594L274.708 134.326ZM275.124 133.297L274.983 133.529L274.985 133.531L275.124 133.297ZM251.257 133.16L250.992 133.216L251.048 133.48L251.312 133.426L251.257 133.16ZM251.228 133.024L251.494 132.967L251.493 132.961L251.228 133.024ZM228.373 87.3126L228.474 87.5648V87.5648L228.373 87.3126ZM209.257 104.974L209.169 105.231L209.332 105.286L209.452 105.163L209.257 104.974ZM182.454 104.974L182.252 105.155L182.384 105.302L182.565 105.222L182.454 104.974ZM140.541 133.077C141.681 127.343 144.139 118.177 147.803 109.327C151.473 100.466 156.333 91.9714 162.255 87.5299L161.929 87.0953C155.883 91.6298 150.977 100.243 147.301 109.119C143.621 118.006 141.154 127.208 140.009 132.971L140.541 133.077ZM140.392 133.634C140.44 133.454 140.489 133.274 140.537 133.095L140.013 132.953C139.964 133.133 139.916 133.313 139.867 133.495L140.392 133.634ZM139.824 133.561L139.887 133.686L140.373 133.443L140.31 133.318L139.824 133.561ZM115.691 133.671C116.931 132.911 118.686 132.441 120.74 132.192C122.789 131.943 125.111 131.918 127.468 132.033C132.182 132.262 137.008 133.049 140.009 133.705L140.125 133.174C137.101 132.514 132.245 131.722 127.494 131.49C125.119 131.375 122.764 131.399 120.674 131.652C118.589 131.905 116.744 132.388 115.408 133.208L115.691 133.671ZM116.01 134.21C115.716 134.161 115.561 134.093 115.486 134.038C115.451 134.013 115.439 133.994 115.435 133.987C115.432 133.981 115.431 133.977 115.431 133.97C115.432 133.949 115.447 133.901 115.503 133.833C115.556 133.768 115.627 133.71 115.689 133.672L115.41 133.207C115.299 133.273 115.179 133.371 115.083 133.488C114.99 133.601 114.896 133.761 114.888 133.948C114.88 134.156 114.979 134.341 115.165 134.477C115.339 134.604 115.591 134.691 115.92 134.746L116.01 134.21ZM117.215 134.335C116.576 134.275 116.161 134.236 116.01 134.21L115.92 134.746C116.097 134.776 116.541 134.817 117.164 134.876L117.215 134.335ZM117.215 134.335L117.215 134.335L117.165 134.876L117.165 134.876L117.215 134.335ZM138.628 140.349C137.855 139.237 136.375 138.348 134.579 137.627C132.772 136.902 130.602 136.33 128.396 135.877C123.983 134.972 119.391 134.54 117.215 134.335L117.164 134.876C119.342 135.081 123.906 135.511 128.287 136.41C130.477 136.859 132.613 137.423 134.376 138.131C136.15 138.843 137.504 139.684 138.182 140.659L138.628 140.349ZM138.343 140.222L138.26 140.274L138.55 140.734L138.633 140.681L138.343 140.222ZM137.616 146.316C137.971 144.338 138.35 142.399 138.754 140.508L138.223 140.395C137.818 142.292 137.438 144.236 137.081 146.219L137.616 146.316ZM114.233 152.053C115.236 151.061 116.773 150.222 118.64 149.522C120.502 148.824 122.67 148.273 124.915 147.843C129.404 146.985 134.173 146.619 137.355 146.539L137.341 145.996C134.138 146.077 129.338 146.444 124.813 147.31C122.55 147.743 120.35 148.301 118.449 149.014C116.552 149.724 114.933 150.596 113.851 151.667L114.233 152.053ZM114.666 152.506C114.369 152.525 114.202 152.494 114.117 152.458C114.077 152.441 114.061 152.426 114.056 152.42C114.051 152.415 114.05 152.411 114.048 152.404C114.044 152.384 114.048 152.333 114.087 152.254C114.124 152.179 114.179 152.106 114.231 152.055L113.853 151.666C113.76 151.756 113.666 151.878 113.599 152.014C113.534 152.146 113.48 152.322 113.515 152.506C113.554 152.711 113.693 152.868 113.905 152.958C114.103 153.042 114.368 153.07 114.702 153.048L114.666 152.506ZM115.869 152.352C115.232 152.439 114.82 152.496 114.666 152.506L114.702 153.048C114.881 153.036 115.322 152.975 115.943 152.89L115.869 152.352ZM136.41 152.32C133.78 151.269 129.587 151.155 125.612 151.357C121.622 151.56 117.795 152.087 115.869 152.352L115.943 152.89C117.869 152.625 121.676 152.101 125.64 151.9C129.62 151.697 133.702 151.823 136.209 152.824L136.41 152.32ZM135.656 159.318C135.939 157.057 136.246 154.817 136.578 152.612L136.041 152.531C135.708 154.741 135.401 156.985 135.117 159.25L135.656 159.318ZM118.255 174.155C118.688 172.898 119.606 171.554 120.853 170.185C122.096 168.82 123.653 167.446 125.341 166.131C128.717 163.501 132.601 161.119 135.517 159.522L135.256 159.046C132.323 160.652 128.413 163.049 125.007 165.702C123.304 167.029 121.722 168.424 120.451 169.819C119.182 171.212 118.209 172.621 117.742 173.978L118.255 174.155ZM118.844 174.368C118.586 174.517 118.423 174.563 118.33 174.569C118.287 174.571 118.266 174.564 118.258 174.561C118.252 174.559 118.249 174.556 118.245 174.551C118.232 174.534 118.213 174.488 118.213 174.399C118.212 174.315 118.23 174.226 118.254 174.157L117.742 173.975C117.699 174.097 117.669 174.249 117.669 174.4C117.669 174.547 117.699 174.729 117.812 174.879C117.937 175.045 118.132 175.125 118.362 175.111C118.577 175.098 118.826 175.006 119.116 174.839L118.844 174.368ZM119.854 173.698C119.322 174.058 118.977 174.291 118.844 174.368L119.116 174.839C119.271 174.749 119.64 174.499 120.158 174.147L119.854 173.698ZM134.558 165.46C129.137 167.405 122.435 171.949 119.854 173.698L120.158 174.147C122.754 172.389 129.398 167.889 134.742 165.972L134.558 165.46ZM132.859 228.591C132.345 215.387 132.392 189.935 134.92 165.744L134.38 165.688C131.849 189.91 131.802 215.389 132.316 228.612L132.859 228.591ZM181.434 239.022C178.666 239.842 168.495 241.326 158.005 240.528C152.762 240.129 147.458 239.161 142.967 237.266C138.477 235.372 134.819 232.56 132.831 228.483L132.343 228.721C134.407 232.954 138.19 235.841 142.756 237.767C147.321 239.693 152.689 240.668 157.964 241.07C168.507 241.872 178.746 240.385 181.588 239.543L181.434 239.022ZM188.838 233.322C188.642 234.204 188.174 235.213 187.073 236.208C185.967 237.206 184.214 238.198 181.434 239.022L181.588 239.543C184.418 238.704 186.253 237.68 187.437 236.611C188.625 235.537 189.149 234.427 189.368 233.439L188.838 233.322ZM202.214 233.234C200.261 230.196 197.008 229.726 194.248 230.23C192.867 230.483 191.591 230.981 190.629 231.538C190.148 231.817 189.739 232.115 189.434 232.409C189.135 232.698 188.907 233.01 188.838 233.322L189.368 233.439C189.403 233.284 189.538 233.063 189.811 232.8C190.077 232.544 190.447 232.272 190.901 232.008C191.809 231.482 193.026 231.006 194.346 230.765C196.989 230.282 199.97 230.748 201.757 233.527L202.214 233.234ZM210.745 239.552C209.162 239.354 205.162 237.819 202.214 233.234L201.757 233.527C204.793 238.25 208.937 239.873 210.678 240.091L210.745 239.552ZM258.453 228.51C257.45 231.317 253.885 235.323 246.369 238.007C238.859 240.689 227.427 242.042 210.752 239.553L210.672 240.09C227.407 242.588 238.934 241.239 246.551 238.519C254.161 235.801 257.889 231.704 258.964 228.693L258.453 228.51ZM256.588 166.14C259.468 187.556 261.313 212.246 258.441 228.554L258.976 228.649C261.864 212.249 260.007 187.484 257.127 166.068L256.588 166.14ZM272.853 174.509C271.459 173.563 268.876 171.809 265.947 170.087C263.023 168.368 259.735 166.669 256.934 165.843L256.781 166.364C259.515 167.171 262.756 168.841 265.672 170.556C268.584 172.268 271.155 174.013 272.547 174.958L272.853 174.509ZM273.862 175.18C273.729 175.103 273.384 174.869 272.853 174.509L272.547 174.958C273.066 175.31 273.434 175.56 273.589 175.65L273.862 175.18ZM274.445 174.977C274.47 175.046 274.488 175.135 274.488 175.218C274.488 175.306 274.469 175.351 274.457 175.366C274.454 175.371 274.451 175.373 274.446 175.375C274.439 175.378 274.418 175.385 274.375 175.382C274.283 175.376 274.119 175.33 273.862 175.18L273.589 175.65C273.878 175.818 274.127 175.911 274.341 175.924C274.57 175.939 274.765 175.86 274.891 175.694C275.003 175.545 275.032 175.363 275.031 175.216C275.031 175.066 275 174.915 274.956 174.793L274.445 174.977ZM255.776 159.593C258.528 161.021 262.722 163.484 266.471 166.292C268.345 167.696 270.102 169.182 271.512 170.665C272.924 172.15 273.97 173.615 274.444 174.975L274.957 174.796C274.446 173.33 273.339 171.799 271.905 170.29C270.468 168.778 268.685 167.272 266.796 165.857C263.019 163.028 258.799 160.549 256.027 159.11L255.776 159.593ZM254.586 152.663C254.939 154.838 255.29 157.086 255.633 159.392L256.17 159.312C255.827 157.004 255.476 154.753 255.122 152.576L254.586 152.663ZM275.441 152.373C273.496 152.104 269.61 151.567 265.578 151.363C263.561 151.261 261.503 151.242 259.628 151.382C257.758 151.522 256.051 151.822 254.749 152.369L254.959 152.87C256.182 152.357 257.821 152.063 259.669 151.924C261.513 151.786 263.547 151.804 265.55 151.906C269.557 152.108 273.421 152.642 275.367 152.911L275.441 152.373ZM275.449 152.374L275.449 152.374L275.36 152.91L275.36 152.91L275.449 152.374ZM275.441 152.373L275.44 152.373L275.369 152.911L275.37 152.912L275.441 152.373ZM276.644 152.528C276.49 152.518 276.078 152.461 275.443 152.373L275.368 152.911C275.988 152.997 276.429 153.058 276.607 153.07L276.644 152.528ZM277.077 152.088C277.129 152.138 277.185 152.21 277.222 152.284C277.261 152.363 277.264 152.412 277.26 152.431C277.259 152.437 277.258 152.44 277.254 152.444C277.249 152.45 277.233 152.465 277.193 152.482C277.108 152.517 276.941 152.548 276.644 152.528L276.607 153.07C276.941 153.092 277.205 153.066 277.403 152.983C277.615 152.894 277.755 152.737 277.794 152.533C277.829 152.349 277.773 152.173 277.708 152.042C277.641 151.907 277.546 151.786 277.454 151.696L277.077 152.088ZM253.779 146.573C256.929 146.649 261.731 147.011 266.266 147.87C268.533 148.299 270.728 148.851 272.614 149.55C274.504 150.25 276.061 151.091 277.075 152.086L277.455 151.698C276.362 150.625 274.722 149.752 272.802 149.04C270.879 148.327 268.652 147.768 266.367 147.336C261.796 146.471 256.964 146.106 253.792 146.03L253.779 146.573ZM252.34 139.928C252.725 141.938 253.12 144.086 253.518 146.348L254.053 146.254C253.654 143.989 253.259 141.839 252.874 139.826L252.34 139.928ZM273.458 134.182C271.357 134.378 267.005 134.784 262.736 135.618C260.602 136.036 258.481 136.561 256.669 137.224C254.864 137.885 253.332 138.693 252.408 139.693L252.807 140.062C253.641 139.159 255.073 138.387 256.855 137.735C258.63 137.085 260.72 136.566 262.84 136.152C267.079 135.323 271.407 134.919 273.508 134.723L273.458 134.182ZM274.664 134.058C274.512 134.083 274.097 134.122 273.458 134.182L273.508 134.723C274.132 134.665 274.576 134.624 274.752 134.594L274.664 134.058ZM274.985 133.531C275.047 133.568 275.118 133.625 275.171 133.689C275.227 133.757 275.241 133.804 275.242 133.823C275.242 133.829 275.241 133.832 275.239 133.837C275.235 133.844 275.224 133.862 275.188 133.888C275.113 133.942 274.958 134.01 274.664 134.058L274.752 134.594C275.082 134.54 275.333 134.453 275.507 134.328C275.693 134.193 275.793 134.008 275.785 133.8C275.777 133.614 275.682 133.455 275.589 133.342C275.493 133.226 275.373 133.129 275.262 133.064L274.985 133.531ZM251.312 133.426C254.446 132.785 259.154 132.066 263.694 131.885C265.964 131.794 268.186 131.837 270.145 132.09C272.109 132.343 273.786 132.803 274.983 133.529L275.265 133.065C273.974 132.281 272.21 131.808 270.215 131.551C268.215 131.293 265.961 131.25 263.672 131.342C259.095 131.525 254.357 132.248 251.203 132.894L251.312 133.426ZM250.963 133.08L250.992 133.216L251.523 133.103L251.494 132.967L250.963 133.08ZM228.474 87.5648C229.118 87.3073 230.246 87.4823 231.782 88.6247C233.303 89.7563 235.165 91.7972 237.233 95.118C241.366 101.758 246.293 113.466 250.964 133.087L251.493 132.961C246.814 113.312 241.871 101.541 237.694 94.8308C235.606 91.4767 233.701 89.3751 232.106 88.1887C230.525 87.0131 229.187 86.6945 228.272 87.0604L228.474 87.5648ZM209.452 105.163C212.117 102.429 216.27 98.2659 220.067 94.6624C221.966 92.8604 223.774 91.2006 225.261 89.93C226.004 89.2946 226.665 88.7587 227.216 88.3519C227.772 87.9405 228.197 87.6754 228.474 87.5648L228.272 87.0604C227.925 87.1991 227.452 87.502 226.893 87.9149C226.328 88.3324 225.656 88.8773 224.908 89.5169C223.41 90.7964 221.595 92.4636 219.693 94.2683C215.889 97.8781 211.731 102.047 209.063 104.784L209.452 105.163ZM182.565 105.222C186.388 103.515 197.107 101.1 209.169 105.231L209.345 104.717C197.139 100.537 186.277 102.969 182.343 104.726L182.565 105.222ZM162.151 87.5778C162.241 87.5578 162.415 87.5624 162.703 87.6461C162.985 87.7277 163.349 87.8773 163.803 88.1155C164.711 88.5917 165.956 89.41 167.585 90.7043C170.841 93.2921 175.609 97.7646 182.252 105.155L182.656 104.792C176.002 97.389 171.211 92.8925 167.923 90.2789C166.279 88.9725 165.004 88.1321 164.055 87.6343C163.581 87.3856 163.182 87.2193 162.855 87.1243C162.534 87.0312 162.255 86.9981 162.033 87.0474L162.151 87.5778Z" fill="#A95028"/>
<ellipse cx="163.642" cy="140.172" rx="4.15556" ry="6.44112" fill="white"/>
<ellipse cx="228.469" cy="140.172" rx="4.15556" ry="6.44112" fill="white"/>
<path d="M195.225 133.731C186.747 134.064 184.074 137.748 183.797 139.549C183.797 142.666 187.329 141.835 188.784 141.211C190.238 140.588 191.069 140.796 192.316 142.666C193.562 144.536 193.77 147.445 196.056 147.445C198.341 147.445 199.172 144.951 199.588 142.666C199.92 140.837 202.22 140.934 203.328 141.211C207.151 142.874 208.315 140.796 208.107 139.549C207.484 137.264 203.702 133.399 195.225 133.731Z" fill="white"/>
<path d="M195.848 159.496C189.183 160.205 181.714 176.088 179.539 183.321C157.529 182.073 151.885 189.844 151.176 192.964C151.176 200.906 163.892 212.062 169.045 215.513C163.259 236.389 167.296 243.687 170.037 244.727C176.986 246.429 190.979 238.818 196.415 234.942C211.845 245.607 220.241 245.909 222.51 244.727C228.636 239.849 225.819 223.219 223.644 215.513C236.578 204.735 240.237 196.652 240.52 193.248C239.244 185.732 221.895 183.463 213.575 183.604C207.562 165.225 199.677 159.779 195.848 159.496Z" fill="white"/>
<path d="M192.844 228.917C189.167 239.698 172.901 241.184 167.038 240.97L150.76 210.422C165.684 211.207 196.522 218.136 192.844 228.917Z" fill="#A95028" stroke="#A95028" stroke-width="0.543306"/>
<path d="M201.377 228.057C205.226 238.837 218.8 241.325 224.936 241.111L243.429 212.23C227.808 213.014 197.527 217.277 201.377 228.057Z" fill="#A95028" stroke="#A95028" stroke-width="0.543306"/>
<path d="M501.866 38.2305C499.174 38.028 495.072 43.7499 493.69 46.4441C485.059 44.3604 482.264 47.0161 481.759 48.1949C481.187 51.3259 485.422 56.6437 487.215 58.3768C483.421 66.1885 484.495 69.3579 485.506 69.9662C488.137 71.1396 494.229 69.151 496.661 68.0159C502.007 73.3362 505.311 74.0626 506.295 73.7607C509.074 72.2804 509.154 65.5203 508.847 62.3252C514.747 59.0113 516.778 56.089 517.135 54.7676C517.171 51.7121 510.461 49.5629 507.154 49.0172C506.094 41.3364 503.362 38.6192 501.866 38.2305Z" fill="#F4E8D1" stroke="black" stroke-width="0.5"/>
<path d="M501.964 94.4797C499.272 94.2817 495.151 100.103 493.761 102.842C485.132 100.751 482.328 103.455 481.819 104.654C481.238 107.834 485.461 113.222 487.25 114.977C483.432 122.919 484.498 126.134 485.508 126.749C488.136 127.933 494.237 125.897 496.674 124.737C502.007 130.124 505.311 130.853 506.297 130.543C509.081 129.033 509.18 122.168 508.882 118.925C514.794 115.544 516.834 112.571 517.196 111.228C517.239 108.126 510.532 105.962 507.225 105.417C506.186 97.6215 503.461 94.8702 501.964 94.4797Z" fill="#EDB586"/>
<path d="M501.866 151.265C499.174 151.063 495.072 156.785 493.69 159.479C485.059 157.395 482.264 160.051 481.759 161.23C481.187 164.361 485.422 169.679 487.215 171.412C483.421 179.223 484.495 182.393 485.506 183.001C488.137 184.175 494.229 182.186 496.661 181.051C502.007 186.371 505.311 187.097 506.295 186.796C509.074 185.315 509.154 178.555 508.847 175.36C514.747 172.046 516.778 169.124 517.135 167.803C517.171 164.747 510.461 162.598 507.154 162.052C506.094 154.371 503.362 151.654 501.866 151.265Z" fill="#D77842"/>
<path d="M501.696 207.466C499.044 207.275 494.968 213.104 493.591 215.846C485.094 213.779 482.324 216.489 481.819 217.689C481.238 220.869 485.385 226.243 487.143 227.992C483.359 235.941 484.401 239.151 485.395 239.763C487.982 240.94 493.998 238.888 496.402 237.723C501.643 243.093 504.897 243.812 505.868 243.5C508.616 241.983 508.732 235.121 508.447 231.881C514.281 228.485 516.3 225.508 516.659 224.165C516.711 221.064 510.107 218.92 506.851 218.384C505.848 210.595 503.169 207.852 501.696 207.466Z" fill="#A95028"/>
<path d="M501.866 264.202C499.174 264 495.072 269.722 493.69 272.416C485.059 270.332 482.264 272.988 481.759 274.167C481.187 277.298 485.422 282.616 487.215 284.349C483.421 292.16 484.495 295.33 485.506 295.938C488.137 297.111 494.229 295.123 496.661 293.988C502.007 299.308 505.311 300.034 506.295 299.733C509.074 298.252 509.154 291.492 508.847 288.297C514.747 284.983 516.778 282.061 517.135 280.739C517.171 277.684 510.461 275.535 507.154 274.989C506.094 267.308 503.362 264.591 501.866 264.202Z" fill="#6A8C79"/>
<defs>
<linearGradient id="paint0_linear_2269_3548" x1="283.147" y1="188.921" x2="337.252" y2="192.849" gradientUnits="userSpaceOnUse">
<stop stop-color="#EDB586"/>
<stop offset="1" stop-color="#A95028"/>
</linearGradient>
<linearGradient id="paint1_linear_2269_3548" x1="245.531" y1="184.016" x2="310.667" y2="189.123" gradientUnits="userSpaceOnUse">
<stop stop-color="#EDB586"/>
<stop offset="1" stop-color="#A95028"/>
</linearGradient>
<linearGradient id="paint2_linear_2269_3548" x1="253.9" y1="204.713" x2="283.343" y2="216.559" gradientUnits="userSpaceOnUse">
<stop stop-color="#EDB586"/>
<stop offset="1" stop-color="#A95028"/>
</linearGradient>
<linearGradient id="paint3_linear_2269_3548" x1="252.054" y1="207.198" x2="270.792" y2="207.767" gradientUnits="userSpaceOnUse">
<stop stop-color="#EDB586"/>
<stop offset="1" stop-color="#A95028"/>
</linearGradient>
<linearGradient id="paint4_linear_2269_3548" x1="173.472" y1="182.211" x2="267.832" y2="193.316" gradientUnits="userSpaceOnUse">
<stop stop-color="#EDB586"/>
<stop offset="1" stop-color="#A95028"/>
</linearGradient>
<linearGradient id="paint5_linear_2269_3548" x1="106.704" y1="189.743" x2="161.563" y2="201.354" gradientUnits="userSpaceOnUse">
<stop stop-color="#EDB586"/>
<stop offset="1" stop-color="#A95028"/>
</linearGradient>
<linearGradient id="paint6_linear_2269_3548" x1="162.324" y1="198.549" x2="213.082" y2="206.375" gradientUnits="userSpaceOnUse">
<stop stop-color="#EDB586"/>
<stop offset="1" stop-color="#A95028"/>
</linearGradient>
<linearGradient id="paint7_linear_2269_3548" x1="67.9692" y1="184.042" x2="128.64" y2="188.345" gradientUnits="userSpaceOnUse">
<stop stop-color="#EDB586"/>
<stop offset="1" stop-color="#A95028"/>
</linearGradient>
<linearGradient id="paint8_linear_2269_3548" x1="38.6806" y1="184.615" x2="96.83" y2="188.837" gradientUnits="userSpaceOnUse">
<stop stop-color="#EDB586"/>
<stop offset="1" stop-color="#A95028"/>
</linearGradient>
<linearGradient id="paint9_linear_2269_3548" x1="93.0541" y1="183.169" x2="228.308" y2="203.687" gradientUnits="userSpaceOnUse">
<stop stop-color="#EDB586"/>
<stop offset="1" stop-color="#A95028"/>
</linearGradient>
<linearGradient id="paint10_linear_2269_3548" x1="93.0541" y1="183.169" x2="228.308" y2="203.687" gradientUnits="userSpaceOnUse">
<stop stop-color="#EDB586"/>
<stop offset="1" stop-color="#A95028"/>
</linearGradient>
</defs>
</svg>
