<svg width="230" height="222" viewBox="0 0 230 222" fill="none" xmlns="http://www.w3.org/2000/svg">
<rect y="2.99341" width="230" height="217" rx="16" fill="#EDEDED"/>
<path d="M114.997 110.99L103.315 11.6748C158.166 5.22338 207.861 44.4585 214.312 99.3089C220.764 154.159 181.528 203.854 126.678 210.306L114.997 110.99Z" fill="#BD081C" stroke="white"/>
<path d="M114.997 110.99L126.678 210.306C94.8867 214.045 63.2267 202.339 41.515 178.817L114.997 110.99Z" fill="#F1C0C6" stroke="white"/>
<path d="M114.997 110.99L41.5151 178.817C34.3976 171.106 28.5383 162.323 24.152 152.79L114.997 110.99Z" fill="#EBA9B0" stroke="white"/>
<path d="M114.997 110.99L24.152 152.79C19.7657 143.257 16.9072 133.093 15.6814 122.672L114.997 110.99Z" fill="#E4929B" stroke="white"/>
<path d="M114.997 110.99L15.6813 122.671C14.4555 112.25 14.8777 101.7 16.9324 91.4095L114.997 110.99Z" fill="#D76471" stroke="white"/>
<path d="M114.997 110.99L16.9324 91.4097C25.4152 48.9256 60.2894 16.7355 103.315 11.6748L114.997 110.99Z" fill="#CA3646" stroke="white"/>
<path d="M193.871 88.1985H202.271C205.471 88.1985 208.071 90.7985 208.071 93.9985V102.398C208.071 103.937 207.46 105.412 206.373 106.5C205.285 107.587 203.81 108.198 202.271 108.198H193.871C190.671 108.198 188.071 105.598 188.071 102.398V93.9985C188.071 92.4602 188.682 90.985 189.77 89.8973C190.858 88.8096 192.333 88.1985 193.871 88.1985ZM193.671 90.1985C192.717 90.1985 191.801 90.5778 191.126 91.2529C190.451 91.928 190.071 92.8437 190.071 93.7985V102.598C190.071 104.588 191.681 106.198 193.671 106.198H202.471C203.426 106.198 204.342 105.819 205.017 105.144C205.692 104.469 206.071 103.553 206.071 102.598V93.7985C206.071 91.8085 204.461 90.1985 202.471 90.1985H193.671ZM203.321 91.6985C203.653 91.6985 203.971 91.8302 204.205 92.0646C204.44 92.299 204.571 92.617 204.571 92.9485C204.571 93.28 204.44 93.5979 204.205 93.8324C203.971 94.0668 203.653 94.1985 203.321 94.1985C202.99 94.1985 202.672 94.0668 202.437 93.8324C202.203 93.5979 202.071 93.28 202.071 92.9485C202.071 92.617 202.203 92.299 202.437 92.0646C202.672 91.8302 202.99 91.6985 203.321 91.6985ZM198.071 93.1985C199.397 93.1985 200.669 93.7253 201.607 94.663C202.545 95.6006 203.071 96.8724 203.071 98.1985C203.071 99.5246 202.545 100.796 201.607 101.734C200.669 102.672 199.397 103.198 198.071 103.198C196.745 103.198 195.473 102.672 194.536 101.734C193.598 100.796 193.071 99.5246 193.071 98.1985C193.071 96.8724 193.598 95.6006 194.536 94.663C195.473 93.7253 196.745 93.1985 198.071 93.1985ZM198.071 95.1985C197.276 95.1985 196.513 95.5146 195.95 96.0772C195.387 96.6398 195.071 97.4028 195.071 98.1985C195.071 98.9941 195.387 99.7572 195.95 100.32C196.513 100.882 197.276 101.198 198.071 101.198C198.867 101.198 199.63 100.882 200.193 100.32C200.755 99.7572 201.071 98.9941 201.071 98.1985C201.071 97.4028 200.755 96.6398 200.193 96.0772C199.63 95.5146 198.867 95.1985 198.071 95.1985Z" fill="white"/>
<path d="M46.9105 79.7856L40.994 67.0971C40.6577 66.376 40.0488 65.818 39.301 65.5459C38.5533 65.2738 37.7282 65.3098 37.007 65.6461C36.2859 65.9824 35.7279 66.5914 35.4558 67.3391C35.1837 68.0868 35.2197 68.912 35.556 69.6331L41.473 82.3211C41.8093 83.0422 42.4182 83.6003 43.1658 83.8724C43.9135 84.1446 44.7387 84.1086 45.4598 83.7724C46.1809 83.4361 46.7389 82.8272 47.0111 82.0796C47.2833 81.3319 47.2468 80.5067 46.9105 79.7856Z" stroke="white" stroke-width="2"/>
<path d="M37.9522 75.9772L34.9932 82.3212C34.8267 82.6783 34.5914 82.9991 34.301 83.2653C34.0105 83.5314 33.6704 83.7378 33.3002 83.8725C32.93 84.0073 32.5368 84.0677 32.1432 84.0505C31.7496 84.0333 31.3632 83.9388 31.0062 83.7722C30.2851 83.436 29.7272 82.8271 29.4551 82.0795C29.183 81.3319 29.219 80.5068 29.5552 79.7857L35.4202 67.2092" stroke="white" stroke-width="2" stroke-linecap="round"/>
<path d="M31.0067 83.7721C32.5083 84.4723 34.2933 83.8227 34.9935 82.321C35.6937 80.8194 35.044 79.0345 33.5424 78.3343C32.0408 77.634 30.2558 78.2837 29.5556 79.7853C28.8554 81.2869 29.5051 83.0719 31.0067 83.7721Z" stroke="white" stroke-width="2"/>
<path d="M25.0805 98.3591V104.773C23.6958 104.516 22.2655 104.692 20.9845 105.277C19.7035 105.862 18.6339 106.828 17.9215 108.043C17.2091 109.258 16.8885 110.663 17.0033 112.066C17.1181 113.47 17.6627 114.804 18.563 115.887C19.4634 116.97 20.6756 117.749 22.0347 118.119C23.3938 118.488 24.8336 118.429 26.1581 117.951C27.4827 117.472 28.6275 116.597 29.4367 115.444C30.246 114.292 30.6803 112.917 30.6805 111.509V107.773C31.7555 108.23 32.9123 108.464 34.0805 108.459H35.0805V102.859H34.0805C32.1775 102.859 30.6805 101.322 30.6805 99.3591V98.3591H25.0805ZM27.0805 100.359H28.7685C29.1625 102.579 30.8485 104.355 33.0805 104.769V106.387C32.0425 106.235 31.1055 105.845 30.2375 105.264L28.6805 104.222V111.509C28.6804 112.479 28.3895 113.427 27.8454 114.229C27.3013 115.032 26.529 115.654 25.6283 116.013C24.7275 116.373 23.7396 116.454 22.7922 116.246C21.8448 116.039 20.9814 115.552 20.3136 114.848C19.6457 114.145 19.204 113.258 19.0456 112.301C18.8872 111.344 19.0193 110.362 19.4248 109.481C19.8304 108.6 20.4907 107.86 21.3207 107.359C22.1506 106.857 23.1119 106.615 24.0805 106.665V108.269C23.4289 108.219 22.7774 108.366 22.2109 108.692C21.6443 109.017 21.1891 109.506 20.9046 110.095C20.6201 110.683 20.5196 111.343 20.6161 111.99C20.7127 112.636 21.0018 113.238 21.4458 113.718C21.8897 114.197 22.4679 114.532 23.1049 114.677C23.7419 114.823 24.408 114.774 25.0164 114.535C25.6248 114.297 26.1472 113.881 26.5154 113.341C26.8836 112.801 27.0805 112.163 27.0805 111.509V100.359ZM22.5805 111.509C22.5805 111.178 22.7122 110.86 22.9466 110.625C23.181 110.391 23.499 110.259 23.8305 110.259C24.162 110.259 24.4799 110.391 24.7144 110.625C24.9488 110.86 25.0805 111.178 25.0805 111.509C25.0805 111.841 24.9488 112.159 24.7144 112.393C24.4799 112.627 24.162 112.759 23.8305 112.759C23.499 112.759 23.181 112.627 22.9466 112.393C22.7122 112.159 22.5805 111.841 22.5805 111.509Z" fill="white"/>
<path d="M35.9668 132.604L32.4668 134.604V130.604L35.9668 132.604Z" fill="white" stroke="white" stroke-width="1.5" stroke-linecap="round" stroke-linejoin="round"/>
<path d="M23.9668 133.312V131.896C23.9668 129.001 23.9668 127.553 24.8718 126.622C25.7778 125.69 27.2038 125.65 30.0548 125.569C31.4048 125.531 32.7848 125.504 33.9668 125.504C35.1478 125.504 36.5278 125.531 37.8788 125.569C40.7298 125.65 42.1558 125.69 43.0608 126.622C43.9668 127.553 43.9668 129.002 43.9668 131.896V133.311C43.9668 136.207 43.9668 137.654 43.0618 138.586C42.1558 139.517 40.7308 139.558 37.8788 139.638C36.5288 139.677 35.1488 139.704 33.9668 139.704C32.6626 139.7 31.3584 139.678 30.0548 139.638C27.2038 139.558 25.7778 139.518 24.8718 138.586C23.9668 137.654 23.9668 136.206 23.9668 133.312Z" stroke="white" stroke-width="1.5"/>
<g clip-path="url(#clip0_868_2721)">
<path d="M52.9504 162.35C52.8186 161.991 52.5668 161.798 52.2806 161.639C52.2332 161.611 52.1845 161.586 52.1346 161.563L51.8745 161.431C50.9815 160.958 50.2845 160.36 49.8011 159.652C49.6637 159.453 49.5444 159.242 49.4449 159.022C49.4045 158.903 49.4069 158.837 49.4354 158.776C49.4651 158.729 49.5043 158.688 49.5506 158.657C49.7038 158.555 49.8617 158.452 49.9686 158.383C50.1609 158.26 50.3118 158.161 50.4091 158.092C50.7761 157.836 51.0326 157.562 51.1929 157.258C51.3046 157.048 51.3697 156.816 51.3839 156.579C51.398 156.341 51.3608 156.103 51.2748 155.881C51.0314 155.242 50.4281 154.845 49.6966 154.845C49.5013 154.845 49.3067 154.871 49.1183 154.923C49.1254 154.486 49.1159 154.024 49.0768 153.57C48.939 151.974 48.3797 151.138 47.7978 150.471C47.4248 150.053 46.9855 149.699 46.4975 149.425C45.6128 148.92 44.6106 148.663 43.5169 148.663C42.4244 148.663 41.4269 148.92 40.5422 149.425C40.053 149.7 39.6136 150.054 39.2395 150.473C38.6576 151.14 38.0995 151.978 37.9606 153.572C37.9214 154.026 37.9131 154.489 37.9178 154.924C37.7294 154.872 37.5349 154.846 37.3395 154.847C36.6092 154.847 36.0048 155.244 35.7625 155.883C35.6761 156.105 35.6384 156.343 35.6521 156.581C35.6659 156.819 35.7306 157.051 35.8421 157.262C36.0036 157.566 36.2601 157.839 36.6258 158.094C36.7232 158.163 36.8752 158.261 37.0664 158.387L37.469 158.649C37.5206 158.683 37.5647 158.728 37.5984 158.78C37.6293 158.843 37.6305 158.91 37.5841 159.037C37.4859 159.253 37.3687 159.46 37.2338 159.655C36.7612 160.347 36.0843 160.934 35.2198 161.403C34.7626 161.645 34.2865 161.807 34.0858 162.353C33.9338 162.766 34.0335 163.235 34.4183 163.629C34.5596 163.778 34.7235 163.903 34.904 163.998C35.279 164.204 35.6778 164.363 36.0915 164.473C36.1769 164.494 36.2579 164.531 36.3313 164.579C36.4715 164.703 36.4525 164.888 36.6389 165.159C36.7327 165.299 36.8526 165.42 36.9904 165.515C37.3823 165.787 37.8228 165.804 38.2907 165.822C38.7123 165.838 39.1908 165.857 39.7359 166.035C39.9615 166.111 40.1978 166.256 40.4698 166.425C41.1229 166.826 42.0195 167.377 43.5169 167.377C45.0155 167.377 45.9156 166.824 46.5759 166.42C46.8454 166.254 47.0794 166.111 47.2991 166.039C47.8453 165.858 48.3239 165.839 48.7455 165.824C49.2121 165.806 49.6527 165.788 50.0458 165.518C50.2094 165.403 50.3456 165.254 50.4448 165.081C50.5801 164.853 50.5754 164.692 50.7024 164.582C50.7713 164.535 50.8476 164.5 50.9281 164.478C51.3476 164.369 51.7521 164.207 52.1322 163.999C52.3222 163.895 52.4956 163.761 52.6416 163.6L52.6464 163.594C53.0074 163.208 53.0976 162.752 52.9504 162.35ZM51.6192 163.065C50.8069 163.514 50.2666 163.466 49.8463 163.736C49.49 163.965 49.7014 164.461 49.4425 164.639C49.1231 164.86 48.1826 164.625 46.9666 165.026C45.9631 165.357 45.3231 166.311 43.5193 166.311C41.7155 166.311 41.0908 165.36 40.0708 165.024C38.8571 164.622 37.9143 164.857 37.596 164.638C37.3371 164.459 37.5473 163.963 37.1911 163.734C36.7707 163.463 36.2304 163.512 35.4193 163.065C34.9016 162.78 35.1949 162.602 35.3671 162.519C38.3097 161.095 38.7788 158.897 38.799 158.733C38.8251 158.536 38.8524 158.381 38.6351 158.18C38.4249 157.985 37.4927 157.408 37.2338 157.228C36.8063 156.928 36.6163 156.63 36.7565 156.263C36.8538 156.009 37.0901 155.913 37.3383 155.913C37.417 155.913 37.4954 155.922 37.5723 155.939C38.0425 156.041 38.4985 156.278 38.7621 156.341C38.7942 156.349 38.8263 156.352 38.8595 156.354C38.9996 156.354 39.0495 156.282 39.04 156.122C39.0091 155.608 38.9367 154.606 39.0175 153.669C39.1291 152.381 39.5447 151.743 40.0375 151.178C40.275 150.907 41.3877 149.73 43.5169 149.73C45.6449 149.73 46.7611 150.902 46.9974 151.173C47.4915 151.737 47.9071 152.375 48.0175 153.664C48.0983 154.6 48.0282 155.602 47.995 156.116C47.9831 156.285 48.0353 156.348 48.1754 156.348C48.2083 156.348 48.2409 156.344 48.2728 156.336C48.5364 156.272 48.9936 156.035 49.4627 155.934C49.5395 155.917 49.6179 155.908 49.6966 155.907C49.946 155.907 50.1823 156.004 50.2785 156.257C50.4174 156.624 50.231 156.922 49.8023 157.222C49.5434 157.402 48.6113 157.979 48.4011 158.174C48.1826 158.375 48.2111 158.53 48.236 158.727C48.2574 158.894 48.7264 161.092 51.6679 162.514C51.8424 162.601 52.1358 162.778 51.6192 163.065Z" fill="white"/>
</g>
<g clip-path="url(#clip1_868_2721)">
<path fill-rule="evenodd" clip-rule="evenodd" d="M59.6157 178.991C59.6159 177.451 60.0602 175.945 60.8955 174.651C61.7308 173.358 62.9215 172.333 64.3247 171.7C65.728 171.067 67.2842 170.852 68.8066 171.081C70.329 171.31 71.7529 171.974 72.9075 172.992C74.0621 174.01 74.8984 175.34 75.3159 176.822C75.7334 178.304 75.7145 179.875 75.2614 181.346C74.8083 182.818 73.9403 184.127 72.7615 185.117C71.5827 186.107 70.1432 186.737 68.6157 186.929V180.991H70.6157C70.8809 180.991 71.1353 180.886 71.3228 180.698C71.5104 180.511 71.6157 180.256 71.6157 179.991C71.6157 179.726 71.5104 179.471 71.3228 179.284C71.1353 179.096 70.8809 178.991 70.6157 178.991H68.6157V176.991C68.6157 176.726 68.7211 176.471 68.9086 176.284C69.0962 176.096 69.3505 175.991 69.6157 175.991H70.1157C70.3809 175.991 70.6353 175.886 70.8228 175.698C71.0104 175.511 71.1157 175.256 71.1157 174.991C71.1157 174.726 71.0104 174.471 70.8228 174.284C70.6353 174.096 70.3809 173.991 70.1157 173.991H69.6157C68.8201 173.991 68.057 174.307 67.4944 174.87C66.9318 175.432 66.6157 176.195 66.6157 176.991V178.991H64.6157C64.3505 178.991 64.0962 179.096 63.9086 179.284C63.7211 179.471 63.6157 179.726 63.6157 179.991C63.6157 180.256 63.7211 180.511 63.9086 180.698C64.0962 180.886 64.3505 180.991 64.6157 180.991H66.6157V186.929C64.6824 186.685 62.9045 185.744 61.6157 184.283C60.3269 182.821 59.6158 180.94 59.6157 178.991ZM67.6157 188.991C73.1387 188.991 77.6157 184.514 77.6157 178.991C77.6157 173.468 73.1387 168.991 67.6157 168.991C62.0927 168.991 57.6157 173.468 57.6157 178.991C57.6157 184.514 62.0927 188.991 67.6157 188.991Z" fill="white"/>
</g>
<rect y="2.99341" width="230" height="217" rx="16" fill="black" fill-opacity="0.35"/>
<path d="M25.0703 38.3953C25.0703 38.2175 25.043 38.058 24.9883 37.9167C24.9382 37.7709 24.8424 37.6388 24.7012 37.5203C24.5599 37.3972 24.3617 37.2764 24.1064 37.158C23.8512 37.0395 23.5208 36.9164 23.1152 36.7888C22.6641 36.643 22.2357 36.4789 21.8301 36.2966C21.429 36.1143 21.0736 35.9024 20.7637 35.6609C20.4583 35.4148 20.2168 35.13 20.0391 34.8064C19.8659 34.4828 19.7793 34.1069 19.7793 33.6785C19.7793 33.2638 19.8704 32.8878 20.0527 32.5505C20.235 32.2087 20.4902 31.9171 20.8184 31.6755C21.1465 31.4294 21.5339 31.2403 21.9805 31.1082C22.4316 30.976 22.9261 30.9099 23.4639 30.9099C24.1976 30.9099 24.8379 31.0421 25.3848 31.3064C25.9316 31.5707 26.3555 31.933 26.6562 32.3933C26.9616 32.8536 27.1143 33.38 27.1143 33.9724H25.0771C25.0771 33.6807 25.0156 33.4255 24.8926 33.2068C24.7741 32.9835 24.5918 32.808 24.3457 32.6804C24.1042 32.5528 23.7988 32.489 23.4297 32.489C23.0742 32.489 22.778 32.5437 22.541 32.6531C22.304 32.7579 22.1263 32.9014 22.0078 33.0837C21.8893 33.2615 21.8301 33.462 21.8301 33.6853C21.8301 33.8539 21.8711 34.0066 21.9531 34.1433C22.0397 34.28 22.1673 34.4076 22.3359 34.5261C22.5046 34.6446 22.7119 34.7563 22.958 34.8611C23.2041 34.9659 23.4889 35.0684 23.8125 35.1687C24.3548 35.3328 24.8311 35.5173 25.2412 35.7224C25.6559 35.9275 26.0023 36.1576 26.2803 36.4128C26.5583 36.6681 26.7679 36.9574 26.9092 37.281C27.0505 37.6046 27.1211 37.9714 27.1211 38.3816C27.1211 38.8145 27.0368 39.2019 26.8682 39.5437C26.6995 39.8855 26.4557 40.1749 26.1367 40.4119C25.8177 40.6488 25.4372 40.8289 24.9951 40.9519C24.5531 41.075 24.0586 41.1365 23.5117 41.1365C23.0195 41.1365 22.5342 41.0727 22.0557 40.9451C21.5771 40.8129 21.1419 40.6147 20.75 40.3503C20.3626 40.086 20.0527 39.7488 19.8203 39.3386C19.5879 38.9285 19.4717 38.4431 19.4717 37.8826H21.5293C21.5293 38.1925 21.5771 38.4545 21.6729 38.6687C21.7686 38.8829 21.903 39.0561 22.0762 39.1882C22.2539 39.3204 22.4635 39.4161 22.7051 39.4753C22.9512 39.5346 23.2201 39.5642 23.5117 39.5642C23.8672 39.5642 24.1589 39.5141 24.3867 39.4138C24.6191 39.3136 24.79 39.1746 24.8994 38.9968C25.0133 38.8191 25.0703 38.6186 25.0703 38.3953ZM32.7676 39.2292V33.6033H34.7363V40.9998H32.8838L32.7676 39.2292ZM32.9863 37.7117L33.5674 37.698C33.5674 38.1902 33.5104 38.6482 33.3965 39.072C33.2826 39.4913 33.1117 39.8559 32.8838 40.1658C32.6559 40.4711 32.3688 40.7104 32.0225 40.8835C31.6761 41.0522 31.2682 41.1365 30.7988 41.1365C30.4388 41.1365 30.1061 41.0863 29.8008 40.9861C29.5 40.8813 29.2402 40.7195 29.0215 40.5007C28.8073 40.2774 28.6387 39.9926 28.5156 39.6462C28.3971 39.2953 28.3379 38.8738 28.3379 38.3816V33.6033H30.3066V38.3953C30.3066 38.614 30.3317 38.7986 30.3818 38.949C30.4365 39.0994 30.5117 39.2224 30.6074 39.3181C30.7031 39.4138 30.8148 39.4822 30.9424 39.5232C31.0745 39.5642 31.2204 39.5847 31.3799 39.5847C31.7855 39.5847 32.1045 39.5027 32.3369 39.3386C32.5739 39.1746 32.7402 38.9513 32.8359 38.6687C32.9362 38.3816 32.9863 38.0626 32.9863 37.7117ZM38.209 35.2166V40.9998H36.2402V33.6033H38.0928L38.209 35.2166ZM40.4375 33.5554L40.4033 35.3806C40.3076 35.3669 40.1914 35.3556 40.0547 35.3464C39.9225 35.3328 39.8018 35.3259 39.6924 35.3259C39.4144 35.3259 39.1729 35.3624 38.9678 35.4353C38.7673 35.5037 38.5986 35.6062 38.4619 35.7429C38.3298 35.8796 38.2295 36.046 38.1611 36.2419C38.0973 36.4379 38.0609 36.6612 38.0518 36.9119L37.6553 36.7888C37.6553 36.3103 37.7031 35.8705 37.7988 35.4695C37.8945 35.0639 38.0335 34.7107 38.2158 34.4099C38.4027 34.1091 38.6305 33.8767 38.8994 33.7126C39.1683 33.5486 39.4759 33.4666 39.8223 33.4666C39.9316 33.4666 40.0433 33.4757 40.1572 33.4939C40.2712 33.5076 40.3646 33.5281 40.4375 33.5554ZM44.0059 39.5642L45.6465 33.6033H47.7041L45.209 40.9998H43.9648L44.0059 39.5642ZM42.8779 33.6033L44.5254 39.571L44.5596 40.9998H43.3086L40.8135 33.6033H42.8779ZM51.8945 41.1365C51.3203 41.1365 50.8053 41.0453 50.3496 40.863C49.8939 40.6762 49.5065 40.4187 49.1875 40.0906C48.873 39.7625 48.6315 39.3819 48.4629 38.949C48.2943 38.5115 48.21 38.0466 48.21 37.5544V37.281C48.21 36.7205 48.2897 36.2078 48.4492 35.7429C48.6087 35.2781 48.8366 34.8748 49.1328 34.533C49.4336 34.1912 49.7982 33.9291 50.2266 33.7468C50.6549 33.56 51.138 33.4666 51.6758 33.4666C52.1999 33.4666 52.6647 33.5531 53.0703 33.7263C53.4759 33.8995 53.8154 34.1456 54.0889 34.4646C54.3669 34.7836 54.5765 35.1664 54.7178 35.613C54.859 36.0551 54.9297 36.5473 54.9297 37.0896V37.9099H49.0508V36.5974H52.9951V36.447C52.9951 36.1736 52.945 35.9298 52.8447 35.7156C52.749 35.4968 52.6032 35.3236 52.4072 35.196C52.2113 35.0684 51.9606 35.0046 51.6553 35.0046C51.3955 35.0046 51.1722 35.0616 50.9854 35.1755C50.7985 35.2895 50.6458 35.449 50.5273 35.6541C50.4134 35.8591 50.3268 36.1007 50.2676 36.3787C50.2129 36.6521 50.1855 36.9529 50.1855 37.281V37.5544C50.1855 37.8507 50.2266 38.1241 50.3086 38.3748C50.3952 38.6254 50.516 38.8419 50.6709 39.0242C50.8304 39.2065 51.0218 39.3477 51.2451 39.448C51.473 39.5483 51.7305 39.5984 52.0176 39.5984C52.373 39.5984 52.7035 39.53 53.0088 39.3933C53.3187 39.252 53.5853 39.0401 53.8086 38.7576L54.7656 39.7966C54.6107 40.0199 54.3988 40.2341 54.1299 40.4392C53.8656 40.6443 53.5465 40.8129 53.1729 40.9451C52.7992 41.0727 52.373 41.1365 51.8945 41.1365ZM58.1494 40.1658L60.1113 33.6033H62.2236L59.25 42.114C59.1862 42.3009 59.0996 42.5014 58.9902 42.7156C58.8854 42.9298 58.7419 43.1326 58.5596 43.324C58.3818 43.5199 58.1562 43.6794 57.8828 43.8025C57.6139 43.9255 57.2835 43.9871 56.8916 43.9871C56.7048 43.9871 56.5521 43.9757 56.4336 43.9529C56.3151 43.9301 56.1738 43.8982 56.0098 43.8572V42.4148C56.0599 42.4148 56.1123 42.4148 56.167 42.4148C56.2217 42.4194 56.2741 42.4216 56.3242 42.4216C56.584 42.4216 56.7959 42.392 56.96 42.3328C57.124 42.2735 57.2562 42.1824 57.3564 42.0593C57.4567 41.9408 57.5365 41.7859 57.5957 41.5945L58.1494 40.1658ZM57.3291 33.6033L58.9355 38.9626L59.2158 41.0476L57.876 41.1912L55.2168 33.6033H57.3291ZM69.6748 40.9998H67.5078L67.5215 39.4001H69.6748C70.2126 39.4001 70.666 39.2794 71.0352 39.0378C71.4043 38.7917 71.6823 38.434 71.8691 37.9646C72.0605 37.4952 72.1562 36.9278 72.1562 36.2625V35.7771C72.1562 35.2667 72.1016 34.8178 71.9922 34.4304C71.8874 34.0431 71.7301 33.7172 71.5205 33.4529C71.3109 33.1886 71.0534 32.9903 70.748 32.8582C70.4427 32.7214 70.0918 32.6531 69.6953 32.6531H67.4668V31.0466H69.6953C70.3607 31.0466 70.9691 31.1606 71.5205 31.3884C72.0765 31.6117 72.5573 31.933 72.9629 32.3523C73.3685 32.7716 73.6807 33.2729 73.8994 33.8562C74.1227 34.435 74.2344 35.0798 74.2344 35.7908V36.2625C74.2344 36.9688 74.1227 37.6137 73.8994 38.197C73.6807 38.7804 73.3685 39.2817 72.9629 39.7009C72.5618 40.1156 72.0811 40.4369 71.5205 40.6648C70.9645 40.8881 70.3493 40.9998 69.6748 40.9998ZM68.6699 31.0466V40.9998H66.6191V31.0466H68.6699ZM79.5938 39.3318V36.0369C79.5938 35.7999 79.555 35.5971 79.4775 35.4285C79.4001 35.2553 79.2793 35.1208 79.1152 35.0251C78.9557 34.9294 78.7484 34.8816 78.4932 34.8816C78.2744 34.8816 78.0853 34.9203 77.9258 34.9978C77.7663 35.0707 77.6432 35.1778 77.5566 35.3191C77.4701 35.4558 77.4268 35.6176 77.4268 35.8044H75.458C75.458 35.49 75.5309 35.1915 75.6768 34.9089C75.8226 34.6264 76.0345 34.378 76.3125 34.1638C76.5905 33.9451 76.9209 33.7742 77.3037 33.6511C77.6911 33.5281 78.124 33.4666 78.6025 33.4666C79.1768 33.4666 79.6872 33.5623 80.1338 33.7537C80.5804 33.9451 80.9313 34.2322 81.1865 34.615C81.4463 34.9978 81.5762 35.4763 81.5762 36.0505V39.2156C81.5762 39.6212 81.6012 39.9539 81.6514 40.2136C81.7015 40.4688 81.7744 40.6921 81.8701 40.8835V40.9998H79.8809C79.7852 40.7992 79.7122 40.5486 79.6621 40.2478C79.6165 39.9425 79.5938 39.6371 79.5938 39.3318ZM79.8535 36.4949L79.8672 37.6091H78.7666C78.5068 37.6091 78.2812 37.6388 78.0898 37.698C77.8984 37.7572 77.7412 37.8416 77.6182 37.9509C77.4951 38.0557 77.404 38.1788 77.3447 38.3201C77.29 38.4613 77.2627 38.6163 77.2627 38.7849C77.2627 38.9535 77.3014 39.1062 77.3789 39.2429C77.4564 39.3751 77.568 39.4799 77.7139 39.5574C77.8597 39.6303 78.0306 39.6667 78.2266 39.6667C78.5228 39.6667 78.7803 39.6075 78.999 39.489C79.2178 39.3705 79.3864 39.2247 79.5049 39.0515C79.6279 38.8783 79.6917 38.7143 79.6963 38.5593L80.2158 39.3933C80.1429 39.5802 80.0426 39.7738 79.915 39.9744C79.792 40.1749 79.6348 40.364 79.4434 40.5417C79.252 40.7149 79.0218 40.8585 78.7529 40.9724C78.484 41.0818 78.165 41.1365 77.7959 41.1365C77.3265 41.1365 76.9004 41.0431 76.5176 40.8562C76.1393 40.6648 75.8385 40.4028 75.6152 40.0701C75.3965 39.7328 75.2871 39.35 75.2871 38.9216C75.2871 38.5343 75.36 38.1902 75.5059 37.8894C75.6517 37.5886 75.8659 37.3357 76.1484 37.1306C76.4355 36.921 76.7933 36.7638 77.2217 36.6589C77.6501 36.5496 78.1468 36.4949 78.7119 36.4949H79.8535ZM86.7168 33.6033V34.9978H82.4102V33.6033H86.7168ZM83.4766 31.7781H85.4453V38.7712C85.4453 38.9854 85.4727 39.1495 85.5273 39.2634C85.5866 39.3774 85.6732 39.4571 85.7871 39.5027C85.901 39.5437 86.0446 39.5642 86.2178 39.5642C86.3408 39.5642 86.4502 39.5597 86.5459 39.5505C86.6462 39.5369 86.7305 39.5232 86.7988 39.5095L86.8057 40.9587C86.637 41.0134 86.4548 41.0567 86.2588 41.0886C86.0628 41.1205 85.8464 41.1365 85.6094 41.1365C85.1764 41.1365 84.7982 41.0658 84.4746 40.9246C84.1556 40.7787 83.9095 40.5463 83.7363 40.2273C83.5632 39.9083 83.4766 39.489 83.4766 38.9695V31.7781ZM91.8301 39.3318V36.0369C91.8301 35.7999 91.7913 35.5971 91.7139 35.4285C91.6364 35.2553 91.5156 35.1208 91.3516 35.0251C91.1921 34.9294 90.9847 34.8816 90.7295 34.8816C90.5107 34.8816 90.3216 34.9203 90.1621 34.9978C90.0026 35.0707 89.8796 35.1778 89.793 35.3191C89.7064 35.4558 89.6631 35.6176 89.6631 35.8044H87.6943C87.6943 35.49 87.7673 35.1915 87.9131 34.9089C88.0589 34.6264 88.2708 34.378 88.5488 34.1638C88.8268 33.9451 89.1572 33.7742 89.54 33.6511C89.9274 33.5281 90.3604 33.4666 90.8389 33.4666C91.4131 33.4666 91.9235 33.5623 92.3701 33.7537C92.8167 33.9451 93.1676 34.2322 93.4229 34.615C93.6826 34.9978 93.8125 35.4763 93.8125 36.0505V39.2156C93.8125 39.6212 93.8376 39.9539 93.8877 40.2136C93.9378 40.4688 94.0107 40.6921 94.1064 40.8835V40.9998H92.1172C92.0215 40.7992 91.9486 40.5486 91.8984 40.2478C91.8529 39.9425 91.8301 39.6371 91.8301 39.3318ZM92.0898 36.4949L92.1035 37.6091H91.0029C90.7432 37.6091 90.5176 37.6388 90.3262 37.698C90.1348 37.7572 89.9775 37.8416 89.8545 37.9509C89.7314 38.0557 89.6403 38.1788 89.5811 38.3201C89.5264 38.4613 89.499 38.6163 89.499 38.7849C89.499 38.9535 89.5378 39.1062 89.6152 39.2429C89.6927 39.3751 89.8044 39.4799 89.9502 39.5574C90.096 39.6303 90.2669 39.6667 90.4629 39.6667C90.7591 39.6667 91.0166 39.6075 91.2354 39.489C91.4541 39.3705 91.6227 39.2247 91.7412 39.0515C91.8643 38.8783 91.9281 38.7143 91.9326 38.5593L92.4521 39.3933C92.3792 39.5802 92.279 39.7738 92.1514 39.9744C92.0283 40.1749 91.8711 40.364 91.6797 40.5417C91.4883 40.7149 91.2581 40.8585 90.9893 40.9724C90.7204 41.0818 90.4014 41.1365 90.0322 41.1365C89.5628 41.1365 89.1367 41.0431 88.7539 40.8562C88.3757 40.6648 88.0749 40.4028 87.8516 40.0701C87.6328 39.7328 87.5234 39.35 87.5234 38.9216C87.5234 38.5343 87.5964 38.1902 87.7422 37.8894C87.888 37.5886 88.1022 37.3357 88.3848 37.1306C88.6719 36.921 89.0296 36.7638 89.458 36.6589C89.8864 36.5496 90.3831 36.4949 90.9482 36.4949H92.0898Z" fill="white"/>
<path d="M109.537 32.4786C109.178 32.1822 108.647 32.2328 108.35 32.5916C108.054 32.9503 108.105 33.4814 108.463 33.7778L109.537 32.4786ZM108.463 33.7778L114.923 39.1141L115.996 37.8149L109.537 32.4786L108.463 33.7778Z" fill="white"/>
<path d="M121.543 33.6437C121.899 33.3438 121.944 32.8123 121.644 32.4565C121.344 32.1007 120.813 32.0554 120.457 32.3553L121.543 33.6437ZM120.457 32.3553L113.793 37.9724L114.879 39.2609L121.543 33.6437L120.457 32.3553Z" fill="white"/>
<rect x="143" y="11.9998" width="69" height="48" rx="24" fill="#E60023"/>
<path d="M164.464 42.281C163.589 42.281 162.829 42.1456 162.183 41.8748C161.542 41.6039 161.037 41.2263 160.667 40.7419C160.298 40.2576 160.089 39.6925 160.042 39.0466L160.035 38.9373H161.988L161.996 39.0154C162.027 39.3331 162.152 39.6091 162.371 39.8435C162.595 40.0779 162.891 40.2628 163.261 40.3982C163.631 40.5284 164.053 40.5935 164.527 40.5935C164.98 40.5935 165.381 40.5232 165.73 40.3826C166.079 40.2419 166.352 40.0492 166.55 39.8044C166.748 39.5544 166.847 39.268 166.847 38.9451V38.9373C166.847 38.531 166.688 38.2003 166.371 37.9451C166.053 37.6847 165.529 37.4763 164.8 37.3201L163.589 37.0701C162.433 36.8253 161.592 36.4347 161.066 35.8982C160.545 35.3565 160.285 34.6664 160.285 33.8279V33.8201C160.285 33.1482 160.462 32.5597 160.816 32.0544C161.175 31.5492 161.667 31.156 162.292 30.8748C162.923 30.5883 163.644 30.4451 164.457 30.4451C165.29 30.4451 166.011 30.5857 166.621 30.8669C167.23 31.143 167.709 31.5206 168.058 31.9998C168.407 32.4789 168.602 33.0206 168.644 33.6248L168.652 33.7263H166.73L166.714 33.6326C166.667 33.3357 166.545 33.0779 166.347 32.8591C166.154 32.6352 165.897 32.4581 165.574 32.3279C165.251 32.1977 164.873 32.1326 164.441 32.1326C164.029 32.1326 163.662 32.1977 163.339 32.3279C163.016 32.4529 162.761 32.63 162.574 32.8591C162.391 33.0883 162.3 33.3643 162.3 33.6873V33.6951C162.3 34.0909 162.454 34.419 162.761 34.6794C163.074 34.9399 163.582 35.143 164.285 35.2888L165.496 35.5466C166.287 35.7133 166.931 35.9347 167.425 36.2107C167.92 36.4867 168.282 36.8305 168.511 37.2419C168.746 37.6482 168.863 38.1378 168.863 38.7107V38.7185C168.863 39.4477 168.683 40.0779 168.324 40.6091C167.97 41.1404 167.462 41.5518 166.8 41.8435C166.144 42.1352 165.365 42.281 164.464 42.281ZM172.855 42.1404C172.319 42.1404 171.837 42.0362 171.41 41.8279C170.988 41.6195 170.655 41.3253 170.41 40.9451C170.17 40.5597 170.051 40.1065 170.051 39.5857V39.5701C170.051 39.0649 170.176 38.63 170.426 38.2654C170.676 37.8956 171.043 37.6065 171.527 37.3982C172.012 37.1899 172.6 37.0675 173.293 37.031L176.449 36.8357V38.1169L173.566 38.3044C173.019 38.3357 172.616 38.4503 172.355 38.6482C172.095 38.8461 171.965 39.1222 171.965 39.4763V39.4919C171.965 39.8565 172.103 40.1404 172.379 40.3435C172.66 40.5466 173.017 40.6482 173.449 40.6482C173.84 40.6482 174.189 40.5701 174.496 40.4138C174.803 40.2576 175.045 40.0466 175.222 39.781C175.4 39.5102 175.488 39.2055 175.488 38.8669V36.1638C175.488 35.7367 175.353 35.4112 175.082 35.1873C174.811 34.9581 174.41 34.8435 173.879 34.8435C173.436 34.8435 173.074 34.9216 172.793 35.0779C172.512 35.2289 172.321 35.4451 172.222 35.7263L172.215 35.7576H170.379L170.387 35.6873C170.449 35.2081 170.637 34.7888 170.949 34.4294C171.262 34.0701 171.676 33.7914 172.191 33.5935C172.707 33.3956 173.301 33.2966 173.972 33.2966C174.712 33.2966 175.337 33.4112 175.847 33.6404C176.358 33.8643 176.746 34.1925 177.012 34.6248C177.277 35.0518 177.41 35.5649 177.41 36.1638V41.9998H175.488V40.8279H175.355C175.199 41.0987 174.996 41.3331 174.746 41.531C174.501 41.7289 174.22 41.88 173.902 41.9841C173.584 42.0883 173.236 42.1404 172.855 42.1404ZM181.457 41.9998L178.418 33.4607H180.496L182.465 40.1013H182.606L184.567 33.4607H186.613L183.582 41.9998H181.457ZM191.247 42.1716C190.398 42.1716 189.668 41.9919 189.059 41.6326C188.455 41.2732 187.989 40.7628 187.661 40.1013C187.333 39.4399 187.168 38.656 187.168 37.7498V37.7419C187.168 36.8461 187.33 36.0649 187.653 35.3982C187.981 34.7315 188.444 34.2159 189.043 33.8513C189.642 33.4815 190.346 33.2966 191.153 33.2966C191.965 33.2966 192.663 33.4763 193.247 33.8357C193.835 34.1899 194.288 34.6873 194.606 35.3279C194.924 35.9685 195.083 36.7185 195.083 37.5779V38.2185H188.145V36.9138H194.129L193.208 38.1326V37.3591C193.208 36.7914 193.122 36.3201 192.95 35.9451C192.778 35.5701 192.538 35.2888 192.231 35.1013C191.929 34.9138 191.577 34.8201 191.176 34.8201C190.775 34.8201 190.418 34.919 190.106 35.1169C189.799 35.3097 189.554 35.5961 189.372 35.9763C189.194 36.3513 189.106 36.8123 189.106 37.3591V38.1404C189.106 38.6664 189.194 39.1169 189.372 39.4919C189.549 39.8617 189.799 40.1482 190.122 40.3513C190.45 40.5492 190.838 40.6482 191.286 40.6482C191.635 40.6482 191.934 40.5987 192.184 40.4998C192.439 40.3956 192.645 40.2732 192.801 40.1326C192.958 39.9867 193.067 39.8487 193.129 39.7185L193.153 39.6638H194.997L194.981 39.7341C194.913 40.0102 194.788 40.2914 194.606 40.5779C194.429 40.8591 194.187 41.1222 193.879 41.3669C193.577 41.6065 193.208 41.8018 192.77 41.9529C192.333 42.0987 191.825 42.1716 191.247 42.1716Z" fill="white"/>
<rect x="140" y="178" width="32" height="32" rx="16" fill="#F1F1F1"/>
<path d="M160.233 188.233L161.078 189.077C160.882 189.273 160.882 189.589 161.078 189.784L161.5 190.207C161.307 190.4 161.305 190.712 161.494 190.908C161.298 190.718 160.986 190.721 160.793 190.914L160.198 190.319C160.003 190.124 159.686 190.124 159.491 190.319L158.302 189.13C158.497 188.934 158.497 188.618 158.302 188.422L157.354 187.474L156.5 186.621V187.828V189.026C156.5 189.302 156.724 189.526 157 189.526V190.923C156.724 190.923 156.5 191.146 156.5 191.423V193.819C156.5 194.095 156.724 194.319 157 194.319V195.716C156.724 195.716 156.5 195.939 156.5 196.216V196.914C156.224 196.914 156 197.138 156 197.414C156 197.138 155.776 196.914 155.5 196.914V196.216C155.5 195.939 155.276 195.716 155 195.716V194.319C155.276 194.319 155.5 194.095 155.5 193.819V191.423C155.5 191.146 155.276 190.923 155 190.923V189.526C155.276 189.526 155.5 189.302 155.5 189.026V187.828V186.621L154.646 187.474L153.698 188.422C153.503 188.618 153.503 188.934 153.698 189.13L152.509 190.319C152.314 190.124 151.997 190.124 151.802 190.319L151.207 190.914C151.014 190.721 150.702 190.718 150.506 190.908C150.695 190.712 150.693 190.4 150.5 190.207L150.922 189.784C151.118 189.589 151.118 189.273 150.922 189.077L151.767 188.233C151.962 188.428 152.279 188.428 152.474 188.233L154.026 186.681C154.221 186.486 154.221 186.169 154.026 185.974L154.871 185.129C155.066 185.324 155.382 185.324 155.578 185.129L156 184.707L156.422 185.129C156.618 185.324 156.934 185.324 157.129 185.129L157.974 185.974C157.779 186.169 157.779 186.486 157.974 186.681L159.526 188.233C159.721 188.428 160.038 188.428 160.233 188.233ZM147.5 198.414C147.5 198.138 147.276 197.914 147 197.914V196.914C147.276 196.914 147.5 196.69 147.5 196.414V195.914C147.776 195.914 148 195.69 148 195.414C148 195.69 148.224 195.914 148.5 195.914V196.414C148.5 196.69 148.724 196.914 149 196.914V197.914C148.724 197.914 148.5 198.138 148.5 198.414V199.414C148.5 199.513 148.51 199.611 148.529 199.706C148.549 199.809 148.599 199.897 148.668 199.965C148.668 200.062 148.695 200.16 148.753 200.247C148.807 200.328 148.869 200.404 148.939 200.474C149.009 200.544 149.086 200.607 149.167 200.661C149.253 200.719 149.352 200.746 149.448 200.745C149.516 200.814 149.605 200.865 149.707 200.885C149.803 200.904 149.901 200.914 150 200.914H151C151.276 200.914 151.5 200.69 151.5 200.414H152.5C152.5 200.69 152.724 200.914 153 200.914H155C155.276 200.914 155.5 200.69 155.5 200.414H156.5C156.5 200.69 156.724 200.914 157 200.914H159C159.276 200.914 159.5 200.69 159.5 200.414H160.5C160.5 200.69 160.724 200.914 161 200.914H162C162.099 200.914 162.197 200.904 162.293 200.885C162.395 200.865 162.484 200.814 162.552 200.745C162.648 200.746 162.747 200.719 162.833 200.661C162.914 200.607 162.991 200.544 163.061 200.474C163.131 200.404 163.193 200.328 163.247 200.247C163.305 200.16 163.332 200.062 163.332 199.965C163.401 199.897 163.451 199.809 163.471 199.706C163.49 199.611 163.5 199.513 163.5 199.414V198.414C163.5 198.138 163.276 197.914 163 197.914V196.914C163.276 196.914 163.5 196.69 163.5 196.414V195.914C163.776 195.914 164 195.69 164 195.414C164 195.69 164.224 195.914 164.5 195.914V196.414C164.5 196.69 164.724 196.914 165 196.914V197.914C164.724 197.914 164.5 198.138 164.5 198.414V199.414C164.5 199.579 164.484 199.742 164.452 199.901C164.401 200.159 164.557 200.409 164.804 200.48C164.783 200.535 164.761 200.589 164.737 200.643C164.511 200.518 164.224 200.585 164.079 200.803C163.988 200.938 163.884 201.065 163.768 201.182C163.651 201.298 163.524 201.402 163.389 201.492C163.171 201.638 163.104 201.925 163.229 202.15C163.175 202.175 163.121 202.197 163.066 202.218C162.995 201.97 162.745 201.815 162.488 201.866C162.328 201.897 162.165 201.914 162 201.914H161C160.724 201.914 160.5 202.138 160.5 202.414H159.5C159.5 202.138 159.276 201.914 159 201.914H157C156.724 201.914 156.5 202.138 156.5 202.414H155.5C155.5 202.138 155.276 201.914 155 201.914H153C152.724 201.914 152.5 202.138 152.5 202.414H151.5C151.5 202.138 151.276 201.914 151 201.914H150C149.835 201.914 149.672 201.897 149.512 201.866C149.255 201.815 149.005 201.97 148.934 202.218C148.879 202.197 148.825 202.175 148.771 202.15C148.896 201.925 148.829 201.638 148.611 201.492C148.476 201.402 148.349 201.298 148.232 201.182C148.116 201.065 148.012 200.938 147.921 200.803C147.776 200.585 147.489 200.518 147.263 200.643C147.239 200.589 147.217 200.535 147.196 200.48C147.443 200.409 147.599 200.159 147.548 199.901C147.516 199.742 147.5 199.579 147.5 199.414V198.414Z" fill="black" stroke="black" stroke-linecap="round" stroke-dasharray="2 2"/>
<rect x="180" y="178" width="32" height="32" rx="16" fill="#F1F1F1"/>
<path d="M190.157 196.234C189.561 196.234 189.058 196.029 188.648 195.619C188.238 195.209 188.033 194.711 188.033 194.125C188.033 193.529 188.238 193.026 188.648 192.616C189.058 192.206 189.561 192.001 190.157 192.001C190.743 192.001 191.241 192.206 191.651 192.616C192.061 193.026 192.266 193.529 192.266 194.125C192.266 194.711 192.061 195.209 191.651 195.619C191.241 196.029 190.743 196.234 190.157 196.234ZM196.5 196.234C195.904 196.234 195.401 196.029 194.991 195.619C194.581 195.209 194.376 194.711 194.376 194.125C194.376 193.529 194.581 193.026 194.991 192.616C195.401 192.206 195.904 192.001 196.5 192.001C197.086 192.001 197.584 192.206 197.994 192.616C198.404 193.026 198.609 193.529 198.609 194.125C198.609 194.711 198.404 195.209 197.994 195.619C197.584 196.029 197.086 196.234 196.5 196.234ZM202.843 196.234C202.248 196.234 201.745 196.029 201.335 195.619C200.924 195.209 200.719 194.711 200.719 194.125C200.719 193.529 200.924 193.026 201.335 192.616C201.745 192.206 202.248 192.001 202.843 192.001C203.429 192.001 203.927 192.206 204.338 192.616C204.748 193.026 204.953 193.529 204.953 194.125C204.953 194.711 204.748 195.209 204.338 195.619C203.927 196.029 203.429 196.234 202.843 196.234Z" fill="black"/>
<defs>
<clipPath id="clip0_868_2721">
<rect width="19" height="19" fill="white" transform="translate(34.0178 148.663)"/>
</clipPath>
<clipPath id="clip1_868_2721">
<rect width="24" height="24" fill="white" transform="translate(55.6157 166.991)"/>
</clipPath>
</defs>
</svg>
