<svg width="230" height="222" viewBox="0 0 230 222" fill="none" xmlns="http://www.w3.org/2000/svg">
<rect y="3" width="230" height="217" rx="16" fill="white"/>
<path d="M114.997 110.997L103.315 11.6814C158.166 5.22997 207.861 44.4651 214.312 99.3154C220.764 154.166 181.528 203.861 126.678 210.312L114.997 110.997Z" fill="#BD081C" stroke="white"/>
<path d="M114.997 110.997L126.678 210.312C94.8867 214.052 63.2267 202.345 41.515 178.823L114.997 110.997Z" fill="#F1C0C6" stroke="white"/>
<path d="M114.997 110.997L41.5151 178.823C34.3976 171.113 28.5383 162.329 24.152 152.797L114.997 110.997Z" fill="#EBA9B0" stroke="white"/>
<path d="M114.997 110.997L24.152 152.797C19.7657 143.264 16.9072 133.1 15.6814 122.678L114.997 110.997Z" fill="#E4929B" stroke="white"/>
<path d="M114.997 110.997L15.6813 122.678C14.4555 112.256 14.8777 101.707 16.9324 91.4161L114.997 110.997Z" fill="#D76471" stroke="white"/>
<path d="M114.997 110.997L16.9324 91.4163C25.4152 48.9322 60.2894 16.7421 103.315 11.6814L114.997 110.997Z" fill="#CA3646" stroke="white"/>
<path d="M193.871 88.2051H202.271C205.471 88.2051 208.071 90.8051 208.071 94.0051V102.405C208.071 103.943 207.46 105.419 206.373 106.506C205.285 107.594 203.81 108.205 202.271 108.205H193.871C190.671 108.205 188.071 105.605 188.071 102.405V94.0051C188.071 92.4668 188.682 90.9916 189.77 89.9039C190.858 88.8161 192.333 88.2051 193.871 88.2051ZM193.671 90.2051C192.717 90.2051 191.801 90.5844 191.126 91.2595C190.451 91.9346 190.071 92.8503 190.071 93.8051V102.605C190.071 104.595 191.681 106.205 193.671 106.205H202.471C203.426 106.205 204.342 105.826 205.017 105.151C205.692 104.476 206.071 103.56 206.071 102.605V93.8051C206.071 91.8151 204.461 90.2051 202.471 90.2051H193.671ZM203.321 91.7051C203.653 91.7051 203.971 91.8368 204.205 92.0712C204.44 92.3056 204.571 92.6236 204.571 92.9551C204.571 93.2866 204.44 93.6045 204.205 93.839C203.971 94.0734 203.653 94.2051 203.321 94.2051C202.99 94.2051 202.672 94.0734 202.437 93.839C202.203 93.6045 202.071 93.2866 202.071 92.9551C202.071 92.6236 202.203 92.3056 202.437 92.0712C202.672 91.8368 202.99 91.7051 203.321 91.7051ZM198.071 93.2051C199.397 93.2051 200.669 93.7319 201.607 94.6695C202.545 95.6072 203.071 96.879 203.071 98.2051C203.071 99.5312 202.545 100.803 201.607 101.741C200.669 102.678 199.397 103.205 198.071 103.205C196.745 103.205 195.473 102.678 194.536 101.741C193.598 100.803 193.071 99.5312 193.071 98.2051C193.071 96.879 193.598 95.6072 194.536 94.6695C195.473 93.7319 196.745 93.2051 198.071 93.2051ZM198.071 95.2051C197.276 95.2051 196.513 95.5211 195.95 96.0838C195.387 96.6464 195.071 97.4094 195.071 98.2051C195.071 99.0007 195.387 99.7638 195.95 100.326C196.513 100.889 197.276 101.205 198.071 101.205C198.867 101.205 199.63 100.889 200.193 100.326C200.755 99.7638 201.071 99.0007 201.071 98.2051C201.071 97.4094 200.755 96.6464 200.193 96.0838C199.63 95.5211 198.867 95.2051 198.071 95.2051Z" fill="white"/>
<path d="M46.9105 79.7922L40.994 67.1037C40.6577 66.3826 40.0488 65.8246 39.301 65.5525C38.5533 65.2804 37.7282 65.3164 37.007 65.6527C36.2859 65.989 35.7279 66.598 35.4558 67.3457C35.1837 68.0934 35.2197 68.9186 35.556 69.6397L41.473 82.3277C41.8093 83.0488 42.4182 83.6069 43.1658 83.879C43.9135 84.1512 44.7387 84.1152 45.4598 83.779C46.1809 83.4427 46.7389 82.8338 47.0111 82.0862C47.2833 81.3385 47.2468 80.5133 46.9105 79.7922Z" stroke="white" stroke-width="2"/>
<path d="M37.9522 75.9838L34.9932 82.3278C34.8267 82.6849 34.5914 83.0057 34.301 83.2718C34.0105 83.538 33.6704 83.7444 33.3002 83.8791C32.93 84.0138 32.5368 84.0743 32.1432 84.0571C31.7496 84.0399 31.3632 83.9454 31.0062 83.7788C30.2851 83.4426 29.7272 82.8337 29.4551 82.0861C29.183 81.3385 29.219 80.5134 29.5552 79.7923L35.4202 67.2158" stroke="white" stroke-width="2" stroke-linecap="round"/>
<path d="M31.0067 83.7787C32.5083 84.4789 34.2933 83.8293 34.9935 82.3276C35.6937 80.826 35.044 79.0411 33.5424 78.3409C32.0408 77.6406 30.2558 78.2903 29.5556 79.7919C28.8554 81.2935 29.5051 83.0785 31.0067 83.7787Z" stroke="white" stroke-width="2"/>
<path d="M25.0805 98.3657V104.78C23.6958 104.523 22.2655 104.699 20.9845 105.284C19.7035 105.869 18.6339 106.835 17.9215 108.05C17.2091 109.264 16.8885 110.669 17.0033 112.073C17.1181 113.477 17.6627 114.811 18.563 115.894C19.4634 116.977 20.6756 117.756 22.0347 118.125C23.3938 118.494 24.8336 118.436 26.1581 117.957C27.4827 117.479 28.6275 116.603 29.4367 115.451C30.246 114.298 30.6803 112.924 30.6805 111.516V107.78C31.7555 108.237 32.9123 108.47 34.0805 108.466H35.0805V102.866H34.0805C32.1775 102.866 30.6805 101.329 30.6805 99.3657V98.3657H25.0805ZM27.0805 100.366H28.7685C29.1625 102.586 30.8485 104.362 33.0805 104.776V106.394C32.0425 106.242 31.1055 105.852 30.2375 105.271L28.6805 104.229V111.516C28.6804 112.486 28.3895 113.433 27.8454 114.236C27.3013 115.039 26.529 115.66 25.6283 116.02C24.7275 116.379 23.7396 116.46 22.7922 116.253C21.8448 116.045 20.9814 115.558 20.3136 114.855C19.6457 114.152 19.204 113.264 19.0456 112.308C18.8872 111.351 19.0193 110.368 19.4248 109.487C19.8304 108.606 20.4907 107.867 21.3207 107.365C22.1506 106.863 23.1119 106.622 24.0805 106.672V108.276C23.4289 108.225 22.7774 108.373 22.2109 108.698C21.6443 109.024 21.1891 109.513 20.9046 110.101C20.6201 110.69 20.5196 111.35 20.6161 111.996C20.7127 112.642 21.0018 113.245 21.4458 113.724C21.8897 114.204 22.4679 114.538 23.1049 114.684C23.7419 114.83 24.408 114.78 25.0164 114.542C25.6248 114.304 26.1472 113.887 26.5154 113.347C26.8836 112.807 27.0805 112.169 27.0805 111.516V100.366ZM22.5805 111.516C22.5805 111.184 22.7122 110.866 22.9466 110.632C23.181 110.397 23.499 110.266 23.8305 110.266C24.162 110.266 24.4799 110.397 24.7144 110.632C24.9488 110.866 25.0805 111.184 25.0805 111.516C25.0805 111.847 24.9488 112.165 24.7144 112.4C24.4799 112.634 24.162 112.766 23.8305 112.766C23.499 112.766 23.181 112.634 22.9466 112.4C22.7122 112.165 22.5805 111.847 22.5805 111.516Z" fill="white"/>
<path d="M35.9668 132.61L32.4668 134.61V130.61L35.9668 132.61Z" fill="white" stroke="white" stroke-width="1.5" stroke-linecap="round" stroke-linejoin="round"/>
<path d="M23.9668 133.318V131.902C23.9668 129.007 23.9668 127.559 24.8718 126.628C25.7778 125.696 27.2038 125.656 30.0548 125.575C31.4048 125.537 32.7848 125.51 33.9668 125.51C35.1478 125.51 36.5278 125.537 37.8788 125.575C40.7298 125.656 42.1558 125.696 43.0608 126.628C43.9668 127.559 43.9668 129.008 43.9668 131.902V133.317C43.9668 136.213 43.9668 137.66 43.0618 138.592C42.1558 139.523 40.7308 139.564 37.8788 139.644C36.5288 139.683 35.1488 139.71 33.9668 139.71C32.6626 139.706 31.3584 139.684 30.0548 139.644C27.2038 139.564 25.7778 139.524 24.8718 138.592C23.9668 137.66 23.9668 136.212 23.9668 133.318Z" stroke="white" stroke-width="1.5"/>
<g clip-path="url(#clip0_868_2790)">
<path d="M52.9504 162.357C52.8186 161.997 52.5668 161.805 52.2806 161.646C52.2332 161.618 52.1845 161.593 52.1346 161.57L51.8745 161.438C50.9815 160.964 50.2845 160.367 49.8011 159.659C49.6637 159.46 49.5444 159.249 49.4449 159.028C49.4045 158.91 49.4069 158.843 49.4354 158.783C49.4651 158.736 49.5043 158.695 49.5506 158.664C49.7038 158.562 49.8617 158.458 49.9686 158.39C50.1609 158.266 50.3118 158.168 50.4091 158.099C50.7761 157.842 51.0326 157.569 51.1929 157.265C51.3046 157.055 51.3697 156.823 51.3839 156.585C51.398 156.348 51.3608 156.11 51.2748 155.888C51.0314 155.249 50.4281 154.852 49.6966 154.852C49.5013 154.852 49.3067 154.878 49.1183 154.929C49.1254 154.492 49.1159 154.03 49.0768 153.577C48.939 151.981 48.3797 151.145 47.7978 150.477C47.4248 150.06 46.9855 149.706 46.4975 149.431C45.6128 148.926 44.6106 148.67 43.5169 148.67C42.4244 148.67 41.4269 148.926 40.5422 149.431C40.053 149.707 39.6136 150.06 39.2395 150.48C38.6576 151.147 38.0995 151.984 37.9606 153.579C37.9214 154.033 37.9131 154.496 37.9178 154.93C37.7294 154.879 37.5349 154.853 37.3395 154.853C36.6092 154.853 36.0048 155.251 35.7625 155.89C35.6761 156.112 35.6384 156.35 35.6521 156.588C35.6659 156.826 35.7306 157.058 35.8421 157.269C36.0036 157.573 36.2601 157.846 36.6258 158.101C36.7232 158.17 36.8752 158.267 37.0664 158.393L37.469 158.656C37.5206 158.69 37.5647 158.734 37.5984 158.786C37.6293 158.849 37.6305 158.917 37.5841 159.044C37.4859 159.26 37.3687 159.466 37.2338 159.661C36.7612 160.354 36.0843 160.94 35.2198 161.409C34.7626 161.652 34.2865 161.813 34.0858 162.359C33.9338 162.773 34.0335 163.242 34.4183 163.636C34.5596 163.784 34.7235 163.909 34.904 164.004C35.279 164.21 35.6778 164.37 36.0915 164.479C36.1769 164.501 36.2579 164.537 36.3313 164.586C36.4715 164.709 36.4525 164.895 36.6389 165.165C36.7327 165.306 36.8526 165.427 36.9904 165.522C37.3823 165.794 37.8228 165.81 38.2907 165.828C38.7123 165.845 39.1908 165.864 39.7359 166.042C39.9615 166.118 40.1978 166.263 40.4698 166.431C41.1229 166.833 42.0195 167.384 43.5169 167.384C45.0155 167.384 45.9156 166.83 46.5759 166.427C46.8454 166.26 47.0794 166.118 47.2991 166.045C47.8453 165.865 48.3239 165.846 48.7455 165.83C49.2121 165.813 49.6527 165.795 50.0458 165.524C50.2094 165.41 50.3456 165.26 50.4448 165.087C50.5801 164.859 50.5754 164.699 50.7024 164.588C50.7713 164.542 50.8476 164.507 50.9281 164.485C51.3476 164.375 51.7521 164.214 52.1322 164.005C52.3222 163.902 52.4956 163.768 52.6416 163.606L52.6464 163.6C53.0074 163.214 53.0976 162.758 52.9504 162.357ZM51.6192 163.072C50.8069 163.521 50.2666 163.472 49.8463 163.743C49.49 163.972 49.7014 164.467 49.4425 164.645C49.1231 164.866 48.1826 164.631 46.9666 165.032C45.9631 165.364 45.3231 166.317 43.5193 166.317C41.7155 166.317 41.0908 165.366 40.0708 165.03C38.8571 164.629 37.9143 164.864 37.596 164.644C37.3371 164.466 37.5473 163.97 37.1911 163.74C36.7707 163.47 36.2304 163.518 35.4193 163.072C34.9016 162.787 35.1949 162.609 35.3671 162.526C38.3097 161.102 38.7788 158.904 38.799 158.74C38.8251 158.543 38.8524 158.387 38.6351 158.187C38.4249 157.992 37.4927 157.415 37.2338 157.234C36.8063 156.935 36.6163 156.637 36.7565 156.27C36.8538 156.016 37.0901 155.92 37.3383 155.92C37.417 155.92 37.4954 155.929 37.5723 155.946C38.0425 156.048 38.4985 156.284 38.7621 156.347C38.7942 156.355 38.8263 156.359 38.8595 156.36C38.9996 156.36 39.0495 156.289 39.04 156.129C39.0091 155.614 38.9367 154.612 39.0175 153.675C39.1291 152.388 39.5447 151.749 40.0375 151.185C40.275 150.913 41.3877 149.736 43.5169 149.736C45.6449 149.736 46.7611 150.908 46.9974 151.179C47.4915 151.743 47.9071 152.382 48.0175 153.67C48.0983 154.606 48.0282 155.608 47.995 156.123C47.9831 156.291 48.0353 156.354 48.1754 156.354C48.2083 156.354 48.2409 156.35 48.2728 156.342C48.5364 156.278 48.9936 156.042 49.4627 155.941C49.5395 155.923 49.6179 155.914 49.6966 155.914C49.946 155.914 50.1823 156.011 50.2785 156.264C50.4174 156.631 50.231 156.929 49.8023 157.228C49.5434 157.409 48.6113 157.986 48.4011 158.181C48.1826 158.381 48.2111 158.537 48.236 158.734C48.2574 158.9 48.7264 161.098 51.6679 162.521C51.8424 162.608 52.1358 162.785 51.6192 163.072Z" fill="white"/>
</g>
<g clip-path="url(#clip1_868_2790)">
<path fill-rule="evenodd" clip-rule="evenodd" d="M59.6157 178.998C59.6159 177.458 60.0602 175.951 60.8955 174.658C61.7308 173.365 62.9215 172.34 64.3247 171.707C65.728 171.073 67.2842 170.858 68.8066 171.087C70.329 171.317 71.7529 171.98 72.9075 172.999C74.0621 174.017 74.8984 175.347 75.3159 176.829C75.7334 178.311 75.7145 179.881 75.2614 181.353C74.8083 182.824 73.9403 184.133 72.7615 185.124C71.5827 186.114 70.1432 186.743 68.6157 186.936V180.998H70.6157C70.8809 180.998 71.1353 180.892 71.3228 180.705C71.5104 180.517 71.6157 180.263 71.6157 179.998C71.6157 179.732 71.5104 179.478 71.3228 179.29C71.1353 179.103 70.8809 178.998 70.6157 178.998H68.6157V176.998C68.6157 176.732 68.7211 176.478 68.9086 176.29C69.0962 176.103 69.3505 175.998 69.6157 175.998H70.1157C70.3809 175.998 70.6353 175.892 70.8228 175.705C71.0104 175.517 71.1157 175.263 71.1157 174.998C71.1157 174.732 71.0104 174.478 70.8228 174.29C70.6353 174.103 70.3809 173.998 70.1157 173.998H69.6157C68.8201 173.998 68.057 174.314 67.4944 174.876C66.9318 175.439 66.6157 176.202 66.6157 176.998V178.998H64.6157C64.3505 178.998 64.0962 179.103 63.9086 179.29C63.7211 179.478 63.6157 179.732 63.6157 179.998C63.6157 180.263 63.7211 180.517 63.9086 180.705C64.0962 180.892 64.3505 180.998 64.6157 180.998H66.6157V186.936C64.6824 186.692 62.9045 185.751 61.6157 184.289C60.3269 182.828 59.6158 180.946 59.6157 178.998ZM67.6157 188.998C73.1387 188.998 77.6157 184.521 77.6157 178.998C77.6157 173.475 73.1387 168.998 67.6157 168.998C62.0927 168.998 57.6157 173.475 57.6157 178.998C57.6157 184.521 62.0927 188.998 67.6157 188.998Z" fill="white"/>
</g>
<defs>
<clipPath id="clip0_868_2790">
<rect width="19" height="19" fill="white" transform="translate(34.0178 148.67)"/>
</clipPath>
<clipPath id="clip1_868_2790">
<rect width="24" height="24" fill="white" transform="translate(55.6157 166.998)"/>
</clipPath>
</defs>
</svg>
