<svg width="86" height="77" viewBox="0 0 86 77" fill="none" xmlns="http://www.w3.org/2000/svg" xmlns:xlink="http://www.w3.org/1999/xlink">
<style>
path {
    transition: fill 0.3s ease-in-out;
}

path:hover {
    cursor: pointer;
    fill: #df4646;
}
</style>
<a>
<path d="M7.68491 29.9275C3.90336 24.2638 1.14793 17.7372 0.914612 10.9317C0.817618 8.05317 2.00848 4.33549 4.89078 4.31788C6.16432 4.3106 7.29652 5.1008 8.27826 5.91313C13.3774 10.122 17.1702 15.8872 19.0179 22.2333C19.3578 15.5029 21.2745 8.85658 24.5672 2.97781C25.2983 1.67395 26.3891 0.243288 27.8813 0.330781C29.5958 0.431936 30.465 2.41784 30.833 4.09638C33.2518 15.1904 30.4752 26.7427 26.6152 37.1787C21.7805 50.2505 12.1185 36.572 7.68491 29.9275Z" fill="#EDEDED"/>
</a>
<a>
<path d="M55.8149 60.2709C54.0154 53.7029 53.4621 46.6401 55.3899 40.1092C56.2069 37.3474 58.5109 34.196 61.2513 35.0895C62.4619 35.4848 63.2866 36.5921 63.9616 37.6729C67.4706 43.2767 69.2487 49.9446 68.9977 56.5494C71.4457 50.2708 75.3632 44.5699 80.344 40.0319C81.4494 39.0256 82.9362 38.0126 84.3244 38.5669C85.9192 39.2043 86.1168 41.3631 85.9359 43.0719C84.7274 54.3621 78.4446 64.4463 71.4865 73.1293C62.7712 84.0054 57.9233 67.9755 55.8149 60.2709Z" fill="#EDEDED"/>
</a>
</svg>
