<svg width="1280" height="541" viewBox="0 0 1280 541" fill="none" xmlns="http://www.w3.org/2000/svg">
<rect width="1280" height="540.5" fill="url(#paint0_linear_2194_3600)" fill-opacity="0.6"/>
<g filter="url(#filter0_i_2194_3600)">
<path d="M423 241.539C423 269.542 407.538 270.894 389.5 230.864C371.462 270.894 356 269.542 356 241.539C356 213.535 370.998 190.834 389.5 190.834C408.002 190.834 423 213.535 423 241.539Z" fill="#565862"/>
</g>
<path d="M249.04 253.698C246.608 253.698 244.24 253.442 241.936 252.93C239.696 252.482 237.584 251.842 235.6 251.01C233.68 250.114 232.016 249.058 230.608 247.842L233.104 242.37C234.64 243.586 236.304 244.61 238.096 245.442C239.888 246.21 241.712 246.786 243.568 247.17C245.424 247.554 247.312 247.746 249.232 247.746C252.88 247.746 255.632 247.074 257.488 245.73C259.344 244.386 260.272 242.562 260.272 240.258C260.272 238.466 259.664 237.058 258.448 236.034C257.232 234.946 255.312 234.114 252.688 233.538L243.952 231.618C239.92 230.786 236.912 229.346 234.928 227.298C233.008 225.25 232.048 222.594 232.048 219.33C232.048 216.45 232.784 213.986 234.256 211.938C235.792 209.826 237.936 208.194 240.688 207.042C243.44 205.89 246.64 205.314 250.288 205.314C252.464 205.314 254.544 205.538 256.528 205.986C258.512 206.434 260.368 207.106 262.096 208.002C263.888 208.834 265.424 209.89 266.704 211.17L264.112 216.642C262.896 215.49 261.52 214.53 259.984 213.762C258.448 212.93 256.848 212.322 255.184 211.938C253.584 211.49 251.952 211.266 250.288 211.266C246.704 211.266 243.984 211.97 242.128 213.378C240.272 214.786 239.344 216.642 239.344 218.946C239.344 220.738 239.92 222.21 241.072 223.362C242.224 224.514 244.016 225.346 246.448 225.858L255.184 227.682C259.344 228.578 262.448 230.018 264.496 232.002C266.608 233.922 267.664 236.546 267.664 239.874C267.664 242.69 266.896 245.154 265.36 247.266C263.824 249.314 261.648 250.914 258.832 252.066C256.08 253.154 252.816 253.698 249.04 253.698ZM279.707 252.834V206.178H287.291V216.546H286.235C287.003 214.178 288.123 212.162 289.595 210.498C291.131 208.77 292.923 207.49 294.971 206.658C297.083 205.762 299.387 205.314 301.883 205.314C305.851 205.314 309.051 206.274 311.483 208.194C313.979 210.05 315.643 212.962 316.475 216.93H315.035C316.187 213.346 318.235 210.53 321.179 208.482C324.187 206.37 327.675 205.314 331.643 205.314C335.163 205.314 338.043 205.986 340.283 207.33C342.587 208.674 344.315 210.722 345.467 213.474C346.619 216.162 347.195 219.586 347.195 223.746V252.834H339.419V224.13C339.419 219.842 338.683 216.706 337.211 214.722C335.739 212.674 333.243 211.65 329.723 211.65C327.227 211.65 325.019 212.258 323.099 213.474C321.243 214.69 319.803 216.418 318.779 218.658C317.819 220.834 317.339 223.426 317.339 226.434V252.834H309.563V224.13C309.563 219.842 308.795 216.706 307.259 214.722C305.787 212.674 303.323 211.65 299.867 211.65C297.307 211.65 295.099 212.258 293.243 213.474C291.387 214.69 289.947 216.418 288.923 218.658C287.963 220.834 287.483 223.426 287.483 226.434V252.834H279.707ZM435.702 252.834V206.178H443.286V217.218H442.326C443.414 213.442 445.302 210.594 447.99 208.674C450.678 206.69 454.23 205.538 458.646 205.218L461.43 204.93L462.006 211.65L457.11 212.226C452.758 212.61 449.398 214.018 447.03 216.45C444.726 218.818 443.574 222.082 443.574 226.242V252.834H435.702ZM491.36 253.698C485.856 253.698 481.728 252.226 478.976 249.282C476.224 246.338 474.848 242.146 474.848 236.706V212.226H465.728V206.178H474.848V191.874H482.624V206.178H497.408V212.226H482.624V235.938C482.624 239.586 483.392 242.37 484.928 244.29C486.464 246.146 488.96 247.074 492.416 247.074C493.44 247.074 494.464 246.946 495.488 246.69C496.512 246.434 497.44 246.178 498.272 245.922L499.616 251.874C498.784 252.322 497.568 252.738 495.968 253.122C494.368 253.506 492.832 253.698 491.36 253.698Z" fill="white"/>
<g filter="url(#filter1_i_2194_3600)">
<path d="M573.646 319.004C573.646 339.355 558.648 355.854 540.146 355.854C521.645 355.854 506.646 339.355 506.646 319.004C506.646 298.652 521.645 282.154 540.146 282.154C558.648 282.154 517.813 319.004 573.646 319.004Z" fill="#565862"/>
</g>
<path d="M456.296 349.834V303.178H463.88V313.546H462.824C464.168 309.834 466.344 307.05 469.352 305.194C472.424 303.274 475.944 302.314 479.912 302.314C483.624 302.314 486.696 302.986 489.128 304.33C491.624 305.61 493.48 307.626 494.696 310.378C495.912 313.13 496.52 316.586 496.52 320.746V349.834H488.744V321.226C488.744 318.346 488.36 315.978 487.592 314.122C486.888 312.266 485.736 310.89 484.136 309.994C482.6 309.098 480.584 308.65 478.088 308.65C475.272 308.65 472.808 309.258 470.696 310.474C468.584 311.69 466.952 313.386 465.8 315.562C464.648 317.738 464.072 320.298 464.072 323.242V349.834H456.296ZM603.547 350.698C598.043 350.698 593.915 349.226 591.163 346.282C588.411 343.338 587.035 339.146 587.035 333.706V309.226H577.915V303.178H587.035V288.874H594.811V303.178H609.595V309.226H594.811V332.938C594.811 336.586 595.579 339.37 597.115 341.29C598.651 343.146 601.147 344.074 604.603 344.074C605.627 344.074 606.651 343.946 607.675 343.69C608.699 343.434 609.627 343.178 610.459 342.922L611.803 348.874C610.971 349.322 609.755 349.738 608.155 350.122C606.555 350.506 605.019 350.698 603.547 350.698ZM638.945 350.698C634.017 350.698 629.761 349.738 626.177 347.818C622.657 345.834 619.905 343.05 617.921 339.466C616.001 335.882 615.041 331.594 615.041 326.602C615.041 321.738 616.001 317.514 617.921 313.93C619.841 310.282 622.465 307.434 625.793 305.386C629.185 303.338 633.089 302.314 637.505 302.314C641.729 302.314 645.345 303.242 648.353 305.098C651.361 306.954 653.665 309.578 655.265 312.97C656.929 316.362 657.761 320.426 657.761 325.162V328.138H620.993V323.05H652.577L651.041 324.298C651.041 319.178 649.889 315.21 647.585 312.394C645.345 309.514 642.049 308.074 637.697 308.074C634.433 308.074 631.649 308.842 629.345 310.378C627.105 311.85 625.409 313.93 624.257 316.618C623.105 319.242 622.529 322.314 622.529 325.834V326.41C622.529 330.314 623.137 333.61 624.353 336.298C625.633 338.986 627.521 341.034 630.017 342.442C632.513 343.786 635.489 344.458 638.945 344.458C641.697 344.458 644.353 344.042 646.913 343.21C649.537 342.314 652.001 340.874 654.305 338.89L656.993 344.362C654.881 346.282 652.193 347.818 648.929 348.97C645.665 350.122 642.337 350.698 638.945 350.698ZM684.759 350.698C682.327 350.698 679.959 350.442 677.655 349.93C675.415 349.482 673.303 348.842 671.319 348.01C669.399 347.114 667.735 346.058 666.327 344.842L668.823 339.37C670.359 340.586 672.023 341.61 673.815 342.442C675.607 343.21 677.431 343.786 679.287 344.17C681.143 344.554 683.031 344.746 684.951 344.746C688.599 344.746 691.351 344.074 693.207 342.73C695.063 341.386 695.991 339.562 695.991 337.258C695.991 335.466 695.383 334.058 694.167 333.034C692.951 331.946 691.031 331.114 688.407 330.538L679.671 328.618C675.639 327.786 672.631 326.346 670.647 324.298C668.727 322.25 667.767 319.594 667.767 316.33C667.767 313.45 668.503 310.986 669.975 308.938C671.511 306.826 673.655 305.194 676.407 304.042C679.159 302.89 682.359 302.314 686.007 302.314C688.183 302.314 690.263 302.538 692.247 302.986C694.231 303.434 696.087 304.106 697.815 305.002C699.607 305.834 701.143 306.89 702.423 308.17L699.831 313.642C698.615 312.49 697.239 311.53 695.703 310.762C694.167 309.93 692.567 309.322 690.903 308.938C689.303 308.49 687.671 308.266 686.007 308.266C682.423 308.266 679.703 308.97 677.847 310.378C675.991 311.786 675.063 313.642 675.063 315.946C675.063 317.738 675.639 319.21 676.791 320.362C677.943 321.514 679.735 322.346 682.167 322.858L690.903 324.682C695.063 325.578 698.167 327.018 700.215 329.002C702.327 330.922 703.383 333.546 703.383 336.874C703.383 339.69 702.615 342.154 701.079 344.266C699.543 346.314 697.367 347.914 694.551 349.066C691.799 350.154 688.535 350.698 684.759 350.698Z" fill="white"/>
<path d="M875.171 457.556L1032.3 111.848C1034.68 102.947 1037.31 85.04 1018.81 76.6312C1000.35 68.2369 987.257 82.0654 983.35 89.5984L826.219 435.307L832.456 486.1C832.48 486.295 832.702 486.396 832.865 486.285L875.171 457.556Z" fill="#FBFBFB"/>
<path d="M1024.48 129.068L1032.3 111.848C1034.68 102.947 1037.32 85.0403 1018.82 76.6314C1000.35 68.2371 987.258 82.0656 983.351 89.5987L975.524 106.818L1000.03 117.957L1024.48 129.068Z" fill="#F0E6D1"/>
<g filter="url(#filter2_i_2194_3600)">
<path d="M1014.57 127.706C1012.23 132.858 1007.55 135.769 1004.11 134.208C1000.68 132.647 999.791 127.204 1002.13 122.051C1004.47 116.899 1009.16 113.988 1012.59 115.549C1016.03 117.11 1004.21 122.994 1014.57 127.706Z" fill="#565862"/>
</g>
<g filter="url(#filter3_i_2194_3600)">
<path d="M996.713 120.214C994.241 125.653 991.011 124.501 990.917 115.078C983.755 121.203 980.764 119.527 983.236 114.088C985.708 108.65 990.729 105.612 994.45 107.303C998.172 108.995 999.185 114.775 996.713 120.214Z" fill="#565862"/>
</g>
<g filter="url(#filter4_i_2194_3600)">
<path d="M875.093 457.509L828.738 456.304C828.606 456.3 828.498 456.2 828.483 456.069L826.253 435.236L875.621 326.62C875.667 326.519 875.771 326.458 875.881 326.467L932.432 330.891C932.614 330.906 932.727 331.096 932.651 331.263L875.34 457.355C875.296 457.451 875.199 457.512 875.093 457.509Z" fill="#565862"/>
</g>
<path d="M832.465 486.075L831.744 478.642L838.954 481.919L832.88 486.264C832.715 486.382 832.485 486.277 832.465 486.075Z" fill="black" stroke="black" stroke-width="0.263083"/>
<defs>
<filter id="filter0_i_2194_3600" x="356" y="190.834" width="67" height="72.1158" filterUnits="userSpaceOnUse" color-interpolation-filters="sRGB">
<feFlood flood-opacity="0" result="BackgroundImageFix"/>
<feBlend mode="normal" in="SourceGraphic" in2="BackgroundImageFix" result="shape"/>
<feColorMatrix in="SourceAlpha" type="matrix" values="0 0 0 0 0 0 0 0 0 0 0 0 0 0 0 0 0 0 127 0" result="hardAlpha"/>
<feOffset dy="1.11583"/>
<feGaussianBlur stdDeviation="0.557916"/>
<feComposite in2="hardAlpha" operator="arithmetic" k2="-1" k3="1"/>
<feColorMatrix type="matrix" values="0 0 0 0 0 0 0 0 0 0 0 0 0 0 0 0 0 0 0.5 0"/>
<feBlend mode="normal" in2="shape" result="effect1_innerShadow_2194_3600"/>
</filter>
<filter id="filter1_i_2194_3600" x="506.646" y="282.154" width="67" height="75.4867" filterUnits="userSpaceOnUse" color-interpolation-filters="sRGB">
<feFlood flood-opacity="0" result="BackgroundImageFix"/>
<feBlend mode="normal" in="SourceGraphic" in2="BackgroundImageFix" result="shape"/>
<feColorMatrix in="SourceAlpha" type="matrix" values="0 0 0 0 0 0 0 0 0 0 0 0 0 0 0 0 0 0 127 0" result="hardAlpha"/>
<feOffset dy="1.78667"/>
<feGaussianBlur stdDeviation="0.893333"/>
<feComposite in2="hardAlpha" operator="arithmetic" k2="-1" k3="1"/>
<feColorMatrix type="matrix" values="0 0 0 0 0 0 0 0 0 0 0 0 0 0 0 0 0 0 0.5 0"/>
<feBlend mode="normal" in2="shape" result="effect1_innerShadow_2194_3600"/>
</filter>
<filter id="filter2_i_2194_3600" x="1000.82" y="115.127" width="13.748" height="20.5543" filterUnits="userSpaceOnUse" color-interpolation-filters="sRGB">
<feFlood flood-opacity="0" result="BackgroundImageFix"/>
<feBlend mode="normal" in="SourceGraphic" in2="BackgroundImageFix" result="shape"/>
<feColorMatrix in="SourceAlpha" type="matrix" values="0 0 0 0 0 0 0 0 0 0 0 0 0 0 0 0 0 0 127 0" result="hardAlpha"/>
<feOffset dy="1.05233"/>
<feGaussianBlur stdDeviation="0.526166"/>
<feComposite in2="hardAlpha" operator="arithmetic" k2="-1" k3="1"/>
<feColorMatrix type="matrix" values="0 0 0 0 0 0 0 0 0 0 0 0 0 0 0 0 0 0 0.5 0"/>
<feBlend mode="normal" in2="shape" result="effect1_innerShadow_2194_3600"/>
</filter>
<filter id="filter3_i_2194_3600" x="982.381" y="106.835" width="15.6836" height="17.6876" filterUnits="userSpaceOnUse" color-interpolation-filters="sRGB">
<feFlood flood-opacity="0" result="BackgroundImageFix"/>
<feBlend mode="normal" in="SourceGraphic" in2="BackgroundImageFix" result="shape"/>
<feColorMatrix in="SourceAlpha" type="matrix" values="0 0 0 0 0 0 0 0 0 0 0 0 0 0 0 0 0 0 127 0" result="hardAlpha"/>
<feOffset dy="1.05233"/>
<feGaussianBlur stdDeviation="0.526166"/>
<feComposite in2="hardAlpha" operator="arithmetic" k2="-1" k3="1"/>
<feColorMatrix type="matrix" values="0 0 0 0 0 0 0 0 0 0 0 0 0 0 0 0 0 0 0.5 0"/>
<feBlend mode="normal" in2="shape" result="effect1_innerShadow_2194_3600"/>
</filter>
<filter id="filter4_i_2194_3600" x="826.253" y="326.466" width="106.422" height="132.096" filterUnits="userSpaceOnUse" color-interpolation-filters="sRGB">
<feFlood flood-opacity="0" result="BackgroundImageFix"/>
<feBlend mode="normal" in="SourceGraphic" in2="BackgroundImageFix" result="shape"/>
<feColorMatrix in="SourceAlpha" type="matrix" values="0 0 0 0 0 0 0 0 0 0 0 0 0 0 0 0 0 0 127 0" result="hardAlpha"/>
<feOffset dy="1.05233"/>
<feGaussianBlur stdDeviation="0.526166"/>
<feComposite in2="hardAlpha" operator="arithmetic" k2="-1" k3="1"/>
<feColorMatrix type="matrix" values="0 0 0 0 0 0 0 0 0 0 0 0 0 0 0 0 0 0 0.25 0"/>
<feBlend mode="normal" in2="shape" result="effect1_innerShadow_2194_3600"/>
</filter>
<linearGradient id="paint0_linear_2194_3600" x1="-122.5" y1="250" x2="1243" y2="492" gradientUnits="userSpaceOnUse">
<stop stop-color="#F0E6D1"/>
<stop offset="0.319409" stop-color="#9AAFB7"/>
<stop offset="1" stop-color="#004E89"/>
</linearGradient>
</defs>
</svg>
