<svg width="304" height="290" viewBox="0 0 304 290" fill="none" xmlns="http://www.w3.org/2000/svg">
<path d="M172.038 262.103C149.59 252.107 97.7435 238.112 69.9498 262.103C35.2077 292.091 9.01742 289.364 1 286.093" stroke="#004E89" stroke-width="2.27098"/>
<path d="M196.564 249.695L291.224 41.4301C292.659 36.0676 294.244 25.2801 283.098 20.2144C271.972 15.1574 264.088 23.4881 261.734 28.0262L167.074 236.291L170.79 266.554C170.823 266.825 171.131 266.965 171.357 266.811L196.564 249.695Z" fill="#FBFBFB" stroke="black" stroke-width="1.09564" stroke-linecap="round"/>
<path d="M286.147 51.8174L290.802 41.5768C292.224 36.2859 293.809 25.646 282.889 20.6826C271.988 15.7279 264.23 23.9632 261.908 28.444L257.253 38.6846L271.719 45.2593L286.147 51.8174Z" fill="#F0E6D1"/>
<g filter="url(#filter0_i_354_683)">
<path d="M280.542 50.9832C279.131 54.0872 276.31 55.841 274.241 54.9003C272.171 53.9597 271.637 50.6809 273.048 47.5769C274.459 44.4729 277.28 42.7191 279.35 43.6597C281.419 44.6003 274.297 48.1446 280.542 50.9832Z" fill="#565862"/>
</g>
<g filter="url(#filter1_i_354_683)">
<path d="M269.784 46.4699C268.294 49.7463 266.349 49.0529 266.292 43.3758C261.977 47.0659 260.176 46.0562 261.665 42.7797C263.154 39.5033 266.179 37.6732 268.421 38.6922C270.663 39.7112 271.273 43.1934 269.784 46.4699Z" fill="#565862"/>
</g>
<g filter="url(#filter2_i_354_683)">
<path d="M196.379 249.663L168.771 248.945C168.588 248.94 168.437 248.8 168.417 248.619L167.093 236.248L196.773 170.947C196.837 170.807 196.981 170.722 197.134 170.734L230.764 173.365C231.017 173.385 231.173 173.65 231.068 173.88L196.721 249.449C196.66 249.582 196.525 249.667 196.379 249.663Z" fill="#565862"/>
</g>
<path d="M170.801 266.518L170.402 262.397L174.744 264.371L171.377 266.779C171.149 266.943 170.829 266.797 170.801 266.518Z" fill="black" stroke="black" stroke-width="0.365213"/>
<defs>
<filter id="filter0_i_354_683" x="272.26" y="43.4058" width="8.28223" height="13.2094" filterUnits="userSpaceOnUse" color-interpolation-filters="sRGB">
<feFlood flood-opacity="0" result="BackgroundImageFix"/>
<feBlend mode="normal" in="SourceGraphic" in2="BackgroundImageFix" result="shape"/>
<feColorMatrix in="SourceAlpha" type="matrix" values="0 0 0 0 0 0 0 0 0 0 0 0 0 0 0 0 0 0 127 0" result="hardAlpha"/>
<feOffset dy="1.46085"/>
<feGaussianBlur stdDeviation="0.730426"/>
<feComposite in2="hardAlpha" operator="arithmetic" k2="-1" k3="1"/>
<feColorMatrix type="matrix" values="0 0 0 0 0 0 0 0 0 0 0 0 0 0 0 0 0 0 0.5 0"/>
<feBlend mode="normal" in2="shape" result="effect1_innerShadow_354_683"/>
</filter>
<filter id="filter1_i_354_683" x="261.15" y="38.4102" width="9.44824" height="11.4823" filterUnits="userSpaceOnUse" color-interpolation-filters="sRGB">
<feFlood flood-opacity="0" result="BackgroundImageFix"/>
<feBlend mode="normal" in="SourceGraphic" in2="BackgroundImageFix" result="shape"/>
<feColorMatrix in="SourceAlpha" type="matrix" values="0 0 0 0 0 0 0 0 0 0 0 0 0 0 0 0 0 0 127 0" result="hardAlpha"/>
<feOffset dy="1.46085"/>
<feGaussianBlur stdDeviation="0.730426"/>
<feComposite in2="hardAlpha" operator="arithmetic" k2="-1" k3="1"/>
<feColorMatrix type="matrix" values="0 0 0 0 0 0 0 0 0 0 0 0 0 0 0 0 0 0 0.5 0"/>
<feBlend mode="normal" in2="shape" result="effect1_innerShadow_354_683"/>
</filter>
<filter id="filter2_i_354_683" x="167.093" y="170.733" width="64.0083" height="80.391" filterUnits="userSpaceOnUse" color-interpolation-filters="sRGB">
<feFlood flood-opacity="0" result="BackgroundImageFix"/>
<feBlend mode="normal" in="SourceGraphic" in2="BackgroundImageFix" result="shape"/>
<feColorMatrix in="SourceAlpha" type="matrix" values="0 0 0 0 0 0 0 0 0 0 0 0 0 0 0 0 0 0 127 0" result="hardAlpha"/>
<feOffset dy="1.46085"/>
<feGaussianBlur stdDeviation="0.730426"/>
<feComposite in2="hardAlpha" operator="arithmetic" k2="-1" k3="1"/>
<feColorMatrix type="matrix" values="0 0 0 0 0 0 0 0 0 0 0 0 0 0 0 0 0 0 0.25 0"/>
<feBlend mode="normal" in2="shape" result="effect1_innerShadow_354_683"/>
</filter>
</defs>
</svg>
