<svg width="23" height="22" viewBox="0 0 23 22" fill="none" xmlns="http://www.w3.org/2000/svg">
<path id="Star 1" d="M10.5621 1.0345C10.8843 0.163886 12.1157 0.163887 12.4379 1.0345L14.7166 7.19262C14.8178 7.46634 15.0337 7.68215 15.3074 7.78344L21.4655 10.0621C22.3361 10.3843 22.3361 11.6157 21.4655 11.9379L15.3074 14.2166C15.0337 14.3178 14.8178 14.5337 14.7166 14.8074L12.4379 20.9655C12.1157 21.8361 10.8843 21.8361 10.5621 20.9655L8.28344 14.8074C8.18215 14.5337 7.96634 14.3178 7.69262 14.2166L1.5345 11.9379C0.663886 11.6157 0.663887 10.3843 1.5345 10.0621L7.69262 7.78344C7.96634 7.68215 8.18215 7.46634 8.28344 7.19262L10.5621 1.0345Z" fill="#4E5F99"/>
</svg>
