<svg width="46" height="28" viewBox="0 0 46 28" fill="none" xmlns="http://www.w3.org/2000/svg">
<path d="M45.8117 5.39092C46.0276 5.21874 46.0631 4.90415 45.8909 4.68826L43.0852 1.17001C42.9131 0.954108 42.5985 0.918661 42.3826 1.09083C42.1667 1.263 42.1312 1.5776 42.3034 1.79349L44.7973 4.92083L41.67 7.41478C41.4541 7.58695 41.4187 7.90154 41.5908 8.11744C41.763 8.33333 42.0776 8.36878 42.2935 8.19661L45.8117 5.39092ZM1.47344 27.6608C4.4074 19.0219 17.3058 2.32635 45.444 5.49686L45.556 4.50314C16.8942 1.27365 3.5926 18.3114 0.526559 27.3392L1.47344 27.6608Z" fill="black"/>
</svg>
