<svg width="182" height="234" viewBox="0 0 182 234" fill="none" xmlns="http://www.w3.org/2000/svg">
<mask id="path-1-inside-1_2309_2114" fill="white">
<path fill-rule="evenodd" clip-rule="evenodd" d="M86.0205 210.076C127.211 212.577 161.895 203.744 164.171 166.258C166.446 128.771 134.9 96.3554 93.7091 93.8546C52.5185 91.3538 17.2819 119.715 15.0061 157.202C12.9992 190.256 37.7205 204.184 71.8344 208.73L71.3151 213.855L13.5562 208.002L12.2954 220.445L70.0543 226.298L70.0543 226.298L77.9126 227.094L77.9126 227.094L142.94 233.683L144.201 221.24L79.1735 214.651L79.6852 209.601C81.7701 209.788 83.883 209.946 86.0205 210.076Z"/>
</mask>
<path d="M86.0205 210.076L85.9091 211.91L85.9091 211.91L86.0205 210.076ZM93.7091 93.8546L93.8205 92.0205L93.7091 93.8546ZM15.0061 157.202L13.172 157.09L15.0061 157.202ZM71.8344 208.73L73.6626 208.915L73.8421 207.144L72.0771 206.909L71.8344 208.73ZM71.3151 213.855L71.1299 215.683L72.958 215.868L73.1433 214.04L71.3151 213.855ZM13.5562 208.002L13.7415 206.174L11.9134 205.989L11.7281 207.817L13.5562 208.002ZM12.2954 220.445L10.4673 220.26L10.282 222.088L12.1102 222.273L12.2954 220.445ZM70.0543 226.298L71.8827 226.481L72.0653 224.655L70.2396 224.47L70.0543 226.298ZM70.0543 226.298L68.2259 226.115L68.0433 227.941L69.8691 228.126L70.0543 226.298ZM77.9126 227.094L77.7274 228.922L79.5745 229.109L79.7426 227.261L77.9126 227.094ZM77.9126 227.094L78.0979 225.266L76.2508 225.079L76.0827 226.928L77.9126 227.094ZM142.94 233.683L142.755 235.511L144.583 235.697L144.768 233.868L142.94 233.683ZM144.201 221.24L146.029 221.425L146.214 219.597L144.386 219.412L144.201 221.24ZM79.1735 214.651L77.3453 214.466L77.1601 216.294L78.9882 216.479L79.1735 214.651ZM79.6852 209.601L79.85 207.771L78.0403 207.608L77.8571 209.415L79.6852 209.601ZM162.336 166.146C161.785 175.231 159.279 182.476 155.283 188.221C151.285 193.97 145.725 198.318 138.912 201.497C125.225 207.883 106.627 209.486 86.1318 208.242L85.9091 211.91C106.604 213.166 125.943 211.603 140.466 204.827C147.756 201.425 153.868 196.692 158.3 190.32C162.735 183.944 165.418 176.027 166.005 166.369L162.336 166.146ZM93.5978 95.6887C133.942 98.1381 164.541 129.832 162.336 166.146L166.005 166.369C168.352 127.711 135.858 94.5726 93.8205 92.0205L93.5978 95.6887ZM16.8402 157.313C19.0449 120.998 53.2536 93.2393 93.5978 95.6887L93.8205 92.0205C51.7834 89.4683 15.519 118.432 13.172 157.09L16.8402 157.313ZM72.0771 206.909C55.154 204.653 40.8362 200.098 31.0251 192.224C21.3261 184.439 15.8705 173.284 16.8402 157.313L13.172 157.09C12.1348 174.174 18.0364 186.51 28.7248 195.09C39.3012 203.579 54.4009 208.261 71.5917 210.551L72.0771 206.909ZM70.0063 208.545L69.487 213.669L73.1433 214.04L73.6626 208.915L70.0063 208.545ZM71.5004 212.027L13.7415 206.174L13.371 209.83L71.1299 215.683L71.5004 212.027ZM11.7281 207.817L10.4673 220.26L14.1235 220.63L15.3844 208.187L11.7281 207.817ZM12.1102 222.273L69.8691 228.126L70.2396 224.47L12.4807 218.617L12.1102 222.273ZM68.2259 226.115L68.2259 226.115L71.8827 226.481L71.8827 226.481L68.2259 226.115ZM69.8691 228.126L77.7274 228.922L78.0979 225.266L70.2395 224.47L69.8691 228.126ZM79.7426 227.261L79.7426 227.26L76.0827 226.928L76.0827 226.928L79.7426 227.261ZM77.7274 228.922L142.755 235.511L143.125 231.855L78.0979 225.266L77.7274 228.922ZM144.768 233.868L146.029 221.425L142.373 221.055L141.112 233.498L144.768 233.868ZM144.386 219.412L79.3587 212.823L78.9882 216.479L144.016 223.068L144.386 219.412ZM81.0016 214.836L81.5133 209.786L77.8571 209.415L77.3453 214.466L81.0016 214.836ZM86.1318 208.242C84.0112 208.113 81.9161 207.957 79.85 207.771L79.5205 211.431C81.6242 211.62 83.7549 211.779 85.9091 211.91L86.1318 208.242Z" fill="#2E2E2E" mask="url(#path-1-inside-1_2309_2114)"/>
<mask id="path-3-inside-2_2309_2114" fill="white">
<path fill-rule="evenodd" clip-rule="evenodd" d="M120.79 74.3497L178.798 105.309L165.139 112.141L103.742 78.9823L27.0418 99.824L13.6163 91.5246L88.3068 70.6464L24.5007 36.187L39.1505 30.7778L105.071 65.9602L164.012 49.4844L169.056 61.2345L120.79 74.3497Z"/>
</mask>
<path d="M178.798 105.309L179.663 103.688L182.8 105.362L179.62 106.952L178.798 105.309ZM120.79 74.3497L119.925 75.9707L115.84 73.7906L120.309 72.5765L120.79 74.3497ZM165.139 112.141L165.961 113.784L165.106 114.211L164.266 113.757L165.139 112.141ZM103.742 78.9823L103.26 77.2091L103.969 77.0165L104.615 77.3655L103.742 78.9823ZM27.0418 99.824L27.5236 101.597L26.754 101.806L26.0756 101.387L27.0418 99.824ZM13.6163 91.5246L12.6501 93.0876L9.08455 90.8835L13.1216 89.755L13.6163 91.5246ZM88.3068 70.6464L89.18 69.0296L93.1827 71.1913L88.8015 72.416L88.3068 70.6464ZM24.5007 36.187L23.6275 37.8037L20.0499 35.8716L23.8642 34.4632L24.5007 36.187ZM39.1505 30.7778L38.514 29.0541L39.2879 28.7683L40.0156 29.1567L39.1505 30.7778ZM105.071 65.9602L105.566 67.7299L104.856 67.9283L104.206 67.5813L105.071 65.9602ZM164.012 49.4844L163.517 47.7148L165.066 47.2819L165.701 48.7597L164.012 49.4844ZM169.056 61.2345L170.744 60.5097L171.578 62.4531L169.538 63.0077L169.056 61.2345ZM177.933 106.93L119.925 75.9707L121.656 72.7286L179.663 103.688L177.933 106.93ZM164.317 110.497L177.976 103.665L179.62 106.952L165.961 113.784L164.317 110.497ZM104.615 77.3655L166.012 110.524L164.266 113.757L102.869 80.599L104.615 77.3655ZM26.56 98.0508L103.26 77.2091L104.224 80.7555L27.5236 101.597L26.56 98.0508ZM14.5824 89.9617L28.008 98.261L26.0756 101.387L12.6501 93.0876L14.5824 89.9617ZM88.8015 72.416L14.1109 93.2943L13.1216 89.755L87.8121 68.8767L88.8015 72.416ZM25.3738 34.5702L89.18 69.0296L87.4337 72.2631L23.6275 37.8037L25.3738 34.5702ZM39.7869 32.5015L25.1371 37.9107L23.8642 34.4632L38.514 29.0541L39.7869 32.5015ZM104.206 67.5813L38.2853 32.3988L40.0156 29.1567L105.936 64.3392L104.206 67.5813ZM164.507 51.2541L105.566 67.7299L104.577 64.1906L163.517 47.7148L164.507 51.2541ZM167.367 61.9593L162.324 50.2092L165.701 48.7597L170.744 60.5097L167.367 61.9593ZM120.309 72.5765L168.574 59.4613L169.538 63.0077L121.272 76.1229L120.309 72.5765Z" fill="#2E2E2E" mask="url(#path-3-inside-2_2309_2114)"/>
<circle cx="86.4098" cy="147.985" r="2.6916" transform="rotate(-9.51525 86.4098 147.985)" stroke="#2E2E2E" stroke-width="1.92297"/>
<circle cx="124.583" cy="145.191" r="2.6916" transform="rotate(-9.51525 124.583 145.191)" stroke="#2E2E2E" stroke-width="1.92297"/>
<path d="M99.7808 153.652C96.4061 154.218 98.095 159.119 99.3613 161.499L99.3613 161.499C99.7834 162.293 100.628 163.879 101.612 164.578C103.169 165.683 106.394 167.233 111.174 164.703C115.954 162.174 114.827 155.451 113.702 153.911C112.577 152.372 103.999 152.945 99.7808 153.652Z" stroke="#2E2E2E" stroke-width="1.92297"/>
<path d="M61.3037 212.986L61.7545 209.154L72.122 210.281" stroke="#2E2E2E" stroke-width="1.92297"/>
<path d="M78.8833 210.957L112.24 214.113L112.691 209.154" stroke="#2E2E2E" stroke-width="1.92297"/>
<path d="M117.424 208.703L116.974 214.338L173.77 219.972L172.868 228.086L142.667 225.382" stroke="#2E2E2E" stroke-width="1.92297"/>
</svg>
