<svg width="178" height="228" viewBox="0 0 178 228" fill="none" xmlns="http://www.w3.org/2000/svg">
<mask id="path-1-inside-1_2267_2851" fill="white">
<path fill-rule="evenodd" clip-rule="evenodd" d="M84.678 204.967C124.867 207.407 158.707 198.789 160.927 162.214C163.148 125.64 132.369 94.0119 92.1797 91.572C51.9908 89.132 17.6112 116.804 15.3907 153.378C13.4327 185.629 37.5524 199.218 70.8364 203.653L70.3297 208.654L13.9753 202.943L12.7451 215.084L69.0995 220.794L76.7668 221.571L140.213 228L141.443 215.86L77.9969 209.431L78.4962 204.503C80.5306 204.686 82.5924 204.84 84.678 204.967Z"/>
</mask>
<path d="M160.927 162.214L162.762 162.326L160.927 162.214ZM84.678 204.967L84.5666 206.801H84.5666L84.678 204.967ZM92.1797 91.572L92.291 89.7379L92.1797 91.572ZM15.3907 153.378L17.2248 153.49L15.3907 153.378ZM70.8364 203.653L72.6645 203.839L72.844 202.067L71.0791 201.832L70.8364 203.653ZM70.3297 208.654L70.1445 210.482L71.9726 210.667L72.1578 208.839L70.3297 208.654ZM13.9753 202.943L14.1605 201.115L12.3324 200.93L12.1472 202.758L13.9753 202.943ZM12.7451 215.084L10.917 214.899L10.7318 216.727L12.5599 216.912L12.7451 215.084ZM69.0995 220.794L69.2848 218.966L69.0995 220.794ZM76.7668 221.571L76.5815 223.399H76.5815L76.7668 221.571ZM140.213 228L140.027 229.828L141.855 230.013L142.041 228.185L140.213 228ZM141.443 215.86L143.271 216.045L143.456 214.217L141.628 214.031L141.443 215.86ZM77.9969 209.431L76.1688 209.245L75.9836 211.074L77.8117 211.259L77.9969 209.431ZM78.4962 204.503L78.661 202.673L76.8513 202.51L76.6681 204.318L78.4962 204.503ZM159.093 162.103C158.556 170.96 156.113 178.02 152.22 183.618C148.324 189.219 142.906 193.457 136.264 196.556C122.921 202.782 104.784 204.347 84.7893 203.133L84.5666 206.801C104.761 208.027 123.639 206.502 137.818 199.886C144.937 196.564 150.907 191.942 155.237 185.717C159.569 179.488 162.189 171.756 162.762 162.326L159.093 162.103ZM92.0683 93.4061C131.411 95.7946 161.243 126.7 159.093 162.103L162.762 162.326C165.053 124.579 133.326 92.2292 92.291 89.7379L92.0683 93.4061ZM17.2248 153.49C19.3742 118.087 52.7259 91.0175 92.0683 93.4061L92.291 89.7379C51.2557 87.2465 15.8482 115.521 13.5566 153.267L17.2248 153.49ZM71.0791 201.832C54.5709 199.632 40.611 195.19 31.048 187.514C21.5969 179.928 16.2795 169.059 17.2248 153.49L13.5566 153.267C12.5438 169.949 18.3073 182 28.7476 190.38C39.0759 198.67 53.8178 203.239 70.5937 205.475L71.0791 201.832ZM69.0083 203.468L68.5016 208.469L72.1578 208.839L72.6645 203.839L69.0083 203.468ZM70.515 206.826L14.1605 201.115L13.79 204.772L70.1445 210.482L70.515 206.826ZM12.1472 202.758L10.917 214.899L14.5732 215.269L15.8034 203.129L12.1472 202.758ZM12.5599 216.912L68.9143 222.622L69.2848 218.966L12.9304 213.256L12.5599 216.912ZM68.9143 222.622L76.5815 223.399L76.952 219.743L69.2848 218.966L68.9143 222.622ZM76.5815 223.399L140.027 229.828L140.398 226.172L76.952 219.743L76.5815 223.399ZM142.041 228.185L143.271 216.045L139.615 215.674L138.384 227.815L142.041 228.185ZM141.628 214.031L78.1822 207.603L77.8117 211.259L141.257 217.688L141.628 214.031ZM79.8251 209.616L80.3244 204.688L76.6681 204.318L76.1688 209.245L79.8251 209.616ZM84.7893 203.133C82.7205 203.007 80.6766 202.854 78.661 202.673L78.3315 206.333C80.3847 206.518 82.4643 206.673 84.5666 206.801L84.7893 203.133Z" fill="#2E2E2E" mask="url(#path-1-inside-1_2267_2851)"/>
<mask id="path-3-inside-2_2267_2851" fill="white">
<path fill-rule="evenodd" clip-rule="evenodd" d="M60.147 72.5414L3.55002 102.748L16.877 109.413L76.7809 77.0613L151.616 97.3962L164.715 89.2987L91.8405 68.9281L154.095 35.3068L139.801 30.0292L75.4839 64.356L17.9765 48.2809L13.0555 59.7452L60.147 72.5414Z"/>
</mask>
<path d="M3.55002 102.748L2.68485 101.127L-0.451746 102.801L2.72806 104.391L3.55002 102.748ZM60.147 72.5414L61.0122 74.1625L65.097 71.9824L60.6288 70.7682L60.147 72.5414ZM16.877 109.413L16.055 111.057L16.9095 111.484L17.7501 111.03L16.877 109.413ZM76.7809 77.0613L77.2627 75.2881L76.554 75.0956L75.9077 75.4446L76.7809 77.0613ZM151.616 97.3962L151.134 99.1694L151.903 99.3785L152.582 98.9592L151.616 97.3962ZM164.715 89.2987L165.681 90.8616L169.246 88.6575L165.209 87.529L164.715 89.2987ZM91.8405 68.9281L90.9674 67.3114L86.9647 69.4731L91.3459 70.6978L91.8405 68.9281ZM154.095 35.3068L154.968 36.9236L158.546 34.9915L154.731 33.5831L154.095 35.3068ZM139.801 30.0292L140.438 28.3055L139.664 28.0198L138.936 28.4082L139.801 30.0292ZM75.4839 64.356L74.9892 66.1256L75.6989 66.324L76.3491 65.977L75.4839 64.356ZM17.9765 48.2809L18.4711 46.5113L16.9223 46.0783L16.288 47.5561L17.9765 48.2809ZM13.0555 59.7452L11.367 59.0204L10.5328 60.9638L12.5736 61.5184L13.0555 59.7452ZM4.41519 104.369L61.0122 74.1625L59.2818 70.9203L2.68485 101.127L4.41519 104.369ZM17.6989 107.77L4.37198 101.104L2.72806 104.391L16.055 111.057L17.6989 107.77ZM75.9077 75.4446L16.0038 107.797L17.7501 111.03L77.6541 78.6781L75.9077 75.4446ZM152.098 95.623L77.2627 75.2881L76.2991 78.8345L151.134 99.1694L152.098 95.623ZM163.749 87.7357L150.65 95.8332L152.582 98.9592L165.681 90.8616L163.749 87.7357ZM91.3459 70.6978L164.22 91.0683L165.209 87.529L92.3352 67.1585L91.3459 70.6978ZM153.222 33.6901L90.9674 67.3114L92.7137 70.5449L154.968 36.9236L153.222 33.6901ZM139.165 31.753L153.458 37.0306L154.731 33.5831L140.438 28.3055L139.165 31.753ZM76.3491 65.977L140.666 31.6503L138.936 28.4082L74.6187 62.7349L76.3491 65.977ZM17.4818 50.0505L74.9892 66.1256L75.9786 62.5863L18.4711 46.5113L17.4818 50.0505ZM14.744 60.47L19.665 49.0057L16.288 47.5561L11.367 59.0204L14.744 60.47ZM60.6288 70.7682L13.5373 57.972L12.5736 61.5184L59.6652 74.3146L60.6288 70.7682Z" fill="#2E2E2E" mask="url(#path-3-inside-2_2267_2851)"/>
<circle cx="85.0575" cy="144.386" r="2.60276" transform="rotate(-9.51525 85.0575 144.386)" stroke="#2E2E2E" stroke-width="1.92297"/>
<circle cx="122.303" cy="141.66" r="2.60276" transform="rotate(-9.51525 122.303 141.66)" stroke="#2E2E2E" stroke-width="1.92297"/>
<path d="M98.1037 149.916C94.8111 150.468 96.459 155.25 97.6944 157.572L97.6945 157.572C98.1063 158.346 98.9299 159.894 99.8905 160.576C101.409 161.654 104.556 163.166 109.22 160.698C113.884 158.23 112.784 151.67 111.686 150.168C110.588 148.666 102.219 149.226 98.1037 149.916Z" stroke="#2E2E2E" stroke-width="1.92297"/>
<path d="M60.5625 207.806L61.0023 204.067L71.1177 205.167" stroke="#2E2E2E" stroke-width="1.92297"/>
<path d="M77.7144 205.827L110.26 208.905L110.699 204.067" stroke="#2E2E2E" stroke-width="1.92297"/>
<path d="M115.318 203.628L114.878 209.125L170.293 214.623L169.413 222.539L139.947 219.9" stroke="#2E2E2E" stroke-width="1.92297"/>
</svg>
