<svg width="60" height="60" viewBox="0 0 60 60" fill="none" xmlns="http://www.w3.org/2000/svg">
<path fill-rule="evenodd" clip-rule="evenodd" d="M0 0V43.6362H9.55915V25.8908H26.8392V43.6362L28.1333 24.4363H7.72085V42.1817H1.8383V1.45454H7.72085V19.1999H28.4863L28.6775 16.3636V1.45454H34.4865V16.3636H36.3248V0H26.7656V17.6727H9.55915V0H0Z" fill="#EDEDED"/>
<path d="M28.6775 16.3636L28.4863 19.1999H28.6694L28.6775 16.3636Z" fill="#EDEDED"/>
<path fill-rule="evenodd" clip-rule="evenodd" d="M26.8389 19.1977V16.3639H28.6772V17.8184V19.1977H26.8389ZM26.8389 24.4463V60.0001H47.7202C55.5146 60.0001 60 54.5456 60 48.582C60 44.1456 58.0147 40.4365 53.6028 37.6002V37.4547C56.5441 35.4911 58.2353 32.6548 58.2353 28.3639C58.2353 21.6002 52.941 16.3639 46.1025 16.3639H34.4937L34.5367 17.8184H45.8819C51.838 17.8184 56.397 22.473 56.397 28.4366C56.397 33.3093 54.3381 35.6366 50.6615 37.3093V37.6729C55.7352 40.0729 58.2353 43.9274 58.2353 48.582C58.2353 53.891 54.1175 58.6183 47.3526 58.6183H28.6772V24.4463H26.8389ZM36.0304 35.4547V23.8548H43.3836C46.9866 23.8548 49.8176 26.2548 49.8176 29.5275C49.8176 33.0184 46.9866 35.4547 43.3836 35.4547H36.0304ZM37.8687 33.8184H43.3836C46.0307 33.8184 47.9793 32.1457 47.9793 29.5275C47.9793 27.1275 46.0307 25.3093 43.3836 25.3093H37.8687V33.8184ZM36.0304 52.6547V41.5275H44.3027C47.7587 41.5275 50.6615 44.0002 50.6615 47.0547C50.6615 50.4002 47.7587 52.6547 44.3027 52.6547H36.0304ZM37.8687 51.2001H44.3027C46.8763 51.2001 48.8984 49.5274 48.8984 47.0547C48.8984 44.8002 46.8763 42.982 44.3027 42.982H37.8687V51.2001Z" fill="#EDEDED"/>
</svg>
