<svg width="85" height="85" viewBox="0 0 85 85" fill="none" xmlns="http://www.w3.org/2000/svg">
<path fill-rule="evenodd" clip-rule="evenodd" d="M0 0V61.8182H13.5421V36.6788H38.0219V61.8182L39.8553 34.6182H10.9378V59.7576H2.60424V2.0606H10.9378V27.2H40.3553L40.6262 23.1818V2.0606H48.8556V23.1818H51.4598V0H37.9178V25.0364H13.5421V0H0Z" fill="black"/>
<path d="M40.6262 23.1818L40.3553 27.2H40.6147L40.6262 23.1818Z" fill="black"/>
<path fill-rule="evenodd" clip-rule="evenodd" d="M38.022 27.1964V23.1819H40.6262V25.2425V27.1964H38.022ZM38.022 34.6319V85.0001H67.6037C78.6457 85.0001 85 77.2728 85 68.8243C85 62.5395 82.1875 57.2849 75.9373 53.2667V53.0607C80.1041 50.2789 82.5 46.2607 82.5 40.1819C82.5 30.6001 74.9998 23.1819 65.312 23.1819H48.8662L48.9272 25.2425H64.9995C73.4372 25.2425 79.8957 31.8364 79.8957 40.2849C79.8957 47.1879 76.979 50.4849 71.7705 52.8546V53.3698C78.9582 56.7698 82.5 62.2304 82.5 68.8243C82.5 76.3455 76.6665 83.0425 67.0829 83.0425H40.6262V34.6319H38.022ZM51.0432 50.2273V33.794H61.4601C66.5645 33.794 70.575 37.194 70.575 41.8304C70.575 46.7758 66.5645 50.2273 61.4601 50.2273H51.0432ZM53.6474 47.9092H61.4601C65.2103 47.9092 67.9708 45.5395 67.9708 41.8304C67.9708 38.4304 65.2103 35.8546 61.4601 35.8546H53.6474V47.9092ZM51.0432 74.594V58.8304H62.7623C67.6582 58.8304 71.7705 62.3334 71.7705 66.6607C71.7705 71.4001 67.6582 74.594 62.7623 74.594H51.0432ZM53.6474 72.5334H62.7623C66.4082 72.5334 69.2729 70.1637 69.2729 66.6607C69.2729 63.4667 66.4082 60.891 62.7623 60.891H53.6474V72.5334Z" fill="black"/>
</svg>
