<?xml version="1.0" encoding="UTF-8" standalone="no"?>
<!DOCTYPE svg PUBLIC "-//W3C//DTD SVG 1.1//EN" "http://www.w3.org/Graphics/SVG/1.1/DTD/svg11.dtd">
<svg xmlns="http://www.w3.org/2000/svg" version="1.1" viewBox="0.00 0.00 500.00 500.00">
<g stroke-width="2.00" fill="none" stroke-linecap="butt">
<path stroke="#767285" vector-effect="non-scaling-stroke" d="
  M 488.64 380.13
  Q 485.22 383.59 482.82 384.82
  Q 478.13 387.21 470.87 389.25
  C 464.36 391.09 456.58 391.32 450.00 391.41
  Q 427.83 391.70 402.20 391.76
  Q 402.13 391.76 399.31 391.61
  Q 396.45 391.46 393.36 392.66
  Q 385.11 395.86 377.29 396.27
  Q 362.79 397.03 342.84 396.58
  Q 335.06 396.40 328.90 392.13
  Q 328.40 391.78 327.78 391.78
  L 299.80 391.73
  Q 299.27 391.73 299.15 392.25
  C 297.53 399.55 291.82 406.66 284.09 407.02
  Q 276.87 407.37 266.57 407.14
  Q 262.90 407.06 260.47 406.06
  C 255.05 403.82 251.85 398.17 250.28 392.53
  Q 250.06 391.74 249.24 391.74
  L 227.82 391.75
  Q 227.18 391.75 226.89 392.32
  C 224.61 396.82 219.36 400.35 214.06 400.33
  Q 178.16 400.14 144.04 399.96
  Q 143.36 399.95 143.64 400.57
  Q 145.39 404.44 147.13 407.99
  C 148.99 411.77 148.83 417.17 143.61 418.06
  Q 140.71 418.55 137.06 417.36
  Q 129.47 414.90 123.71 410.38"
/>
<path stroke="#84828e" vector-effect="non-scaling-stroke" d="
  M 123.71 410.38
  L 116.98 404.70"
/>
<path stroke="#767285" vector-effect="non-scaling-stroke" d="
  M 116.98 404.70
  L 112.14 396.27
  Q 111.90 395.86 111.42 395.86
  Q 102.50 395.88 93.36 395.50
  C 84.55 395.13 75.64 393.64 69.05 388.70
  Q 64.97 385.63 63.03 384.39"
/>
<path stroke="#845d3a" vector-effect="non-scaling-stroke" d="
  M 192.18 149.24
  C 189.40 164.80 189.14 180.60 189.02 196.21
  A 0.32 0.31 86.8 0 0 189.37 196.53
  C 217.68 193.18 246.11 193.40 274.04 194.07
  A 0.63 0.63 0.0 0 0 274.68 193.43
  Q 274.47 173.93 275.69 154.49"
/>
<path stroke="#83473a" vector-effect="non-scaling-stroke" d="
  M 275.69 154.49
  Q 277.26 138.84 280.77 123.58
  Q 282.12 117.73 283.80 115.27
  C 287.24 110.23 291.72 108.03 297.17 105.88
  A 0.34 0.34 0.0 0 0 297.22 105.28
  L 293.00 102.68"
/>
<path stroke="#84828e" vector-effect="non-scaling-stroke" d="
  M 293.00 102.68
  Q 289.57 100.64 286.27 99.49
  Q 271.73 94.39 254.88 94.24
  Q 235.05 94.06 218.44 100.24
  C 212.79 102.34 206.89 106.16 203.40 111.43
  Q 200.09 116.43 198.47 121.25
  Q 195.48 130.16 192.18 149.24"
/>
<path stroke="#fec4ac" vector-effect="non-scaling-stroke" d="
  M 293.00 102.68
  Q 291.78 103.93 288.88 104.12"
/>
<path stroke="#ffdaab" vector-effect="non-scaling-stroke" d="
  M 288.88 104.12
  Q 269.79 96.90 250.51 98.00
  Q 248.75 98.10 246.98 98.60
  Q 246.41 98.76 246.18 99.30
  C 244.06 104.14 240.55 106.97 234.96 107.21
  A 0.70 0.69 -21.8 0 0 234.46 108.36
  Q 238.09 112.47 233.93 116.96
  Q 230.95 120.19 226.66 120.03
  C 222.23 119.86 219.16 116.50 220.30 111.89
  C 221.10 108.63 223.88 106.74 226.82 105.37
  Q 227.48 105.07 227.40 104.35
  Q 227.29 103.28 226.72 102.41
  Q 226.40 101.92 225.82 102.04
  Q 220.63 103.13 217.02 105.54"
/>
<path stroke="#fec4ac" vector-effect="non-scaling-stroke" d="
  M 217.02 105.54
  C 210.12 108.59 204.08 113.29 201.45 120.55"
/>
<path stroke="#ffdaab" vector-effect="non-scaling-stroke" d="
  M 201.45 120.55
  C 198.78 127.03 197.09 135.41 195.72 140.32
  Q 194.36 145.16 193.02 150.01
  Q 192.96 150.23 192.78 150.33
  Q 192.43 150.51 192.35 150.12
  L 192.18 149.24"
/>
<path stroke="#fe9f58" vector-effect="non-scaling-stroke" d="
  M 288.88 104.12
  Q 283.48 107.26 281.82 111.05
  Q 280.66 113.71 279.57 117.79
  Q 278.83 120.54 278.30 124.77
  Q 277.57 130.50 276.15 139.75
  Q 275.12 146.46 275.69 154.49"
/>
<path stroke="#fe9f58" vector-effect="non-scaling-stroke" d="
  M 201.45 120.55
  L 201.21 122.87
  Q 201.15 123.39 201.65 123.54
  L 203.05 123.98
  Q 203.51 124.12 203.65 124.59
  Q 203.74 124.92 204.06 125.10
  Q 206.31 126.35 208.82 126.73
  Q 209.33 126.80 209.50 126.32
  Q 212.42 117.84 214.00 115.27
  Q 217.30 109.90 217.02 105.54"
/>
<path stroke="#845d3a" vector-effect="non-scaling-stroke" d="
  M 302.24 193.03
  Q 302.40 179.90 302.92 166.76
  Q 303.35 155.95 304.82 145.23
  Q 305.82 137.84 308.43 131.36
  Q 311.43 123.90 319.01 119.80
  Q 319.55 119.51 318.95 119.35
  L 316.07 118.58"
/>
<path stroke="#813f3b" vector-effect="non-scaling-stroke" d="
  M 316.07 118.58
  C 308.82 114.35 299.14 112.32 293.31 118.98
  Q 290.50 122.19 289.00 129.34
  Q 285.37 146.67 284.51 162.18
  Q 283.55 179.23 283.88 194.14
  A 0.68 0.66 2.4 0 0 284.49 194.79
  L 301.48 196.30
  A 0.68 0.68 0.0 0 0 302.22 195.62
  L 302.24 193.03"
/>
<path stroke="#fc9758" vector-effect="non-scaling-stroke" d="
  M 316.07 118.58
  Q 310.67 119.81 306.17 121.44
  C 298.23 124.32 294.44 138.80 292.99 146.19
  C 291.06 155.97 289.58 165.17 289.60 175.04
  Q 289.61 181.71 289.17 188.52
  Q 288.97 191.71 291.89 192.00
  Q 297.03 192.53 300.75 194.11
  Q 301.98 194.63 302.24 193.03"
/>
<path stroke="#845d3a" vector-effect="non-scaling-stroke" d="
  M 171.88 172.01
  Q 169.46 184.00 169.70 198.12
  Q 169.71 198.66 170.24 198.58
  L 177.86 197.52
  A 1.28 1.28 0.0 0 0 178.96 196.24
  Q 178.81 171.34 182.99 146.17
  C 183.98 140.21 186.05 134.08 187.61 127.96"
/>
<path stroke="#84828e" vector-effect="non-scaling-stroke" d="
  M 187.61 127.96
  Q 187.82 127.43 187.72 126.90
  A 0.41 0.41 0.0 0 0 187.14 126.60
  Q 184.86 127.67 183.08 129.23
  C 181.11 130.97 180.25 134.10 179.12 136.56
  Q 178.33 138.26 177.83 140.36
  Q 175.61 149.77 173.17 158.98
  Q 171.55 165.05 171.88 172.01"
/>
<path stroke="#ffdaab" vector-effect="non-scaling-stroke" d="
  M 187.61 127.96
  C 185.95 128.36 184.44 129.24 183.85 130.92
  Q 182.42 134.97 180.94 138.62
  Q 179.60 141.90 178.62 146.49
  Q 175.90 159.18 171.88 172.01"
/>
<path stroke="#83473a" vector-effect="non-scaling-stroke" d="
  M 371.89 185.43
  C 370.01 180.34 367.21 176.04 364.96 171.27
  C 360.91 162.70 355.19 155.36 348.64 148.35
  C 345.08 144.54 341.43 140.23 337.29 137.26
  Q 332.65 133.93 327.47 130.54
  C 322.16 127.05 317.92 133.39 316.84 137.73
  C 312.22 156.37 311.20 176.94 311.90 196.89
  Q 311.91 197.29 312.30 197.32
  Q 325.24 198.19 340.74 201.59
  Q 347.49 203.07 354.72 204.68
  C 363.01 206.53 370.55 209.05 378.58 211.76
  Q 379.26 211.99 379.16 211.28
  Q 378.63 207.14 377.48 203.01
  Q 374.82 193.37 371.89 185.43"
/>
<path stroke="#1c192e" vector-effect="non-scaling-stroke" d="
  M 104.37 155.51
  Q 95.72 172.00 97.87 191.11
  Q 98.47 196.52 101.00 201.90
  Q 104.77 209.93 111.44 214.62
  Q 112.27 215.20 113.28 214.98
  A 1.64 1.63 -2.4 0 0 114.54 213.62
  Q 116.85 197.89 123.45 181.91
  Q 129.27 167.80 137.64 156.75
  Q 141.72 151.36 147.52 145.19
  C 149.58 143.01 151.98 141.21 154.33 139.33
  Q 155.48 138.41 156.12 136.42"
/>
<path stroke="#84828e" vector-effect="non-scaling-stroke" d="
  M 156.12 136.42
  Q 157.41 136.85 158.93 135.20
  A 0.44 0.43 -58.1 0 0 158.77 134.50
  C 146.80 129.96 135.16 131.49 123.61 136.61
  C 117.61 139.27 113.18 144.35 108.85 149.16
  Q 107.58 150.57 106.51 152.23
  Q 105.49 153.81 104.37 155.51"
/>
<path stroke="#97969f" vector-effect="non-scaling-stroke" d="
  M 156.12 136.42
  Q 147.75 134.36 139.75 134.96
  Q 123.87 136.14 113.06 148.56
  A 1.39 1.38 -24.2 0 0 112.72 149.44
  Q 112.63 154.08 109.51 156.23
  Q 107.07 157.91 104.37 155.51"
/>
<path stroke="#1c192e" vector-effect="non-scaling-stroke" d="
  M 352.78 137.98
  Q 353.20 137.79 353.25 138.28"
/>
<path stroke="#84828e" vector-effect="non-scaling-stroke" d="
  M 353.25 138.28
  Q 353.45 139.31 354.90 140.34"
/>
<path stroke="#1c192e" vector-effect="non-scaling-stroke" d="
  M 354.90 140.34
  Q 357.88 144.05 361.07 147.80
  C 363.73 150.94 365.81 154.43 368.11 157.81
  C 376.58 170.26 382.54 183.58 385.77 198.16
  Q 387.53 206.12 388.79 213.11
  Q 389.22 215.49 390.59 216.49
  C 392.17 217.63 394.89 218.91 396.71 217.49
  C 400.59 214.46 404.16 211.42 406.67 207.05
  Q 413.21 195.61 413.09 183.95
  C 413.02 176.83 412.29 170.05 409.32 163.28
  Q 406.83 157.60 404.74 153.79
  C 402.69 150.04 398.54 145.67 395.32 142.81
  Q 391.49 139.41 386.60 137.51"
/>
<path stroke="#84828e" vector-effect="non-scaling-stroke" d="
  M 386.60 137.51
  Q 385.50 136.14 383.76 135.48
  C 372.78 131.32 360.27 129.90 349.49 135.24
  A 0.25 0.25 0.0 0 0 349.39 135.60
  Q 350.80 137.78 352.78 137.98"
/>
<path stroke="#97969f" vector-effect="non-scaling-stroke" d="
  M 386.60 137.51
  Q 386.73 138.20 386.71 138.55
  Q 386.68 138.99 386.05 138.73
  Q 371.90 132.89 356.75 136.12
  Q 355.12 136.47 352.78 137.98"
/>
<path stroke="#97969f" vector-effect="non-scaling-stroke" d="
  M 354.90 140.34
  Q 356.55 140.14 356.67 137.84
  Q 356.69 137.30 356.18 137.45
  L 353.25 138.28"
/>
<path stroke="#845d3a" vector-effect="non-scaling-stroke" d="
  M 150.14 156.45
  Q 148.03 158.04 146.30 160.51
  Q 140.29 169.11 136.39 175.81"
/>
<path stroke="#83473a" vector-effect="non-scaling-stroke" d="
  M 136.39 175.81
  Q 128.45 192.12 124.93 209.59
  A 0.31 0.30 86.2 0 0 125.33 209.94
  C 136.51 205.85 147.80 203.10 159.21 200.47
  Q 159.78 200.33 159.81 199.75
  L 159.98 196.20"
/>
<path stroke="#845d3a" vector-effect="non-scaling-stroke" d="
  M 159.98 196.20
  Q 160.47 182.55 160.75 178.75
  Q 161.61 167.41 164.93 152.25"
/>
<path stroke="#84828e" vector-effect="non-scaling-stroke" d="
  M 164.93 152.25
  L 169.09 138.53
  Q 169.24 138.06 168.83 138.34
  Q 160.15 144.48 157.20 148.21
  Q 153.69 152.63 150.14 156.45"
/>
<path stroke="#ffdaab" vector-effect="non-scaling-stroke" d="
  M 164.93 152.25
  Q 163.17 151.72 162.07 152.87
  C 160.25 154.77 158.29 156.13 156.56 158.21
  Q 154.29 160.95 151.93 163.62
  C 148.48 167.53 145.80 171.57 142.84 175.71
  A 0.54 0.53 -38.7 0 1 141.91 175.61
  Q 141.72 175.15 141.98 174.51
  Q 143.28 171.28 144.64 167.92
  Q 145.37 166.13 147.58 162.31
  Q 149.22 159.49 150.14 156.45"
/>
<path stroke="#fe9f58" vector-effect="non-scaling-stroke" d="
  M 159.98 196.20
  Q 146.44 198.34 133.73 203.00
  A 1.27 1.27 0.0 0 1 132.07 202.13
  Q 131.89 201.43 132.10 200.52
  C 133.09 196.14 134.20 191.58 134.63 187.07
  Q 134.78 185.54 135.55 183.28
  Q 136.18 181.43 136.39 175.81"
/>
<path stroke="#845d3a" vector-effect="non-scaling-stroke" d="
  M 99.62 238.72
  Q 98.18 244.01 101.50 248.02
  Q 104.94 252.18 111.47 254.33
  A 0.33 0.33 0.0 0 0 111.88 254.14
  L 113.54 249.96
  Q 113.72 249.52 113.27 249.65
  Q 107.28 251.42 106.49 246.52
  C 106.01 243.59 109.99 241.05 112.28 240.15
  C 124.73 235.24 137.86 231.07 151.16 228.42
  Q 182.05 222.27 215.24 220.94
  Q 270.21 218.74 323.62 225.38
  Q 333.23 226.58 347.76 229.32"
/>
<path stroke="#813f3b" vector-effect="non-scaling-stroke" d="
  M 347.76 229.32
  Q 367.85 232.91 387.12 239.62
  C 390.22 240.70 398.98 243.33 395.65 248.31
  Q 393.70 251.22 390.29 250.80
  Q 389.58 250.72 389.94 251.34
  L 391.56 254.07
  Q 391.84 254.54 392.37 254.39
  Q 398.97 252.42 402.01 248.16
  Q 406.11 242.40 402.82 236.93
  Q 399.71 231.76 397.69 230.53
  Q 387.08 224.08 375.03 220.35"
/>
<path stroke="#845d3a" vector-effect="non-scaling-stroke" d="
  M 375.03 220.35
  L 336.95 210.66"
/>
<path stroke="#84828e" vector-effect="non-scaling-stroke" d="
  M 336.95 210.66
  Q 326.12 208.29 314.80 206.91
  Q 277.33 202.34 239.76 202.49
  Q 202.54 202.65 168.45 208.46
  Q 153.13 211.07 137.79 215.75
  Q 124.95 219.67 122.86 220.39
  Q 117.28 222.28 109.40 227.16
  Q 102.01 231.72 99.62 238.72"
/>
<path stroke="#ffdaab" vector-effect="non-scaling-stroke" d="
  M 336.95 210.66
  Q 339.27 212.32 338.74 214.01
  A 1.00 1.00 0.0 0 1 337.62 214.70
  Q 332.09 213.81 326.02 212.80
  Q 320.24 211.85 314.44 211.27
  C 306.66 210.50 299.33 209.42 291.66 208.89
  Q 258.37 206.58 226.85 207.36
  Q 198.17 208.06 170.64 212.52
  Q 168.49 212.87 166.37 213.33
  Q 164.22 213.79 162.01 214.04
  Q 158.89 214.38 155.63 215.15
  Q 147.75 217.02 139.08 218.87
  Q 127.98 221.24 116.15 226.55
  Q 109.04 229.73 104.12 234.34
  Q 102.87 235.51 101.90 237.02
  Q 100.80 238.74 99.62 238.72"
/>
<path stroke="#fc9758" vector-effect="non-scaling-stroke" d="
  M 375.03 220.35
  L 375.48 221.56
  Q 375.72 222.20 375.04 222.26
  Q 373.42 222.42 372.82 222.29
  Q 368.13 221.34 363.88 219.98
  C 358.39 218.21 352.91 218.04 347.46 216.54
  Q 345.68 216.05 343.99 215.81
  Q 343.42 215.73 343.24 216.28
  Q 342.77 217.79 343.18 218.76
  Q 344.12 221.05 344.54 223.33
  Q 344.62 223.74 344.50 224.15
  Q 344.26 225.01 344.85 225.70
  Q 346.25 227.36 348.21 228.15
  Q 348.42 228.23 348.48 228.45
  Q 348.50 228.52 348.55 228.56
  Q 349.18 229.03 348.37 229.11
  Q 348.03 229.14 347.76 229.32"
/>
<path stroke="#84828e" vector-effect="non-scaling-stroke" d="
  M 118.54 263.47
  Q 116.48 270.21 114.80 280.26
  Q 111.35 300.87 112.31 320.75
  Q 112.33 321.25 112.22 321.80"
/>
<path stroke="#767285" vector-effect="non-scaling-stroke" d="
  M 112.22 321.80
  Q 110.23 324.98 108.11 329.62
  Q 106.20 333.82 106.92 338.26
  Q 107.83 343.89 109.87 348.88
  C 111.22 352.19 113.52 355.00 115.37 358.07
  A 0.36 0.35 47.4 0 0 115.96 358.10
  Q 119.85 352.80 125.37 348.83"
/>
<path stroke="#84828e" vector-effect="non-scaling-stroke" d="
  M 125.37 348.83
  Q 129.64 345.23 135.28 343.54"
/>
<path stroke="#84575d" vector-effect="non-scaling-stroke" d="
  M 135.28 343.54
  Q 137.33 343.08 140.00 343.33
  Q 146.31 343.91 145.85 351.10"
/>
<path stroke="#84828e" vector-effect="non-scaling-stroke" d="
  M 145.85 351.10
  Q 145.97 352.33 145.40 353.22
  Q 142.54 357.68 139.81 364.23
  Q 139.61 364.69 140.11 364.69
  Q 174.38 364.78 214.25 364.64
  C 220.25 364.61 224.82 368.82 227.24 373.95"
/>
<path stroke="#767285" vector-effect="non-scaling-stroke" d="
  M 227.24 373.95
  Q 228.86 377.85 229.01 381.98
  Q 229.03 382.46 229.51 382.47
  L 248.52 382.49
  Q 249.10 382.49 249.13 381.90
  L 249.51 374.28"
/>
<path stroke="#84828e" vector-effect="non-scaling-stroke" d="
  M 249.51 374.28
  Q 249.86 367.12 254.79 360.52
  Q 259.59 354.13 267.35 353.81
  Q 274.96 353.49 281.00 353.72
  C 291.56 354.12 299.01 362.68 299.91 372.91"
/>
<path stroke="#767285" vector-effect="non-scaling-stroke" d="
  M 299.91 372.91
  L 300.45 382.08
  A 0.36 0.36 0.0 0 0 300.81 382.42
  L 320.15 382.50
  Q 320.62 382.50 320.62 382.02
  L 320.51 373.10"
/>
<path stroke="#84828e" vector-effect="non-scaling-stroke" d="
  M 320.51 373.10
  Q 322.12 362.71 329.51 355.24
  Q 331.85 352.87 334.66 349.86"
/>
<path stroke="#84575d" vector-effect="non-scaling-stroke" d="
  M 334.66 349.86
  L 343.18 343.30"
/>
<path stroke="#84828e" vector-effect="non-scaling-stroke" d="
  M 343.18 343.30
  Q 356.69 335.39 369.55 331.08"
/>
<path stroke="#767285" vector-effect="non-scaling-stroke" d="
  M 369.55 331.08
  Q 380.29 328.36 389.06 327.79
  Q 389.60 327.76 389.77 327.24
  Q 391.55 321.82 391.95 315.51
  Q 393.00 299.06 390.00 283.88
  Q 388.60 276.79 386.02 266.72
  Q 384.52 260.89 382.76 256.59
  Q 380.78 251.74 378.57 246.79
  A 1.02 0.99 85.7 0 0 377.94 246.23
  Q 367.98 243.15 359.63 241.11
  Q 354.38 239.83 344.45 238.59
  C 339.85 238.02 334.99 236.76 330.29 236.10
  Q 260.92 226.42 190.94 232.25
  C 180.28 233.14 168.95 234.64 158.52 236.77
  Q 150.17 238.47 142.57 239.94
  Q 136.10 241.19 126.50 244.53
  Q 124.98 245.06 124.35 246.77
  Q 120.30 257.83 118.54 263.47"
/>
<path stroke="#f1eff7" vector-effect="non-scaling-stroke" d="
  M 369.55 331.08
  Q 375.96 320.62 377.55 312.55
  C 380.40 297.99 377.33 282.86 370.66 269.45
  Q 365.78 259.64 356.31 256.09
  Q 349.46 253.52 338.92 251.02
  C 334.42 249.95 330.03 249.59 325.58 248.61
  Q 320.49 247.48 315.49 246.72
  Q 260.45 238.36 204.11 242.64
  C 191.99 243.57 179.74 245.30 168.08 247.28
  Q 154.56 249.57 138.26 254.58
  Q 131.49 256.66 118.54 263.47"
/>
<path stroke="#ffd4cf" vector-effect="non-scaling-stroke" d="
  M 343.18 343.30
  Q 344.15 336.82 336.51 335.14"
/>
<path stroke="#97969f" vector-effect="non-scaling-stroke" d="
  M 336.51 335.14
  C 350.31 332.08 360.95 322.20 363.23 307.96
  C 365.37 294.53 359.63 280.99 350.71 270.54
  C 348.86 268.36 346.59 266.71 344.59 264.73
  Q 342.30 262.47 339.52 261.09
  C 327.89 255.34 316.12 252.02 304.25 256.02
  C 295.28 259.04 287.20 263.67 282.12 271.94
  Q 278.12 278.46 276.57 283.50
  Q 271.55 299.96 278.12 314.47
  Q 282.08 323.22 288.45 328.09
  C 298.89 336.07 310.60 338.54 323.75 337.42"
/>
<path stroke="#ffd4cf" vector-effect="non-scaling-stroke" d="
  M 323.75 337.42
  Q 319.91 339.63 319.40 342.90
  C 318.70 347.47 322.66 350.80 327.01 351.22
  Q 330.43 351.56 334.66 349.86"
/>
<path stroke="#f1eff7" vector-effect="non-scaling-stroke" d="
  M 320.51 373.10
  Q 315.02 373.27 306.75 374.05
  Q 303.48 374.36 299.91 372.91"
/>
<path stroke="#f1eff7" vector-effect="non-scaling-stroke" d="
  M 249.51 374.28
  L 227.24 373.95"
/>
<path stroke="#ffd4cf" vector-effect="non-scaling-stroke" d="
  M 145.85 351.10
  Q 151.90 351.90 155.76 349.79
  Q 158.89 348.08 159.66 345.88
  Q 160.98 342.05 156.50 337.52"
/>
<path stroke="#97969f" vector-effect="non-scaling-stroke" d="
  M 156.50 337.52
  Q 168.35 337.83 173.49 336.45
  C 181.47 334.32 188.43 330.94 194.15 325.03
  C 202.71 316.19 205.96 302.84 204.51 290.75
  C 203.64 283.54 200.31 275.92 196.30 269.84
  C 191.65 262.79 184.05 258.62 175.98 256.15
  C 169.06 254.03 161.35 254.73 154.35 257.49
  C 147.95 260.01 142.40 262.91 137.60 267.95
  Q 133.92 271.81 130.02 278.23
  C 125.23 286.11 123.28 294.88 123.02 304.27
  C 122.78 312.35 125.04 319.71 130.41 325.74
  Q 134.07 329.85 137.07 331.94
  Q 138.22 332.73 143.23 334.68"
/>
<path stroke="#ffd4cf" vector-effect="non-scaling-stroke" d="
  M 143.23 334.68
  Q 134.73 336.39 135.28 343.54"
/>
<path stroke="#f1eff7" vector-effect="non-scaling-stroke" d="
  M 125.37 348.83
  Q 123.71 346.53 121.74 344.63
  Q 119.09 342.07 118.13 340.51
  C 114.96 335.34 113.90 329.39 113.22 323.05
  Q 113.17 322.58 112.75 322.35
  Q 112.42 322.16 112.22 321.80"
/>
<path stroke="#966b6f" vector-effect="non-scaling-stroke" d="
  M 336.51 335.14
  L 323.75 337.42"
/>
<path stroke="#966b6f" vector-effect="non-scaling-stroke" d="
  M 156.50 337.52
  L 143.23 334.68"
/>
<path stroke="#1c192e" vector-effect="non-scaling-stroke" d="
  M 402.16 306.04
  Q 401.94 317.00 399.93 326.78
  Q 399.51 328.83 399.52 330.81
  C 399.57 339.10 393.74 337.98 387.77 337.77
  Q 386.35 337.73 384.65 338.23
  Q 382.74 338.79 380.80 339.19"
/>
<path stroke="#84828e" vector-effect="non-scaling-stroke" d="
  M 380.80 339.19
  Q 377.31 339.17 376.24 339.47
  C 364.13 342.91 355.30 345.77 345.63 352.91
  Q 339.70 357.28 335.66 362.66"
/>
<path stroke="#1c192e" vector-effect="non-scaling-stroke" d="
  M 335.66 362.66
  Q 329.98 367.82 329.44 374.70
  C 329.10 379.03 331.38 383.32 335.08 385.12
  Q 338.99 387.02 344.26 387.11
  Q 357.97 387.33 374.95 386.82
  Q 382.28 386.60 388.52 384.78
  C 394.70 382.99 403.01 377.99 406.67 371.82
  C 408.63 368.52 410.21 364.25 412.84 361.94
  Q 416.25 358.96 420.48 360.58"
/>
<path stroke="#767285" vector-effect="non-scaling-stroke" d="
  M 420.48 360.58
  Q 418.77 373.23 410.03 381.84
  Q 409.53 382.33 410.23 382.33
  L 429.72 382.18"
/>
<path stroke="#1c192e" vector-effect="non-scaling-stroke" d="
  M 429.72 382.18
  Q 432.05 382.41 434.25 382.41
  Q 446.08 382.38 457.50 382.17
  C 470.46 381.93 481.41 377.65 487.12 365.35
  C 489.76 359.68 488.73 351.58 486.46 346.03
  Q 482.96 337.51 474.93 331.98
  C 472.68 330.43 470.09 328.50 469.52 325.67
  Q 467.67 316.50 463.28 309.19
  Q 460.77 305.01 455.68 299.43
  Q 450.35 293.60 447.02 290.71
  Q 440.49 285.05 435.20 282.06
  Q 430.90 279.63 423.79 277.68"
/>
<path stroke="#84828e" vector-effect="non-scaling-stroke" d="
  M 423.79 277.68
  Q 411.86 272.02 397.42 270.93
  A 0.44 0.43 -4.7 0 0 396.96 271.47
  Q 401.43 289.02 402.16 306.04"
/>
<path stroke="#97969f" vector-effect="non-scaling-stroke" d="
  M 423.79 277.68
  Q 438.38 290.92 444.34 308.39
  C 448.65 321.03 448.71 335.71 446.96 349.25
  Q 446.09 356.01 443.51 362.14"
/>
<path stroke="#f1eff7" vector-effect="non-scaling-stroke" d="
  M 443.51 362.14
  L 424.37 362.41
  A 2.03 1.90 57.3 0 1 423.38 362.16
  Q 422.51 361.68 421.53 361.64
  Q 421.04 361.62 421.01 361.13
  L 420.66 356.03"
/>
<path stroke="#97969f" vector-effect="non-scaling-stroke" d="
  M 420.66 356.03
  Q 420.88 347.24 418.41 337.75
  Q 413.78 319.99 402.16 306.04"
/>
<path stroke="#888697" vector-effect="non-scaling-stroke" d="
  M 420.66 356.03
  L 420.48 360.58"
/>
<path stroke="#97969f" vector-effect="non-scaling-stroke" d="
  M 335.66 362.66
  Q 336.16 364.50 337.54 364.73
  C 342.33 365.52 342.99 361.38 345.97 359.05
  Q 354.56 352.32 366.85 346.93
  Q 373.58 343.98 379.67 343.03
  C 381.24 342.79 382.77 342.23 384.29 341.80
  A 0.72 0.71 -29.7 0 0 384.62 340.62
  Q 383.10 339.02 380.80 339.19"
/>
<path stroke="#888697" vector-effect="non-scaling-stroke" d="
  M 429.72 382.18
  Q 439.02 373.87 443.51 362.14"
/>
<path stroke="#1c192e" vector-effect="non-scaling-stroke" d="
  M 64.97 356.92
  Q 64.19 364.42 64.73 367.01
  C 66.21 374.10 72.29 382.44 79.51 384.18
  C 88.92 386.44 99.03 386.08 108.67 386.42
  Q 109.33 386.44 109.28 385.79
  Q 108.53 376.14 111.59 367.86
  A 1.29 1.29 0.0 0 0 111.11 366.35
  Q 103.50 361.09 100.08 351.05
  Q 97.38 343.13 97.01 338.25
  Q 96.54 331.91 99.72 322.82"
/>
<path stroke="#84828e" vector-effect="non-scaling-stroke" d="
  M 99.72 322.82
  Q 103.18 321.47 102.96 317.22
  Q 102.92 316.54 102.29 316.80
  C 97.91 318.58 93.65 321.07 89.62 323.55
  Q 75.48 332.23 67.93 347.21
  Q 65.95 351.13 64.97 356.92"
/>
<path stroke="#97969f" vector-effect="non-scaling-stroke" d="
  M 99.72 322.82
  C 95.47 324.54 92.04 327.65 88.36 330.42
  C 87.25 331.26 86.58 332.36 85.87 333.52
  Q 85.54 334.06 84.91 334.16
  C 84.14 334.29 83.53 334.57 82.96 335.12
  Q 78.36 339.62 74.16 344.43
  C 73.05 345.71 73.24 347.42 71.90 348.95
  Q 68.49 352.83 64.97 356.92"
/>
<path stroke="#615d75" vector-effect="non-scaling-stroke" d="
  M 122.58 396.74
  Q 125.56 401.54 131.59 405.07
  Q 134.48 406.77 137.10 408.06
  Q 138.40 408.70 137.50 407.56
  Q 136.87 406.76 136.21 405.34
  Q 133.10 398.74 131.26 391.89"
/>
<path stroke="#48405e" vector-effect="non-scaling-stroke" d="
  M 131.26 391.89
  L 139.38 391.11
  Q 139.84 391.07 139.85 390.61
  L 140.22 373.75"
/>
<path stroke="#84828e" vector-effect="non-scaling-stroke" d="
  M 140.22 373.75
  L 140.20 373.31
  Q 140.18 372.78 139.65 372.73
  L 131.36 372.00"
/>
<path stroke="#615d75" vector-effect="non-scaling-stroke" d="
  M 131.36 372.00
  C 128.57 366.33 132.91 359.90 134.80 355.05"
/>
<path stroke="#84828e" vector-effect="non-scaling-stroke" d="
  M 134.80 355.05
  L 135.59 352.87
  Q 135.81 352.26 135.24 352.57
  Q 128.50 356.30 123.42 362.62
  C 118.99 368.14 117.68 373.96 117.53 381.00
  Q 117.33 389.83 122.58 396.74"
/>
<path stroke="#dcdae6" vector-effect="non-scaling-stroke" d="
  M 134.80 355.05
  Q 133.15 355.17 132.73 355.55
  Q 125.65 361.84 122.10 370.70
  Q 121.87 371.29 122.50 371.22
  C 124.76 370.98 126.79 372.41 126.02 375.00
  Q 125.68 376.19 124.52 376.56
  Q 122.06 377.33 121.28 375.82
  Q 120.97 375.22 120.85 375.89
  Q 119.01 385.93 122.58 396.74"
/>
<path stroke="#dcdae6" vector-effect="non-scaling-stroke" d="
  M 131.36 372.00
  Q 130.36 371.52 131.28 372.73
  Q 131.49 373.00 131.80 373.14
  Q 134.77 374.51 137.95 374.30"
/>
<path stroke="#a098b7" vector-effect="non-scaling-stroke" d="
  M 137.95 374.30
  Q 137.71 374.33 137.53 374.41
  Q 137.19 374.54 137.18 374.91
  L 137.11 383.88
  A 1.46 1.44 -13.2 0 1 136.29 385.18
  C 134.80 385.92 132.99 386.25 132.10 387.81
  Q 131.10 389.57 131.26 391.89"
/>
<path stroke="#c3bdd0" vector-effect="non-scaling-stroke" d="
  M 140.22 373.75
  Q 139.19 374.20 137.95 374.30"
/>
<path stroke="#615d75" vector-effect="non-scaling-stroke" d="
  M 258.52 385.82
  Q 258.52 393.18 263.07 397.48"
/>
<path stroke="#48405e" vector-effect="non-scaling-stroke" d="
  M 263.07 397.48
  Q 263.27 398.43 265.50 398.52
  Q 272.51 398.82 283.83 398.33"
/>
<path stroke="#1c192e" vector-effect="non-scaling-stroke" d="
  M 283.83 398.33
  Q 285.90 397.53 287.36 395.63
  C 290.14 392.00 291.45 388.05 291.33 383.38
  C 291.21 378.63 291.39 374.22 289.89 369.64
  Q 288.17 364.39 283.56 363.41"
/>
<path stroke="#84828e" vector-effect="non-scaling-stroke" d="
  M 283.56 363.41
  Q 271.00 362.38 266.24 363.25
  Q 261.09 364.18 259.72 369.75
  Q 257.59 378.44 258.52 385.82"
/>
<path stroke="#97969f" vector-effect="non-scaling-stroke" d="
  M 283.56 363.41
  Q 283.21 364.59 281.61 365.78"
/>
<path stroke="#dcdae6" vector-effect="non-scaling-stroke" d="
  M 281.61 365.78
  Q 273.99 365.60 266.76 365.98
  Q 263.70 366.14 262.99 368.54
  A 0.56 0.56 0.0 0 0 263.75 369.21
  C 266.56 367.93 271.86 368.73 269.64 373.08
  C 268.02 376.27 264.62 375.12 262.23 373.64
  A 0.57 0.56 19.5 0 1 261.97 373.10
  Q 262.00 372.80 261.83 372.58
  Q 261.41 372.02 261.28 372.70
  Q 260.27 377.70 260.39 382.58
  Q 260.41 383.54 260.23 384.48
  Q 259.72 387.01 258.52 385.82"
/>
<path stroke="#a098b7" vector-effect="non-scaling-stroke" d="
  M 277.95 385.03
  L 261.07 385.64
  Q 260.57 385.66 260.52 386.15
  Q 260.01 391.36 263.07 397.48"
/>
<path stroke="#5a5470" vector-effect="non-scaling-stroke" d="
  M 283.83 398.33
  Q 279.65 393.84 279.15 390.62
  Q 278.60 387.16 277.95 385.03"
/>
<path stroke="#747186" vector-effect="non-scaling-stroke" d="
  M 277.95 385.03
  C 277.42 377.60 278.62 372.39 281.61 365.78"
/>
<path stroke="#845d3a" vector-effect="non-scaling-stroke" d="
  M 149.02 377.34
  L 149.02 384.97"
/>
<path stroke="#813f3b" vector-effect="non-scaling-stroke" d="
  M 149.02 384.97
  L 149.06 390.28
  Q 149.06 391.13 149.91 391.13
  Q 182.02 391.24 213.82 391.24
  C 215.83 391.24 217.97 390.51 218.70 388.69
  Q 222.55 379.05 215.80 373.56"
/>
<path stroke="#84828e" vector-effect="non-scaling-stroke" d="
  M 215.80 373.56
  L 149.27 373.58
  Q 148.75 373.58 148.79 374.10
  L 149.02 377.34"
/>
<path stroke="#fcbcac" vector-effect="non-scaling-stroke" d="
  M 215.80 373.56
  L 213.90 376.94"
/>
<path stroke="#ffdaab" vector-effect="non-scaling-stroke" d="
  M 213.90 376.94
  L 149.02 377.34"
/>
<path stroke="#fc9758" vector-effect="non-scaling-stroke" d="
  M 149.02 384.97
  Q 180.42 385.55 211.75 384.98
  Q 213.66 384.95 213.76 382.90
  Q 213.90 379.70 213.90 376.94"
/>
<path stroke="#fe9f58" vector-effect="non-scaling-stroke" d="
  M 354.83 178.31
  Q 352.33 170.70 348.79 163.57
  Q 342.44 150.77 330.48 141.16
  C 329.75 140.57 329.11 139.81 328.75 138.95
  Q 328.18 137.58 327.11 138.61
  Q 324.14 141.47 323.10 145.06
  Q 320.60 153.68 319.46 161.71
  Q 317.76 173.68 317.88 191.31
  Q 317.90 193.61 320.01 193.95
  Q 334.17 196.24 347.60 198.57
  C 350.88 199.14 353.89 200.27 357.23 200.59
  A 0.63 0.62 2.9 0 0 357.92 199.97
  Q 358.03 188.02 354.83 178.31"
/>
<path stroke="#84828e" vector-effect="non-scaling-stroke" d="
  M 237.78 309.60
  C 238.66 311.17 240.16 312.49 242.02 312.70
  Q 248.78 313.48 252.00 307.74
  Q 253.44 305.16 252.73 303.12
  C 252.00 301.01 249.04 299.56 247.28 301.54
  C 246.25 302.71 246.16 304.62 244.90 305.38
  C 242.82 306.62 241.05 304.88 240.41 302.95
  Q 240.27 302.53 240.64 302.27
  C 241.53 301.64 242.30 300.92 242.44 299.77
  C 242.98 295.12 238.28 294.43 234.85 295.34
  C 231.27 296.29 230.65 299.94 233.21 302.27
  A 0.90 0.89 31.8 0 1 233.44 303.24
  Q 232.90 304.74 231.67 305.45
  A 2.35 2.35 0.0 0 1 228.25 304.12
  Q 227.38 301.34 225.08 300.37
  Q 224.54 300.14 223.99 300.37
  C 215.84 303.83 227.71 319.49 237.02 309.51
  Q 237.46 309.04 237.78 309.60"
/>
<path stroke="#1c192e" vector-effect="non-scaling-stroke" d="
  M 295.70 284.94
  Q 294.63 285.07 293.51 286.25
  C 291.77 288.09 290.45 289.85 289.97 292.39
  Q 288.19 301.76 294.39 308.24
  Q 298.31 312.34 303.13 313.29
  C 308.81 314.43 315.65 312.95 319.81 308.84
  C 322.19 306.50 323.88 301.58 324.10 298.43
  Q 324.62 291.08 320.62 286.14
  Q 318.41 283.41 314.03 282.23"
/>
<path stroke="#97969f" vector-effect="non-scaling-stroke" d="
  M 314.03 282.23
  Q 302.65 271.54 295.70 284.94"
/>
<path stroke="#84828e" vector-effect="non-scaling-stroke" d="
  M 314.03 282.23
  C 316.01 288.19 313.65 294.45 307.39 295.62
  Q 304.31 296.20 301.40 294.53
  Q 296.44 291.68 295.70 284.94"
/>
<path stroke="#97969f" vector-effect="non-scaling-stroke" d="
  M 338.01 307.15
  A 4.61 4.61 0.0 0 0 333.40 302.54
  A 4.61 4.61 0.0 0 0 328.79 307.15
  A 4.61 4.61 0.0 0 0 333.40 311.76
  A 4.61 4.61 0.0 0 0 338.01 307.15"
/>
<path stroke="#1c192e" vector-effect="non-scaling-stroke" d="
  M 163.43 284.03
  Q 162.10 283.81 159.77 286.55
  Q 156.02 290.95 156.36 296.81
  C 156.56 300.29 156.96 302.92 159.07 305.71
  Q 163.73 311.89 169.39 313.01
  C 179.82 315.08 189.69 309.11 191.23 298.40
  Q 191.76 294.66 189.67 290.25
  Q 186.76 284.13 182.78 283.11
  Q 182.35 283.00 182.13 283.40
  Q 181.80 284.01 181.89 284.98"
/>
<path stroke="#97969f" vector-effect="non-scaling-stroke" d="
  M 181.89 284.98
  Q 181.66 282.62 180.24 281.28
  Q 170.91 272.45 163.43 284.03"
/>
<path stroke="#84828e" vector-effect="non-scaling-stroke" d="
  M 181.89 284.98
  C 182.87 292.21 176.50 298.10 169.42 294.86
  Q 163.39 292.10 163.43 284.03"
/>
<path stroke="#97969f" vector-effect="non-scaling-stroke" d="
  M 152.20 307.13
  A 4.59 4.59 0.0 0 0 147.61 302.54
  A 4.59 4.59 0.0 0 0 143.02 307.13
  A 4.59 4.59 0.0 0 0 147.61 311.72
  A 4.59 4.59 0.0 0 0 152.20 307.13"
/>
<path stroke="#84828e" vector-effect="non-scaling-stroke" d="
  M 317.0702 299.9200
  A 3.37 3.03 -33.5 0 0 312.5876 299.2533
  A 3.37 3.03 -33.5 0 0 311.4498 303.6400
  A 3.37 3.03 -33.5 0 0 315.9324 304.3067
  A 3.37 3.03 -33.5 0 0 317.0702 299.9200"
/>
<path stroke="#84828e" vector-effect="non-scaling-stroke" d="
  M 184.4199 300.6323
  A 3.35 2.98 -20.4 0 0 180.2413 299.0069
  A 3.35 2.98 -20.4 0 0 178.1401 302.9677
  A 3.35 2.98 -20.4 0 0 182.3187 304.5931
  A 3.35 2.98 -20.4 0 0 184.4199 300.6323"
/>
<path stroke="#5a5470" vector-effect="non-scaling-stroke" d="
  M 348.9257 359.2717
  A 0.93 0.41 -42.5 0 0 347.9630 359.5977
  A 0.93 0.41 -42.5 0 0 347.5543 360.5283
  A 0.93 0.41 -42.5 0 0 348.5170 360.2023
  A 0.93 0.41 -42.5 0 0 348.9257 359.2717"
/>
<path stroke="#1c192e" vector-effect="non-scaling-stroke" d="
  M 284.2774 388.4393
  A 7.35 2.32 90.8 0 0 286.6998 381.1224
  A 7.35 2.32 90.8 0 0 284.4826 373.7407
  A 7.35 2.32 90.8 0 0 282.0602 381.0576
  A 7.35 2.32 90.8 0 0 284.2774 388.4393"
/>
<path stroke="#767285" vector-effect="non-scaling-stroke" d="
  M 491.66 386.97
  Q 491.96 388.04 491.86 389.04"
/>
<path stroke="#f1eff7" vector-effect="non-scaling-stroke" d="
  M 117.28 411.20
  L 123.71 410.38"
/>
<path stroke="#767285" vector-effect="non-scaling-stroke" d="
  M 61.35 387.04
  Q 62.71 391.24 58.75 391.20
  Q 55.08 391.16 51.26 391.38"
/>
<path stroke="#f1eff7" vector-effect="non-scaling-stroke" d="
  M 116.98 404.70
  Q 116.74 404.88 116.74 405.49"
/>
</g>
<path fill="#09051c" d="
  M 488.64 380.13
  Q 485.22 383.59 482.82 384.82
  Q 478.13 387.21 470.87 389.25
  C 464.36 391.09 456.58 391.32 450.00 391.41
  Q 427.83 391.70 402.20 391.76
  Q 402.13 391.76 399.31 391.61
  Q 396.45 391.46 393.36 392.66
  Q 385.11 395.86 377.29 396.27
  Q 362.79 397.03 342.84 396.58
  Q 335.06 396.40 328.90 392.13
  Q 328.40 391.78 327.78 391.78
  L 299.80 391.73
  Q 299.27 391.73 299.15 392.25
  C 297.53 399.55 291.82 406.66 284.09 407.02
  Q 276.87 407.37 266.57 407.14
  Q 262.90 407.06 260.47 406.06
  C 255.05 403.82 251.85 398.17 250.28 392.53
  Q 250.06 391.74 249.24 391.74
  L 227.82 391.75
  Q 227.18 391.75 226.89 392.32
  C 224.61 396.82 219.36 400.35 214.06 400.33
  Q 178.16 400.14 144.04 399.96
  Q 143.36 399.95 143.64 400.57
  Q 145.39 404.44 147.13 407.99
  C 148.99 411.77 148.83 417.17 143.61 418.06
  Q 140.71 418.55 137.06 417.36
  Q 129.47 414.90 123.71 410.38
  L 116.98 404.70
  L 112.14 396.27
  Q 111.90 395.86 111.42 395.86
  Q 102.50 395.88 93.36 395.50
  C 84.55 395.13 75.64 393.64 69.05 388.70
  Q 64.97 385.63 63.03 384.39
  C 53.60 374.07 52.95 358.01 58.35 345.76
  Q 62.85 335.56 71.04 327.43
  C 72.35 326.13 73.06 324.75 74.55 323.55
  Q 82.67 317.03 88.50 313.67
  Q 90.41 312.57 92.20 311.42
  C 95.30 309.43 98.72 308.06 102.24 306.91
  A 1.24 1.24 0.0 0 0 103.09 305.75
  Q 103.23 296.78 104.36 288.05
  Q 105.58 278.74 109.30 263.61
  Q 109.44 263.05 108.88 262.88
  Q 104.71 261.64 100.79 259.70
  Q 97.21 257.93 95.00 254.82
  Q 91.91 250.47 90.61 244.86
  C 89.43 239.73 91.35 234.18 93.68 229.64
  C 95.77 225.55 99.39 222.52 103.37 219.96
  Q 103.90 219.62 103.38 219.26
  C 96.48 214.50 93.04 206.53 90.39 198.64
  Q 88.07 191.73 88.29 182.73
  Q 88.68 166.36 95.03 153.39
  Q 99.77 143.70 108.16 136.69
  Q 112.02 133.48 116.18 130.77
  Q 122.17 126.88 130.33 124.48
  Q 141.99 121.06 154.20 123.47
  Q 160.55 124.72 167.34 128.99
  A 0.66 0.65 -45.4 0 0 168.06 128.98
  Q 170.63 127.31 173.82 126.42
  A 2.12 2.08 -76.1 0 0 174.78 125.83
  C 176.29 124.18 177.29 122.12 179.02 120.70
  Q 183.90 116.69 190.28 115.92
  C 191.50 115.77 192.14 115.02 192.58 113.93
  Q 194.96 108.02 198.90 103.08
  Q 202.86 98.11 209.06 95.12
  Q 213.27 93.10 218.87 91.08
  Q 223.76 89.31 228.65 88.28
  Q 242.24 85.41 254.93 85.67
  Q 267.12 85.91 278.47 88.37
  Q 284.11 89.60 291.11 92.14
  Q 297.97 94.62 301.83 97.29
  Q 312.19 104.44 318.34 114.73
  C 319.09 115.99 319.39 117.23 319.86 118.58
  Q 320.07 119.17 320.69 119.15
  Q 327.31 118.90 333.23 122.82
  Q 336.85 125.21 340.81 128.64
  A 1.60 1.60 0.0 0 0 343.00 128.56
  Q 345.38 126.18 348.58 125.25
  C 351.36 124.45 354.11 123.26 356.99 122.94
  C 366.07 121.95 375.87 122.65 384.51 125.96
  Q 390.48 128.24 392.73 129.77
  Q 396.24 132.16 399.47 134.31
  Q 403.35 136.89 405.71 139.65
  C 412.61 147.72 418.42 157.35 420.80 167.49
  Q 423.80 180.24 421.87 193.15
  Q 421.45 196.00 420.33 198.98
  C 417.76 205.83 415.07 211.52 409.99 217.14
  Q 409.00 218.24 407.71 219.03
  Q 407.24 219.31 406.94 219.77
  Q 405.86 221.42 404.11 222.17
  A 0.85 0.85 0.0 0 0 403.88 223.58
  Q 406.89 226.29 409.19 229.67
  Q 416.02 239.73 411.48 250.10
  Q 410.63 252.03 409.30 253.62
  C 406.47 257.01 404.75 259.18 400.51 260.87
  Q 398.44 261.69 400.66 261.87
  Q 417.64 263.26 433.70 271.00
  Q 435.04 271.64 436.37 272.24
  Q 437.71 272.85 438.95 273.59
  Q 447.06 278.46 454.85 284.65
  Q 456.87 286.25 463.40 293.27
  C 464.76 294.74 465.72 296.35 466.98 297.87
  Q 468.04 299.15 468.69 300.72
  C 469.29 302.16 470.47 303.22 471.25 304.60
  C 474.35 310.04 476.55 315.94 478.71 321.85
  Q 478.92 322.43 479.44 322.76
  Q 483.76 325.47 487.14 329.23
  Q 488.52 330.77 489.58 332.62
  C 492.74 338.10 495.59 342.98 496.58 349.02
  Q 497.33 353.63 497.26 358.83
  Q 497.20 363.47 495.47 368.28
  Q 493.14 374.74 488.64 380.13
  Z
  M 192.18 149.24
  C 189.40 164.80 189.14 180.60 189.02 196.21
  A 0.32 0.31 86.8 0 0 189.37 196.53
  C 217.68 193.18 246.11 193.40 274.04 194.07
  A 0.63 0.63 0.0 0 0 274.68 193.43
  Q 274.47 173.93 275.69 154.49
  Q 277.26 138.84 280.77 123.58
  Q 282.12 117.73 283.80 115.27
  C 287.24 110.23 291.72 108.03 297.17 105.88
  A 0.34 0.34 0.0 0 0 297.22 105.28
  L 293.00 102.68
  Q 289.57 100.64 286.27 99.49
  Q 271.73 94.39 254.88 94.24
  Q 235.05 94.06 218.44 100.24
  C 212.79 102.34 206.89 106.16 203.40 111.43
  Q 200.09 116.43 198.47 121.25
  Q 195.48 130.16 192.18 149.24
  Z
  M 302.24 193.03
  Q 302.40 179.90 302.92 166.76
  Q 303.35 155.95 304.82 145.23
  Q 305.82 137.84 308.43 131.36
  Q 311.43 123.90 319.01 119.80
  Q 319.55 119.51 318.95 119.35
  L 316.07 118.58
  C 308.82 114.35 299.14 112.32 293.31 118.98
  Q 290.50 122.19 289.00 129.34
  Q 285.37 146.67 284.51 162.18
  Q 283.55 179.23 283.88 194.14
  A 0.68 0.66 2.4 0 0 284.49 194.79
  L 301.48 196.30
  A 0.68 0.68 0.0 0 0 302.22 195.62
  L 302.24 193.03
  Z
  M 171.88 172.01
  Q 169.46 184.00 169.70 198.12
  Q 169.71 198.66 170.24 198.58
  L 177.86 197.52
  A 1.28 1.28 0.0 0 0 178.96 196.24
  Q 178.81 171.34 182.99 146.17
  C 183.98 140.21 186.05 134.08 187.61 127.96
  Q 187.82 127.43 187.72 126.90
  A 0.41 0.41 0.0 0 0 187.14 126.60
  Q 184.86 127.67 183.08 129.23
  C 181.11 130.97 180.25 134.10 179.12 136.56
  Q 178.33 138.26 177.83 140.36
  Q 175.61 149.77 173.17 158.98
  Q 171.55 165.05 171.88 172.01
  Z
  M 371.89 185.43
  C 370.01 180.34 367.21 176.04 364.96 171.27
  C 360.91 162.70 355.19 155.36 348.64 148.35
  C 345.08 144.54 341.43 140.23 337.29 137.26
  Q 332.65 133.93 327.47 130.54
  C 322.16 127.05 317.92 133.39 316.84 137.73
  C 312.22 156.37 311.20 176.94 311.90 196.89
  Q 311.91 197.29 312.30 197.32
  Q 325.24 198.19 340.74 201.59
  Q 347.49 203.07 354.72 204.68
  C 363.01 206.53 370.55 209.05 378.58 211.76
  Q 379.26 211.99 379.16 211.28
  Q 378.63 207.14 377.48 203.01
  Q 374.82 193.37 371.89 185.43
  Z
  M 104.37 155.51
  Q 95.72 172.00 97.87 191.11
  Q 98.47 196.52 101.00 201.90
  Q 104.77 209.93 111.44 214.62
  Q 112.27 215.20 113.28 214.98
  A 1.64 1.63 -2.4 0 0 114.54 213.62
  Q 116.85 197.89 123.45 181.91
  Q 129.27 167.80 137.64 156.75
  Q 141.72 151.36 147.52 145.19
  C 149.58 143.01 151.98 141.21 154.33 139.33
  Q 155.48 138.41 156.12 136.42
  Q 157.41 136.85 158.93 135.20
  A 0.44 0.43 -58.1 0 0 158.77 134.50
  C 146.80 129.96 135.16 131.49 123.61 136.61
  C 117.61 139.27 113.18 144.35 108.85 149.16
  Q 107.58 150.57 106.51 152.23
  Q 105.49 153.81 104.37 155.51
  Z
  M 352.78 137.98
  Q 353.20 137.79 353.25 138.28
  Q 353.45 139.31 354.90 140.34
  Q 357.88 144.05 361.07 147.80
  C 363.73 150.94 365.81 154.43 368.11 157.81
  C 376.58 170.26 382.54 183.58 385.77 198.16
  Q 387.53 206.12 388.79 213.11
  Q 389.22 215.49 390.59 216.49
  C 392.17 217.63 394.89 218.91 396.71 217.49
  C 400.59 214.46 404.16 211.42 406.67 207.05
  Q 413.21 195.61 413.09 183.95
  C 413.02 176.83 412.29 170.05 409.32 163.28
  Q 406.83 157.60 404.74 153.79
  C 402.69 150.04 398.54 145.67 395.32 142.81
  Q 391.49 139.41 386.60 137.51
  Q 385.50 136.14 383.76 135.48
  C 372.78 131.32 360.27 129.90 349.49 135.24
  A 0.25 0.25 0.0 0 0 349.39 135.60
  Q 350.80 137.78 352.78 137.98
  Z
  M 150.14 156.45
  Q 148.03 158.04 146.30 160.51
  Q 140.29 169.11 136.39 175.81
  Q 128.45 192.12 124.93 209.59
  A 0.31 0.30 86.2 0 0 125.33 209.94
  C 136.51 205.85 147.80 203.10 159.21 200.47
  Q 159.78 200.33 159.81 199.75
  L 159.98 196.20
  Q 160.47 182.55 160.75 178.75
  Q 161.61 167.41 164.93 152.25
  L 169.09 138.53
  Q 169.24 138.06 168.83 138.34
  Q 160.15 144.48 157.20 148.21
  Q 153.69 152.63 150.14 156.45
  Z
  M 99.62 238.72
  Q 98.18 244.01 101.50 248.02
  Q 104.94 252.18 111.47 254.33
  A 0.33 0.33 0.0 0 0 111.88 254.14
  L 113.54 249.96
  Q 113.72 249.52 113.27 249.65
  Q 107.28 251.42 106.49 246.52
  C 106.01 243.59 109.99 241.05 112.28 240.15
  C 124.73 235.24 137.86 231.07 151.16 228.42
  Q 182.05 222.27 215.24 220.94
  Q 270.21 218.74 323.62 225.38
  Q 333.23 226.58 347.76 229.32
  Q 367.85 232.91 387.12 239.62
  C 390.22 240.70 398.98 243.33 395.65 248.31
  Q 393.70 251.22 390.29 250.80
  Q 389.58 250.72 389.94 251.34
  L 391.56 254.07
  Q 391.84 254.54 392.37 254.39
  Q 398.97 252.42 402.01 248.16
  Q 406.11 242.40 402.82 236.93
  Q 399.71 231.76 397.69 230.53
  Q 387.08 224.08 375.03 220.35
  L 336.95 210.66
  Q 326.12 208.29 314.80 206.91
  Q 277.33 202.34 239.76 202.49
  Q 202.54 202.65 168.45 208.46
  Q 153.13 211.07 137.79 215.75
  Q 124.95 219.67 122.86 220.39
  Q 117.28 222.28 109.40 227.16
  Q 102.01 231.72 99.62 238.72
  Z
  M 118.54 263.47
  Q 116.48 270.21 114.80 280.26
  Q 111.35 300.87 112.31 320.75
  Q 112.33 321.25 112.22 321.80
  Q 110.23 324.98 108.11 329.62
  Q 106.20 333.82 106.92 338.26
  Q 107.83 343.89 109.87 348.88
  C 111.22 352.19 113.52 355.00 115.37 358.07
  A 0.36 0.35 47.4 0 0 115.96 358.10
  Q 119.85 352.80 125.37 348.83
  Q 129.64 345.23 135.28 343.54
  Q 137.33 343.08 140.00 343.33
  Q 146.31 343.91 145.85 351.10
  Q 145.97 352.33 145.40 353.22
  Q 142.54 357.68 139.81 364.23
  Q 139.61 364.69 140.11 364.69
  Q 174.38 364.78 214.25 364.64
  C 220.25 364.61 224.82 368.82 227.24 373.95
  Q 228.86 377.85 229.01 381.98
  Q 229.03 382.46 229.51 382.47
  L 248.52 382.49
  Q 249.10 382.49 249.13 381.90
  L 249.51 374.28
  Q 249.86 367.12 254.79 360.52
  Q 259.59 354.13 267.35 353.81
  Q 274.96 353.49 281.00 353.72
  C 291.56 354.12 299.01 362.68 299.91 372.91
  L 300.45 382.08
  A 0.36 0.36 0.0 0 0 300.81 382.42
  L 320.15 382.50
  Q 320.62 382.50 320.62 382.02
  L 320.51 373.10
  Q 322.12 362.71 329.51 355.24
  Q 331.85 352.87 334.66 349.86
  L 343.18 343.30
  Q 356.69 335.39 369.55 331.08
  Q 380.29 328.36 389.06 327.79
  Q 389.60 327.76 389.77 327.24
  Q 391.55 321.82 391.95 315.51
  Q 393.00 299.06 390.00 283.88
  Q 388.60 276.79 386.02 266.72
  Q 384.52 260.89 382.76 256.59
  Q 380.78 251.74 378.57 246.79
  A 1.02 0.99 85.7 0 0 377.94 246.23
  Q 367.98 243.15 359.63 241.11
  Q 354.38 239.83 344.45 238.59
  C 339.85 238.02 334.99 236.76 330.29 236.10
  Q 260.92 226.42 190.94 232.25
  C 180.28 233.14 168.95 234.64 158.52 236.77
  Q 150.17 238.47 142.57 239.94
  Q 136.10 241.19 126.50 244.53
  Q 124.98 245.06 124.35 246.77
  Q 120.30 257.83 118.54 263.47
  Z
  M 402.16 306.04
  Q 401.94 317.00 399.93 326.78
  Q 399.51 328.83 399.52 330.81
  C 399.57 339.10 393.74 337.98 387.77 337.77
  Q 386.35 337.73 384.65 338.23
  Q 382.74 338.79 380.80 339.19
  Q 377.31 339.17 376.24 339.47
  C 364.13 342.91 355.30 345.77 345.63 352.91
  Q 339.70 357.28 335.66 362.66
  Q 329.98 367.82 329.44 374.70
  C 329.10 379.03 331.38 383.32 335.08 385.12
  Q 338.99 387.02 344.26 387.11
  Q 357.97 387.33 374.95 386.82
  Q 382.28 386.60 388.52 384.78
  C 394.70 382.99 403.01 377.99 406.67 371.82
  C 408.63 368.52 410.21 364.25 412.84 361.94
  Q 416.25 358.96 420.48 360.58
  Q 418.77 373.23 410.03 381.84
  Q 409.53 382.33 410.23 382.33
  L 429.72 382.18
  Q 432.05 382.41 434.25 382.41
  Q 446.08 382.38 457.50 382.17
  C 470.46 381.93 481.41 377.65 487.12 365.35
  C 489.76 359.68 488.73 351.58 486.46 346.03
  Q 482.96 337.51 474.93 331.98
  C 472.68 330.43 470.09 328.50 469.52 325.67
  Q 467.67 316.50 463.28 309.19
  Q 460.77 305.01 455.68 299.43
  Q 450.35 293.60 447.02 290.71
  Q 440.49 285.05 435.20 282.06
  Q 430.90 279.63 423.79 277.68
  Q 411.86 272.02 397.42 270.93
  A 0.44 0.43 -4.7 0 0 396.96 271.47
  Q 401.43 289.02 402.16 306.04
  Z
  M 64.97 356.92
  Q 64.19 364.42 64.73 367.01
  C 66.21 374.10 72.29 382.44 79.51 384.18
  C 88.92 386.44 99.03 386.08 108.67 386.42
  Q 109.33 386.44 109.28 385.79
  Q 108.53 376.14 111.59 367.86
  A 1.29 1.29 0.0 0 0 111.11 366.35
  Q 103.50 361.09 100.08 351.05
  Q 97.38 343.13 97.01 338.25
  Q 96.54 331.91 99.72 322.82
  Q 103.18 321.47 102.96 317.22
  Q 102.92 316.54 102.29 316.80
  C 97.91 318.58 93.65 321.07 89.62 323.55
  Q 75.48 332.23 67.93 347.21
  Q 65.95 351.13 64.97 356.92
  Z
  M 122.58 396.74
  Q 125.56 401.54 131.59 405.07
  Q 134.48 406.77 137.10 408.06
  Q 138.40 408.70 137.50 407.56
  Q 136.87 406.76 136.21 405.34
  Q 133.10 398.74 131.26 391.89
  L 139.38 391.11
  Q 139.84 391.07 139.85 390.61
  L 140.22 373.75
  L 140.20 373.31
  Q 140.18 372.78 139.65 372.73
  L 131.36 372.00
  C 128.57 366.33 132.91 359.90 134.80 355.05
  L 135.59 352.87
  Q 135.81 352.26 135.24 352.57
  Q 128.50 356.30 123.42 362.62
  C 118.99 368.14 117.68 373.96 117.53 381.00
  Q 117.33 389.83 122.58 396.74
  Z
  M 258.52 385.82
  Q 258.52 393.18 263.07 397.48
  Q 263.27 398.43 265.50 398.52
  Q 272.51 398.82 283.83 398.33
  Q 285.90 397.53 287.36 395.63
  C 290.14 392.00 291.45 388.05 291.33 383.38
  C 291.21 378.63 291.39 374.22 289.89 369.64
  Q 288.17 364.39 283.56 363.41
  Q 271.00 362.38 266.24 363.25
  Q 261.09 364.18 259.72 369.75
  Q 257.59 378.44 258.52 385.82
  Z
  M 149.02 377.34
  L 149.02 384.97
  L 149.06 390.28
  Q 149.06 391.13 149.91 391.13
  Q 182.02 391.24 213.82 391.24
  C 215.83 391.24 217.97 390.51 218.70 388.69
  Q 222.55 379.05 215.80 373.56
  L 149.27 373.58
  Q 148.75 373.58 148.79 374.10
  L 149.02 377.34
  Z"
/>
<path fill="#ffffff" d="
  M 293.00 102.68
  Q 291.78 103.93 288.88 104.12
  Q 269.79 96.90 250.51 98.00
  Q 248.75 98.10 246.98 98.60
  Q 246.41 98.76 246.18 99.30
  C 244.06 104.14 240.55 106.97 234.96 107.21
  A 0.70 0.69 -21.8 0 0 234.46 108.36
  Q 238.09 112.47 233.93 116.96
  Q 230.95 120.19 226.66 120.03
  C 222.23 119.86 219.16 116.50 220.30 111.89
  C 221.10 108.63 223.88 106.74 226.82 105.37
  Q 227.48 105.07 227.40 104.35
  Q 227.29 103.28 226.72 102.41
  Q 226.40 101.92 225.82 102.04
  Q 220.63 103.13 217.02 105.54
  C 210.12 108.59 204.08 113.29 201.45 120.55
  C 198.78 127.03 197.09 135.41 195.72 140.32
  Q 194.36 145.16 193.02 150.01
  Q 192.96 150.23 192.78 150.33
  Q 192.43 150.51 192.35 150.12
  L 192.18 149.24
  Q 195.48 130.16 198.47 121.25
  Q 200.09 116.43 203.40 111.43
  C 206.89 106.16 212.79 102.34 218.44 100.24
  Q 235.05 94.06 254.88 94.24
  Q 271.73 94.39 286.27 99.49
  Q 289.57 100.64 293.00 102.68
  Z"
/>
<path fill="#ffb557" d="
  M 288.88 104.12
  Q 283.48 107.26 281.82 111.05
  Q 280.66 113.71 279.57 117.79
  Q 278.83 120.54 278.30 124.77
  Q 277.57 130.50 276.15 139.75
  Q 275.12 146.46 275.69 154.49
  Q 274.47 173.93 274.68 193.43
  A 0.63 0.63 0.0 0 1 274.04 194.07
  C 246.11 193.40 217.68 193.18 189.37 196.53
  A 0.32 0.31 86.8 0 1 189.02 196.21
  C 189.14 180.60 189.40 164.80 192.18 149.24
  L 192.35 150.12
  Q 192.43 150.51 192.78 150.33
  Q 192.96 150.23 193.02 150.01
  Q 194.36 145.16 195.72 140.32
  C 197.09 135.41 198.78 127.03 201.45 120.55
  L 201.21 122.87
  Q 201.15 123.39 201.65 123.54
  L 203.05 123.98
  Q 203.51 124.12 203.65 124.59
  Q 203.74 124.92 204.06 125.10
  Q 206.31 126.35 208.82 126.73
  Q 209.33 126.80 209.50 126.32
  Q 212.42 117.84 214.00 115.27
  Q 217.30 109.90 217.02 105.54
  Q 220.63 103.13 225.82 102.04
  Q 226.40 101.92 226.72 102.41
  Q 227.29 103.28 227.40 104.35
  Q 227.48 105.07 226.82 105.37
  C 223.88 106.74 221.10 108.63 220.30 111.89
  C 219.16 116.50 222.23 119.86 226.66 120.03
  Q 230.95 120.19 233.93 116.96
  Q 238.09 112.47 234.46 108.36
  A 0.70 0.69 -21.8 0 1 234.96 107.21
  C 240.55 106.97 244.06 104.14 246.18 99.30
  Q 246.41 98.76 246.98 98.60
  Q 248.75 98.10 250.51 98.00
  Q 269.79 96.90 288.88 104.12
  Z"
/>
<path fill="#fc8858" d="
  M 293.00 102.68
  L 297.22 105.28
  A 0.34 0.34 0.0 0 1 297.17 105.88
  C 291.72 108.03 287.24 110.23 283.80 115.27
  Q 282.12 117.73 280.77 123.58
  Q 277.26 138.84 275.69 154.49
  Q 275.12 146.46 276.15 139.75
  Q 277.57 130.50 278.30 124.77
  Q 278.83 120.54 279.57 117.79
  Q 280.66 113.71 281.82 111.05
  Q 283.48 107.26 288.88 104.12
  Q 291.78 103.93 293.00 102.68
  Z"
/>
<path fill="#fc8858" d="
  M 217.02 105.54
  Q 217.30 109.90 214.00 115.27
  Q 212.42 117.84 209.50 126.32
  Q 209.33 126.80 208.82 126.73
  Q 206.31 126.35 204.06 125.10
  Q 203.74 124.92 203.65 124.59
  Q 203.51 124.12 203.05 123.98
  L 201.65 123.54
  Q 201.15 123.39 201.21 122.87
  L 201.45 120.55
  C 204.08 113.29 210.12 108.59 217.02 105.54
  Z"
/>
<path fill="#f97959" d="
  M 316.07 118.58
  Q 310.67 119.81 306.17 121.44
  C 298.23 124.32 294.44 138.80 292.99 146.19
  C 291.06 155.97 289.58 165.17 289.60 175.04
  Q 289.61 181.71 289.17 188.52
  Q 288.97 191.71 291.89 192.00
  Q 297.03 192.53 300.75 194.11
  Q 301.98 194.63 302.24 193.03
  L 302.22 195.62
  A 0.68 0.68 0.0 0 1 301.48 196.30
  L 284.49 194.79
  A 0.68 0.66 2.4 0 1 283.88 194.14
  Q 283.55 179.23 284.51 162.18
  Q 285.37 146.67 289.00 129.34
  Q 290.50 122.19 293.31 118.98
  C 299.14 112.32 308.82 114.35 316.07 118.58
  Z"
/>
<path fill="#ffb557" d="
  M 316.07 118.58
  L 318.95 119.35
  Q 319.55 119.51 319.01 119.80
  Q 311.43 123.90 308.43 131.36
  Q 305.82 137.84 304.82 145.23
  Q 303.35 155.95 302.92 166.76
  Q 302.40 179.90 302.24 193.03
  Q 301.98 194.63 300.75 194.11
  Q 297.03 192.53 291.89 192.00
  Q 288.97 191.71 289.17 188.52
  Q 289.61 181.71 289.60 175.04
  C 289.58 165.17 291.06 155.97 292.99 146.19
  C 294.44 138.80 298.23 124.32 306.17 121.44
  Q 310.67 119.81 316.07 118.58
  Z"
/>
<path fill="#ffffff" d="
  M 187.61 127.96
  C 185.95 128.36 184.44 129.24 183.85 130.92
  Q 182.42 134.97 180.94 138.62
  Q 179.60 141.90 178.62 146.49
  Q 175.90 159.18 171.88 172.01
  Q 171.55 165.05 173.17 158.98
  Q 175.61 149.77 177.83 140.36
  Q 178.33 138.26 179.12 136.56
  C 180.25 134.10 181.11 130.97 183.08 129.23
  Q 184.86 127.67 187.14 126.60
  A 0.41 0.41 0.0 0 1 187.72 126.90
  Q 187.82 127.43 187.61 127.96
  Z"
/>
<path fill="#ffb557" d="
  M 187.61 127.96
  C 186.05 134.08 183.98 140.21 182.99 146.17
  Q 178.81 171.34 178.96 196.24
  A 1.28 1.28 0.0 0 1 177.86 197.52
  L 170.24 198.58
  Q 169.71 198.66 169.70 198.12
  Q 169.46 184.00 171.88 172.01
  Q 175.90 159.18 178.62 146.49
  Q 179.60 141.90 180.94 138.62
  Q 182.42 134.97 183.85 130.92
  C 184.44 129.24 185.95 128.36 187.61 127.96
  Z"
/>
<path fill="#fc8858" d="
  M 371.89 185.43
  Q 374.82 193.37 377.48 203.01
  Q 378.63 207.14 379.16 211.28
  Q 379.26 211.99 378.58 211.76
  C 370.55 209.05 363.01 206.53 354.72 204.68
  Q 347.49 203.07 340.74 201.59
  Q 325.24 198.19 312.30 197.32
  Q 311.91 197.29 311.90 196.89
  C 311.20 176.94 312.22 156.37 316.84 137.73
  C 317.92 133.39 322.16 127.05 327.47 130.54
  Q 332.65 133.93 337.29 137.26
  C 341.43 140.23 345.08 144.54 348.64 148.35
  C 355.19 155.36 360.91 162.70 364.96 171.27
  C 367.21 176.04 370.01 180.34 371.89 185.43
  Z
  M 354.83 178.31
  Q 352.33 170.70 348.79 163.57
  Q 342.44 150.77 330.48 141.16
  C 329.75 140.57 329.11 139.81 328.75 138.95
  Q 328.18 137.58 327.11 138.61
  Q 324.14 141.47 323.10 145.06
  Q 320.60 153.68 319.46 161.71
  Q 317.76 173.68 317.88 191.31
  Q 317.90 193.61 320.01 193.95
  Q 334.17 196.24 347.60 198.57
  C 350.88 199.14 353.89 200.27 357.23 200.59
  A 0.63 0.62 2.9 0 0 357.92 199.97
  Q 358.03 188.02 354.83 178.31
  Z"
/>
<path fill="#ffffff" d="
  M 156.12 136.42
  Q 147.75 134.36 139.75 134.96
  Q 123.87 136.14 113.06 148.56
  A 1.39 1.38 -24.2 0 0 112.72 149.44
  Q 112.63 154.08 109.51 156.23
  Q 107.07 157.91 104.37 155.51
  Q 105.49 153.81 106.51 152.23
  Q 107.58 150.57 108.85 149.16
  C 113.18 144.35 117.61 139.27 123.61 136.61
  C 135.16 131.49 146.80 129.96 158.77 134.50
  A 0.44 0.43 -58.1 0 1 158.93 135.20
  Q 157.41 136.85 156.12 136.42
  Z"
/>
<path fill="#ffffff" d="
  M 386.60 137.51
  Q 386.73 138.20 386.71 138.55
  Q 386.68 138.99 386.05 138.73
  Q 371.90 132.89 356.75 136.12
  Q 355.12 136.47 352.78 137.98
  Q 350.80 137.78 349.39 135.60
  A 0.25 0.25 0.0 0 1 349.49 135.24
  C 360.27 129.90 372.78 131.32 383.76 135.48
  Q 385.50 136.14 386.60 137.51
  Z"
/>
<path fill="#2e2d3f" d="
  M 156.12 136.42
  Q 155.48 138.41 154.33 139.33
  C 151.98 141.21 149.58 143.01 147.52 145.19
  Q 141.72 151.36 137.64 156.75
  Q 129.27 167.80 123.45 181.91
  Q 116.85 197.89 114.54 213.62
  A 1.64 1.63 -2.4 0 1 113.28 214.98
  Q 112.27 215.20 111.44 214.62
  Q 104.77 209.93 101.00 201.90
  Q 98.47 196.52 97.87 191.11
  Q 95.72 172.00 104.37 155.51
  Q 107.07 157.91 109.51 156.23
  Q 112.63 154.08 112.72 149.44
  A 1.39 1.38 -24.2 0 1 113.06 148.56
  Q 123.87 136.14 139.75 134.96
  Q 147.75 134.36 156.12 136.42
  Z"
/>
<path fill="#2e2d3f" d="
  M 386.60 137.51
  Q 391.49 139.41 395.32 142.81
  C 398.54 145.67 402.69 150.04 404.74 153.79
  Q 406.83 157.60 409.32 163.28
  C 412.29 170.05 413.02 176.83 413.09 183.95
  Q 413.21 195.61 406.67 207.05
  C 404.16 211.42 400.59 214.46 396.71 217.49
  C 394.89 218.91 392.17 217.63 390.59 216.49
  Q 389.22 215.49 388.79 213.11
  Q 387.53 206.12 385.77 198.16
  C 382.54 183.58 376.58 170.26 368.11 157.81
  C 365.81 154.43 363.73 150.94 361.07 147.80
  Q 357.88 144.05 354.90 140.34
  Q 356.55 140.14 356.67 137.84
  Q 356.69 137.30 356.18 137.45
  L 353.25 138.28
  Q 353.20 137.79 352.78 137.98
  Q 355.12 136.47 356.75 136.12
  Q 371.90 132.89 386.05 138.73
  Q 386.68 138.99 386.71 138.55
  Q 386.73 138.20 386.60 137.51
  Z"
/>
<path fill="#ffffff" d="
  M 354.90 140.34
  Q 353.45 139.31 353.25 138.28
  L 356.18 137.45
  Q 356.69 137.30 356.67 137.84
  Q 356.55 140.14 354.90 140.34
  Z"
/>
<path fill="#ffffff" d="
  M 164.93 152.25
  Q 163.17 151.72 162.07 152.87
  C 160.25 154.77 158.29 156.13 156.56 158.21
  Q 154.29 160.95 151.93 163.62
  C 148.48 167.53 145.80 171.57 142.84 175.71
  A 0.54 0.53 -38.7 0 1 141.91 175.61
  Q 141.72 175.15 141.98 174.51
  Q 143.28 171.28 144.64 167.92
  Q 145.37 166.13 147.58 162.31
  Q 149.22 159.49 150.14 156.45
  Q 153.69 152.63 157.20 148.21
  Q 160.15 144.48 168.83 138.34
  Q 169.24 138.06 169.09 138.53
  L 164.93 152.25
  Z"
/>
<path fill="#ffb557" d="
  M 354.83 178.31
  Q 358.03 188.02 357.92 199.97
  A 0.63 0.62 2.9 0 1 357.23 200.59
  C 353.89 200.27 350.88 199.14 347.60 198.57
  Q 334.17 196.24 320.01 193.95
  Q 317.90 193.61 317.88 191.31
  Q 317.76 173.68 319.46 161.71
  Q 320.60 153.68 323.10 145.06
  Q 324.14 141.47 327.11 138.61
  Q 328.18 137.58 328.75 138.95
  C 329.11 139.81 329.75 140.57 330.48 141.16
  Q 342.44 150.77 348.79 163.57
  Q 352.33 170.70 354.83 178.31
  Z"
/>
<path fill="#ffb557" d="
  M 164.93 152.25
  Q 161.61 167.41 160.75 178.75
  Q 160.47 182.55 159.98 196.20
  Q 146.44 198.34 133.73 203.00
  A 1.27 1.27 0.0 0 1 132.07 202.13
  Q 131.89 201.43 132.10 200.52
  C 133.09 196.14 134.20 191.58 134.63 187.07
  Q 134.78 185.54 135.55 183.28
  Q 136.18 181.43 136.39 175.81
  Q 140.29 169.11 146.30 160.51
  Q 148.03 158.04 150.14 156.45
  Q 149.22 159.49 147.58 162.31
  Q 145.37 166.13 144.64 167.92
  Q 143.28 171.28 141.98 174.51
  Q 141.72 175.15 141.91 175.61
  A 0.54 0.53 -38.7 0 0 142.84 175.71
  C 145.80 171.57 148.48 167.53 151.93 163.62
  Q 154.29 160.95 156.56 158.21
  C 158.29 156.13 160.25 154.77 162.07 152.87
  Q 163.17 151.72 164.93 152.25
  Z"
/>
<path fill="#fc8858" d="
  M 136.39 175.81
  Q 136.18 181.43 135.55 183.28
  Q 134.78 185.54 134.63 187.07
  C 134.20 191.58 133.09 196.14 132.10 200.52
  Q 131.89 201.43 132.07 202.13
  A 1.27 1.27 0.0 0 0 133.73 203.00
  Q 146.44 198.34 159.98 196.20
  L 159.81 199.75
  Q 159.78 200.33 159.21 200.47
  C 147.80 203.10 136.51 205.85 125.33 209.94
  A 0.31 0.30 86.2 0 1 124.93 209.59
  Q 128.45 192.12 136.39 175.81
  Z"
/>
<path fill="#ffffff" d="
  M 336.95 210.66
  Q 339.27 212.32 338.74 214.01
  A 1.00 1.00 0.0 0 1 337.62 214.70
  Q 332.09 213.81 326.02 212.80
  Q 320.24 211.85 314.44 211.27
  C 306.66 210.50 299.33 209.42 291.66 208.89
  Q 258.37 206.58 226.85 207.36
  Q 198.17 208.06 170.64 212.52
  Q 168.49 212.87 166.37 213.33
  Q 164.22 213.79 162.01 214.04
  Q 158.89 214.38 155.63 215.15
  Q 147.75 217.02 139.08 218.87
  Q 127.98 221.24 116.15 226.55
  Q 109.04 229.73 104.12 234.34
  Q 102.87 235.51 101.90 237.02
  Q 100.80 238.74 99.62 238.72
  Q 102.01 231.72 109.40 227.16
  Q 117.28 222.28 122.86 220.39
  Q 124.95 219.67 137.79 215.75
  Q 153.13 211.07 168.45 208.46
  Q 202.54 202.65 239.76 202.49
  Q 277.33 202.34 314.80 206.91
  Q 326.12 208.29 336.95 210.66
  Z"
/>
<path fill="#ffb557" d="
  M 336.95 210.66
  L 375.03 220.35
  L 375.48 221.56
  Q 375.72 222.20 375.04 222.26
  Q 373.42 222.42 372.82 222.29
  Q 368.13 221.34 363.88 219.98
  C 358.39 218.21 352.91 218.04 347.46 216.54
  Q 345.68 216.05 343.99 215.81
  Q 343.42 215.73 343.24 216.28
  Q 342.77 217.79 343.18 218.76
  Q 344.12 221.05 344.54 223.33
  Q 344.62 223.74 344.50 224.15
  Q 344.26 225.01 344.85 225.70
  Q 346.25 227.36 348.21 228.15
  Q 348.42 228.23 348.48 228.45
  Q 348.50 228.52 348.55 228.56
  Q 349.18 229.03 348.37 229.11
  Q 348.03 229.14 347.76 229.32
  Q 333.23 226.58 323.62 225.38
  Q 270.21 218.74 215.24 220.94
  Q 182.05 222.27 151.16 228.42
  C 137.86 231.07 124.73 235.24 112.28 240.15
  C 109.99 241.05 106.01 243.59 106.49 246.52
  Q 107.28 251.42 113.27 249.65
  Q 113.72 249.52 113.54 249.96
  L 111.88 254.14
  A 0.33 0.33 0.0 0 1 111.47 254.33
  Q 104.94 252.18 101.50 248.02
  Q 98.18 244.01 99.62 238.72
  Q 100.80 238.74 101.90 237.02
  Q 102.87 235.51 104.12 234.34
  Q 109.04 229.73 116.15 226.55
  Q 127.98 221.24 139.08 218.87
  Q 147.75 217.02 155.63 215.15
  Q 158.89 214.38 162.01 214.04
  Q 164.22 213.79 166.37 213.33
  Q 168.49 212.87 170.64 212.52
  Q 198.17 208.06 226.85 207.36
  Q 258.37 206.58 291.66 208.89
  C 299.33 209.42 306.66 210.50 314.44 211.27
  Q 320.24 211.85 326.02 212.80
  Q 332.09 213.81 337.62 214.70
  A 1.00 1.00 0.0 0 0 338.74 214.01
  Q 339.27 212.32 336.95 210.66
  Z"
/>
<path fill="#f97959" d="
  M 375.03 220.35
  Q 387.08 224.08 397.69 230.53
  Q 399.71 231.76 402.82 236.93
  Q 406.11 242.40 402.01 248.16
  Q 398.97 252.42 392.37 254.39
  Q 391.84 254.54 391.56 254.07
  L 389.94 251.34
  Q 389.58 250.72 390.29 250.80
  Q 393.70 251.22 395.65 248.31
  C 398.98 243.33 390.22 240.70 387.12 239.62
  Q 367.85 232.91 347.76 229.32
  Q 348.03 229.14 348.37 229.11
  Q 349.18 229.03 348.55 228.56
  Q 348.50 228.52 348.48 228.45
  Q 348.42 228.23 348.21 228.15
  Q 346.25 227.36 344.85 225.70
  Q 344.26 225.01 344.50 224.15
  Q 344.62 223.74 344.54 223.33
  Q 344.12 221.05 343.18 218.76
  Q 342.77 217.79 343.24 216.28
  Q 343.42 215.73 343.99 215.81
  Q 345.68 216.05 347.46 216.54
  C 352.91 218.04 358.39 218.21 363.88 219.98
  Q 368.13 221.34 372.82 222.29
  Q 373.42 222.42 375.04 222.26
  Q 375.72 222.20 375.48 221.56
  L 375.03 220.35
  Z"
/>
<path fill="#e2deee" d="
  M 369.55 331.08
  Q 375.96 320.62 377.55 312.55
  C 380.40 297.99 377.33 282.86 370.66 269.45
  Q 365.78 259.64 356.31 256.09
  Q 349.46 253.52 338.92 251.02
  C 334.42 249.95 330.03 249.59 325.58 248.61
  Q 320.49 247.48 315.49 246.72
  Q 260.45 238.36 204.11 242.64
  C 191.99 243.57 179.74 245.30 168.08 247.28
  Q 154.56 249.57 138.26 254.58
  Q 131.49 256.66 118.54 263.47
  Q 120.30 257.83 124.35 246.77
  Q 124.98 245.06 126.50 244.53
  Q 136.10 241.19 142.57 239.94
  Q 150.17 238.47 158.52 236.77
  C 168.95 234.64 180.28 233.14 190.94 232.25
  Q 260.92 226.42 330.29 236.10
  C 334.99 236.76 339.85 238.02 344.45 238.59
  Q 354.38 239.83 359.63 241.11
  Q 367.98 243.15 377.94 246.23
  A 1.02 0.99 85.7 0 1 378.57 246.79
  Q 380.78 251.74 382.76 256.59
  Q 384.52 260.89 386.02 266.72
  Q 388.60 276.79 390.00 283.88
  Q 393.00 299.06 391.95 315.51
  Q 391.55 321.82 389.77 327.24
  Q 389.60 327.76 389.06 327.79
  Q 380.29 328.36 369.55 331.08
  Z"
/>
<path fill="#ffffff" d="
  M 369.55 331.08
  Q 356.69 335.39 343.18 343.30
  Q 344.15 336.82 336.51 335.14
  C 350.31 332.08 360.95 322.20 363.23 307.96
  C 365.37 294.53 359.63 280.99 350.71 270.54
  C 348.86 268.36 346.59 266.71 344.59 264.73
  Q 342.30 262.47 339.52 261.09
  C 327.89 255.34 316.12 252.02 304.25 256.02
  C 295.28 259.04 287.20 263.67 282.12 271.94
  Q 278.12 278.46 276.57 283.50
  Q 271.55 299.96 278.12 314.47
  Q 282.08 323.22 288.45 328.09
  C 298.89 336.07 310.60 338.54 323.75 337.42
  Q 319.91 339.63 319.40 342.90
  C 318.70 347.47 322.66 350.80 327.01 351.22
  Q 330.43 351.56 334.66 349.86
  Q 331.85 352.87 329.51 355.24
  Q 322.12 362.71 320.51 373.10
  Q 315.02 373.27 306.75 374.05
  Q 303.48 374.36 299.91 372.91
  C 299.01 362.68 291.56 354.12 281.00 353.72
  Q 274.96 353.49 267.35 353.81
  Q 259.59 354.13 254.79 360.52
  Q 249.86 367.12 249.51 374.28
  L 227.24 373.95
  C 224.82 368.82 220.25 364.61 214.25 364.64
  Q 174.38 364.78 140.11 364.69
  Q 139.61 364.69 139.81 364.23
  Q 142.54 357.68 145.40 353.22
  Q 145.97 352.33 145.85 351.10
  Q 151.90 351.90 155.76 349.79
  Q 158.89 348.08 159.66 345.88
  Q 160.98 342.05 156.50 337.52
  Q 168.35 337.83 173.49 336.45
  C 181.47 334.32 188.43 330.94 194.15 325.03
  C 202.71 316.19 205.96 302.84 204.51 290.75
  C 203.64 283.54 200.31 275.92 196.30 269.84
  C 191.65 262.79 184.05 258.62 175.98 256.15
  C 169.06 254.03 161.35 254.73 154.35 257.49
  C 147.95 260.01 142.40 262.91 137.60 267.95
  Q 133.92 271.81 130.02 278.23
  C 125.23 286.11 123.28 294.88 123.02 304.27
  C 122.78 312.35 125.04 319.71 130.41 325.74
  Q 134.07 329.85 137.07 331.94
  Q 138.22 332.73 143.23 334.68
  Q 134.73 336.39 135.28 343.54
  Q 129.64 345.23 125.37 348.83
  Q 123.71 346.53 121.74 344.63
  Q 119.09 342.07 118.13 340.51
  C 114.96 335.34 113.90 329.39 113.22 323.05
  Q 113.17 322.58 112.75 322.35
  Q 112.42 322.16 112.22 321.80
  Q 112.33 321.25 112.31 320.75
  Q 111.35 300.87 114.80 280.26
  Q 116.48 270.21 118.54 263.47
  Q 131.49 256.66 138.26 254.58
  Q 154.56 249.57 168.08 247.28
  C 179.74 245.30 191.99 243.57 204.11 242.64
  Q 260.45 238.36 315.49 246.72
  Q 320.49 247.48 325.58 248.61
  C 330.03 249.59 334.42 249.95 338.92 251.02
  Q 349.46 253.52 356.31 256.09
  Q 365.78 259.64 370.66 269.45
  C 377.33 282.86 380.40 297.99 377.55 312.55
  Q 375.96 320.62 369.55 331.08
  Z
  M 237.78 309.60
  C 238.66 311.17 240.16 312.49 242.02 312.70
  Q 248.78 313.48 252.00 307.74
  Q 253.44 305.16 252.73 303.12
  C 252.00 301.01 249.04 299.56 247.28 301.54
  C 246.25 302.71 246.16 304.62 244.90 305.38
  C 242.82 306.62 241.05 304.88 240.41 302.95
  Q 240.27 302.53 240.64 302.27
  C 241.53 301.64 242.30 300.92 242.44 299.77
  C 242.98 295.12 238.28 294.43 234.85 295.34
  C 231.27 296.29 230.65 299.94 233.21 302.27
  A 0.90 0.89 31.8 0 1 233.44 303.24
  Q 232.90 304.74 231.67 305.45
  A 2.35 2.35 0.0 0 1 228.25 304.12
  Q 227.38 301.34 225.08 300.37
  Q 224.54 300.14 223.99 300.37
  C 215.84 303.83 227.71 319.49 237.02 309.51
  Q 237.46 309.04 237.78 309.60
  Z"
/>
<path fill="#2e2d3f" d="
  M 336.51 335.14
  L 323.75 337.42
  C 310.60 338.54 298.89 336.07 288.45 328.09
  Q 282.08 323.22 278.12 314.47
  Q 271.55 299.96 276.57 283.50
  Q 278.12 278.46 282.12 271.94
  C 287.20 263.67 295.28 259.04 304.25 256.02
  C 316.12 252.02 327.89 255.34 339.52 261.09
  Q 342.30 262.47 344.59 264.73
  C 346.59 266.71 348.86 268.36 350.71 270.54
  C 359.63 280.99 365.37 294.53 363.23 307.96
  C 360.95 322.20 350.31 332.08 336.51 335.14
  Z
  M 295.70 284.94
  Q 294.63 285.07 293.51 286.25
  C 291.77 288.09 290.45 289.85 289.97 292.39
  Q 288.19 301.76 294.39 308.24
  Q 298.31 312.34 303.13 313.29
  C 308.81 314.43 315.65 312.95 319.81 308.84
  C 322.19 306.50 323.88 301.58 324.10 298.43
  Q 324.62 291.08 320.62 286.14
  Q 318.41 283.41 314.03 282.23
  Q 302.65 271.54 295.70 284.94
  Z
  M 338.01 307.15
  A 4.61 4.61 0.0 0 0 333.40 302.54
  A 4.61 4.61 0.0 0 0 328.79 307.15
  A 4.61 4.61 0.0 0 0 333.40 311.76
  A 4.61 4.61 0.0 0 0 338.01 307.15
  Z"
/>
<path fill="#2e2d3f" d="
  M 156.50 337.52
  L 143.23 334.68
  Q 138.22 332.73 137.07 331.94
  Q 134.07 329.85 130.41 325.74
  C 125.04 319.71 122.78 312.35 123.02 304.27
  C 123.28 294.88 125.23 286.11 130.02 278.23
  Q 133.92 271.81 137.60 267.95
  C 142.40 262.91 147.95 260.01 154.35 257.49
  C 161.35 254.73 169.06 254.03 175.98 256.15
  C 184.05 258.62 191.65 262.79 196.30 269.84
  C 200.31 275.92 203.64 283.54 204.51 290.75
  C 205.96 302.84 202.71 316.19 194.15 325.03
  C 188.43 330.94 181.47 334.32 173.49 336.45
  Q 168.35 337.83 156.50 337.52
  Z
  M 163.43 284.03
  Q 162.10 283.81 159.77 286.55
  Q 156.02 290.95 156.36 296.81
  C 156.56 300.29 156.96 302.92 159.07 305.71
  Q 163.73 311.89 169.39 313.01
  C 179.82 315.08 189.69 309.11 191.23 298.40
  Q 191.76 294.66 189.67 290.25
  Q 186.76 284.13 182.78 283.11
  Q 182.35 283.00 182.13 283.40
  Q 181.80 284.01 181.89 284.98
  Q 181.66 282.62 180.24 281.28
  Q 170.91 272.45 163.43 284.03
  Z
  M 152.20 307.13
  A 4.59 4.59 0.0 0 0 147.61 302.54
  A 4.59 4.59 0.0 0 0 143.02 307.13
  A 4.59 4.59 0.0 0 0 147.61 311.72
  A 4.59 4.59 0.0 0 0 152.20 307.13
  Z"
/>
<path fill="#ffffff" d="
  M 423.79 277.68
  Q 438.38 290.92 444.34 308.39
  C 448.65 321.03 448.71 335.71 446.96 349.25
  Q 446.09 356.01 443.51 362.14
  L 424.37 362.41
  A 2.03 1.90 57.3 0 1 423.38 362.16
  Q 422.51 361.68 421.53 361.64
  Q 421.04 361.62 421.01 361.13
  L 420.66 356.03
  Q 420.88 347.24 418.41 337.75
  Q 413.78 319.99 402.16 306.04
  Q 401.43 289.02 396.96 271.47
  A 0.44 0.43 -4.7 0 1 397.42 270.93
  Q 411.86 272.02 423.79 277.68
  Z"
/>
<path fill="#ffffff" d="
  M 181.89 284.98
  C 182.87 292.21 176.50 298.10 169.42 294.86
  Q 163.39 292.10 163.43 284.03
  Q 170.91 272.45 180.24 281.28
  Q 181.66 282.62 181.89 284.98
  Z"
/>
<path fill="#ffffff" d="
  M 314.03 282.23
  C 316.01 288.19 313.65 294.45 307.39 295.62
  Q 304.31 296.20 301.40 294.53
  Q 296.44 291.68 295.70 284.94
  Q 302.65 271.54 314.03 282.23
  Z"
/>
<path fill="#2e2d3f" d="
  M 423.79 277.68
  Q 430.90 279.63 435.20 282.06
  Q 440.49 285.05 447.02 290.71
  Q 450.35 293.60 455.68 299.43
  Q 460.77 305.01 463.28 309.19
  Q 467.67 316.50 469.52 325.67
  C 470.09 328.50 472.68 330.43 474.93 331.98
  Q 482.96 337.51 486.46 346.03
  C 488.73 351.58 489.76 359.68 487.12 365.35
  C 481.41 377.65 470.46 381.93 457.50 382.17
  Q 446.08 382.38 434.25 382.41
  Q 432.05 382.41 429.72 382.18
  Q 439.02 373.87 443.51 362.14
  Q 446.09 356.01 446.96 349.25
  C 448.71 335.71 448.65 321.03 444.34 308.39
  Q 438.38 290.92 423.79 277.68
  Z"
/>
<path fill="#09051c" d="
  M 295.70 284.94
  Q 296.44 291.68 301.40 294.53
  Q 304.31 296.20 307.39 295.62
  C 313.65 294.45 316.01 288.19 314.03 282.23
  Q 318.41 283.41 320.62 286.14
  Q 324.62 291.08 324.10 298.43
  C 323.88 301.58 322.19 306.50 319.81 308.84
  C 315.65 312.95 308.81 314.43 303.13 313.29
  Q 298.31 312.34 294.39 308.24
  Q 288.19 301.76 289.97 292.39
  C 290.45 289.85 291.77 288.09 293.51 286.25
  Q 294.63 285.07 295.70 284.94
  Z
  M 317.0702 299.9200
  A 3.37 3.03 -33.5 0 0 312.5876 299.2533
  A 3.37 3.03 -33.5 0 0 311.4498 303.6400
  A 3.37 3.03 -33.5 0 0 315.9324 304.3067
  A 3.37 3.03 -33.5 0 0 317.0702 299.9200
  Z"
/>
<path fill="#09051c" d="
  M 163.43 284.03
  Q 163.39 292.10 169.42 294.86
  C 176.50 298.10 182.87 292.21 181.89 284.98
  Q 181.80 284.01 182.13 283.40
  Q 182.35 283.00 182.78 283.11
  Q 186.76 284.13 189.67 290.25
  Q 191.76 294.66 191.23 298.40
  C 189.69 309.11 179.82 315.08 169.39 313.01
  Q 163.73 311.89 159.07 305.71
  C 156.96 302.92 156.56 300.29 156.36 296.81
  Q 156.02 290.95 159.77 286.55
  Q 162.10 283.81 163.43 284.03
  Z
  M 184.4199 300.6323
  A 3.35 2.98 -20.4 0 0 180.2413 299.0069
  A 3.35 2.98 -20.4 0 0 178.1401 302.9677
  A 3.35 2.98 -20.4 0 0 182.3187 304.5931
  A 3.35 2.98 -20.4 0 0 184.4199 300.6323
  Z"
/>
<path fill="#09051c" d="
  M 237.78 309.60
  Q 237.46 309.04 237.02 309.51
  C 227.71 319.49 215.84 303.83 223.99 300.37
  Q 224.54 300.14 225.08 300.37
  Q 227.38 301.34 228.25 304.12
  A 2.35 2.35 0.0 0 0 231.67 305.45
  Q 232.90 304.74 233.44 303.24
  A 0.90 0.89 31.8 0 0 233.21 302.27
  C 230.65 299.94 231.27 296.29 234.85 295.34
  C 238.28 294.43 242.98 295.12 242.44 299.77
  C 242.30 300.92 241.53 301.64 240.64 302.27
  Q 240.27 302.53 240.41 302.95
  C 241.05 304.88 242.82 306.62 244.90 305.38
  C 246.16 304.62 246.25 302.71 247.28 301.54
  C 249.04 299.56 252.00 301.01 252.73 303.12
  Q 253.44 305.16 252.00 307.74
  Q 248.78 313.48 242.02 312.70
  C 240.16 312.49 238.66 311.17 237.78 309.60
  Z"
/>
<ellipse fill="#ffffff" cx="0.00" cy="0.00" transform="translate(314.26,301.78) rotate(-33.5)" rx="3.37" ry="3.03"/>
<ellipse fill="#ffffff" cx="0.00" cy="0.00" transform="translate(181.28,301.80) rotate(-20.4)" rx="3.35" ry="2.98"/>
<circle fill="#ffffff" cx="147.61" cy="307.13" r="4.59"/>
<circle fill="#ffffff" cx="333.40" cy="307.15" r="4.61"/>
<path fill="#2e2d3f" d="
  M 402.16 306.04
  Q 413.78 319.99 418.41 337.75
  Q 420.88 347.24 420.66 356.03
  L 420.48 360.58
  Q 416.25 358.96 412.84 361.94
  C 410.21 364.25 408.63 368.52 406.67 371.82
  C 403.01 377.99 394.70 382.99 388.52 384.78
  Q 382.28 386.60 374.95 386.82
  Q 357.97 387.33 344.26 387.11
  Q 338.99 387.02 335.08 385.12
  C 331.38 383.32 329.10 379.03 329.44 374.70
  Q 329.98 367.82 335.66 362.66
  Q 336.16 364.50 337.54 364.73
  C 342.33 365.52 342.99 361.38 345.97 359.05
  Q 354.56 352.32 366.85 346.93
  Q 373.58 343.98 379.67 343.03
  C 381.24 342.79 382.77 342.23 384.29 341.80
  A 0.72 0.71 -29.7 0 0 384.62 340.62
  Q 383.10 339.02 380.80 339.19
  Q 382.74 338.79 384.65 338.23
  Q 386.35 337.73 387.77 337.77
  C 393.74 337.98 399.57 339.10 399.52 330.81
  Q 399.51 328.83 399.93 326.78
  Q 401.94 317.00 402.16 306.04
  Z
  M 348.9257 359.2717
  A 0.93 0.41 -42.5 0 0 347.9630 359.5977
  A 0.93 0.41 -42.5 0 0 347.5543 360.5283
  A 0.93 0.41 -42.5 0 0 348.5170 360.2023
  A 0.93 0.41 -42.5 0 0 348.9257 359.2717
  Z"
/>
<path fill="#ffffff" d="
  M 99.72 322.82
  C 95.47 324.54 92.04 327.65 88.36 330.42
  C 87.25 331.26 86.58 332.36 85.87 333.52
  Q 85.54 334.06 84.91 334.16
  C 84.14 334.29 83.53 334.57 82.96 335.12
  Q 78.36 339.62 74.16 344.43
  C 73.05 345.71 73.24 347.42 71.90 348.95
  Q 68.49 352.83 64.97 356.92
  Q 65.95 351.13 67.93 347.21
  Q 75.48 332.23 89.62 323.55
  C 93.65 321.07 97.91 318.58 102.29 316.80
  Q 102.92 316.54 102.96 317.22
  Q 103.18 321.47 99.72 322.82
  Z"
/>
<path fill="#e2deee" d="
  M 112.22 321.80
  Q 112.42 322.16 112.75 322.35
  Q 113.17 322.58 113.22 323.05
  C 113.90 329.39 114.96 335.34 118.13 340.51
  Q 119.09 342.07 121.74 344.63
  Q 123.71 346.53 125.37 348.83
  Q 119.85 352.80 115.96 358.10
  A 0.36 0.35 47.4 0 1 115.37 358.07
  C 113.52 355.00 111.22 352.19 109.87 348.88
  Q 107.83 343.89 106.92 338.26
  Q 106.20 333.82 108.11 329.62
  Q 110.23 324.98 112.22 321.80
  Z"
/>
<path fill="#2e2d3f" d="
  M 99.72 322.82
  Q 96.54 331.91 97.01 338.25
  Q 97.38 343.13 100.08 351.05
  Q 103.50 361.09 111.11 366.35
  A 1.29 1.29 0.0 0 1 111.59 367.86
  Q 108.53 376.14 109.28 385.79
  Q 109.33 386.44 108.67 386.42
  C 99.03 386.08 88.92 386.44 79.51 384.18
  C 72.29 382.44 66.21 374.10 64.73 367.01
  Q 64.19 364.42 64.97 356.92
  Q 68.49 352.83 71.90 348.95
  C 73.24 347.42 73.05 345.71 74.16 344.43
  Q 78.36 339.62 82.96 335.12
  C 83.53 334.57 84.14 334.29 84.91 334.16
  Q 85.54 334.06 85.87 333.52
  C 86.58 332.36 87.25 331.26 88.36 330.42
  C 92.04 327.65 95.47 324.54 99.72 322.82
  Z"
/>
<path fill="#fea89e" d="
  M 143.23 334.68
  L 156.50 337.52
  Q 160.98 342.05 159.66 345.88
  Q 158.89 348.08 155.76 349.79
  Q 151.90 351.90 145.85 351.10
  Q 146.31 343.91 140.00 343.33
  Q 137.33 343.08 135.28 343.54
  Q 134.73 336.39 143.23 334.68
  Z"
/>
<path fill="#fea89e" d="
  M 336.51 335.14
  Q 344.15 336.82 343.18 343.30
  L 334.66 349.86
  Q 330.43 351.56 327.01 351.22
  C 322.66 350.80 318.70 347.47 319.40 342.90
  Q 319.91 339.63 323.75 337.42
  L 336.51 335.14
  Z"
/>
<path fill="#ffffff" d="
  M 380.80 339.19
  Q 383.10 339.02 384.62 340.62
  A 0.72 0.71 -29.7 0 1 384.29 341.80
  C 382.77 342.23 381.24 342.79 379.67 343.03
  Q 373.58 343.98 366.85 346.93
  Q 354.56 352.32 345.97 359.05
  C 342.99 361.38 342.33 365.52 337.54 364.73
  Q 336.16 364.50 335.66 362.66
  Q 339.70 357.28 345.63 352.91
  C 355.30 345.77 364.13 342.91 376.24 339.47
  Q 377.31 339.17 380.80 339.19
  Z"
/>
<path fill="#ffffff" d="
  M 134.80 355.05
  Q 133.15 355.17 132.73 355.55
  Q 125.65 361.84 122.10 370.70
  Q 121.87 371.29 122.50 371.22
  C 124.76 370.98 126.79 372.41 126.02 375.00
  Q 125.68 376.19 124.52 376.56
  Q 122.06 377.33 121.28 375.82
  Q 120.97 375.22 120.85 375.89
  Q 119.01 385.93 122.58 396.74
  Q 117.33 389.83 117.53 381.00
  C 117.68 373.96 118.99 368.14 123.42 362.62
  Q 128.50 356.30 135.24 352.57
  Q 135.81 352.26 135.59 352.87
  L 134.80 355.05
  Z"
/>
<path fill="#b9b5cd" d="
  M 134.80 355.05
  C 132.91 359.90 128.57 366.33 131.36 372.00
  Q 130.36 371.52 131.28 372.73
  Q 131.49 373.00 131.80 373.14
  Q 134.77 374.51 137.95 374.30
  Q 137.71 374.33 137.53 374.41
  Q 137.19 374.54 137.18 374.91
  L 137.11 383.88
  A 1.46 1.44 -13.2 0 1 136.29 385.18
  C 134.80 385.92 132.99 386.25 132.10 387.81
  Q 131.10 389.57 131.26 391.89
  Q 133.10 398.74 136.21 405.34
  Q 136.87 406.76 137.50 407.56
  Q 138.40 408.70 137.10 408.06
  Q 134.48 406.77 131.59 405.07
  Q 125.56 401.54 122.58 396.74
  Q 119.01 385.93 120.85 375.89
  Q 120.97 375.22 121.28 375.82
  Q 122.06 377.33 124.52 376.56
  Q 125.68 376.19 126.02 375.00
  C 126.79 372.41 124.76 370.98 122.50 371.22
  Q 121.87 371.29 122.10 370.70
  Q 125.65 361.84 132.73 355.55
  Q 133.15 355.17 134.80 355.05
  Z"
/>
<path fill="#e2deee" d="
  M 420.66 356.03
  L 421.01 361.13
  Q 421.04 361.62 421.53 361.64
  Q 422.51 361.68 423.38 362.16
  A 2.03 1.90 57.3 0 0 424.37 362.41
  L 443.51 362.14
  Q 439.02 373.87 429.72 382.18
  L 410.23 382.33
  Q 409.53 382.33 410.03 381.84
  Q 418.77 373.23 420.48 360.58
  L 420.66 356.03
  Z"
/>
<ellipse fill="#867aa0" cx="0.00" cy="0.00" transform="translate(348.24,359.90) rotate(-42.5)" rx="0.93" ry="0.41"/>
<path fill="#ffffff" d="
  M 283.56 363.41
  Q 283.21 364.59 281.61 365.78
  Q 273.99 365.60 266.76 365.98
  Q 263.70 366.14 262.99 368.54
  A 0.56 0.56 0.0 0 0 263.75 369.21
  C 266.56 367.93 271.86 368.73 269.64 373.08
  C 268.02 376.27 264.62 375.12 262.23 373.64
  A 0.57 0.56 19.5 0 1 261.97 373.10
  Q 262.00 372.80 261.83 372.58
  Q 261.41 372.02 261.28 372.70
  Q 260.27 377.70 260.39 382.58
  Q 260.41 383.54 260.23 384.48
  Q 259.72 387.01 258.52 385.82
  Q 257.59 378.44 259.72 369.75
  Q 261.09 364.18 266.24 363.25
  Q 271.00 362.38 283.56 363.41
  Z"
/>
<path fill="#2e2d3f" d="
  M 283.56 363.41
  Q 288.17 364.39 289.89 369.64
  C 291.39 374.22 291.21 378.63 291.33 383.38
  C 291.45 388.05 290.14 392.00 287.36 395.63
  Q 285.90 397.53 283.83 398.33
  Q 279.65 393.84 279.15 390.62
  Q 278.60 387.16 277.95 385.03
  C 277.42 377.60 278.62 372.39 281.61 365.78
  Q 283.21 364.59 283.56 363.41
  Z
  M 284.2774 388.4393
  A 7.35 2.32 90.8 0 0 286.6998 381.1224
  A 7.35 2.32 90.8 0 0 284.4826 373.7407
  A 7.35 2.32 90.8 0 0 282.0602 381.0576
  A 7.35 2.32 90.8 0 0 284.2774 388.4393
  Z"
/>
<path fill="#b9b5cd" d="
  M 281.61 365.78
  C 278.62 372.39 277.42 377.60 277.95 385.03
  L 261.07 385.64
  Q 260.57 385.66 260.52 386.15
  Q 260.01 391.36 263.07 397.48
  Q 258.52 393.18 258.52 385.82
  Q 259.72 387.01 260.23 384.48
  Q 260.41 383.54 260.39 382.58
  Q 260.27 377.70 261.28 372.70
  Q 261.41 372.02 261.83 372.58
  Q 262.00 372.80 261.97 373.10
  A 0.57 0.56 19.5 0 0 262.23 373.64
  C 264.62 375.12 268.02 376.27 269.64 373.08
  C 271.86 368.73 266.56 367.93 263.75 369.21
  A 0.56 0.56 0.0 0 1 262.99 368.54
  Q 263.70 366.14 266.76 365.98
  Q 273.99 365.60 281.61 365.78
  Z"
/>
<path fill="#ffffff" d="
  M 131.36 372.00
  L 139.65 372.73
  Q 140.18 372.78 140.20 373.31
  L 140.22 373.75
  Q 139.19 374.20 137.95 374.30
  Q 134.77 374.51 131.80 373.14
  Q 131.49 373.00 131.28 372.73
  Q 130.36 371.52 131.36 372.00
  Z"
/>
<path fill="#e2deee" d="
  M 299.91 372.91
  Q 303.48 374.36 306.75 374.05
  Q 315.02 373.27 320.51 373.10
  L 320.62 382.02
  Q 320.62 382.50 320.15 382.50
  L 300.81 382.42
  A 0.36 0.36 0.0 0 1 300.45 382.08
  L 299.91 372.91
  Z"
/>
<path fill="#ffffff" d="
  M 215.80 373.56
  L 213.90 376.94
  L 149.02 377.34
  L 148.79 374.10
  Q 148.75 373.58 149.27 373.58
  L 215.80 373.56
  Z"
/>
<ellipse fill="#09051c" cx="0.00" cy="0.00" transform="translate(284.38,381.09) rotate(90.8)" rx="7.35" ry="2.32"/>
<path fill="#867aa0" d="
  M 140.22 373.75
  L 139.85 390.61
  Q 139.84 391.07 139.38 391.11
  L 131.26 391.89
  Q 131.10 389.57 132.10 387.81
  C 132.99 386.25 134.80 385.92 136.29 385.18
  A 1.46 1.44 -13.2 0 0 137.11 383.88
  L 137.18 374.91
  Q 137.19 374.54 137.53 374.41
  Q 137.71 374.33 137.95 374.30
  Q 139.19 374.20 140.22 373.75
  Z"
/>
<path fill="#f97959" d="
  M 215.80 373.56
  Q 222.55 379.05 218.70 388.69
  C 217.97 390.51 215.83 391.24 213.82 391.24
  Q 182.02 391.24 149.91 391.13
  Q 149.06 391.13 149.06 390.28
  L 149.02 384.97
  Q 180.42 385.55 211.75 384.98
  Q 213.66 384.95 213.76 382.90
  Q 213.90 379.70 213.90 376.94
  L 215.80 373.56
  Z"
/>
<path fill="#e2deee" d="
  M 227.24 373.95
  L 249.51 374.28
  L 249.13 381.90
  Q 249.10 382.49 248.52 382.49
  L 229.51 382.47
  Q 229.03 382.46 229.01 381.98
  Q 228.86 377.85 227.24 373.95
  Z"
/>
<path fill="#ffb557" d="
  M 213.90 376.94
  Q 213.90 379.70 213.76 382.90
  Q 213.66 384.95 211.75 384.98
  Q 180.42 385.55 149.02 384.97
  L 149.02 377.34
  L 213.90 376.94
  Z"
/>
<path fill="#e2deee" d="
  M 488.64 380.13
  Q 487.23 383.33 490.94 385.55
  Q 491.35 385.80 491.40 386.28
  Q 491.44 386.69 491.66 386.97
  Q 491.96 388.04 491.86 389.04
  Q 492.17 392.33 488.65 393.01
  Q 472.46 396.10 456.91 398.25
  Q 437.74 400.90 409.18 402.13
  C 405.62 402.29 402.19 402.76 398.59 402.91
  Q 388.91 403.30 379.78 403.66
  Q 350.19 404.82 323.50 403.11
  C 317.78 402.75 312.19 401.71 306.46 402.04
  A 1.81 1.81 0.0 0 0 304.98 402.98
  Q 303.68 405.41 300.64 406.19
  Q 293.11 408.12 287.83 408.59
  C 273.31 409.88 258.16 409.31 244.80 405.78
  Q 242.87 405.27 241.72 403.25
  Q 241.46 402.81 240.97 402.65
  Q 237.99 401.68 234.96 402.79
  C 232.34 403.75 229.45 404.46 226.75 404.78
  Q 218.36 405.75 206.25 405.86
  Q 190.55 405.99 174.84 405.90
  Q 171.93 405.88 169.40 406.10
  C 166.93 406.31 164.65 406.01 162.20 406.58
  Q 157.69 407.62 153.63 408.54
  Q 150.71 409.19 150.51 412.38
  Q 150.48 412.92 150.82 413.34
  Q 151.61 414.28 151.54 415.50
  A 1.40 1.37 74.5 0 1 150.96 416.55
  C 147.77 418.82 142.48 419.62 138.93 419.53
  Q 132.28 419.36 123.79 417.50
  Q 120.07 416.68 117.04 415.03
  Q 116.55 414.76 116.44 414.22
  Q 116.01 412.15 117.28 411.20
  L 123.71 410.38
  Q 129.47 414.90 137.06 417.36
  Q 140.71 418.55 143.61 418.06
  C 148.83 417.17 148.99 411.77 147.13 407.99
  Q 145.39 404.44 143.64 400.57
  Q 143.36 399.95 144.04 399.96
  Q 178.16 400.14 214.06 400.33
  C 219.36 400.35 224.61 396.82 226.89 392.32
  Q 227.18 391.75 227.82 391.75
  L 249.24 391.74
  Q 250.06 391.74 250.28 392.53
  C 251.85 398.17 255.05 403.82 260.47 406.06
  Q 262.90 407.06 266.57 407.14
  Q 276.87 407.37 284.09 407.02
  C 291.82 406.66 297.53 399.55 299.15 392.25
  Q 299.27 391.73 299.80 391.73
  L 327.78 391.78
  Q 328.40 391.78 328.90 392.13
  Q 335.06 396.40 342.84 396.58
  Q 362.79 397.03 377.29 396.27
  Q 385.11 395.86 393.36 392.66
  Q 396.45 391.46 399.31 391.61
  Q 402.13 391.76 402.20 391.76
  Q 427.83 391.70 450.00 391.41
  C 456.58 391.32 464.36 391.09 470.87 389.25
  Q 478.13 387.21 482.82 384.82
  Q 485.22 383.59 488.64 380.13
  Z"
/>
<path fill="#09051c" d="
  M 61.35 387.04
  Q 62.71 391.24 58.75 391.20
  Q 55.08 391.16 51.26 391.38
  Q 49.08 390.90 46.61 391.10
  Q 44.62 391.27 43.52 390.70
  Q 41.57 389.70 42.45 387.28
  Q 44.08 382.78 48.46 382.55
  Q 51.85 382.38 52.97 385.62
  A 0.60 0.60 0.0 0 0 53.82 385.95
  C 54.83 385.40 55.81 384.73 57.01 384.80
  Q 59.75 384.97 61.35 387.04
  Z"
/>
<path fill="#09051c" d="
  M 500.00 383.61
  L 500.00 391.26
  Q 495.49 391.17 494.25 391.27
  Q 492.07 391.45 491.86 389.04
  Q 491.96 388.04 491.66 386.97
  Q 493.36 384.34 494.96 383.48
  Q 497.58 382.06 500.00 383.61
  Z"
/>
<path fill="#e2deee" d="
  M 63.03 384.39
  Q 64.97 385.63 69.05 388.70
  C 75.64 393.64 84.55 395.13 93.36 395.50
  Q 102.50 395.88 111.42 395.86
  Q 111.90 395.86 112.14 396.27
  L 116.98 404.70
  Q 116.74 404.88 116.74 405.49
  C 115.26 404.74 114.03 404.02 112.31 403.86
  Q 102.25 402.93 90.75 401.78
  Q 82.34 400.94 74.01 399.50
  Q 65.38 398.01 55.09 394.17
  Q 53.85 393.70 51.26 391.38
  Q 55.08 391.16 58.75 391.20
  Q 62.71 391.24 61.35 387.04
  Q 63.05 386.21 63.03 384.39
  Z"
/>
<path fill="#867aa0" d="
  M 277.95 385.03
  Q 278.60 387.16 279.15 390.62
  Q 279.65 393.84 283.83 398.33
  Q 272.51 398.82 265.50 398.52
  Q 263.27 398.43 263.07 397.48
  Q 260.01 391.36 260.52 386.15
  Q 260.57 385.66 261.07 385.64
  L 277.95 385.03
  Z"
/>
<path fill="#ffffff" d="
  M 116.98 404.70
  L 123.71 410.38
  L 117.28 411.20
  L 116.74 405.49
  Q 116.74 404.88 116.98 404.70
  Z"
/>
<path fill="#09051c" d="
  M 162.98 417.92
  A 2.58 2.58 0.0 0 1 160.43 415.31
  L 160.44 414.39
  A 7.62 7.08 -89.4 0 1 167.60 406.84
  L 168.92 406.86
  A 7.62 7.08 -89.4 0 1 175.92 414.55
  L 175.91 415.47
  A 2.58 2.58 0.0 0 1 173.30 418.02
  L 162.98 417.92
  Z"
/>
<path fill="#09051c" d="
  M 180.13 418.00
  A 1.76 1.76 0.0 0 1 178.33 416.28
  L 178.32 415.75
  A 5.19 4.62 88.8 0 1 182.83 410.46
  L 182.99 410.46
  A 5.19 4.62 88.8 0 1 187.72 415.55
  L 187.73 416.08
  A 1.76 1.76 0.0 0 1 186.01 417.88
  L 180.13 418.00
  Z"
/>
</svg>
