<svg width="576" height="337" viewBox="0 0 576 337" fill="none" xmlns="http://www.w3.org/2000/svg">
<rect width="576" height="336.75" fill="url(#paint0_linear_268_3173)"/>
<g filter="url(#filter0_i_268_3173)">
<path d="M182.5 154.879C182.5 173.811 172.115 174.725 160 147.662C147.885 174.725 137.5 173.811 137.5 154.879C137.5 135.947 147.574 120.6 160 120.6C172.426 120.6 182.5 135.947 182.5 154.879Z" fill="#565862"/>
</g>
<path d="M54.28 169.648C51.544 169.648 48.952 169.264 46.504 168.496C44.056 167.728 42.04 166.648 40.456 165.256L42.328 161.152C44.056 162.544 45.952 163.576 48.016 164.248C50.128 164.872 52.264 165.184 54.424 165.184C57.16 165.184 59.224 164.68 60.616 163.672C62.008 162.664 62.704 161.296 62.704 159.568C62.704 158.224 62.248 157.168 61.336 156.4C60.424 155.584 58.984 154.96 57.016 154.528L50.464 153.088C44.512 151.792 41.536 148.72 41.536 143.872C41.536 140.704 42.784 138.16 45.28 136.24C47.824 134.32 51.136 133.36 55.216 133.36C57.616 133.36 59.896 133.744 62.056 134.512C64.264 135.232 66.088 136.312 67.528 137.752L65.584 141.856C64.192 140.56 62.56 139.576 60.688 138.904C58.864 138.184 57.04 137.824 55.216 137.824C52.528 137.824 50.488 138.352 49.096 139.408C47.704 140.464 47.008 141.856 47.008 143.584C47.008 146.272 48.784 148 52.336 148.768L58.888 150.136C61.96 150.808 64.288 151.888 65.872 153.376C67.456 154.816 68.248 156.784 68.248 159.28C68.248 162.496 66.976 165.04 64.432 166.912C61.888 168.736 58.504 169.648 54.28 169.648ZM77.2801 169V134.008H82.9681V139.912C84.0241 137.8 85.4881 136.192 87.3601 135.088C89.2321 133.936 91.4161 133.36 93.9121 133.36C99.3841 133.36 102.888 135.736 104.424 140.488C105.48 138.28 107.04 136.552 109.104 135.304C111.168 134.008 113.544 133.36 116.232 133.36C124.008 133.36 127.896 137.968 127.896 147.184V169H122.064V147.472C122.064 144.256 121.488 141.904 120.336 140.416C119.232 138.88 117.384 138.112 114.792 138.112C111.96 138.112 109.704 139.12 108.024 141.136C106.344 143.152 105.504 145.84 105.504 149.2V169H99.6721V147.472C99.6721 144.256 99.0961 141.904 97.9441 140.416C96.8401 138.88 94.9921 138.112 92.4001 138.112C89.5201 138.112 87.2401 139.12 85.5601 141.136C83.9281 143.152 83.1121 145.84 83.1121 149.2V169H77.2801ZM194.277 169V134.008H199.965V140.272C201.837 136.048 205.677 133.72 211.485 133.288L213.573 133.072L214.005 138.112L210.333 138.544C207.021 138.832 204.501 139.888 202.773 141.712C201.045 143.488 200.181 145.936 200.181 149.056V169H194.277ZM236.02 169.648C231.892 169.648 228.796 168.568 226.732 166.408C224.668 164.2 223.636 161.032 223.636 156.904V138.544H216.796V134.008H223.636V123.28H229.468V134.008H240.556V138.544H229.468V156.328C229.468 159.064 230.044 161.152 231.196 162.592C232.348 163.984 234.22 164.68 236.812 164.68C237.58 164.68 238.348 164.584 239.116 164.392C239.884 164.2 240.58 164.008 241.204 163.816L242.212 168.28C241.588 168.616 240.676 168.928 239.476 169.216C238.276 169.504 237.124 169.648 236.02 169.648Z" fill="white"/>
<g filter="url(#filter1_i_268_3173)">
<path d="M302.8 189.75C302.8 203.419 292.726 214.5 280.3 214.5C267.874 214.5 257.8 203.419 257.8 189.75C257.8 176.081 267.874 165 280.3 165C292.726 165 265.3 189.75 302.8 189.75Z" fill="#565862"/>
</g>
<path d="M217.072 214.9V179.908H222.76V185.884C223.912 183.676 225.544 182.02 227.656 180.916C229.768 179.812 232.144 179.26 234.784 179.26C243.088 179.26 247.24 183.868 247.24 193.084V214.9H241.408V193.444C241.408 190.18 240.76 187.804 239.464 186.316C238.216 184.78 236.2 184.012 233.416 184.012C230.2 184.012 227.632 185.02 225.712 187.036C223.84 189.004 222.904 191.644 222.904 194.956V214.9H217.072ZM327.51 215.548C323.382 215.548 320.286 214.468 318.222 212.308C316.158 210.1 315.126 206.932 315.126 202.804V184.444H308.286V179.908H315.126V169.18H320.958V179.908H332.046V184.444H320.958V202.228C320.958 204.964 321.534 207.052 322.686 208.492C323.838 209.884 325.71 210.58 328.302 210.58C329.07 210.58 329.838 210.484 330.606 210.292C331.374 210.1 332.07 209.908 332.694 209.716L333.702 214.18C333.078 214.516 332.166 214.828 330.966 215.116C329.766 215.404 328.614 215.548 327.51 215.548ZM354.059 215.548C348.539 215.548 344.171 213.94 340.955 210.724C337.739 207.46 336.131 203.044 336.131 197.476C336.131 193.876 336.851 190.708 338.291 187.972C339.731 185.188 341.699 183.052 344.195 181.564C346.739 180.028 349.667 179.26 352.979 179.26C357.731 179.26 361.451 180.796 364.139 183.868C366.827 186.892 368.171 191.068 368.171 196.396V198.628H341.819C342.011 202.612 343.163 205.66 345.275 207.772C347.387 209.836 350.315 210.868 354.059 210.868C356.171 210.868 358.187 210.556 360.107 209.932C362.027 209.26 363.851 208.18 365.579 206.692L367.595 210.796C366.011 212.284 363.995 213.46 361.547 214.324C359.099 215.14 356.603 215.548 354.059 215.548ZM353.123 183.58C349.811 183.58 347.195 184.612 345.275 186.676C343.355 188.74 342.227 191.452 341.891 194.812H363.131C362.987 191.26 362.051 188.5 360.323 186.532C358.643 184.564 356.243 183.58 353.123 183.58ZM388.419 215.548C385.683 215.548 383.091 215.164 380.643 214.396C378.195 213.628 376.179 212.548 374.595 211.156L376.467 207.052C378.195 208.444 380.091 209.476 382.155 210.148C384.267 210.772 386.403 211.084 388.563 211.084C391.299 211.084 393.363 210.58 394.755 209.572C396.147 208.564 396.843 207.196 396.843 205.468C396.843 204.124 396.387 203.068 395.475 202.3C394.563 201.484 393.123 200.86 391.155 200.428L384.603 198.988C378.651 197.692 375.675 194.62 375.675 189.772C375.675 186.604 376.923 184.06 379.419 182.14C381.963 180.22 385.275 179.26 389.355 179.26C391.755 179.26 394.035 179.644 396.195 180.412C398.403 181.132 400.227 182.212 401.667 183.652L399.723 187.756C398.331 186.46 396.699 185.476 394.827 184.804C393.003 184.084 391.179 183.724 389.355 183.724C386.667 183.724 384.627 184.252 383.235 185.308C381.843 186.364 381.147 187.756 381.147 189.484C381.147 192.172 382.923 193.9 386.475 194.668L393.027 196.036C396.099 196.708 398.427 197.788 400.011 199.276C401.595 200.716 402.387 202.684 402.387 205.18C402.387 208.396 401.115 210.94 398.571 212.812C396.027 214.636 392.643 215.548 388.419 215.548Z" fill="white"/>
<path d="M443.004 268.741L527.227 83.439C528.504 78.6677 529.914 69.0696 519.997 64.5624C510.098 60.063 503.083 67.4752 500.988 71.513L416.765 256.815L420.08 283.81C420.105 284.02 420.344 284.128 420.519 284.01L443.004 268.741Z" fill="#FBFBFB"/>
<path d="M523.032 92.6688L527.227 83.4389C528.504 78.6677 529.914 69.0696 519.997 64.5624C510.098 60.063 503.083 67.4752 500.988 71.5129L496.793 80.7428L509.929 86.7134L523.032 92.6688Z" fill="#F0E6D1"/>
<g filter="url(#filter2_i_268_3173)">
<path d="M517.723 91.9386C516.468 94.7004 513.958 96.2608 512.116 95.4239C510.275 94.587 509.8 91.6697 511.055 88.9079C512.31 86.1461 514.821 84.5857 516.662 85.4226C518.503 86.2595 512.166 89.413 517.723 91.9386Z" fill="#565862"/>
</g>
<g filter="url(#filter3_i_268_3173)">
<path d="M508.151 87.923C506.826 90.8382 505.095 90.2212 505.044 85.17C501.205 88.4533 499.602 87.5549 500.927 84.6397C502.252 81.7245 504.943 80.0962 506.938 81.0028C508.933 81.9095 509.476 85.0077 508.151 87.923Z" fill="#565862"/>
</g>
<g filter="url(#filter4_i_268_3173)">
<path d="M442.867 268.714L418.238 268.073C418.097 268.069 417.98 267.961 417.965 267.82L416.782 256.777L443.203 198.649C443.252 198.541 443.364 198.475 443.482 198.484L473.493 200.832C473.689 200.847 473.81 201.052 473.729 201.231L443.132 268.548C443.085 268.651 442.981 268.716 442.867 268.714Z" fill="#565862"/>
</g>
<path d="M420.089 283.782L419.726 280.043L423.59 281.799L420.535 283.984C420.358 284.111 420.11 283.999 420.089 283.782Z" fill="black" stroke="black" stroke-width="0.282928"/>
<defs>
<filter id="filter0_i_268_3173" x="137.5" y="120.6" width="45" height="49.2" filterUnits="userSpaceOnUse" color-interpolation-filters="sRGB">
<feFlood flood-opacity="0" result="BackgroundImageFix"/>
<feBlend mode="normal" in="SourceGraphic" in2="BackgroundImageFix" result="shape"/>
<feColorMatrix in="SourceAlpha" type="matrix" values="0 0 0 0 0 0 0 0 0 0 0 0 0 0 0 0 0 0 127 0" result="hardAlpha"/>
<feOffset dy="1.2"/>
<feGaussianBlur stdDeviation="0.6"/>
<feComposite in2="hardAlpha" operator="arithmetic" k2="-1" k3="1"/>
<feColorMatrix type="matrix" values="0 0 0 0 0 0 0 0 0 0 0 0 0 0 0 0 0 0 0.5 0"/>
<feBlend mode="normal" in2="shape" result="effect1_innerShadow_268_3173"/>
</filter>
<filter id="filter1_i_268_3173" x="257.8" y="165" width="45" height="50.7" filterUnits="userSpaceOnUse" color-interpolation-filters="sRGB">
<feFlood flood-opacity="0" result="BackgroundImageFix"/>
<feBlend mode="normal" in="SourceGraphic" in2="BackgroundImageFix" result="shape"/>
<feColorMatrix in="SourceAlpha" type="matrix" values="0 0 0 0 0 0 0 0 0 0 0 0 0 0 0 0 0 0 127 0" result="hardAlpha"/>
<feOffset dy="1.2"/>
<feGaussianBlur stdDeviation="0.6"/>
<feComposite in2="hardAlpha" operator="arithmetic" k2="-1" k3="1"/>
<feColorMatrix type="matrix" values="0 0 0 0 0 0 0 0 0 0 0 0 0 0 0 0 0 0 0.5 0"/>
<feBlend mode="normal" in2="shape" result="effect1_innerShadow_268_3173"/>
</filter>
<filter id="filter2_i_268_3173" x="510.354" y="85.1967" width="7.36945" height="11.585" filterUnits="userSpaceOnUse" color-interpolation-filters="sRGB">
<feFlood flood-opacity="0" result="BackgroundImageFix"/>
<feBlend mode="normal" in="SourceGraphic" in2="BackgroundImageFix" result="shape"/>
<feColorMatrix in="SourceAlpha" type="matrix" values="0 0 0 0 0 0 0 0 0 0 0 0 0 0 0 0 0 0 127 0" result="hardAlpha"/>
<feOffset dy="1.13171"/>
<feGaussianBlur stdDeviation="0.565855"/>
<feComposite in2="hardAlpha" operator="arithmetic" k2="-1" k3="1"/>
<feColorMatrix type="matrix" values="0 0 0 0 0 0 0 0 0 0 0 0 0 0 0 0 0 0 0.5 0"/>
<feBlend mode="normal" in2="shape" result="effect1_innerShadow_268_3173"/>
</filter>
<filter id="filter3_i_268_3173" x="500.469" y="80.752" width="8.40637" height="10.0483" filterUnits="userSpaceOnUse" color-interpolation-filters="sRGB">
<feFlood flood-opacity="0" result="BackgroundImageFix"/>
<feBlend mode="normal" in="SourceGraphic" in2="BackgroundImageFix" result="shape"/>
<feColorMatrix in="SourceAlpha" type="matrix" values="0 0 0 0 0 0 0 0 0 0 0 0 0 0 0 0 0 0 127 0" result="hardAlpha"/>
<feOffset dy="1.13171"/>
<feGaussianBlur stdDeviation="0.565855"/>
<feComposite in2="hardAlpha" operator="arithmetic" k2="-1" k3="1"/>
<feColorMatrix type="matrix" values="0 0 0 0 0 0 0 0 0 0 0 0 0 0 0 0 0 0 0.5 0"/>
<feBlend mode="normal" in2="shape" result="effect1_innerShadow_268_3173"/>
</filter>
<filter id="filter4_i_268_3173" x="416.782" y="198.483" width="56.972" height="71.3623" filterUnits="userSpaceOnUse" color-interpolation-filters="sRGB">
<feFlood flood-opacity="0" result="BackgroundImageFix"/>
<feBlend mode="normal" in="SourceGraphic" in2="BackgroundImageFix" result="shape"/>
<feColorMatrix in="SourceAlpha" type="matrix" values="0 0 0 0 0 0 0 0 0 0 0 0 0 0 0 0 0 0 127 0" result="hardAlpha"/>
<feOffset dy="1.13171"/>
<feGaussianBlur stdDeviation="0.565855"/>
<feComposite in2="hardAlpha" operator="arithmetic" k2="-1" k3="1"/>
<feColorMatrix type="matrix" values="0 0 0 0 0 0 0 0 0 0 0 0 0 0 0 0 0 0 0.25 0"/>
<feBlend mode="normal" in2="shape" result="effect1_innerShadow_268_3173"/>
</filter>
<linearGradient id="paint0_linear_268_3173" x1="576" y1="152.5" x2="-31" y2="142.5" gradientUnits="userSpaceOnUse">
<stop stop-color="#004E89"/>
<stop offset="0.653187" stop-color="#9AAFB7"/>
<stop offset="1" stop-color="#F0E6D1"/>
</linearGradient>
</defs>
</svg>
