<svg width="576" height="338" viewBox="0 0 576 338" fill="none" xmlns="http://www.w3.org/2000/svg">
<rect width="576" height="336.75" transform="translate(0 0.75)" fill="#F4E8D1"/>
<circle cx="271.622" cy="161.25" r="110.5" fill="#BACAB5"/>
<path d="M394.057 269.523C394.057 269.164 393.716 268.842 393.035 268.555C392.354 268.268 391.512 267.946 390.508 267.587C389.504 267.193 388.411 266.745 387.228 266.243C386.045 265.741 384.951 265.096 383.948 264.307C382.944 263.518 382.101 262.55 381.42 261.403C380.739 260.256 380.399 258.876 380.399 257.262C380.399 255.649 380.829 254.215 381.689 252.961C382.585 251.706 383.697 250.666 385.023 249.842C386.385 248.981 387.855 248.336 389.432 247.906C391.01 247.476 392.498 247.261 393.896 247.261C395.401 247.261 396.871 247.386 398.305 247.637C399.739 247.888 400.994 248.372 402.069 249.089C403.181 249.77 404.059 250.72 404.704 251.939C405.385 253.122 405.726 254.663 405.726 256.563C405.726 257.101 405.69 257.693 405.618 258.338C405.547 258.947 405.403 259.521 405.188 260.059C405.009 260.561 404.722 260.991 404.328 261.349C403.933 261.672 403.414 261.833 402.768 261.833C401.693 261.833 400.833 261.636 400.187 261.242C399.578 260.847 399.094 260.363 398.735 259.79C398.377 259.216 398.072 258.589 397.821 257.908C397.606 257.227 397.355 256.599 397.068 256.026C396.782 255.452 396.405 254.968 395.939 254.574C395.473 254.179 394.828 253.982 394.003 253.982C393.107 253.982 392.516 254.269 392.229 254.843C391.978 255.416 391.852 256.259 391.852 257.37C391.852 258.732 392.193 259.826 392.874 260.65C393.591 261.475 394.469 262.174 395.509 262.747C396.584 263.321 397.732 263.841 398.95 264.307C400.205 264.773 401.352 265.293 402.392 265.866C403.467 266.44 404.346 267.157 405.027 268.017C405.744 268.878 406.102 270.007 406.102 271.405C406.102 273.018 405.636 274.416 404.704 275.599C403.772 276.746 402.607 277.696 401.209 278.449C399.811 279.202 398.305 279.758 396.692 280.116C395.079 280.475 393.591 280.654 392.229 280.654C391.01 280.654 389.683 280.511 388.249 280.224C386.816 279.937 385.471 279.471 384.216 278.826C382.998 278.145 381.976 277.284 381.151 276.245C380.327 275.205 379.915 273.932 379.915 272.427C379.915 271.136 380.291 270.025 381.044 269.093C381.797 268.161 382.854 267.695 384.216 267.695C385.184 267.695 385.991 267.856 386.636 268.179C387.317 268.501 387.945 268.86 388.518 269.254C389.092 269.613 389.683 269.953 390.293 270.276C390.902 270.598 391.619 270.76 392.444 270.76C392.695 270.76 393.017 270.706 393.412 270.598C393.842 270.455 394.057 270.096 394.057 269.523Z" fill="url(#paint0_linear_2268_2949)"/>
<path d="M346.553 268.126C346.553 265.016 346.919 262.272 347.651 259.894C348.419 257.516 349.498 255.522 350.889 253.912C352.279 252.303 353.962 251.095 355.937 250.29C357.913 249.449 360.108 249.028 362.523 249.028C364.718 249.028 366.767 249.431 368.669 250.236C370.572 251.004 372.218 252.028 373.608 253.309C375.035 254.553 376.133 255.979 376.901 257.589C377.706 259.199 378.108 260.827 378.108 262.473C378.108 265.912 376.224 267.632 372.456 267.632C371.322 267.632 370.37 267.504 369.602 267.248C368.834 266.955 368.212 266.589 367.736 266.15C367.261 265.675 366.913 265.126 366.694 264.504C366.474 263.882 366.364 263.223 366.364 262.528C366.364 261.394 366.145 260.388 365.706 259.51C365.267 258.632 364.48 258.193 363.346 258.193C362.687 258.193 361.992 258.412 361.261 258.851C360.565 259.29 359.925 259.894 359.34 260.662C358.754 261.431 358.279 262.345 357.913 263.406C357.547 264.431 357.364 265.547 357.364 266.754C357.364 268.73 357.822 270.321 358.736 271.528C359.651 272.736 361.005 273.339 362.797 273.339C363.529 273.339 364.224 273.23 364.883 273.01C365.578 272.754 366.255 272.48 366.913 272.187C367.608 271.858 368.303 271.583 368.998 271.364C369.694 271.108 370.389 270.98 371.084 270.98C373.389 270.98 374.998 271.51 375.913 272.571C376.828 273.632 377.285 275.242 377.285 277.4C377.285 277.547 377.248 277.693 377.175 277.839C377.139 277.949 377.084 278.114 377.011 278.333C376.572 279.504 375.877 280.583 374.925 281.571C373.974 282.522 372.822 283.345 371.468 284.041C370.114 284.772 368.596 285.321 366.913 285.687C365.23 286.089 363.437 286.291 361.535 286.291C359.303 286.291 357.273 285.87 355.443 285.028C353.614 284.187 352.041 282.98 350.724 281.406C349.407 279.833 348.382 277.931 347.651 275.699C346.919 273.431 346.553 270.906 346.553 268.126Z" fill="url(#paint1_linear_2268_2949)"/>
<path d="M341.77 235.431C340.637 235.225 338.635 237.48 337.926 238.567C334.358 237.293 333.051 238.3 332.783 238.78C332.397 240.089 333.952 242.545 334.634 243.364C332.667 246.524 332.978 247.923 333.38 248.228C334.443 248.845 337.118 248.27 338.203 247.895C340.228 250.401 341.597 250.858 342.029 250.774C343.275 250.267 343.618 247.389 343.633 246.013C346.288 244.865 347.284 243.71 347.495 243.162C347.65 241.862 344.9 240.646 343.522 240.265C343.423 236.944 342.387 235.664 341.77 235.431Z" fill="url(#paint2_linear_2268_2949)"/>
<path d="M335.252 273.107C335.252 272.854 335.252 272.513 335.252 272.083C335.252 271.627 335.24 271.147 335.214 270.641C335.214 270.11 335.214 269.566 335.214 269.009C335.214 268.453 335.214 267.922 335.214 267.416C335.214 267.087 335.214 266.556 335.214 265.822C335.24 265.089 335.278 264.279 335.328 263.394C335.404 262.509 335.518 261.598 335.67 260.662C335.821 259.701 336.036 258.841 336.315 258.082C336.593 257.298 336.947 256.653 337.377 256.147C337.832 255.641 338.376 255.388 339.009 255.388C339.186 255.388 339.337 255.401 339.464 255.426C339.616 255.451 339.767 255.489 339.919 255.54C341.437 256.046 342.537 257.057 343.22 258.575C343.903 260.093 344.245 262.294 344.245 265.177C344.245 266.29 344.194 267.567 344.093 269.009C344.017 270.426 343.903 271.842 343.751 273.259C343.6 274.65 343.423 275.94 343.22 277.129C343.043 278.318 342.853 279.241 342.651 279.899C341.993 281.897 340.906 282.896 339.388 282.896C338.047 282.896 337.023 282.049 336.315 280.354C335.606 278.685 335.252 276.269 335.252 273.107Z" fill="url(#paint3_linear_2268_2949)"/>
<path d="M291.663 245.628C292.434 245.628 293.07 245.801 293.57 246.148C294.071 246.495 294.495 246.88 294.842 247.304C295.227 247.689 295.555 248.055 295.824 248.402C296.133 248.749 296.46 248.922 296.807 248.922C297.154 248.922 297.539 248.749 297.963 248.402C298.425 248.017 299.003 247.612 299.697 247.188C300.39 246.764 301.199 246.379 302.124 246.032C303.087 245.647 304.224 245.454 305.534 245.454C306.497 245.454 307.325 245.724 308.019 246.264C308.712 246.803 309.348 247.4 309.926 248.055C310.504 248.672 311.063 249.25 311.602 249.789C312.142 250.328 312.719 250.598 313.336 250.598C313.952 250.598 314.511 250.348 315.012 249.847C315.513 249.307 316.091 248.729 316.746 248.113C317.401 247.497 318.191 246.938 319.115 246.437C320.079 245.898 321.292 245.628 322.756 245.628C325.53 245.628 327.765 247.073 329.46 249.962C331.194 252.852 332.061 256.955 332.061 262.272C332.061 263.737 331.965 265.258 331.772 266.838C331.618 268.418 331.406 269.94 331.136 271.404C330.867 272.829 330.559 274.139 330.212 275.334C329.904 276.49 329.595 277.414 329.287 278.108C328.748 279.225 327.958 280.092 326.918 280.709C325.877 281.364 324.664 281.691 323.276 281.691C322.236 281.691 321.446 281.518 320.907 281.171C320.406 280.824 320.04 280.362 319.809 279.784C319.578 279.167 319.462 278.474 319.462 277.703C319.462 276.894 319.462 276.066 319.462 275.218C319.462 272.483 319.597 269.998 319.867 267.763C320.175 265.49 320.329 263.351 320.329 261.348C320.329 260.192 320.233 259.402 320.04 258.978C319.847 258.516 319.443 258.285 318.826 258.285C318.518 258.285 318.21 258.458 317.902 258.805C317.632 259.152 317.382 259.556 317.15 260.018C316.919 260.481 316.727 260.962 316.572 261.463C316.457 261.926 316.399 262.311 316.399 262.619C316.399 264.623 316.303 266.684 316.11 268.803C315.956 270.922 315.609 272.849 315.07 274.583C314.569 276.316 313.837 277.742 312.874 278.859C311.949 279.977 310.697 280.535 309.117 280.535C307.499 280.535 306.304 280.131 305.534 279.322C304.763 278.512 304.378 277.068 304.378 274.987C304.378 272.174 304.416 269.766 304.494 267.763C304.571 265.721 304.609 263.775 304.609 261.926C304.609 260.962 304.474 260.153 304.205 259.498C303.935 258.805 303.338 258.458 302.413 258.458C301.719 258.458 301.141 258.824 300.679 259.556C300.255 260.288 299.909 261.155 299.639 262.157C299.408 263.12 299.234 264.083 299.119 265.047C299.003 266.01 298.945 266.723 298.945 267.185C298.945 268.88 298.926 270.556 298.888 272.213C298.849 273.87 298.676 275.372 298.367 276.721C298.098 278.031 297.635 279.09 296.98 279.9C296.325 280.709 295.362 281.113 294.091 281.113C291.586 281.113 289.737 279.206 288.542 275.392C288.234 274.39 287.926 273.176 287.618 271.751C287.31 270.287 287.04 268.745 286.809 267.127C286.577 265.509 286.385 263.871 286.231 262.215C286.077 260.558 286 259.017 286 257.591C286 255.857 286.115 254.258 286.346 252.794C286.577 251.33 286.924 250.078 287.387 249.038C287.887 247.959 288.485 247.13 289.178 246.553C289.91 245.936 290.739 245.628 291.663 245.628Z" fill="url(#paint4_linear_2268_2949)"/>
<path d="M208.235 247.346C208.94 247.436 209.534 247.611 210.017 247.873C210.5 248.135 210.953 248.408 211.375 248.691C211.826 248.978 212.265 249.248 212.691 249.503C213.118 249.758 213.613 249.921 214.177 249.993C214.855 250.079 215.379 250.016 215.749 249.806C216.124 249.566 216.472 249.309 216.793 249.035C217.147 248.736 217.537 248.484 217.964 248.281C218.423 248.052 219.076 247.992 219.923 248.099C220.487 248.171 221.021 248.368 221.525 248.69C222.032 248.983 222.457 249.367 222.798 249.84C223.139 250.314 223.383 250.875 223.53 251.525C223.705 252.178 223.744 252.885 223.648 253.647C223.601 254.014 223.505 254.546 223.359 255.244C223.241 255.946 223.097 256.63 222.926 257.297C222.539 258.767 222.109 260.117 221.638 261.348C221.17 262.55 220.846 263.856 220.667 265.267C220.588 265.888 220.543 266.584 220.531 267.357C220.522 268.101 220.513 268.845 220.505 269.59C220.528 270.309 220.539 271.013 220.538 271.701C220.54 272.361 220.511 272.931 220.45 273.41C220.317 274.454 220.123 275.304 219.868 275.96C219.609 276.644 219.285 277.162 218.897 277.514C218.508 277.866 218.049 278.094 217.52 278.199C216.99 278.304 216.401 278.315 215.752 278.232C215.216 278.164 214.687 278.04 214.165 277.859C213.672 277.681 213.23 277.439 212.839 277.131C212.448 276.824 212.136 276.454 211.904 276.024C211.697 275.624 211.629 275.143 211.701 274.578C211.779 273.958 211.71 273.376 211.492 272.832C211.303 272.292 211.025 271.998 210.658 271.952C210.178 271.891 209.688 272.029 209.186 272.367C208.688 272.676 208.126 273.035 207.501 273.443C206.908 273.827 206.235 274.157 205.483 274.434C204.756 274.743 203.898 274.835 202.911 274.71C201.641 274.548 200.494 274.102 199.469 273.369C198.443 272.637 197.592 271.669 196.913 270.464C196.235 269.26 195.752 267.866 195.466 266.281C195.18 264.697 195.155 262.973 195.391 261.111C195.685 258.797 196.218 256.744 196.991 254.949C197.792 253.159 198.754 251.676 199.878 250.5C201.034 249.299 202.32 248.43 203.736 247.893C205.155 247.328 206.655 247.145 208.235 247.346ZM204.146 260.244C204.052 260.978 204.033 261.692 204.088 262.388C204.175 263.058 204.328 263.665 204.545 264.209C204.766 264.724 205.057 265.148 205.416 265.48C205.803 265.816 206.251 266.017 206.759 266.081C207.323 266.153 207.911 266.041 208.522 265.746C209.136 265.422 209.707 264.993 210.233 264.458C210.788 263.926 211.253 263.312 211.629 262.614C212.036 261.891 212.288 261.149 212.384 260.388C212.467 259.739 212.447 259.105 212.325 258.488C212.202 257.87 211.985 257.326 211.672 256.857C211.39 256.362 211.012 255.956 210.536 255.637C210.092 255.294 209.574 255.085 208.982 255.01C208.361 254.931 207.775 255.029 207.224 255.303C206.677 255.549 206.186 255.916 205.751 256.406C205.344 256.899 204.998 257.486 204.71 258.166C204.427 258.818 204.239 259.511 204.146 260.244Z" fill="url(#paint5_linear_2268_2949)"/>
<path d="M264.565 249.99C265.215 250.036 265.767 250.166 266.222 250.381C266.677 250.597 267.104 250.823 267.505 251.06C267.932 251.299 268.347 251.524 268.75 251.736C269.153 251.947 269.614 252.071 270.134 252.108C270.758 252.152 271.234 252.068 271.562 251.857C271.892 251.619 272.197 251.366 272.477 251.099C272.785 250.807 273.13 250.557 273.51 250.349C273.918 250.117 274.512 250.029 275.291 250.084C275.811 250.121 276.309 250.273 276.787 250.542C277.266 250.785 277.673 251.114 278.009 251.53C278.345 251.945 278.597 252.446 278.765 253.033C278.958 253.621 279.03 254.266 278.98 254.967C278.956 255.305 278.895 255.797 278.797 256.443C278.725 257.091 278.628 257.724 278.506 258.342C278.227 259.706 277.903 260.963 277.534 262.112C277.167 263.235 276.938 264.446 276.846 265.745C276.805 266.317 276.799 266.956 276.827 267.663C276.858 268.344 276.888 269.025 276.918 269.706C276.976 270.363 277.021 271.006 277.055 271.636C277.091 272.239 277.093 272.761 277.062 273.203C276.994 274.164 276.86 274.951 276.66 275.564C276.458 276.202 276.188 276.693 275.85 277.034C275.513 277.376 275.105 277.608 274.626 277.731C274.147 277.854 273.609 277.894 273.011 277.852C272.518 277.817 272.028 277.73 271.541 277.591C271.081 277.454 270.664 277.254 270.291 276.993C269.918 276.732 269.614 276.41 269.38 276.028C269.17 275.673 269.083 275.236 269.12 274.716C269.161 274.145 269.068 273.616 268.841 273.13C268.64 272.646 268.371 272.391 268.033 272.368C267.591 272.336 267.15 272.488 266.708 272.822C266.269 273.13 265.773 273.487 265.222 273.892C264.699 274.273 264.101 274.609 263.427 274.901C262.778 275.22 261.999 275.348 261.089 275.284C259.92 275.201 258.848 274.851 257.873 274.233C256.898 273.616 256.07 272.774 255.388 271.707C254.707 270.64 254.195 269.39 253.852 267.955C253.51 266.521 253.399 264.946 253.521 263.231C253.672 261.1 254.055 259.195 254.67 257.515C255.311 255.837 256.116 254.432 257.084 253.299C258.08 252.142 259.211 251.282 260.479 250.719C261.748 250.13 263.11 249.887 264.565 249.99ZM261.482 261.993C261.434 262.669 261.453 263.323 261.539 263.956C261.652 264.564 261.823 265.112 262.049 265.598C262.278 266.058 262.565 266.431 262.91 266.717C263.282 267.004 263.701 267.164 264.169 267.197C264.689 267.234 265.22 267.102 265.764 266.801C266.309 266.474 266.809 266.053 267.264 265.536C267.744 265.022 268.138 264.436 268.446 263.779C268.781 263.098 268.974 262.406 269.023 261.705C269.066 261.107 269.015 260.529 268.872 259.97C268.729 259.412 268.502 258.926 268.192 258.512C267.91 258.074 267.543 257.722 267.092 257.455C266.668 257.164 266.184 256.999 265.638 256.96C265.067 256.92 264.536 257.039 264.046 257.317C263.558 257.57 263.128 257.931 262.755 258.401C262.408 258.873 262.121 259.427 261.893 260.064C261.667 260.674 261.53 261.318 261.482 261.993Z" fill="url(#paint6_linear_2268_2949)"/>
<path d="M174.591 250.873C175.901 250.873 177.038 251.22 178.001 251.913C179.003 252.607 179.504 253.377 179.504 254.225C179.504 254.957 179.504 255.631 179.504 256.248C179.542 256.864 179.658 257.384 179.851 257.808C180.043 258.232 180.371 258.579 180.833 258.848C181.295 259.079 181.97 259.195 182.856 259.195C183.511 259.195 184.32 259.157 185.283 259.079C186.285 258.964 187.595 258.906 189.213 258.906C189.714 258.945 190.157 259.06 190.542 259.253C190.851 259.407 191.14 259.657 191.409 260.004C191.679 260.351 191.814 260.852 191.814 261.507C191.814 262.855 191.197 263.973 189.964 264.859C188.731 265.745 187.19 266.188 185.341 266.188C184.647 266.188 183.954 266.15 183.26 266.073C182.567 265.957 181.931 265.899 181.353 265.899C180.66 265.899 180.12 265.976 179.735 266.13C179.388 266.284 179.118 266.477 178.926 266.708C178.772 266.939 178.675 267.209 178.637 267.517C178.637 267.826 178.637 268.153 178.637 268.5C178.637 269.425 178.695 270.349 178.81 271.274C178.926 272.199 179.157 273.027 179.504 273.759C179.851 274.453 180.332 275.031 180.949 275.493C181.565 275.917 182.355 276.129 183.318 276.129C184.204 276.129 184.879 275.82 185.341 275.204C185.842 274.587 186.323 273.913 186.786 273.181C187.248 272.449 187.788 271.775 188.404 271.158C189.02 270.542 189.887 270.234 191.005 270.234C191.814 270.234 192.546 270.407 193.201 270.754C193.894 271.101 194.492 271.601 194.992 272.256C195.493 272.873 195.879 273.605 196.148 274.453C196.457 275.3 196.611 276.225 196.611 277.227C196.611 278.922 196.245 280.502 195.513 281.966C194.819 283.43 193.798 284.701 192.45 285.78C191.14 286.82 189.541 287.649 187.653 288.265C185.765 288.882 183.665 289.19 181.353 289.19C177.963 289.19 175.246 288.439 173.204 286.936C171.162 285.433 169.698 283.449 168.812 280.983C168.619 280.405 168.427 279.616 168.234 278.614C168.041 277.612 167.868 276.495 167.714 275.262C167.598 273.99 167.483 272.68 167.367 271.332C167.29 269.945 167.251 268.577 167.251 267.228C167.251 264.531 167.367 262.104 167.598 259.946C167.829 257.789 168.157 256.132 168.581 254.976C168.927 254.051 169.332 253.319 169.794 252.78C170.257 252.241 170.738 251.836 171.239 251.566C171.779 251.258 172.318 251.065 172.857 250.988C173.435 250.911 174.013 250.873 174.591 250.873Z" fill="url(#paint7_linear_2268_2949)"/>
<path d="M152.2 271.187C152.2 270.802 151.834 270.455 151.102 270.147C150.37 269.839 149.464 269.492 148.385 269.107C147.307 268.683 146.131 268.201 144.86 267.662C143.588 267.122 142.413 266.429 141.335 265.581C140.256 264.734 139.35 263.693 138.618 262.46C137.886 261.227 137.52 259.744 137.52 258.01C137.52 256.276 137.982 254.735 138.907 253.387C139.87 252.038 141.065 250.921 142.49 250.035C143.955 249.11 145.534 248.416 147.229 247.954C148.925 247.492 150.524 247.261 152.026 247.261C153.645 247.261 155.224 247.395 156.765 247.665C158.307 247.935 159.655 248.455 160.811 249.226C162.005 249.958 162.949 250.979 163.643 252.289C164.375 253.56 164.741 255.217 164.741 257.259C164.741 257.837 164.702 258.473 164.625 259.166C164.548 259.821 164.394 260.438 164.163 261.015C163.97 261.555 163.662 262.017 163.238 262.403C162.815 262.749 162.256 262.923 161.562 262.923C160.406 262.923 159.482 262.711 158.788 262.287C158.133 261.863 157.613 261.343 157.228 260.727C156.843 260.11 156.515 259.436 156.245 258.704C156.014 257.972 155.744 257.297 155.436 256.681C155.128 256.064 154.723 255.544 154.223 255.121C153.722 254.697 153.028 254.485 152.142 254.485C151.179 254.485 150.543 254.793 150.235 255.409C149.965 256.026 149.83 256.931 149.83 258.126C149.83 259.59 150.196 260.765 150.928 261.651C151.699 262.537 152.643 263.289 153.76 263.905C154.916 264.522 156.149 265.08 157.459 265.581C158.808 266.082 160.04 266.641 161.158 267.257C162.314 267.874 163.258 268.644 163.99 269.569C164.76 270.494 165.146 271.707 165.146 273.21C165.146 274.944 164.645 276.446 163.643 277.718C162.641 278.951 161.389 279.972 159.886 280.781C158.384 281.59 156.765 282.187 155.032 282.573C153.298 282.958 151.699 283.15 150.235 283.15C148.925 283.15 147.499 282.996 145.958 282.688C144.417 282.38 142.972 281.879 141.624 281.185C140.314 280.453 139.215 279.529 138.329 278.411C137.443 277.294 137 275.926 137 274.308C137 272.921 137.405 271.727 138.214 270.725C139.023 269.723 140.159 269.222 141.624 269.222C142.664 269.222 143.531 269.396 144.224 269.742C144.956 270.089 145.631 270.474 146.247 270.898C146.863 271.284 147.499 271.65 148.154 271.996C148.809 272.343 149.58 272.516 150.466 272.516C150.736 272.516 151.082 272.459 151.506 272.343C151.969 272.189 152.2 271.804 152.2 271.187Z" fill="url(#paint8_linear_2268_2949)"/>
<path d="M255.296 283.833C255.033 283.809 254.775 283.782 254.523 283.752C247.761 282.945 244.738 279.977 243.945 278.367C243.873 278.22 243.819 278.085 243.783 277.964L235.524 281.485C236.788 282.388 238.289 284.36 239.042 285.414C241.034 288.664 244.036 290.601 246.749 291.683C248.708 292.465 250.203 292.758 251.684 293.089C254.711 293.767 261.888 294.85 267.487 294.67C274.486 294.444 277.646 292.864 281.484 290.606C284.554 288.8 286.225 286.392 286.677 285.414C287.203 284.586 288.302 282.343 288.483 279.995C288.663 277.648 287.805 275.48 285.322 275.48C283.967 275.48 281.981 275.525 280.355 278.415C278.73 281.305 273.357 282.659 270.874 283.156C268.616 283.608 263.243 284.556 255.296 283.833Z" fill="url(#paint9_linear_2268_2949)"/>
<path fill-rule="evenodd" clip-rule="evenodd" d="M221.884 273.741V270.505C221.923 269.195 222 267.827 222.115 266.401C222.27 264.937 222.501 263.473 222.809 262.009C223.117 260.506 223.541 259.177 224.08 258.021C224.658 256.827 225.371 255.864 226.219 255.131C227.066 254.399 228.107 254.033 229.34 254.033C229.995 254.033 230.592 254.11 231.131 254.265C231.671 254.38 232.191 254.534 232.692 254.727C233.231 254.881 233.751 255.035 234.252 255.189C234.753 255.343 235.273 255.42 235.813 255.42C236.352 255.42 236.891 255.343 237.431 255.189L239.165 254.727C239.743 254.534 240.34 254.38 240.956 254.265C241.573 254.11 242.228 254.033 242.921 254.033C244.231 254.033 245.464 254.361 246.62 255.016C247.776 255.671 248.778 256.538 249.625 257.617C250.511 258.695 251.205 259.948 251.706 261.373C252.245 262.76 252.515 264.186 252.515 265.65C252.515 267.037 252.284 268.231 251.821 269.233C251.398 270.235 250.858 271.102 250.203 271.834C249.548 272.527 248.835 273.144 248.065 273.683C247.333 274.184 246.639 274.646 245.984 275.07C245.329 275.456 244.771 275.86 244.308 276.284C243.884 276.669 243.673 277.093 243.673 277.555C243.673 277.875 243.763 278.145 243.945 278.367C244.738 279.977 247.761 282.945 254.523 283.752C254.464 284.176 254.392 284.595 254.307 285.011C254.075 286.282 253.632 287.419 252.977 288.421C252.322 289.422 251.417 290.212 250.261 290.79C249.32 291.292 248.149 291.59 246.749 291.683C244.036 290.601 241.034 288.664 239.042 285.414C238.289 284.36 236.788 282.388 235.524 281.485C235.061 280.946 234.541 280.676 233.963 280.676C233.424 280.676 233.038 280.927 232.807 281.428C232.615 281.929 232.518 282.795 232.518 284.028V286.051C232.518 286.783 232.403 287.457 232.172 288.074C231.979 288.69 231.613 289.191 231.073 289.577C230.534 290 229.725 290.212 228.646 290.212C227.413 290.212 226.373 289.904 225.525 289.288C224.678 288.71 223.984 287.766 223.445 286.456C222.905 285.146 222.501 283.45 222.231 281.37C222 279.251 221.884 276.708 221.884 273.741ZM235.466 266.921C235.466 267.731 235.697 268.289 236.159 268.597C236.622 268.906 237.18 269.06 237.835 269.06C238.722 269.06 239.511 268.713 240.205 268.019C240.898 267.326 241.245 266.382 241.245 265.188C241.245 264.34 240.975 263.743 240.436 263.396C239.935 263.049 239.357 262.876 238.702 262.876C237.778 262.876 237.007 263.28 236.391 264.09C235.774 264.86 235.466 265.804 235.466 266.921Z" fill="url(#paint10_linear_2268_2949)"/>
<path d="M289.733 310.75L289.74 305.567C289.74 304.962 289.578 304.49 289.253 304.15C288.933 303.805 288.515 303.632 288 303.632C287.7 303.632 287.415 303.702 287.145 303.842C286.875 303.977 286.655 304.192 286.485 304.487C286.315 304.777 286.23 305.15 286.23 305.605L285.525 305.32C285.515 304.745 285.633 304.242 285.878 303.812C286.128 303.377 286.468 303.04 286.898 302.8C287.328 302.56 287.813 302.44 288.353 302.44C289.198 302.44 289.863 302.697 290.348 303.213C290.833 303.722 291.075 304.41 291.075 305.275L291.068 310.75H289.733ZM280.043 310.75V302.65H281.235V304.817H281.385V310.75H280.043ZM284.895 310.75L284.903 305.62C284.903 305 284.743 304.515 284.423 304.165C284.103 303.81 283.678 303.632 283.148 303.632C282.623 303.632 282.198 303.812 281.873 304.172C281.548 304.532 281.385 305.01 281.385 305.605L280.68 305.185C280.68 304.66 280.805 304.19 281.055 303.775C281.305 303.36 281.645 303.035 282.075 302.8C282.505 302.56 282.993 302.44 283.538 302.44C284.083 302.44 284.558 302.555 284.963 302.785C285.368 303.015 285.68 303.345 285.9 303.775C286.12 304.2 286.23 304.707 286.23 305.297L286.223 310.75H284.895ZM293.179 301.217V299.837H294.514V301.217H293.179ZM293.179 310.75V302.65H294.514V310.75H293.179ZM302.531 310.75V306.692C302.531 306.307 302.496 305.937 302.426 305.582C302.361 305.227 302.244 304.91 302.074 304.63C301.909 304.345 301.684 304.12 301.399 303.955C301.119 303.79 300.764 303.707 300.334 303.707C299.999 303.707 299.694 303.765 299.419 303.88C299.149 303.99 298.916 304.16 298.721 304.39C298.526 304.62 298.374 304.91 298.264 305.26C298.159 305.605 298.106 306.012 298.106 306.482L297.229 306.212C297.229 305.427 297.369 304.755 297.649 304.195C297.934 303.63 298.331 303.197 298.841 302.897C299.356 302.592 299.961 302.44 300.656 302.44C301.181 302.44 301.629 302.522 301.999 302.687C302.369 302.852 302.676 303.072 302.921 303.347C303.166 303.617 303.359 303.922 303.499 304.262C303.639 304.597 303.736 304.94 303.791 305.29C303.851 305.635 303.881 305.962 303.881 306.272V310.75H302.531ZM296.756 310.75V302.65H297.956V304.817H298.106V310.75H296.756ZM305.981 301.217V299.837H307.316V301.217H305.981ZM305.981 310.75V302.65H307.316V310.75H305.981ZM317.092 310.75C316.612 310.845 316.137 310.883 315.667 310.863C315.202 310.848 314.787 310.755 314.422 310.585C314.057 310.41 313.78 310.14 313.59 309.775C313.43 309.455 313.342 309.132 313.327 308.807C313.317 308.477 313.312 308.105 313.312 307.69V300.4H314.647V307.63C314.647 307.96 314.65 308.242 314.655 308.477C314.665 308.712 314.717 308.915 314.812 309.085C314.992 309.405 315.277 309.592 315.667 309.648C316.062 309.702 316.537 309.687 317.092 309.602V310.75ZM311.67 303.752V302.65H317.092V303.752H311.67ZM318.737 310.75V302.65H319.929V304.607L319.734 304.352C319.829 304.102 319.952 303.872 320.102 303.662C320.257 303.452 320.429 303.28 320.619 303.145C320.829 302.975 321.067 302.845 321.332 302.755C321.597 302.665 321.867 302.612 322.142 302.597C322.417 302.577 322.674 302.595 322.914 302.65V303.902C322.634 303.827 322.327 303.807 321.992 303.842C321.657 303.877 321.347 304 321.062 304.21C320.802 304.395 320.599 304.62 320.454 304.885C320.314 305.15 320.217 305.437 320.162 305.747C320.107 306.052 320.079 306.365 320.079 306.685V310.75H318.737ZM327.696 310.975C326.901 310.975 326.206 310.8 325.611 310.45C325.021 310.095 324.561 309.602 324.231 308.972C323.901 308.337 323.736 307.597 323.736 306.752C323.736 305.867 323.898 305.102 324.223 304.457C324.548 303.807 325.001 303.307 325.581 302.957C326.166 302.602 326.851 302.425 327.636 302.425C328.451 302.425 329.143 302.612 329.713 302.987C330.288 303.362 330.718 303.897 331.003 304.592C331.293 305.287 331.418 306.115 331.378 307.075H330.028V306.595C330.013 305.6 329.811 304.857 329.421 304.367C329.031 303.872 328.451 303.625 327.681 303.625C326.856 303.625 326.228 303.89 325.798 304.42C325.368 304.95 325.153 305.71 325.153 306.7C325.153 307.655 325.368 308.395 325.798 308.92C326.228 309.445 326.841 309.707 327.636 309.707C328.171 309.707 328.636 309.585 329.031 309.34C329.426 309.095 329.736 308.742 329.961 308.282L331.243 308.725C330.928 309.44 330.453 309.995 329.818 310.39C329.188 310.78 328.481 310.975 327.696 310.975ZM324.703 307.075V306.002H330.688V307.075H324.703ZM335.204 310.975C334.599 310.975 334.092 310.865 333.682 310.645C333.277 310.42 332.969 310.125 332.759 309.76C332.554 309.395 332.452 308.995 332.452 308.56C332.452 308.135 332.532 307.767 332.692 307.457C332.857 307.142 333.087 306.882 333.382 306.677C333.677 306.467 334.029 306.302 334.439 306.182C334.824 306.077 335.254 305.987 335.729 305.912C336.209 305.832 336.694 305.76 337.184 305.695C337.674 305.63 338.132 305.567 338.557 305.507L338.077 305.785C338.092 305.065 337.947 304.532 337.642 304.187C337.342 303.842 336.822 303.67 336.082 303.67C335.592 303.67 335.162 303.782 334.792 304.007C334.427 304.227 334.169 304.587 334.019 305.087L332.752 304.705C332.947 303.995 333.324 303.437 333.884 303.032C334.444 302.627 335.182 302.425 336.097 302.425C336.832 302.425 337.462 302.557 337.987 302.822C338.517 303.082 338.897 303.477 339.127 304.007C339.242 304.257 339.314 304.53 339.344 304.825C339.374 305.115 339.389 305.42 339.389 305.74V310.75H338.204V308.807L338.482 308.987C338.177 309.642 337.749 310.137 337.199 310.472C336.654 310.808 335.989 310.975 335.204 310.975ZM335.407 309.857C335.887 309.857 336.302 309.772 336.652 309.602C337.007 309.427 337.292 309.2 337.507 308.92C337.722 308.635 337.862 308.325 337.927 307.99C338.002 307.74 338.042 307.462 338.047 307.157C338.057 306.847 338.062 306.61 338.062 306.445L338.527 306.647C338.092 306.707 337.664 306.765 337.244 306.82C336.824 306.875 336.427 306.935 336.052 307C335.677 307.06 335.339 307.132 335.039 307.217C334.819 307.287 334.612 307.377 334.417 307.487C334.227 307.597 334.072 307.74 333.952 307.915C333.837 308.085 333.779 308.297 333.779 308.552C333.779 308.772 333.834 308.982 333.944 309.182C334.059 309.382 334.234 309.545 334.469 309.67C334.709 309.795 335.022 309.857 335.407 309.857ZM344.399 310.968C343.434 310.968 342.642 310.757 342.022 310.337C341.407 309.912 341.029 309.32 340.889 308.56L342.254 308.342C342.364 308.782 342.617 309.132 343.012 309.392C343.407 309.647 343.897 309.775 344.482 309.775C345.037 309.775 345.472 309.66 345.787 309.43C346.102 309.2 346.259 308.887 346.259 308.492C346.259 308.262 346.207 308.077 346.102 307.937C345.997 307.792 345.779 307.657 345.449 307.532C345.124 307.407 344.632 307.257 343.972 307.082C343.257 306.892 342.694 306.695 342.284 306.49C341.874 306.285 341.582 306.047 341.407 305.777C341.232 305.507 341.144 305.18 341.144 304.795C341.144 304.32 341.274 303.905 341.534 303.55C341.794 303.19 342.157 302.912 342.622 302.717C343.092 302.522 343.637 302.425 344.257 302.425C344.872 302.425 345.422 302.522 345.907 302.717C346.392 302.912 346.782 303.19 347.077 303.55C347.377 303.905 347.554 304.32 347.609 304.795L346.244 305.042C346.179 304.607 345.969 304.265 345.614 304.015C345.264 303.765 344.812 303.632 344.257 303.617C343.732 303.597 343.304 303.69 342.974 303.895C342.649 304.1 342.487 304.377 342.487 304.727C342.487 304.922 342.547 305.09 342.667 305.23C342.792 305.37 343.019 305.502 343.349 305.627C343.684 305.752 344.169 305.895 344.804 306.055C345.519 306.235 346.082 306.432 346.492 306.647C346.907 306.857 347.202 307.107 347.377 307.397C347.552 307.682 347.639 308.035 347.639 308.455C347.639 309.235 347.352 309.85 346.777 310.3C346.202 310.745 345.409 310.968 344.399 310.968ZM352.368 310.96C351.848 310.96 351.401 310.878 351.026 310.712C350.656 310.547 350.348 310.327 350.103 310.052C349.858 309.777 349.666 309.472 349.526 309.137C349.386 308.802 349.286 308.46 349.226 308.11C349.171 307.76 349.143 307.432 349.143 307.127V302.65H350.493V306.707C350.493 307.087 350.528 307.455 350.598 307.81C350.668 308.165 350.786 308.485 350.951 308.77C351.121 309.055 351.346 309.28 351.626 309.445C351.911 309.61 352.266 309.692 352.691 309.692C353.026 309.692 353.331 309.635 353.606 309.52C353.881 309.405 354.116 309.235 354.311 309.01C354.506 308.78 354.656 308.49 354.761 308.14C354.866 307.79 354.918 307.382 354.918 306.917L355.796 307.187C355.796 307.967 355.653 308.64 355.368 309.205C355.088 309.77 354.691 310.205 354.176 310.51C353.666 310.81 353.063 310.96 352.368 310.96ZM355.068 310.75V308.582H354.918V302.65H356.261V310.75H355.068ZM358.361 310.75V302.65H359.553V304.607L359.358 304.352C359.453 304.102 359.576 303.872 359.726 303.662C359.881 303.452 360.053 303.28 360.243 303.145C360.453 302.975 360.691 302.845 360.956 302.755C361.221 302.665 361.491 302.612 361.766 302.597C362.041 302.577 362.298 302.595 362.538 302.65V303.902C362.258 303.827 361.951 303.807 361.616 303.842C361.281 303.877 360.971 304 360.686 304.21C360.426 304.395 360.223 304.62 360.078 304.885C359.938 305.15 359.841 305.437 359.786 305.747C359.731 306.052 359.703 306.365 359.703 306.685V310.75H358.361ZM367.32 310.975C366.525 310.975 365.83 310.8 365.235 310.45C364.645 310.095 364.185 309.602 363.855 308.972C363.525 308.337 363.36 307.597 363.36 306.752C363.36 305.867 363.522 305.102 363.847 304.457C364.172 303.807 364.625 303.307 365.205 302.957C365.79 302.602 366.475 302.425 367.26 302.425C368.075 302.425 368.767 302.612 369.337 302.987C369.912 303.362 370.342 303.897 370.627 304.592C370.917 305.287 371.042 306.115 371.002 307.075H369.652V306.595C369.637 305.6 369.435 304.857 369.045 304.367C368.655 303.872 368.075 303.625 367.305 303.625C366.48 303.625 365.852 303.89 365.422 304.42C364.992 304.95 364.777 305.71 364.777 306.7C364.777 307.655 364.992 308.395 365.422 308.92C365.852 309.445 366.465 309.707 367.26 309.707C367.795 309.707 368.26 309.585 368.655 309.34C369.05 309.095 369.36 308.742 369.585 308.282L370.867 308.725C370.552 309.44 370.077 309.995 369.442 310.39C368.812 310.78 368.105 310.975 367.32 310.975ZM364.327 307.075V306.002H370.312V307.075H364.327ZM375.732 310.968C374.767 310.968 373.975 310.757 373.355 310.337C372.74 309.912 372.362 309.32 372.222 308.56L373.587 308.342C373.697 308.782 373.95 309.132 374.345 309.392C374.74 309.647 375.23 309.775 375.815 309.775C376.37 309.775 376.805 309.66 377.12 309.43C377.435 309.2 377.592 308.887 377.592 308.492C377.592 308.262 377.54 308.077 377.435 307.937C377.33 307.792 377.112 307.657 376.782 307.532C376.457 307.407 375.965 307.257 375.305 307.082C374.59 306.892 374.027 306.695 373.617 306.49C373.207 306.285 372.915 306.047 372.74 305.777C372.565 305.507 372.477 305.18 372.477 304.795C372.477 304.32 372.607 303.905 372.867 303.55C373.127 303.19 373.49 302.912 373.955 302.717C374.425 302.522 374.97 302.425 375.59 302.425C376.205 302.425 376.755 302.522 377.24 302.717C377.725 302.912 378.115 303.19 378.41 303.55C378.71 303.905 378.887 304.32 378.942 304.795L377.577 305.042C377.512 304.607 377.302 304.265 376.947 304.015C376.597 303.765 376.145 303.632 375.59 303.617C375.065 303.597 374.637 303.69 374.307 303.895C373.982 304.1 373.82 304.377 373.82 304.727C373.82 304.922 373.88 305.09 374 305.23C374.125 305.37 374.352 305.502 374.682 305.627C375.017 305.752 375.502 305.895 376.137 306.055C376.852 306.235 377.415 306.432 377.825 306.647C378.24 306.857 378.535 307.107 378.71 307.397C378.885 307.682 378.972 308.035 378.972 308.455C378.972 309.235 378.685 309.85 378.11 310.3C377.535 310.745 376.742 310.968 375.732 310.968ZM384.402 310.75V302.207C384.402 301.997 384.412 301.785 384.432 301.57C384.452 301.35 384.497 301.137 384.567 300.932C384.637 300.722 384.752 300.53 384.912 300.355C385.097 300.15 385.299 300.005 385.519 299.92C385.739 299.83 385.962 299.775 386.187 299.755C386.417 299.735 386.634 299.725 386.839 299.725H387.867V300.835H386.914C386.519 300.835 386.224 300.932 386.029 301.127C385.834 301.317 385.737 301.607 385.737 301.997V310.75H384.402ZM383.029 303.752V302.65H387.867V303.752H383.029ZM392.221 310.975C391.416 310.975 390.721 310.793 390.136 310.427C389.556 310.062 389.108 309.557 388.793 308.912C388.478 308.267 388.321 307.527 388.321 306.692C388.321 305.842 388.481 305.097 388.801 304.457C389.121 303.817 389.573 303.32 390.158 302.965C390.743 302.605 391.431 302.425 392.221 302.425C393.031 302.425 393.728 302.607 394.313 302.972C394.898 303.332 395.346 303.835 395.656 304.48C395.971 305.12 396.128 305.857 396.128 306.692C396.128 307.537 395.971 308.282 395.656 308.927C395.341 309.567 394.891 310.07 394.306 310.435C393.721 310.795 393.026 310.975 392.221 310.975ZM392.221 309.707C393.061 309.707 393.686 309.427 394.096 308.867C394.506 308.307 394.711 307.582 394.711 306.692C394.711 305.777 394.503 305.05 394.088 304.51C393.673 303.965 393.051 303.692 392.221 303.692C391.656 303.692 391.191 303.82 390.826 304.075C390.461 304.33 390.188 304.682 390.008 305.132C389.828 305.582 389.738 306.102 389.738 306.692C389.738 307.602 389.948 308.332 390.368 308.882C390.788 309.432 391.406 309.707 392.221 309.707ZM397.779 310.75V302.65H398.972V304.607L398.777 304.352C398.872 304.102 398.994 303.872 399.144 303.662C399.299 303.452 399.472 303.28 399.662 303.145C399.872 302.975 400.109 302.845 400.374 302.755C400.639 302.665 400.909 302.612 401.184 302.597C401.459 302.577 401.717 302.595 401.957 302.65V303.902C401.677 303.827 401.369 303.807 401.034 303.842C400.699 303.877 400.389 304 400.104 304.21C399.844 304.395 399.642 304.62 399.497 304.885C399.357 305.15 399.259 305.437 399.204 305.747C399.149 306.052 399.122 306.365 399.122 306.685V310.75H397.779ZM407.503 314.35L409.071 310.09L409.093 311.35L405.553 302.65H406.956L409.731 309.648H409.251L411.853 302.65H413.211L408.801 314.35H407.503ZM417.606 310.975C416.801 310.975 416.106 310.793 415.521 310.427C414.941 310.062 414.494 309.557 414.179 308.912C413.864 308.267 413.706 307.527 413.706 306.692C413.706 305.842 413.866 305.097 414.186 304.457C414.506 303.817 414.959 303.32 415.544 302.965C416.129 302.605 416.816 302.425 417.606 302.425C418.416 302.425 419.114 302.607 419.699 302.972C420.284 303.332 420.731 303.835 421.041 304.48C421.356 305.12 421.514 305.857 421.514 306.692C421.514 307.537 421.356 308.282 421.041 308.927C420.726 309.567 420.276 310.07 419.691 310.435C419.106 310.795 418.411 310.975 417.606 310.975ZM417.606 309.707C418.446 309.707 419.071 309.427 419.481 308.867C419.891 308.307 420.096 307.582 420.096 306.692C420.096 305.777 419.889 305.05 419.474 304.51C419.059 303.965 418.436 303.692 417.606 303.692C417.041 303.692 416.576 303.82 416.211 304.075C415.846 304.33 415.574 304.682 415.394 305.132C415.214 305.582 415.124 306.102 415.124 306.692C415.124 307.602 415.334 308.332 415.754 308.882C416.174 309.432 416.791 309.707 417.606 309.707ZM426.24 310.96C425.72 310.96 425.273 310.878 424.898 310.712C424.528 310.547 424.22 310.327 423.975 310.052C423.73 309.777 423.538 309.472 423.398 309.137C423.258 308.802 423.158 308.46 423.098 308.11C423.043 307.76 423.015 307.432 423.015 307.127V302.65H424.365V306.707C424.365 307.087 424.4 307.455 424.47 307.81C424.54 308.165 424.658 308.485 424.823 308.77C424.993 309.055 425.218 309.28 425.498 309.445C425.783 309.61 426.138 309.692 426.563 309.692C426.898 309.692 427.203 309.635 427.478 309.52C427.753 309.405 427.988 309.235 428.183 309.01C428.378 308.78 428.528 308.49 428.633 308.14C428.738 307.79 428.79 307.382 428.79 306.917L429.668 307.187C429.668 307.967 429.525 308.64 429.24 309.205C428.96 309.77 428.563 310.205 428.048 310.51C427.538 310.81 426.935 310.96 426.24 310.96ZM428.94 310.75V308.582H428.79V302.65H430.133V310.75H428.94ZM432.233 310.75V302.65H433.425V304.607L433.23 304.352C433.325 304.102 433.448 303.872 433.598 303.662C433.753 303.452 433.925 303.28 434.115 303.145C434.325 302.975 434.563 302.845 434.828 302.755C435.093 302.665 435.363 302.612 435.638 302.597C435.913 302.577 436.17 302.595 436.41 302.65V303.902C436.13 303.827 435.823 303.807 435.488 303.842C435.153 303.877 434.843 304 434.558 304.21C434.298 304.395 434.095 304.62 433.95 304.885C433.81 305.15 433.713 305.437 433.658 305.747C433.603 306.052 433.575 306.365 433.575 306.685V310.75H432.233ZM446.599 310.75V306.692C446.599 306.307 446.564 305.937 446.494 305.582C446.429 305.227 446.311 304.91 446.141 304.63C445.976 304.345 445.751 304.12 445.466 303.955C445.186 303.79 444.831 303.707 444.401 303.707C444.066 303.707 443.761 303.765 443.486 303.88C443.216 303.99 442.984 304.16 442.789 304.39C442.594 304.62 442.441 304.91 442.331 305.26C442.226 305.605 442.174 306.012 442.174 306.482L441.296 306.212C441.296 305.427 441.436 304.755 441.716 304.195C442.001 303.63 442.399 303.197 442.909 302.897C443.424 302.592 444.029 302.44 444.724 302.44C445.249 302.44 445.696 302.522 446.066 302.687C446.436 302.852 446.744 303.072 446.989 303.347C447.234 303.617 447.426 303.922 447.566 304.262C447.706 304.597 447.804 304.94 447.859 305.29C447.919 305.635 447.949 305.962 447.949 306.272V310.75H446.599ZM440.824 310.75V299.95H442.024V305.912H442.174V310.75H440.824ZM453.349 310.975C452.544 310.975 451.849 310.793 451.264 310.427C450.684 310.062 450.236 309.557 449.921 308.912C449.606 308.267 449.449 307.527 449.449 306.692C449.449 305.842 449.609 305.097 449.929 304.457C450.249 303.817 450.701 303.32 451.286 302.965C451.871 302.605 452.559 302.425 453.349 302.425C454.159 302.425 454.856 302.607 455.441 302.972C456.026 303.332 456.474 303.835 456.784 304.48C457.099 305.12 457.256 305.857 457.256 306.692C457.256 307.537 457.099 308.282 456.784 308.927C456.469 309.567 456.019 310.07 455.434 310.435C454.849 310.795 454.154 310.975 453.349 310.975ZM453.349 309.707C454.189 309.707 454.814 309.427 455.224 308.867C455.634 308.307 455.839 307.582 455.839 306.692C455.839 305.777 455.631 305.05 455.216 304.51C454.801 303.965 454.179 303.692 453.349 303.692C452.784 303.692 452.319 303.82 451.954 304.075C451.589 304.33 451.316 304.682 451.136 305.132C450.956 305.582 450.866 306.102 450.866 306.692C450.866 307.602 451.076 308.332 451.496 308.882C451.916 309.432 452.534 309.707 453.349 309.707ZM468.59 310.75L468.597 305.567C468.597 304.962 468.435 304.49 468.11 304.15C467.79 303.805 467.372 303.632 466.857 303.632C466.557 303.632 466.272 303.702 466.002 303.842C465.732 303.977 465.512 304.192 465.342 304.487C465.172 304.777 465.087 305.15 465.087 305.605L464.382 305.32C464.372 304.745 464.49 304.242 464.735 303.812C464.985 303.377 465.325 303.04 465.755 302.8C466.185 302.56 466.67 302.44 467.21 302.44C468.055 302.44 468.72 302.697 469.205 303.213C469.69 303.722 469.932 304.41 469.932 305.275L469.925 310.75H468.59ZM458.9 310.75V302.65H460.092V304.817H460.242V310.75H458.9ZM463.752 310.75L463.76 305.62C463.76 305 463.6 304.515 463.28 304.165C462.96 303.81 462.535 303.632 462.005 303.632C461.48 303.632 461.055 303.812 460.73 304.172C460.405 304.532 460.242 305.01 460.242 305.605L459.537 305.185C459.537 304.66 459.662 304.19 459.912 303.775C460.162 303.36 460.502 303.035 460.932 302.8C461.362 302.56 461.85 302.44 462.395 302.44C462.94 302.44 463.415 302.555 463.82 302.785C464.225 303.015 464.537 303.345 464.757 303.775C464.977 304.2 465.087 304.707 465.087 305.297L465.08 310.75H463.752ZM475.323 310.975C474.528 310.975 473.833 310.8 473.238 310.45C472.648 310.095 472.188 309.602 471.858 308.972C471.528 308.337 471.363 307.597 471.363 306.752C471.363 305.867 471.525 305.102 471.85 304.457C472.175 303.807 472.628 303.307 473.208 302.957C473.793 302.602 474.478 302.425 475.263 302.425C476.078 302.425 476.77 302.612 477.34 302.987C477.915 303.362 478.345 303.897 478.63 304.592C478.92 305.287 479.045 306.115 479.005 307.075H477.655V306.595C477.64 305.6 477.438 304.857 477.048 304.367C476.658 303.872 476.078 303.625 475.308 303.625C474.483 303.625 473.855 303.89 473.425 304.42C472.995 304.95 472.78 305.71 472.78 306.7C472.78 307.655 472.995 308.395 473.425 308.92C473.855 309.445 474.468 309.707 475.263 309.707C475.798 309.707 476.263 309.585 476.658 309.34C477.053 309.095 477.363 308.742 477.588 308.282L478.87 308.725C478.555 309.44 478.08 309.995 477.445 310.39C476.815 310.78 476.108 310.975 475.323 310.975ZM472.33 307.075V306.002H478.315V307.075H472.33Z" fill="#D77842"/>
<path d="M338.156 36.8702C326.856 36.5454 310.775 61.4017 305.502 72.998C269.002 65.9259 257.808 77.6369 255.916 82.6912C254.117 95.9653 272.841 117.493 280.67 124.428C266.27 158.01 271.363 171.124 275.71 173.483C286.937 177.902 312.046 168.351 322.01 163.103C345.379 184.424 359.341 186.832 363.401 185.37C374.745 178.604 373.805 150.169 371.917 136.798C395.973 121.713 403.92 109.03 405.165 103.406C404.735 90.5534 376.255 82.8305 362.319 81.1827C356.434 49.1003 344.491 38.2117 338.156 36.8702Z" fill="#6A8C79" fill-opacity="0.6"/>
<path fill-rule="evenodd" clip-rule="evenodd" d="M238.092 88.0626C226.124 97.0386 218.561 122.277 216.275 133.774C216.226 133.953 216.178 134.134 216.13 134.314L216.067 134.189C210.042 132.874 196.702 131.031 191.55 134.189C191.203 134.397 190.718 135.021 191.965 135.228C192.129 135.256 192.558 135.296 193.19 135.356L193.19 135.356C197.543 135.766 211.502 137.08 214.405 141.254L214.488 141.201C214.084 143.095 213.704 145.037 213.348 147.018C206.963 147.179 194.21 148.483 190.042 152.61C189.752 152.892 189.423 153.609 190.684 153.527C190.85 153.516 191.277 153.457 191.906 153.371C195.758 152.841 207.173 151.27 212.31 153.322C211.977 155.529 211.67 157.771 211.387 160.034C205.538 163.237 195.797 169.591 193.998 174.816C193.863 175.197 193.886 175.986 194.98 175.353C195.124 175.27 195.481 175.028 196.006 174.673C198.595 172.919 205.268 168.397 210.65 166.466C208.12 190.673 208.074 216.138 208.587 229.352C216.691 245.974 251.901 241.695 257.511 240.032C263.121 238.37 264.687 236 265.103 234.13C265.518 232.26 274.245 228.313 277.985 234.13C280.977 238.785 285.05 240.364 286.712 240.572C320.122 245.558 332.631 235.169 334.708 229.352C337.588 212.998 335.737 188.27 332.858 166.854C338.393 168.486 345.914 173.592 348.7 175.483C349.225 175.84 349.582 176.082 349.725 176.165C350.818 176.799 350.837 176.014 350.701 175.635C348.729 169.984 337.426 162.969 331.901 160.102C331.559 157.795 331.208 155.545 330.854 153.37C335.905 151.25 347.513 152.854 351.404 153.392L351.404 153.392L351.405 153.392C352.033 153.479 352.46 153.538 352.626 153.549C353.886 153.633 353.555 152.921 353.265 152.642C349.052 148.506 336.108 147.203 329.785 147.051C329.387 144.787 328.992 142.638 328.607 140.627C332.124 136.822 345.28 135.595 349.483 135.202C350.115 135.144 350.544 135.103 350.708 135.076C351.955 134.871 351.47 134.253 351.124 134.047C346.149 131.027 333.546 132.623 327.257 133.91L327.228 133.774C317.878 94.5037 307.49 86.8159 304.373 88.0626C301.88 89.0599 290.59 100.252 285.257 105.724C273.123 101.568 262.332 103.992 258.454 105.724C245.156 90.9299 239.338 87.7856 238.092 88.0626Z" fill="#A95028"/>
<path d="M216.275 133.774L216.537 133.845L216.54 133.836L216.541 133.827L216.275 133.774ZM238.092 88.0626L238.033 87.7974L237.976 87.8101L237.929 87.8453L238.092 88.0626ZM216.13 134.314L215.887 134.436L216.208 135.078L216.392 134.384L216.13 134.314ZM216.067 134.189L216.31 134.068L216.252 133.952L216.125 133.924L216.067 134.189ZM191.55 134.189L191.689 134.422L191.691 134.421L191.55 134.189ZM191.965 135.228L192.01 134.96H192.01L191.965 135.228ZM193.19 135.356L193.164 135.626L193.165 135.626L193.19 135.356ZM193.19 135.356L193.215 135.085L193.215 135.085L193.19 135.356ZM214.405 141.254L214.182 141.409L214.33 141.622L214.55 141.484L214.405 141.254ZM214.488 141.201L214.754 141.258L214.889 140.627L214.343 140.972L214.488 141.201ZM213.348 147.018L213.355 147.289L213.576 147.284L213.616 147.066L213.348 147.018ZM190.042 152.61L190.231 152.805L190.233 152.803L190.042 152.61ZM190.684 153.527L190.666 153.256H190.666L190.684 153.527ZM191.906 153.371L191.869 153.102H191.869L191.906 153.371ZM212.31 153.322L212.578 153.362L212.61 153.149L212.41 153.07L212.31 153.322ZM211.387 160.034L211.517 160.272L211.639 160.206L211.656 160.068L211.387 160.034ZM193.998 174.816L194.254 174.907L194.255 174.905L193.998 174.816ZM194.98 175.353L194.844 175.118H194.844L194.98 175.353ZM196.006 174.673L195.854 174.448H195.854L196.006 174.673ZM210.65 166.466L210.92 166.494L210.965 166.064L210.558 166.21L210.65 166.466ZM208.587 229.352L208.316 229.362L208.318 229.419L208.343 229.471L208.587 229.352ZM257.511 240.032L257.588 240.293L257.511 240.032ZM265.103 234.13L264.838 234.072L265.103 234.13ZM277.985 234.13L277.757 234.277L277.985 234.13ZM286.712 240.572L286.752 240.303L286.745 240.302L286.712 240.572ZM334.708 229.352L334.964 229.443L334.972 229.421L334.976 229.399L334.708 229.352ZM332.858 166.854L332.934 166.593L332.533 166.475L332.588 166.89L332.858 166.854ZM348.7 175.483L348.853 175.259H348.853L348.7 175.483ZM349.725 176.165L349.862 175.93L349.725 176.165ZM350.701 175.635L350.444 175.725L350.445 175.727L350.701 175.635ZM331.901 160.102L331.633 160.142L331.653 160.279L331.776 160.343L331.901 160.102ZM330.854 153.37L330.749 153.119L330.552 153.202L330.586 153.413L330.854 153.37ZM351.404 153.392L351.449 153.124L351.441 153.123L351.404 153.392ZM351.404 153.392L351.36 153.66L351.369 153.661L351.404 153.392ZM351.405 153.392L351.443 153.123L351.441 153.123L351.405 153.392ZM352.626 153.549L352.607 153.82L352.626 153.549ZM353.265 152.642L353.075 152.836L353.077 152.838L353.265 152.642ZM329.785 147.051L329.518 147.098L329.556 147.317L329.779 147.323L329.785 147.051ZM328.607 140.627L328.408 140.443L328.315 140.544L328.34 140.678L328.607 140.627ZM349.483 135.202L349.458 134.932L349.483 135.202ZM350.708 135.076L350.752 135.344L350.708 135.076ZM351.124 134.047L350.983 134.279L350.985 134.281L351.124 134.047ZM327.257 133.91L326.992 133.966L327.048 134.23L327.312 134.176L327.257 133.91ZM327.228 133.774L327.494 133.717L327.493 133.711L327.228 133.774ZM304.373 88.0626L304.474 88.3148V88.3148L304.373 88.0626ZM285.257 105.724L285.169 105.981L285.332 106.036L285.452 105.913L285.257 105.724ZM258.454 105.724L258.252 105.905L258.384 106.052L258.565 105.972L258.454 105.724ZM216.541 133.827C217.681 128.093 220.139 118.927 223.803 110.077C227.473 101.216 232.333 92.7214 238.255 88.2799L237.929 87.8453C231.883 92.3798 226.977 100.993 223.301 109.869C219.621 118.756 217.154 127.958 216.009 133.721L216.541 133.827ZM216.392 134.384C216.44 134.204 216.489 134.024 216.537 133.845L216.013 133.703C215.964 133.883 215.916 134.063 215.867 134.245L216.392 134.384ZM215.824 134.311L215.887 134.436L216.373 134.193L216.31 134.068L215.824 134.311ZM191.691 134.421C192.931 133.661 194.686 133.191 196.74 132.942C198.789 132.693 201.111 132.668 203.468 132.783C208.182 133.012 213.008 133.799 216.009 134.455L216.125 133.924C213.101 133.264 208.245 132.472 203.494 132.24C201.119 132.125 198.764 132.149 196.674 132.402C194.589 132.655 192.744 133.138 191.408 133.958L191.691 134.421ZM192.01 134.96C191.716 134.911 191.561 134.843 191.486 134.788C191.451 134.763 191.439 134.744 191.435 134.737C191.432 134.731 191.431 134.727 191.431 134.72C191.432 134.699 191.447 134.651 191.503 134.583C191.556 134.518 191.627 134.46 191.689 134.422L191.41 133.957C191.299 134.023 191.179 134.121 191.083 134.238C190.99 134.351 190.896 134.511 190.888 134.698C190.88 134.906 190.979 135.091 191.165 135.227C191.339 135.354 191.591 135.441 191.92 135.496L192.01 134.96ZM193.215 135.085C192.576 135.025 192.161 134.986 192.01 134.96L191.92 135.496C192.097 135.526 192.541 135.567 193.164 135.626L193.215 135.085ZM193.215 135.085L193.215 135.085L193.165 135.626L193.165 135.626L193.215 135.085ZM214.628 141.099C213.855 139.987 212.375 139.098 210.579 138.377C208.772 137.652 206.602 137.08 204.396 136.627C199.983 135.722 195.391 135.29 193.215 135.085L193.164 135.626C195.342 135.831 199.906 136.261 204.287 137.16C206.477 137.609 208.613 138.173 210.376 138.881C212.15 139.593 213.504 140.434 214.182 141.409L214.628 141.099ZM214.343 140.972L214.26 141.024L214.55 141.484L214.633 141.431L214.343 140.972ZM213.616 147.066C213.971 145.088 214.35 143.149 214.754 141.258L214.223 141.145C213.818 143.042 213.438 144.986 213.081 146.969L213.616 147.066ZM190.233 152.803C191.236 151.811 192.773 150.972 194.64 150.272C196.502 149.574 198.67 149.023 200.915 148.593C205.404 147.735 210.173 147.369 213.355 147.289L213.341 146.746C210.138 146.827 205.338 147.194 200.813 148.06C198.55 148.493 196.35 149.051 194.449 149.764C192.552 150.474 190.933 151.346 189.851 152.417L190.233 152.803ZM190.666 153.256C190.369 153.275 190.202 153.244 190.117 153.208C190.077 153.191 190.061 153.176 190.056 153.17C190.051 153.165 190.05 153.161 190.048 153.154C190.044 153.134 190.048 153.083 190.087 153.004C190.124 152.929 190.179 152.856 190.231 152.805L189.853 152.416C189.76 152.506 189.666 152.628 189.599 152.764C189.534 152.896 189.48 153.072 189.515 153.256C189.554 153.461 189.693 153.618 189.905 153.708C190.103 153.792 190.368 153.82 190.702 153.798L190.666 153.256ZM191.869 153.102C191.232 153.189 190.82 153.246 190.666 153.256L190.702 153.798C190.881 153.786 191.322 153.725 191.943 153.64L191.869 153.102ZM212.41 153.07C209.78 152.019 205.587 151.905 201.612 152.107C197.622 152.31 193.795 152.837 191.869 153.102L191.943 153.64C193.869 153.375 197.676 152.851 201.64 152.65C205.62 152.447 209.702 152.573 212.209 153.574L212.41 153.07ZM211.656 160.068C211.939 157.807 212.246 155.567 212.578 153.362L212.041 153.281C211.708 155.491 211.401 157.735 211.117 160L211.656 160.068ZM194.255 174.905C194.688 173.648 195.606 172.304 196.853 170.935C198.096 169.57 199.653 168.196 201.341 166.881C204.717 164.251 208.601 161.869 211.517 160.272L211.256 159.796C208.323 161.402 204.413 163.799 201.007 166.452C199.304 167.779 197.722 169.174 196.451 170.569C195.182 171.962 194.209 173.371 193.742 174.728L194.255 174.905ZM194.844 175.118C194.586 175.267 194.423 175.313 194.33 175.319C194.287 175.321 194.266 175.314 194.258 175.311C194.252 175.309 194.249 175.306 194.245 175.301C194.232 175.284 194.213 175.238 194.213 175.149C194.212 175.065 194.23 174.976 194.254 174.907L193.742 174.725C193.699 174.847 193.669 174.999 193.669 175.15C193.669 175.297 193.699 175.479 193.812 175.629C193.937 175.795 194.132 175.875 194.362 175.861C194.577 175.848 194.826 175.756 195.116 175.589L194.844 175.118ZM195.854 174.448C195.322 174.808 194.977 175.041 194.844 175.118L195.116 175.589C195.271 175.499 195.64 175.249 196.158 174.897L195.854 174.448ZM210.558 166.21C205.137 168.155 198.435 172.699 195.854 174.448L196.158 174.897C198.754 173.139 205.398 168.639 210.742 166.722L210.558 166.21ZM208.859 229.341C208.345 216.137 208.392 190.685 210.92 166.494L210.38 166.438C207.849 190.66 207.802 216.139 208.316 229.362L208.859 229.341ZM257.434 239.772C254.666 240.592 244.495 242.076 234.005 241.278C228.762 240.879 223.458 239.911 218.967 238.016C214.477 236.122 210.819 233.31 208.831 229.233L208.343 229.471C210.407 233.704 214.19 236.591 218.756 238.517C223.321 240.443 228.689 241.418 233.964 241.82C244.507 242.622 254.746 241.135 257.588 240.293L257.434 239.772ZM264.838 234.072C264.642 234.954 264.174 235.963 263.073 236.958C261.967 237.956 260.214 238.948 257.434 239.772L257.588 240.293C260.418 239.454 262.253 238.43 263.437 237.361C264.625 236.287 265.149 235.177 265.368 234.189L264.838 234.072ZM278.214 233.984C276.261 230.946 273.008 230.476 270.248 230.98C268.867 231.233 267.591 231.731 266.629 232.288C266.148 232.567 265.739 232.865 265.434 233.159C265.135 233.448 264.907 233.76 264.838 234.072L265.368 234.189C265.403 234.034 265.538 233.813 265.811 233.55C266.077 233.294 266.447 233.022 266.901 232.758C267.809 232.232 269.026 231.756 270.346 231.515C272.989 231.032 275.97 231.498 277.757 234.277L278.214 233.984ZM286.745 240.302C285.162 240.104 281.162 238.569 278.214 233.984L277.757 234.277C280.793 239 284.937 240.623 286.678 240.841L286.745 240.302ZM334.453 229.26C333.45 232.067 329.885 236.073 322.369 238.757C314.859 241.439 303.427 242.792 286.752 240.303L286.672 240.84C303.407 243.338 314.934 241.989 322.551 239.269C330.161 236.551 333.889 232.454 334.964 229.443L334.453 229.26ZM332.588 166.89C335.468 188.306 337.313 212.996 334.441 229.304L334.976 229.399C337.864 212.999 336.007 188.234 333.127 166.818L332.588 166.89ZM348.853 175.259C347.459 174.313 344.876 172.559 341.947 170.837C339.023 169.118 335.735 167.419 332.934 166.593L332.781 167.114C335.515 167.921 338.756 169.591 341.672 171.306C344.584 173.018 347.155 174.763 348.547 175.708L348.853 175.259ZM349.862 175.93C349.729 175.853 349.384 175.619 348.853 175.259L348.547 175.708C349.066 176.06 349.434 176.31 349.589 176.4L349.862 175.93ZM350.445 175.727C350.47 175.796 350.488 175.885 350.488 175.968C350.488 176.056 350.469 176.101 350.457 176.116C350.454 176.121 350.451 176.123 350.446 176.125C350.439 176.128 350.418 176.135 350.375 176.132C350.283 176.126 350.119 176.08 349.862 175.93L349.589 176.4C349.878 176.568 350.127 176.661 350.341 176.674C350.57 176.689 350.765 176.61 350.891 176.444C351.003 176.295 351.032 176.113 351.031 175.966C351.031 175.816 351 175.665 350.956 175.543L350.445 175.727ZM331.776 160.343C334.528 161.771 338.722 164.234 342.471 167.042C344.345 168.446 346.102 169.932 347.512 171.415C348.924 172.9 349.97 174.365 350.444 175.725L350.957 175.546C350.446 174.08 349.339 172.549 347.905 171.04C346.468 169.528 344.685 168.022 342.796 166.607C339.019 163.778 334.799 161.299 332.027 159.86L331.776 160.343ZM330.586 153.413C330.939 155.588 331.29 157.836 331.633 160.142L332.17 160.062C331.827 157.754 331.476 155.503 331.122 153.326L330.586 153.413ZM351.441 153.123C349.496 152.854 345.61 152.317 341.578 152.113C339.561 152.011 337.503 151.992 335.628 152.132C333.758 152.272 332.051 152.572 330.749 153.119L330.959 153.62C332.182 153.107 333.821 152.813 335.669 152.674C337.513 152.536 339.547 152.554 341.55 152.656C345.557 152.858 349.421 153.392 351.367 153.661L351.441 153.123ZM351.449 153.124L351.449 153.124L351.36 153.66L351.36 153.66L351.449 153.124ZM351.441 153.123L351.44 153.123L351.369 153.661L351.37 153.662L351.441 153.123ZM352.644 153.278C352.49 153.268 352.078 153.211 351.443 153.123L351.368 153.661C351.988 153.747 352.429 153.808 352.607 153.82L352.644 153.278ZM353.077 152.838C353.129 152.888 353.185 152.96 353.222 153.034C353.261 153.113 353.264 153.162 353.26 153.181C353.259 153.187 353.258 153.19 353.254 153.194C353.249 153.2 353.233 153.215 353.193 153.232C353.108 153.267 352.941 153.298 352.644 153.278L352.607 153.82C352.941 153.842 353.205 153.816 353.403 153.733C353.615 153.644 353.755 153.487 353.794 153.283C353.829 153.099 353.773 152.923 353.708 152.792C353.641 152.657 353.546 152.536 353.454 152.446L353.077 152.838ZM329.779 147.323C332.929 147.399 337.731 147.761 342.266 148.62C344.533 149.049 346.728 149.601 348.614 150.3C350.504 151 352.061 151.841 353.075 152.836L353.455 152.448C352.362 151.375 350.722 150.502 348.802 149.79C346.879 149.077 344.652 148.518 342.367 148.086C337.796 147.221 332.964 146.856 329.792 146.78L329.779 147.323ZM328.34 140.678C328.725 142.688 329.12 144.836 329.518 147.098L330.053 147.004C329.654 144.739 329.259 142.589 328.874 140.576L328.34 140.678ZM349.458 134.932C347.357 135.128 343.005 135.534 338.736 136.368C336.602 136.786 334.481 137.311 332.669 137.974C330.864 138.635 329.332 139.443 328.408 140.443L328.807 140.812C329.641 139.909 331.073 139.137 332.855 138.485C334.63 137.835 336.72 137.316 338.84 136.902C343.079 136.073 347.407 135.669 349.508 135.473L349.458 134.932ZM350.664 134.808C350.512 134.833 350.097 134.872 349.458 134.932L349.508 135.473C350.132 135.415 350.576 135.374 350.752 135.344L350.664 134.808ZM350.985 134.281C351.047 134.318 351.118 134.375 351.171 134.439C351.227 134.507 351.241 134.554 351.242 134.573C351.242 134.579 351.241 134.582 351.239 134.587C351.235 134.594 351.224 134.612 351.188 134.638C351.113 134.692 350.958 134.76 350.664 134.808L350.752 135.344C351.082 135.29 351.333 135.203 351.507 135.078C351.693 134.943 351.793 134.758 351.785 134.55C351.777 134.364 351.682 134.205 351.589 134.092C351.493 133.976 351.373 133.879 351.262 133.814L350.985 134.281ZM327.312 134.176C330.446 133.535 335.154 132.816 339.694 132.635C341.964 132.544 344.186 132.587 346.145 132.84C348.109 133.093 349.786 133.553 350.983 134.279L351.265 133.815C349.974 133.031 348.21 132.558 346.215 132.301C344.215 132.043 341.961 132 339.672 132.092C335.095 132.275 330.357 132.998 327.203 133.644L327.312 134.176ZM326.963 133.83L326.992 133.966L327.523 133.853L327.494 133.717L326.963 133.83ZM304.474 88.3148C305.118 88.0573 306.246 88.2323 307.782 89.3747C309.303 90.5063 311.165 92.5472 313.233 95.868C317.366 102.508 322.293 114.216 326.964 133.837L327.493 133.711C322.814 114.062 317.871 102.291 313.694 95.5808C311.606 92.2267 309.701 90.1251 308.106 88.9387C306.525 87.7631 305.187 87.4445 304.272 87.8104L304.474 88.3148ZM285.452 105.913C288.117 103.179 292.27 99.0159 296.067 95.4124C297.966 93.6104 299.774 91.9506 301.261 90.68C302.004 90.0446 302.665 89.5087 303.216 89.1019C303.772 88.6905 304.197 88.4254 304.474 88.3148L304.272 87.8104C303.925 87.9491 303.452 88.252 302.893 88.6649C302.328 89.0824 301.656 89.6273 300.908 90.2669C299.41 91.5464 297.595 93.2136 295.693 95.0183C291.889 98.6281 287.731 102.797 285.063 105.534L285.452 105.913ZM258.565 105.972C262.388 104.265 273.107 101.85 285.169 105.981L285.345 105.467C273.139 101.287 262.277 103.719 258.343 105.476L258.565 105.972ZM238.151 88.3278C238.241 88.3078 238.415 88.3124 238.703 88.3961C238.985 88.4777 239.349 88.6273 239.803 88.8655C240.711 89.3417 241.956 90.16 243.585 91.4543C246.841 94.0421 251.609 98.5146 258.252 105.905L258.656 105.542C252.002 98.139 247.211 93.6425 243.923 91.0289C242.279 89.7225 241.004 88.8821 240.055 88.3843C239.581 88.1356 239.182 87.9693 238.855 87.8743C238.534 87.7812 238.255 87.7481 238.033 87.7974L238.151 88.3278Z" fill="#A95028"/>
<ellipse cx="239.642" cy="140.922" rx="4.15556" ry="6.44112" fill="white"/>
<ellipse cx="304.469" cy="140.922" rx="4.15556" ry="6.44112" fill="white"/>
<path d="M271.224 134.481C262.747 134.814 260.073 138.498 259.796 140.299C259.796 143.416 263.329 142.585 264.783 141.961C266.238 141.338 267.069 141.546 268.315 143.416C269.562 145.286 269.77 148.195 272.055 148.195C274.341 148.195 275.172 145.701 275.588 143.416C275.92 141.587 278.219 141.684 279.328 141.961C283.151 143.624 284.314 141.546 284.106 140.299C283.483 138.014 279.702 134.149 271.224 134.481Z" fill="white"/>
<path d="M271.848 160.246C265.182 160.955 257.713 176.838 255.539 184.071C233.529 182.823 227.884 190.594 227.175 193.714C227.175 201.656 239.892 212.812 245.044 216.263C239.258 237.139 243.295 244.437 246.037 245.477C252.986 247.179 266.979 239.568 272.415 235.692C287.844 246.357 296.24 246.659 298.509 245.477C304.636 240.599 301.818 223.969 299.644 216.263C312.577 205.485 316.236 197.402 316.52 193.998C315.243 186.482 297.895 184.213 289.575 184.354C283.562 165.975 275.677 160.529 271.848 160.246Z" fill="white"/>
<path d="M268.844 229.667C265.167 240.448 248.901 241.934 243.038 241.72L226.76 211.172C241.684 211.957 272.522 218.886 268.844 229.667Z" fill="#A95028" stroke="#A95028" stroke-width="0.543306"/>
<path d="M277.377 228.807C281.226 239.587 294.8 242.075 300.936 241.861L319.429 212.98C303.808 213.764 273.527 218.027 277.377 228.807Z" fill="#A95028" stroke="#A95028" stroke-width="0.543306"/>
<defs>
<linearGradient id="paint0_linear_2268_2949" x1="359.148" y1="189.671" x2="413.252" y2="193.599" gradientUnits="userSpaceOnUse">
<stop stop-color="#EDB586"/>
<stop offset="1" stop-color="#A95028"/>
</linearGradient>
<linearGradient id="paint1_linear_2268_2949" x1="321.53" y1="184.766" x2="386.667" y2="189.873" gradientUnits="userSpaceOnUse">
<stop stop-color="#EDB586"/>
<stop offset="1" stop-color="#A95028"/>
</linearGradient>
<linearGradient id="paint2_linear_2268_2949" x1="329.901" y1="205.463" x2="359.343" y2="217.309" gradientUnits="userSpaceOnUse">
<stop stop-color="#EDB586"/>
<stop offset="1" stop-color="#A95028"/>
</linearGradient>
<linearGradient id="paint3_linear_2268_2949" x1="328.053" y1="207.948" x2="346.791" y2="208.517" gradientUnits="userSpaceOnUse">
<stop stop-color="#EDB586"/>
<stop offset="1" stop-color="#A95028"/>
</linearGradient>
<linearGradient id="paint4_linear_2268_2949" x1="249.473" y1="182.961" x2="343.832" y2="194.066" gradientUnits="userSpaceOnUse">
<stop stop-color="#EDB586"/>
<stop offset="1" stop-color="#A95028"/>
</linearGradient>
<linearGradient id="paint5_linear_2268_2949" x1="182.703" y1="190.493" x2="237.563" y2="202.104" gradientUnits="userSpaceOnUse">
<stop stop-color="#EDB586"/>
<stop offset="1" stop-color="#A95028"/>
</linearGradient>
<linearGradient id="paint6_linear_2268_2949" x1="238.324" y1="199.299" x2="289.082" y2="207.125" gradientUnits="userSpaceOnUse">
<stop stop-color="#EDB586"/>
<stop offset="1" stop-color="#A95028"/>
</linearGradient>
<linearGradient id="paint7_linear_2268_2949" x1="143.97" y1="184.792" x2="204.641" y2="189.095" gradientUnits="userSpaceOnUse">
<stop stop-color="#EDB586"/>
<stop offset="1" stop-color="#A95028"/>
</linearGradient>
<linearGradient id="paint8_linear_2268_2949" x1="114.681" y1="185.366" x2="172.83" y2="189.587" gradientUnits="userSpaceOnUse">
<stop stop-color="#EDB586"/>
<stop offset="1" stop-color="#A95028"/>
</linearGradient>
<linearGradient id="paint9_linear_2268_2949" x1="169.054" y1="183.918" x2="304.308" y2="204.437" gradientUnits="userSpaceOnUse">
<stop stop-color="#EDB586"/>
<stop offset="1" stop-color="#A95028"/>
</linearGradient>
<linearGradient id="paint10_linear_2268_2949" x1="169.054" y1="183.918" x2="304.308" y2="204.437" gradientUnits="userSpaceOnUse">
<stop stop-color="#EDB586"/>
<stop offset="1" stop-color="#A95028"/>
</linearGradient>
</defs>
</svg>
