<svg xmlns="http://www.w3.org/2000/svg" fill="none" viewBox="-1.55 24.25 150.78 177.14">
<mask id="path-1-inside-1_1196_2176" fill="white">
<path fill-rule="evenodd" clip-rule="evenodd" d="M73.3931 179.238C108.537 181.372 138.129 173.836 140.071 141.852C142.013 109.868 115.097 82.211 79.9532 80.0773C44.8091 77.9436 14.745 102.142 12.8032 134.125C11.091 162.328 32.183 174.211 61.2889 178.09L60.8458 182.462L11.5656 177.469L10.4899 188.085L59.7701 193.079L59.77 193.079L66.4748 193.758L66.4748 193.758L121.957 199.38L123.032 188.763L67.5506 183.142L67.9872 178.832C69.7663 178.993 71.5693 179.127 73.3931 179.238Z"/>
</mask>
<path d="M140.071 141.852L138.237 141.741L138.237 141.741L140.071 141.852ZM73.3931 179.238L73.2818 181.072L73.2818 181.072L73.3931 179.238ZM79.9532 80.0773L80.0645 78.2432L80.0645 78.2432L79.9532 80.0773ZM12.8032 134.125L14.6373 134.237L12.8032 134.125ZM61.2889 178.09L63.117 178.275L63.2965 176.503L61.5316 176.268L61.2889 178.09ZM60.8458 182.462L60.6606 184.29L62.4887 184.476L62.6739 182.647L60.8458 182.462ZM11.5656 177.469L11.7508 175.641L9.92273 175.455L9.73748 177.283L11.5656 177.469ZM10.4899 188.085L8.66173 187.9L8.47649 189.728L10.3046 189.913L10.4899 188.085ZM59.7701 193.079L61.595 193.293L61.8131 191.439L59.9553 191.25L59.7701 193.079ZM59.77 193.079L57.9451 192.864L57.727 194.719L59.5848 194.907L59.77 193.079ZM66.4748 193.758L66.2896 195.586L68.0884 195.769L68.2997 193.973L66.4748 193.758ZM66.4748 193.758L66.6601 191.93L64.8612 191.748L64.6499 193.543L66.4748 193.758ZM121.957 199.38L121.771 201.208L123.6 201.393L123.785 199.565L121.957 199.38ZM123.032 188.763L124.861 188.949L125.046 187.121L123.218 186.935L123.032 188.763ZM67.5506 183.142L65.7225 182.956L65.5372 184.784L67.3653 184.97L67.5506 183.142ZM67.9872 178.832L68.152 177.002L66.3423 176.839L66.1591 178.647L67.9872 178.832ZM138.237 141.741C137.769 149.45 135.644 155.582 132.267 160.438C128.888 165.296 124.184 168.978 118.406 171.674C106.79 177.094 90.9767 178.465 73.5045 177.404L73.2818 181.072C90.9537 182.145 107.508 180.814 119.96 175.004C126.216 172.085 131.471 168.019 135.284 162.536C139.1 157.05 141.402 150.246 141.905 141.963L138.237 141.741ZM79.8418 81.9114C114.139 83.9937 140.108 110.929 138.237 141.741L141.905 141.963C143.918 108.808 116.055 80.4283 80.0645 78.2432L79.8418 81.9114ZM14.6373 134.237C16.508 103.425 45.5442 79.8291 79.8418 81.9114L80.0645 78.2432C44.074 76.0581 12.9821 100.859 10.9691 134.014L14.6373 134.237ZM61.5316 176.268C47.1125 174.347 34.954 170.47 26.6395 163.796C18.4369 157.212 13.815 147.781 14.6373 134.237L10.9691 134.014C10.0793 148.671 15.1472 159.284 24.3391 166.662C33.419 173.95 46.3594 177.954 61.0462 179.911L61.5316 176.268ZM59.4608 177.904L59.0177 182.277L62.6739 182.647L63.117 178.275L59.4608 177.904ZM61.031 180.634L11.7508 175.641L11.3804 179.297L60.6606 184.29L61.031 180.634ZM9.73748 177.283L8.66173 187.9L12.318 188.27L13.3937 177.654L9.73748 177.283ZM10.3046 189.913L59.5848 194.907L59.9553 191.25L10.6751 186.257L10.3046 189.913ZM57.9452 192.864L57.9451 192.864L61.5949 193.293L61.595 193.293L57.9452 192.864ZM59.5848 194.907L66.2896 195.586L66.6601 191.93L59.9553 191.251L59.5848 194.907ZM68.2997 193.973L68.2997 193.973L64.6499 193.543L64.6499 193.543L68.2997 193.973ZM66.2896 195.586L121.771 201.208L122.142 197.552L66.6601 191.93L66.2896 195.586ZM123.785 199.565L124.861 188.949L121.204 188.578L120.129 199.195L123.785 199.565ZM123.218 186.935L67.7358 181.313L67.3653 184.97L122.847 190.592L123.218 186.935ZM69.3787 183.327L69.8153 179.018L66.1591 178.647L65.7225 182.956L69.3787 183.327ZM73.5045 177.404C71.6974 177.294 69.9122 177.161 68.152 177.002L67.8224 180.663C69.6203 180.824 71.4412 180.96 73.2818 181.072L73.5045 177.404Z" fill="white" mask="url(#path-1-inside-1_1196_2176)"/>
<mask id="path-3-inside-2_1196_2176" fill="white">
<path fill-rule="evenodd" clip-rule="evenodd" d="M51.941 63.4356L2.44856 89.8501L14.1026 95.679L66.4869 67.3881L131.928 85.1704L143.383 78.0894L79.6562 60.2759L134.096 30.8749L121.597 26.2598L65.3527 56.2776L15.0641 42.2204L10.7608 52.2457L51.941 63.4356Z"/>
</mask>
<path d="M2.44856 89.8501L1.58339 88.229L-1.5532 89.9031L1.6266 91.4935L2.44856 89.8501ZM51.941 63.4356L52.8062 65.0566L56.891 62.8765L52.4228 61.6624L51.941 63.4356ZM14.1026 95.679L13.2806 97.3224L14.1351 97.7498L14.9758 97.2958L14.1026 95.679ZM66.4869 67.3881L66.9687 65.6149L66.26 65.4224L65.6137 65.7714L66.4869 67.3881ZM131.928 85.1704L131.446 86.9436L132.216 87.1528L132.894 86.7334L131.928 85.1704ZM143.383 78.0894L144.349 79.6523L147.914 77.4482L143.877 76.3197L143.383 78.0894ZM79.6562 60.2759L78.783 58.6591L74.7803 60.8208L79.1615 62.0455L79.6562 60.2759ZM134.096 30.8749L134.969 32.4917L138.547 30.5595L134.732 29.1512L134.096 30.8749ZM121.597 26.2598L122.233 24.5361L121.459 24.2503L120.731 24.6387L121.597 26.2598ZM65.3527 56.2776L64.858 58.0473L65.5677 58.2457L66.2179 57.8987L65.3527 56.2776ZM15.0641 42.2204L15.5587 40.4508L14.0099 40.0179L13.3756 41.4957L15.0641 42.2204ZM10.7608 52.2457L9.07231 51.5209L8.23812 53.4643L10.279 54.0189L10.7608 52.2457ZM3.31373 91.4711L52.8062 65.0566L51.0758 61.8145L1.58339 88.229L3.31373 91.4711ZM14.9246 94.0356L3.27052 88.2067L1.6266 91.4935L13.2806 97.3224L14.9246 94.0356ZM65.6137 65.7714L13.2294 94.0622L14.9758 97.2958L67.36 69.0049L65.6137 65.7714ZM132.41 83.3973L66.9687 65.6149L66.0051 69.1613L131.446 86.9436L132.41 83.3973ZM142.417 76.5264L130.962 83.6075L132.894 86.7334L144.349 79.6523L142.417 76.5264ZM79.1615 62.0455L142.888 79.859L143.877 76.3197L80.1508 58.5062L79.1615 62.0455ZM133.223 29.2582L78.783 58.6591L80.5293 61.8927L134.969 32.4917L133.223 29.2582ZM120.96 27.9835L133.459 32.5987L134.732 29.1512L122.233 24.5361L120.96 27.9835ZM66.2179 57.8987L122.462 27.8808L120.731 24.6387L64.4875 54.6566L66.2179 57.8987ZM14.5694 43.9901L64.858 58.0473L65.8474 54.508L15.5587 40.4508L14.5694 43.9901ZM12.4493 52.9705L16.7526 42.9452L13.3756 41.4957L9.07231 51.5209L12.4493 52.9705ZM52.4228 61.6624L11.2426 50.4725L10.279 54.0189L51.4592 65.2088L52.4228 61.6624Z" fill="white" mask="url(#path-3-inside-2_1196_2176)"/>
<circle cx="73.7249" cy="126.262" r="3.11683" transform="rotate(-9.51525 73.7249 126.262)" fill="white"/>
<circle cx="106.295" cy="123.877" r="3.11683" transform="rotate(-9.51525 106.295 123.877)" fill="white"/>
<path d="M85.1335 131.097C82.2542 131.58 83.6952 135.762 84.7756 137.792L84.7756 137.792C85.1357 138.469 85.856 139.823 86.696 140.419C88.0241 141.362 90.7758 142.684 94.8544 140.526C98.9329 138.368 97.9713 132.631 97.0111 131.318C96.0509 130.005 88.7326 130.494 85.1335 131.097Z" stroke="white" stroke-width="1.92297"/>
<path d="M52.3046 181.721L52.6892 178.452L61.5349 179.413" stroke="white" stroke-width="1.92297"/>
<path d="M67.3038 179.99L95.7638 182.682L96.1484 178.452" stroke="white" stroke-width="1.92297"/>
<path d="M100.187 178.067L99.802 182.874L148.261 187.682L147.492 194.605L121.724 192.297" stroke="white" stroke-width="1.92297"/>
</svg>