<svg width="384" height="168" viewBox="0 0 384 168" fill="none" xmlns="http://www.w3.org/2000/svg" xmlns:xlink="http://www.w3.org/1999/xlink">
<a xlink:href="/projects/pinterest/#competitive-analysis">
<rect x="173" width="105.106" height="70.0704" rx="10" fill="#BD081C"/>
<path d="M190.061 30.2454C189.052 30.2454 188.188 30.0258 187.468 29.5867C186.749 29.1429 186.195 28.5263 185.808 27.7368C185.424 26.9474 185.233 26.0318 185.233 24.9901C185.233 23.9484 185.424 23.0328 185.808 22.2433C186.195 21.4539 186.749 20.8396 187.468 20.4005C188.188 19.9567 189.052 19.7348 190.061 19.7348C191.224 19.7348 192.193 20.0268 192.969 20.6107C193.744 21.1899 194.288 21.9724 194.601 22.958L192.899 23.4275C192.702 22.7689 192.368 22.255 191.897 21.886C191.425 21.5123 190.813 21.3254 190.061 21.3254C189.383 21.3254 188.818 21.4772 188.365 21.7809C187.917 22.0845 187.578 22.5119 187.349 23.0631C187.125 23.6097 187.01 24.252 187.006 24.9901C187.006 25.7282 187.118 26.3728 187.342 26.924C187.571 27.4706 187.912 27.8957 188.365 28.1993C188.818 28.5029 189.383 28.6548 190.061 28.6548C190.813 28.6548 191.425 28.4679 191.897 28.0942C192.368 27.7205 192.702 27.2066 192.899 26.5527L194.601 27.0221C194.288 28.0078 193.744 28.7926 192.969 29.3765C192.193 29.9557 191.224 30.2454 190.061 30.2454ZM199.174 30.2454C198.417 30.2454 197.756 30.0749 197.191 29.7339C196.626 29.3928 196.187 28.9234 195.874 28.3254C195.565 27.7228 195.411 27.0315 195.411 26.2514C195.411 25.4572 195.57 24.7612 195.888 24.1633C196.205 23.5653 196.647 23.0982 197.212 22.7618C197.777 22.4255 198.431 22.2573 199.174 22.2573C199.935 22.2573 200.599 22.4278 201.164 22.7689C201.729 23.1099 202.168 23.5817 202.481 24.1843C202.794 24.7822 202.951 25.4712 202.951 26.2514C202.951 27.0361 202.792 27.7298 202.474 28.3324C202.161 28.9304 201.722 29.3999 201.157 29.7409C200.592 30.0772 199.931 30.2454 199.174 30.2454ZM199.174 28.6618C199.847 28.6618 200.346 28.4376 200.673 27.9891C201 27.5406 201.164 26.9614 201.164 26.2514C201.164 25.5179 200.998 24.934 200.666 24.4996C200.335 24.0605 199.837 23.8409 199.174 23.8409C198.721 23.8409 198.347 23.9437 198.053 24.1492C197.763 24.3501 197.548 24.6327 197.408 24.9971C197.268 25.3568 197.198 25.7749 197.198 26.2514C197.198 26.9848 197.364 27.571 197.695 28.0101C198.032 28.4446 198.525 28.6618 199.174 28.6618ZM213.274 30.0352V25.4385C213.274 24.92 213.146 24.5159 212.889 24.2263C212.632 23.932 212.284 23.7849 211.845 23.7849C211.574 23.7849 211.331 23.8479 211.116 23.9741C210.901 24.0955 210.731 24.2777 210.605 24.5206C210.479 24.7589 210.416 25.0438 210.416 25.3755L209.666 24.934C209.661 24.4108 209.778 23.9507 210.016 23.5536C210.259 23.1519 210.586 22.8389 210.997 22.6147C211.408 22.3905 211.866 22.2784 212.37 22.2784C213.207 22.2784 213.847 22.5306 214.29 23.0351C214.739 23.535 214.963 24.1936 214.963 25.0111V30.0352H213.274ZM204.172 30.0352V22.4676H205.665V24.8149H205.875V30.0352H204.172ZM208.734 30.0352V25.4596C208.734 24.9317 208.605 24.5206 208.348 24.2263C208.091 23.932 207.741 23.7849 207.297 23.7849C206.868 23.7849 206.522 23.932 206.26 24.2263C206.003 24.5206 205.875 24.9037 205.875 25.3755L205.118 24.871C205.118 24.3805 205.24 23.939 205.483 23.5466C205.725 23.1542 206.052 22.8459 206.464 22.6217C206.879 22.3928 207.344 22.2784 207.858 22.2784C208.423 22.2784 208.895 22.3998 209.273 22.6427C209.656 22.881 209.941 23.208 210.128 23.6237C210.32 24.0348 210.416 24.4996 210.416 25.0181V30.0352H208.734ZM220.119 30.2454C219.381 30.2454 218.762 30.0702 218.262 29.7198C217.762 29.3695 217.386 28.893 217.134 28.2904C216.882 27.6831 216.756 27.0034 216.756 26.2514C216.756 25.4899 216.882 24.8079 217.134 24.2053C217.386 23.6027 217.755 23.1285 218.241 22.7829C218.732 22.4325 219.337 22.2573 220.056 22.2573C220.771 22.2573 221.39 22.4325 221.913 22.7829C222.441 23.1285 222.849 23.6027 223.139 24.2053C223.429 24.8032 223.574 25.4853 223.574 26.2514C223.574 27.0081 223.431 27.6878 223.146 28.2904C222.861 28.893 222.459 29.3695 221.941 29.7198C221.422 30.0702 220.815 30.2454 220.119 30.2454ZM216.468 33.3985V22.4676H217.961V27.7789H218.171V33.3985H216.468ZM219.86 28.7318C220.299 28.7318 220.661 28.6221 220.946 28.4025C221.231 28.183 221.441 27.8863 221.577 27.5126C221.717 27.1342 221.787 26.7138 221.787 26.2514C221.787 25.7936 221.717 25.3778 221.577 25.0041C221.436 24.6257 221.219 24.3268 220.925 24.1072C220.631 23.883 220.257 23.7709 219.804 23.7709C219.374 23.7709 219.024 23.876 218.753 24.0862C218.482 24.2917 218.281 24.5813 218.15 24.9551C218.024 25.3241 217.961 25.7562 217.961 26.2514C217.961 26.7418 218.024 27.1739 218.15 27.5477C218.281 27.9214 218.484 28.2133 218.76 28.4235C219.04 28.6291 219.407 28.7318 219.86 28.7318ZM228.25 30.2454C227.484 30.2454 226.811 30.0795 226.232 29.7479C225.653 29.4162 225.2 28.9561 224.873 28.3675C224.55 27.7789 224.389 27.1015 224.389 26.3354C224.389 25.5086 224.548 24.7916 224.866 24.1843C225.183 23.5723 225.625 23.0982 226.19 22.7618C226.755 22.4255 227.409 22.2573 228.152 22.2573C228.937 22.2573 229.603 22.4419 230.149 22.8109C230.7 23.1753 231.109 23.6914 231.375 24.3595C231.642 25.0275 231.742 25.8146 231.677 26.7208H230.002V26.1042C229.997 25.282 229.852 24.6818 229.567 24.3034C229.283 23.925 228.834 23.7358 228.222 23.7358C227.531 23.7358 227.017 23.9507 226.681 24.3805C226.344 24.8056 226.176 25.4292 226.176 26.2514C226.176 27.0175 226.344 27.6107 226.681 28.0311C227.017 28.4516 227.507 28.6618 228.152 28.6618C228.568 28.6618 228.925 28.5707 229.224 28.3885C229.528 28.2016 229.761 27.933 229.925 27.5827L231.593 28.0872C231.303 28.7692 230.854 29.2994 230.247 29.6778C229.645 30.0562 228.979 30.2454 228.25 30.2454ZM225.644 26.7208V25.4455H230.85V26.7208H225.644ZM237.367 30.0352C236.867 30.1286 236.377 30.1683 235.896 30.1543C235.419 30.1449 234.992 30.0585 234.613 29.895C234.235 29.7268 233.948 29.4629 233.752 29.1032C233.579 28.7762 233.488 28.4422 233.478 28.1012C233.469 27.7602 233.464 27.3748 233.464 26.9451V20.3654H235.146V26.847C235.146 27.1506 235.148 27.4169 235.153 27.6458C235.162 27.8747 235.211 28.0615 235.3 28.2063C235.468 28.4866 235.737 28.6431 236.106 28.6758C236.475 28.7085 236.895 28.6898 237.367 28.6197V30.0352ZM232.091 23.7919V22.4676H237.367V23.7919H232.091ZM238.826 21.3184V19.7698H240.515V21.3184H238.826ZM238.826 30.0352V22.4676H240.515V30.0352H238.826ZM246.741 30.0352C246.241 30.1286 245.751 30.1683 245.27 30.1543C244.793 30.1449 244.366 30.0585 243.987 29.895C243.609 29.7268 243.322 29.4629 243.125 29.1032C242.953 28.7762 242.862 28.4422 242.852 28.1012C242.843 27.7602 242.838 27.3748 242.838 26.9451V20.3654H244.52V26.847C244.52 27.1506 244.522 27.4169 244.527 27.6458C244.536 27.8747 244.585 28.0615 244.674 28.2063C244.842 28.4866 245.111 28.6431 245.48 28.6758C245.849 28.7085 246.269 28.6898 246.741 28.6197V30.0352ZM241.465 23.7919V22.4676H246.741V23.7919H241.465ZM248.2 21.3184V19.7698H249.889V21.3184H248.2ZM248.2 30.0352V22.4676H249.889V30.0352H248.2ZM253.726 30.0352L250.979 22.4676H252.668L254.573 27.9541L256.472 22.4676H258.168L255.421 30.0352H253.726ZM262.284 30.2454C261.518 30.2454 260.845 30.0795 260.266 29.7479C259.687 29.4162 259.234 28.9561 258.907 28.3675C258.584 27.7789 258.423 27.1015 258.423 26.3354C258.423 25.5086 258.582 24.7916 258.9 24.1843C259.217 23.5723 259.659 23.0982 260.224 22.7618C260.789 22.4255 261.443 22.2573 262.186 22.2573C262.971 22.2573 263.636 22.4419 264.183 22.8109C264.734 23.1753 265.143 23.6914 265.409 24.3595C265.675 25.0275 265.776 25.8146 265.71 26.7208H264.036V26.1042C264.031 25.282 263.886 24.6818 263.601 24.3034C263.316 23.925 262.868 23.7358 262.256 23.7358C261.565 23.7358 261.051 23.9507 260.714 24.3805C260.378 24.8056 260.21 25.4292 260.21 26.2514C260.21 27.0175 260.378 27.6107 260.714 28.0311C261.051 28.4516 261.541 28.6618 262.186 28.6618C262.602 28.6618 262.959 28.5707 263.258 28.3885C263.562 28.2016 263.795 27.933 263.959 27.5827L265.626 28.0872C265.337 28.7692 264.888 29.2994 264.281 29.6778C263.678 30.0562 263.013 30.2454 262.284 30.2454ZM259.677 26.7208V25.4455H264.884V26.7208H259.677ZM198.357 51.0352L201.538 40.945H204.012L207.193 51.0352H205.455L202.568 41.9821H202.947L200.095 51.0352H198.357ZM200.13 48.849V47.2724H205.427V48.849H200.13ZM213.386 51.0352V47.3915C213.386 47.1533 213.369 46.8893 213.337 46.5997C213.304 46.3101 213.227 46.0321 213.105 45.7659C212.989 45.4949 212.811 45.273 212.573 45.1002C212.339 44.9274 212.022 44.8409 211.62 44.8409C211.405 44.8409 211.193 44.876 210.982 44.946C210.772 45.0161 210.581 45.1376 210.408 45.3104C210.24 45.4786 210.104 45.7121 210.001 46.0111C209.899 46.3054 209.847 46.6838 209.847 47.1462L208.845 46.7188C208.845 46.0742 208.969 45.4903 209.217 44.9671C209.469 44.4439 209.838 44.0281 210.324 43.7198C210.809 43.4068 211.407 43.2503 212.117 43.2503C212.678 43.2503 213.14 43.3438 213.505 43.5306C213.869 43.7175 214.159 43.9557 214.374 44.2453C214.589 44.535 214.747 44.8433 214.85 45.1703C214.953 45.4973 215.018 45.8079 215.046 46.1022C215.079 46.3918 215.095 46.6277 215.095 46.8099V51.0352H213.386ZM208.137 51.0352V43.4676H209.644V45.8149H209.847V51.0352H208.137ZM218.732 51.2454C218.185 51.2454 217.723 51.1426 217.344 50.9371C216.966 50.7268 216.679 50.4489 216.483 50.1032C216.291 49.7575 216.195 49.3768 216.195 48.9611C216.195 48.5967 216.256 48.2697 216.377 47.9801C216.499 47.6858 216.686 47.4335 216.938 47.2233C217.19 47.0084 217.517 46.8333 217.919 46.6978C218.223 46.5997 218.578 46.5109 218.984 46.4315C219.395 46.3521 219.839 46.2797 220.315 46.2143C220.797 46.1442 221.299 46.0695 221.822 45.9901L221.219 46.3334C221.224 45.8102 221.107 45.4249 220.869 45.1773C220.631 44.9297 220.229 44.8059 219.664 44.8059C219.323 44.8059 218.993 44.8853 218.676 45.0441C218.358 45.203 218.136 45.4762 218.01 45.864L216.468 45.3805C216.655 44.7405 217.01 44.2266 217.534 43.8389C218.061 43.4512 218.771 43.2573 219.664 43.2573C220.336 43.2573 220.927 43.3671 221.436 43.5867C221.95 43.8062 222.331 44.1659 222.579 44.6658C222.714 44.932 222.796 45.2053 222.824 45.4856C222.852 45.7612 222.866 46.0625 222.866 46.3895V51.0352H221.387V49.3955L221.633 49.6618C221.292 50.2083 220.892 50.6101 220.434 50.867C219.981 51.1192 219.414 51.2454 218.732 51.2454ZM219.068 49.9C219.451 49.9 219.778 49.8323 220.049 49.6968C220.32 49.5613 220.535 49.3955 220.694 49.1993C220.857 49.0031 220.967 48.8186 221.023 48.6458C221.112 48.4309 221.161 48.1856 221.17 47.91C221.184 47.6297 221.191 47.4032 221.191 47.2303L221.71 47.3845C221.201 47.4639 220.764 47.534 220.399 47.5947C220.035 47.6554 219.722 47.7138 219.46 47.7699C219.199 47.8213 218.968 47.8797 218.767 47.9451C218.571 48.0151 218.405 48.0969 218.269 48.1903C218.134 48.2837 218.029 48.3912 217.954 48.5126C217.884 48.6341 217.849 48.7766 217.849 48.9401C217.849 49.1269 217.896 49.2927 217.989 49.4376C218.082 49.5777 218.218 49.6898 218.395 49.7739C218.578 49.858 218.802 49.9 219.068 49.9ZM224.522 51.0352V40.7348H226.211V51.0352H224.522ZM228.996 54.3985L230.454 50.3975L230.482 51.5747L227.181 43.4676H228.94L231.281 49.4656H230.832L233.109 43.4676H234.798L230.58 54.3985H228.996ZM238.457 51.2454C237.523 51.2454 236.763 51.0352 236.18 50.6147C235.596 50.1943 235.241 49.6034 235.114 48.842L236.838 48.5757C236.927 48.9494 237.123 49.2437 237.427 49.4586C237.73 49.6735 238.113 49.7809 238.576 49.7809C238.982 49.7809 239.295 49.7015 239.515 49.5427C239.739 49.3792 239.851 49.1573 239.851 48.877C239.851 48.7041 239.809 48.5663 239.725 48.4636C239.646 48.3561 239.468 48.2534 239.193 48.1553C238.917 48.0572 238.494 47.9334 237.924 47.7839C237.289 47.6157 236.784 47.4359 236.411 47.2443C236.037 47.0481 235.768 46.8169 235.605 46.5506C235.441 46.2844 235.36 45.9621 235.36 45.5837C235.36 45.1119 235.483 44.7008 235.731 44.3504C235.979 44.0001 236.324 43.7315 236.768 43.5446C237.212 43.3531 237.735 43.2573 238.338 43.2573C238.926 43.2573 239.447 43.3484 239.9 43.5306C240.358 43.7128 240.727 43.9721 241.007 44.3084C241.288 44.6447 241.46 45.0395 241.526 45.4926L239.802 45.8009C239.76 45.4786 239.613 45.224 239.361 45.0371C239.113 44.8503 238.781 44.7452 238.366 44.7218C237.969 44.6985 237.649 44.7592 237.406 44.904C237.163 45.0441 237.041 45.2427 237.041 45.4996C237.041 45.6444 237.09 45.7682 237.189 45.871C237.287 45.9737 237.483 46.0765 237.777 46.1793C238.076 46.282 238.52 46.4082 239.108 46.5577C239.711 46.7118 240.192 46.8893 240.552 47.0902C240.916 47.2864 241.178 47.5223 241.337 47.7979C241.5 48.0735 241.582 48.4075 241.582 48.7999C241.582 49.5613 241.304 50.1593 240.748 50.5937C240.197 51.0281 239.433 51.2454 238.457 51.2454ZM242.949 42.3184V40.7698H244.637V42.3184H242.949ZM242.949 51.0352V43.4676H244.637V51.0352H242.949ZM249.35 51.2454C248.416 51.2454 247.656 51.0352 247.073 50.6147C246.489 50.1943 246.134 49.6034 246.007 48.842L247.731 48.5757C247.82 48.9494 248.016 49.2437 248.32 49.4586C248.623 49.6735 249.006 49.7809 249.469 49.7809C249.875 49.7809 250.188 49.7015 250.408 49.5427C250.632 49.3792 250.744 49.1573 250.744 48.877C250.744 48.7041 250.702 48.5663 250.618 48.4636C250.539 48.3561 250.361 48.2534 250.086 48.1553C249.81 48.0572 249.387 47.9334 248.817 47.7839C248.182 47.6157 247.677 47.4359 247.304 47.2443C246.93 47.0481 246.661 46.8169 246.498 46.5506C246.334 46.2844 246.253 45.9621 246.253 45.5837C246.253 45.1119 246.376 44.7008 246.624 44.3504C246.872 44.0001 247.217 43.7315 247.661 43.5446C248.105 43.3531 248.628 43.2573 249.231 43.2573C249.819 43.2573 250.34 43.3484 250.793 43.5306C251.251 43.7128 251.62 43.9721 251.9 44.3084C252.181 44.6447 252.353 45.0395 252.419 45.4926L250.695 45.8009C250.653 45.4786 250.506 45.224 250.254 45.0371C250.006 44.8503 249.674 44.7452 249.259 44.7218C248.862 44.6985 248.542 44.7592 248.299 44.904C248.056 45.0441 247.934 45.2427 247.934 45.4996C247.934 45.6444 247.983 45.7682 248.082 45.871C248.18 45.9737 248.376 46.0765 248.67 46.1793C248.969 46.282 249.413 46.4082 250.001 46.5577C250.604 46.7118 251.085 46.8893 251.445 47.0902C251.809 47.2864 252.071 47.5223 252.23 47.7979C252.393 48.0735 252.475 48.4075 252.475 48.7999C252.475 49.5613 252.197 50.1593 251.641 50.5937C251.09 51.0281 250.326 51.2454 249.35 51.2454Z" fill="white"/>
</a>
<a xlink:href="/projects/pinterest/#secondary-research">
<rect y="97" width="105.106" height="70.0704" rx="10" fill="#BD081C"/>
<path d="M22.1322 127.245C21.3941 127.245 20.7284 127.117 20.1351 126.86C19.5466 126.603 19.0607 126.236 18.6777 125.76C18.2993 125.279 18.0587 124.709 17.956 124.05L19.7077 123.784C19.8572 124.382 20.1632 124.844 20.6256 125.171C21.0928 125.498 21.63 125.662 22.2373 125.662C22.597 125.662 22.9356 125.606 23.2533 125.494C23.5709 125.381 23.8279 125.218 24.0241 125.003C24.2249 124.788 24.3254 124.524 24.3254 124.211C24.3254 124.071 24.302 123.943 24.2553 123.826C24.2086 123.704 24.1385 123.597 24.0451 123.504C23.9563 123.41 23.8395 123.326 23.6947 123.251C23.5546 123.172 23.3911 123.104 23.2042 123.048L20.5976 122.277C20.3734 122.212 20.1305 122.126 19.8689 122.018C19.612 121.906 19.3667 121.754 19.1331 121.563C18.9042 121.366 18.7151 121.119 18.5656 120.82C18.4208 120.516 18.3484 120.143 18.3484 119.699C18.3484 119.049 18.5119 118.505 18.8388 118.066C19.1705 117.622 19.6143 117.291 20.1702 117.071C20.7307 116.852 21.352 116.744 22.0341 116.749C22.7254 116.753 23.342 116.873 23.8839 117.106C24.4258 117.335 24.8789 117.669 25.2433 118.108C25.6076 118.547 25.8646 119.077 26.0141 119.699L24.1992 120.014C24.1245 119.659 23.9797 119.358 23.7648 119.11C23.5546 118.858 23.2953 118.666 22.987 118.536C22.6834 118.405 22.3587 118.335 22.013 118.325C21.6767 118.321 21.3637 118.372 21.0741 118.48C20.7891 118.582 20.5579 118.732 20.3804 118.928C20.2076 119.124 20.1211 119.353 20.1211 119.615C20.1211 119.862 20.1959 120.065 20.3454 120.224C20.4948 120.378 20.6794 120.502 20.8989 120.596C21.1231 120.684 21.3497 120.759 21.5786 120.82L23.3864 121.324C23.634 121.39 23.9119 121.479 24.2203 121.591C24.5286 121.703 24.8252 121.859 25.1101 122.06C25.3951 122.261 25.6287 122.525 25.8109 122.852C25.9977 123.179 26.0911 123.595 26.0911 124.099C26.0911 124.622 25.9814 125.083 25.7618 125.48C25.5469 125.872 25.255 126.199 24.8859 126.461C24.5169 126.722 24.0941 126.918 23.6176 127.049C23.1458 127.18 22.6507 127.245 22.1322 127.245ZM30.74 127.245C29.9739 127.245 29.3012 127.08 28.722 126.748C28.1427 126.416 27.6896 125.956 27.3626 125.367C27.0403 124.779 26.8791 124.102 26.8791 123.335C26.8791 122.509 27.0379 121.792 27.3556 121.184C27.6732 120.572 28.1147 120.098 28.6799 119.762C29.2451 119.426 29.8991 119.257 30.6419 119.257C31.4267 119.257 32.0923 119.442 32.6389 119.811C33.1901 120.175 33.5989 120.691 33.8651 121.359C34.1314 122.027 34.2318 122.815 34.1664 123.721H32.4917V123.104C32.4871 122.282 32.3423 121.682 32.0573 121.303C31.7723 120.925 31.3239 120.736 30.712 120.736C30.0206 120.736 29.5067 120.951 29.1704 121.38C28.8341 121.806 28.6659 122.429 28.6659 123.251C28.6659 124.017 28.8341 124.611 29.1704 125.031C29.5067 125.452 29.9972 125.662 30.6419 125.662C31.0576 125.662 31.415 125.571 31.714 125.389C32.0176 125.202 32.2512 124.933 32.4147 124.583L34.0823 125.087C33.7927 125.769 33.3443 126.299 32.737 126.678C32.1344 127.056 31.4687 127.245 30.74 127.245ZM28.1334 123.721V122.446H33.3396V123.721H28.1334ZM38.7079 127.245C37.9277 127.245 37.2621 127.073 36.7109 126.727C36.1596 126.376 35.7369 125.9 35.4426 125.297C35.153 124.695 35.0058 124.013 35.0011 123.251C35.0058 122.476 35.1576 121.789 35.4566 121.191C35.7602 120.589 36.19 120.117 36.7459 119.776C37.3018 119.43 37.9628 119.257 38.7289 119.257C39.5884 119.257 40.3148 119.475 40.9081 119.909C41.506 120.339 41.8961 120.927 42.0782 121.675L40.3966 122.13C40.2658 121.724 40.0485 121.409 39.7449 121.184C39.4413 120.955 39.0956 120.841 38.7079 120.841C38.2688 120.841 37.9067 120.946 37.6218 121.156C37.3368 121.362 37.1266 121.647 36.9911 122.011C36.8557 122.375 36.7879 122.789 36.7879 123.251C36.7879 123.971 36.9491 124.552 37.2714 124.996C37.5937 125.44 38.0726 125.662 38.7079 125.662C39.1563 125.662 39.509 125.559 39.7659 125.353C40.0275 125.148 40.2237 124.851 40.3545 124.464L42.0782 124.849C41.8447 125.62 41.4359 126.213 40.852 126.629C40.2681 127.04 39.5534 127.245 38.7079 127.245ZM46.3112 127.245C45.5544 127.245 44.8934 127.075 44.3282 126.734C43.7629 126.393 43.3238 125.923 43.0108 125.325C42.7025 124.723 42.5484 124.031 42.5484 123.251C42.5484 122.457 42.7072 121.761 43.0249 121.163C43.3425 120.565 43.784 120.098 44.3492 119.762C44.9144 119.426 45.5684 119.257 46.3112 119.257C47.0726 119.257 47.7359 119.428 48.3012 119.769C48.8664 120.11 49.3055 120.582 49.6185 121.184C49.9315 121.782 50.088 122.471 50.088 123.251C50.088 124.036 49.9291 124.73 49.6115 125.332C49.2985 125.93 48.8594 126.4 48.2942 126.741C47.7289 127.077 47.0679 127.245 46.3112 127.245ZM46.3112 125.662C46.9838 125.662 47.4837 125.438 47.8107 124.989C48.1377 124.541 48.3012 123.961 48.3012 123.251C48.3012 122.518 48.1353 121.934 47.8037 121.5C47.472 121.06 46.9745 120.841 46.3112 120.841C45.858 120.841 45.4843 120.944 45.19 121.149C44.9004 121.35 44.6855 121.633 44.5454 121.997C44.4052 122.357 44.3352 122.775 44.3352 123.251C44.3352 123.985 44.501 124.571 44.8327 125.01C45.169 125.445 45.6618 125.662 46.3112 125.662ZM56.5578 127.035V123.391C56.5578 123.153 56.5414 122.889 56.5087 122.6C56.476 122.31 56.3989 122.032 56.2775 121.766C56.1607 121.495 55.9832 121.273 55.7449 121.1C55.5114 120.927 55.1937 120.841 54.792 120.841C54.5771 120.841 54.3645 120.876 54.1543 120.946C53.9441 121.016 53.7526 121.138 53.5798 121.31C53.4116 121.479 53.2761 121.712 53.1734 122.011C53.0706 122.305 53.0192 122.684 53.0192 123.146L52.0172 122.719C52.0172 122.074 52.141 121.49 52.3886 120.967C52.6408 120.444 53.0099 120.028 53.4957 119.72C53.9815 119.407 54.5794 119.25 55.2895 119.25C55.85 119.25 56.3125 119.344 56.6769 119.531C57.0412 119.717 57.3309 119.956 57.5457 120.245C57.7606 120.535 57.9195 120.843 58.0222 121.17C58.125 121.497 58.1904 121.808 58.2184 122.102C58.2511 122.392 58.2675 122.628 58.2675 122.81V127.035H56.5578ZM51.3095 127.035V119.468H52.816V121.815H53.0192V127.035H51.3095ZM62.6985 127.245C62.0025 127.245 61.3952 127.07 60.8767 126.72C60.3582 126.369 59.9565 125.893 59.6715 125.29C59.3866 124.688 59.2441 124.008 59.2441 123.251C59.2441 122.485 59.3866 121.803 59.6715 121.205C59.9611 120.603 60.3699 120.129 60.8977 119.783C61.4256 119.433 62.0469 119.257 62.7616 119.257C63.481 119.257 64.0836 119.433 64.5694 119.783C65.0599 120.129 65.4313 120.603 65.6835 121.205C65.9358 121.808 66.0619 122.49 66.0619 123.251C66.0619 124.003 65.9358 124.683 65.6835 125.29C65.4313 125.893 65.0553 126.369 64.5554 126.72C64.0556 127.07 63.4366 127.245 62.6985 127.245ZM62.9578 125.732C63.4109 125.732 63.7753 125.629 64.0509 125.424C64.3312 125.213 64.5344 124.921 64.6605 124.548C64.7913 124.174 64.8567 123.742 64.8567 123.251C64.8567 122.756 64.7913 122.324 64.6605 121.955C64.5344 121.581 64.3359 121.292 64.0649 121.086C63.794 120.876 63.4436 120.771 63.0139 120.771C62.5607 120.771 62.187 120.883 61.8927 121.107C61.5984 121.327 61.3812 121.626 61.2411 122.004C61.1009 122.378 61.0309 122.794 61.0309 123.251C61.0309 123.714 61.0986 124.134 61.2341 124.513C61.3742 124.886 61.5868 125.183 61.8717 125.403C62.1567 125.622 62.5187 125.732 62.9578 125.732ZM64.8567 127.035V121.724H64.6465V116.945H66.3492V127.035H64.8567ZM70.1216 127.245C69.5751 127.245 69.1126 127.143 68.7342 126.937C68.3559 126.727 68.0686 126.449 67.8724 126.103C67.6808 125.758 67.5851 125.377 67.5851 124.961C67.5851 124.597 67.6458 124.27 67.7673 123.98C67.8887 123.686 68.0756 123.434 68.3278 123.223C68.5801 123.008 68.9071 122.833 69.3088 122.698C69.6125 122.6 69.9675 122.511 70.3739 122.432C70.785 122.352 71.2287 122.28 71.7052 122.214C72.1864 122.144 72.6885 122.069 73.2117 121.99L72.6091 122.333C72.6138 121.81 72.497 121.425 72.2588 121.177C72.0205 120.93 71.6188 120.806 71.0536 120.806C70.7126 120.806 70.3832 120.885 70.0656 121.044C69.7479 121.203 69.526 121.476 69.3999 121.864L67.8584 121.38C68.0452 120.74 68.4002 120.227 68.9234 119.839C69.4513 119.451 70.1613 119.257 71.0536 119.257C71.7262 119.257 72.3172 119.367 72.8264 119.587C73.3402 119.806 73.7209 120.166 73.9685 120.666C74.104 120.932 74.1857 121.205 74.2137 121.486C74.2418 121.761 74.2558 122.062 74.2558 122.389V127.035H72.7773V125.396L73.0225 125.662C72.6815 126.208 72.2821 126.61 71.8243 126.867C71.3712 127.119 70.8037 127.245 70.1216 127.245ZM70.458 125.9C70.841 125.9 71.168 125.832 71.439 125.697C71.7099 125.561 71.9248 125.396 72.0836 125.199C72.2471 125.003 72.3569 124.819 72.4129 124.646C72.5017 124.431 72.5507 124.186 72.5601 123.91C72.5741 123.63 72.5811 123.403 72.5811 123.23L73.0996 123.384C72.5904 123.464 72.1537 123.534 71.7893 123.595C71.4249 123.655 71.112 123.714 70.8504 123.77C70.5888 123.821 70.3575 123.88 70.1567 123.945C69.9605 124.015 69.7946 124.097 69.6592 124.19C69.5237 124.284 69.4186 124.391 69.3439 124.513C69.2738 124.634 69.2387 124.777 69.2387 124.94C69.2387 125.127 69.2855 125.293 69.3789 125.438C69.4723 125.578 69.6078 125.69 69.7853 125.774C69.9675 125.858 70.1917 125.9 70.458 125.9ZM75.7717 127.035V119.468H77.2642V121.31L77.082 121.072C77.1755 120.82 77.2993 120.591 77.4534 120.385C77.6122 120.175 77.8014 120.002 78.021 119.867C78.2078 119.741 78.4134 119.643 78.6376 119.573C78.8665 119.498 79.1001 119.454 79.3383 119.44C79.5765 119.421 79.8078 119.43 80.032 119.468V121.044C79.8078 120.979 79.5485 120.958 79.2542 120.981C78.9646 121.004 78.703 121.086 78.4694 121.226C78.2359 121.352 78.0443 121.514 77.8949 121.71C77.75 121.906 77.6426 122.13 77.5725 122.382C77.5025 122.63 77.4674 122.899 77.4674 123.188V127.035H75.7717ZM81.8232 130.399L83.2806 126.398L83.3087 127.575L80.0084 119.468H81.7671L84.1075 125.466H83.659L85.9363 119.468H87.625L83.4068 130.399H81.8232ZM22.65 148.035V137.945H26.8192C26.9173 137.945 27.0434 137.95 27.1976 137.959C27.3517 137.964 27.4942 137.978 27.625 138.001C28.2089 138.09 28.6901 138.284 29.0685 138.583C29.4515 138.882 29.7341 139.26 29.9163 139.718C30.1032 140.171 30.1966 140.675 30.1966 141.231C30.1966 142.053 29.9887 142.761 29.573 143.354C29.1572 143.943 28.5196 144.307 27.6601 144.448L26.9383 144.511H24.3387V148.035H22.65ZM28.4448 148.035L26.4548 143.929L28.1716 143.551L30.3578 148.035H28.4448ZM24.3387 142.934H26.7491C26.8426 142.934 26.9477 142.929 27.0645 142.92C27.1812 142.911 27.2887 142.892 27.3868 142.864C27.6671 142.794 27.8866 142.67 28.0454 142.493C28.2089 142.315 28.3234 142.114 28.3888 141.89C28.4589 141.666 28.4939 141.446 28.4939 141.231C28.4939 141.016 28.4589 140.797 28.3888 140.573C28.3234 140.344 28.2089 140.141 28.0454 139.963C27.8866 139.786 27.6671 139.662 27.3868 139.592C27.2887 139.564 27.1812 139.547 27.0645 139.543C26.9477 139.533 26.8426 139.529 26.7491 139.529H24.3387V142.934ZM35.0337 148.245C34.2675 148.245 33.5949 148.08 33.0156 147.748C32.4364 147.416 31.9833 146.956 31.6563 146.367C31.3339 145.779 31.1728 145.102 31.1728 144.335C31.1728 143.509 31.3316 142.792 31.6493 142.184C31.9669 141.572 32.4083 141.098 32.9736 140.762C33.5388 140.426 34.1928 140.257 34.9356 140.257C35.7203 140.257 36.386 140.442 36.9326 140.811C37.4838 141.175 37.8925 141.691 38.1588 142.359C38.4251 143.027 38.5255 143.815 38.4601 144.721H36.7854V144.104C36.7807 143.282 36.6359 142.682 36.351 142.303C36.066 141.925 35.6176 141.736 35.0056 141.736C34.3143 141.736 33.8004 141.951 33.4641 142.38C33.1277 142.806 32.9596 143.429 32.9596 144.251C32.9596 145.017 33.1277 145.611 33.4641 146.031C33.8004 146.452 34.2909 146.662 34.9356 146.662C35.3513 146.662 35.7087 146.571 36.0076 146.389C36.3113 146.202 36.5448 145.933 36.7083 145.583L38.376 146.087C38.0864 146.769 37.6379 147.299 37.0307 147.678C36.4281 148.056 35.7624 148.245 35.0337 148.245ZM32.427 144.721V143.446H37.6333V144.721H32.427ZM42.6372 148.245C41.7029 148.245 40.9438 148.035 40.3599 147.615C39.776 147.194 39.4209 146.603 39.2948 145.842L41.0185 145.576C41.1073 145.949 41.3035 146.244 41.6071 146.459C41.9108 146.673 42.2938 146.781 42.7563 146.781C43.1627 146.781 43.4757 146.701 43.6952 146.543C43.9195 146.379 44.0316 146.157 44.0316 145.877C44.0316 145.704 43.9895 145.566 43.9054 145.464C43.826 145.356 43.6485 145.253 43.3729 145.155C43.0973 145.057 42.6745 144.933 42.1046 144.784C41.4693 144.616 40.9648 144.436 40.5911 144.244C40.2174 144.048 39.9488 143.817 39.7853 143.551C39.6218 143.284 39.5401 142.962 39.5401 142.584C39.5401 142.112 39.6638 141.701 39.9114 141.35C40.159 141 40.5047 140.731 40.9485 140.545C41.3922 140.353 41.9154 140.257 42.518 140.257C43.1066 140.257 43.6275 140.348 44.0806 140.531C44.5384 140.713 44.9074 140.972 45.1877 141.308C45.468 141.645 45.6409 142.039 45.7063 142.493L43.9825 142.801C43.9405 142.479 43.7933 142.224 43.5411 142.037C43.2935 141.85 42.9618 141.745 42.5461 141.722C42.149 141.698 41.829 141.759 41.5861 141.904C41.3432 142.044 41.2217 142.243 41.2217 142.5C41.2217 142.644 41.2708 142.768 41.3689 142.871C41.467 142.974 41.6632 143.077 41.9575 143.179C42.2565 143.282 42.7002 143.408 43.2888 143.558C43.8914 143.712 44.3726 143.889 44.7323 144.09C45.0966 144.286 45.3582 144.522 45.5171 144.798C45.6806 145.074 45.7623 145.408 45.7623 145.8C45.7623 146.561 45.4844 147.159 44.9285 147.594C44.3773 148.028 43.6135 148.245 42.6372 148.245ZM50.4292 148.245C49.6631 148.245 48.9904 148.08 48.4112 147.748C47.8319 147.416 47.3788 146.956 47.0518 146.367C46.7295 145.779 46.5683 145.102 46.5683 144.335C46.5683 143.509 46.7272 142.792 47.0448 142.184C47.3625 141.572 47.8039 141.098 48.3691 140.762C48.9344 140.426 49.5884 140.257 50.3311 140.257C51.1159 140.257 51.7816 140.442 52.3281 140.811C52.8793 141.175 53.2881 141.691 53.5544 142.359C53.8206 143.027 53.9211 143.815 53.8557 144.721H52.181V144.104C52.1763 143.282 52.0315 142.682 51.7465 142.303C51.4616 141.925 51.0131 141.736 50.4012 141.736C49.7098 141.736 49.196 141.951 48.8596 142.38C48.5233 142.806 48.3551 143.429 48.3551 144.251C48.3551 145.017 48.5233 145.611 48.8596 146.031C49.196 146.452 49.6865 146.662 50.3311 146.662C50.7469 146.662 51.1042 146.571 51.4032 146.389C51.7068 146.202 51.9404 145.933 52.1039 145.583L53.7716 146.087C53.482 146.769 53.0335 147.299 52.4262 147.678C51.8236 148.056 51.158 148.245 50.4292 148.245ZM47.8226 144.721V143.446H53.0288V144.721H47.8226ZM57.0901 148.245C56.5435 148.245 56.0811 148.143 55.7027 147.937C55.3243 147.727 55.037 147.449 54.8408 147.103C54.6493 146.758 54.5535 146.377 54.5535 145.961C54.5535 145.597 54.6142 145.27 54.7357 144.98C54.8572 144.686 55.044 144.434 55.2963 144.223C55.5485 144.008 55.8755 143.833 56.2772 143.698C56.5809 143.6 56.9359 143.511 57.3423 143.432C57.7534 143.352 58.1972 143.28 58.6737 143.214C59.1548 143.144 59.657 143.069 60.1802 142.99L59.5776 143.333C59.5822 142.81 59.4655 142.425 59.2272 142.177C58.989 141.93 58.5872 141.806 58.022 141.806C57.681 141.806 57.3517 141.885 57.034 142.044C56.7164 142.203 56.4945 142.476 56.3683 142.864L54.8268 142.38C55.0136 141.74 55.3687 141.227 55.8919 140.839C56.4197 140.451 57.1298 140.257 58.022 140.257C58.6947 140.257 59.2856 140.367 59.7948 140.587C60.3086 140.806 60.6894 141.166 60.9369 141.666C61.0724 141.932 61.1542 142.205 61.1822 142.486C61.2102 142.761 61.2242 143.062 61.2242 143.389V148.035H59.7457V146.396L59.991 146.662C59.65 147.208 59.2506 147.61 58.7928 147.867C58.3397 148.119 57.7721 148.245 57.0901 148.245ZM57.4264 146.9C57.8095 146.9 58.1365 146.832 58.4074 146.697C58.6783 146.561 58.8932 146.396 59.052 146.199C59.2155 146.003 59.3253 145.819 59.3814 145.646C59.4701 145.431 59.5192 145.186 59.5285 144.91C59.5425 144.63 59.5495 144.403 59.5495 144.23L60.0681 144.384C59.5589 144.464 59.1221 144.534 58.7577 144.595C58.3934 144.655 58.0804 144.714 57.8188 144.77C57.5572 144.821 57.326 144.88 57.1251 144.945C56.9289 145.015 56.7631 145.097 56.6276 145.19C56.4921 145.284 56.387 145.391 56.3123 145.513C56.2422 145.634 56.2072 145.777 56.2072 145.94C56.2072 146.127 56.2539 146.293 56.3473 146.438C56.4407 146.578 56.5762 146.69 56.7537 146.774C56.9359 146.858 57.1601 146.9 57.4264 146.9ZM62.7402 148.035V140.468H64.2327V142.31L64.0505 142.072C64.1439 141.82 64.2677 141.591 64.4218 141.385C64.5807 141.175 64.7699 141.002 64.9894 140.867C65.1763 140.741 65.3818 140.643 65.606 140.573C65.8349 140.498 66.0685 140.454 66.3067 140.44C66.545 140.421 66.7762 140.43 67.0004 140.468V142.044C66.7762 141.979 66.5169 141.958 66.2227 141.981C65.933 142.004 65.6714 142.086 65.4379 142.226C65.2043 142.352 65.0128 142.514 64.8633 142.71C64.7185 142.906 64.611 143.13 64.541 143.382C64.4709 143.63 64.4359 143.899 64.4359 144.188V148.035H62.7402ZM71.1787 148.245C70.3986 148.245 69.7329 148.073 69.1817 147.727C68.6305 147.376 68.2077 146.9 67.9134 146.297C67.6238 145.695 67.4767 145.013 67.472 144.251C67.4767 143.476 67.6285 142.789 67.9274 142.191C68.2311 141.589 68.6608 141.117 69.2167 140.776C69.7726 140.43 70.4336 140.257 71.1997 140.257C72.0593 140.257 72.7857 140.475 73.3789 140.909C73.9769 141.339 74.3669 141.927 74.5491 142.675L72.8674 143.13C72.7366 142.724 72.5194 142.409 72.2158 142.184C71.9121 141.955 71.5664 141.841 71.1787 141.841C70.7396 141.841 70.3776 141.946 70.0926 142.156C69.8077 142.362 69.5975 142.647 69.462 143.011C69.3265 143.375 69.2588 143.789 69.2588 144.251C69.2588 144.971 69.4199 145.552 69.7423 145.996C70.0646 146.44 70.5434 146.662 71.1787 146.662C71.6272 146.662 71.9799 146.559 72.2368 146.353C72.4984 146.148 72.6946 145.851 72.8254 145.464L74.5491 145.849C74.3155 146.62 73.9068 147.213 73.3229 147.629C72.7389 148.04 72.0242 148.245 71.1787 148.245ZM80.8792 148.035V144.391C80.8792 144.153 80.8628 143.889 80.8301 143.6C80.7974 143.31 80.7204 143.032 80.5989 142.766C80.4821 142.495 80.3046 142.273 80.0664 142.1C79.8328 141.927 79.5152 141.841 79.1134 141.841C78.8985 141.841 78.686 141.876 78.4758 141.946C78.2656 142.016 78.074 142.138 77.9012 142.31C77.733 142.479 77.5976 142.712 77.4948 143.011C77.392 143.305 77.3406 143.684 77.3406 144.146L76.3386 143.719C76.3386 143.074 76.4624 142.49 76.71 141.967C76.9623 141.444 77.3313 141.028 77.8171 140.72C78.3029 140.407 78.9009 140.25 79.6109 140.25C80.1715 140.25 80.6339 140.344 80.9983 140.531C81.3627 140.717 81.6523 140.956 81.8672 141.245C82.0821 141.535 82.2409 141.843 82.3437 142.17C82.4464 142.497 82.5118 142.808 82.5399 143.102C82.5726 143.392 82.5889 143.628 82.5889 143.81V148.035H80.8792ZM75.6309 148.035V137.945H77.1374V143.256H77.3406V148.035H75.6309Z" fill="white"/>
</a>
<a xlink:href="/projects/pinterest/#survey">
<rect x="139" y="97" width="105.106" height="70.0704" rx="10" fill="#BD081C"/>
<path d="M173.445 137.745C172.707 137.745 172.041 137.617 171.448 137.36C170.86 137.103 170.374 136.736 169.991 136.26C169.612 135.779 169.372 135.209 169.269 134.55L171.021 134.284C171.17 134.882 171.476 135.344 171.939 135.671C172.406 135.998 172.943 136.162 173.55 136.162C173.91 136.162 174.249 136.106 174.566 135.994C174.884 135.881 175.141 135.718 175.337 135.503C175.538 135.288 175.638 135.024 175.638 134.711C175.638 134.571 175.615 134.443 175.568 134.326C175.522 134.204 175.452 134.097 175.358 134.004C175.269 133.91 175.153 133.826 175.008 133.751C174.868 133.672 174.704 133.604 174.517 133.548L171.911 132.777C171.686 132.712 171.444 132.626 171.182 132.518C170.925 132.406 170.68 132.254 170.446 132.063C170.217 131.866 170.028 131.619 169.879 131.32C169.734 131.016 169.661 130.643 169.661 130.199C169.661 129.549 169.825 129.005 170.152 128.566C170.484 128.122 170.927 127.791 171.483 127.571C172.044 127.352 172.665 127.244 173.347 127.249C174.038 127.253 174.655 127.373 175.197 127.606C175.739 127.835 176.192 128.169 176.556 128.608C176.921 129.047 177.178 129.577 177.327 130.199L175.512 130.514C175.438 130.159 175.293 129.858 175.078 129.61C174.868 129.358 174.608 129.166 174.3 129.036C173.996 128.905 173.672 128.835 173.326 128.825C172.99 128.821 172.677 128.872 172.387 128.98C172.102 129.082 171.871 129.232 171.693 129.428C171.521 129.624 171.434 129.853 171.434 130.115C171.434 130.362 171.509 130.565 171.658 130.724C171.808 130.878 171.992 131.002 172.212 131.096C172.436 131.184 172.663 131.259 172.892 131.32L174.699 131.824C174.947 131.89 175.225 131.979 175.533 132.091C175.842 132.203 176.138 132.359 176.423 132.56C176.708 132.761 176.942 133.025 177.124 133.352C177.311 133.679 177.404 134.095 177.404 134.599C177.404 135.122 177.294 135.583 177.075 135.98C176.86 136.372 176.568 136.699 176.199 136.961C175.83 137.222 175.407 137.418 174.931 137.549C174.459 137.68 173.964 137.745 173.445 137.745ZM181.45 137.752C180.89 137.752 180.427 137.659 180.063 137.472C179.699 137.285 179.409 137.047 179.194 136.757C178.979 136.468 178.82 136.159 178.718 135.832C178.615 135.505 178.547 135.197 178.514 134.908C178.486 134.613 178.472 134.375 178.472 134.193V129.968H180.182V133.611C180.182 133.845 180.199 134.109 180.231 134.403C180.264 134.693 180.339 134.973 180.455 135.244C180.577 135.51 180.754 135.73 180.988 135.903C181.226 136.075 181.546 136.162 181.948 136.162C182.163 136.162 182.375 136.127 182.586 136.057C182.796 135.987 182.985 135.867 183.153 135.699C183.326 135.526 183.464 135.291 183.567 134.992C183.669 134.693 183.721 134.314 183.721 133.856L184.723 134.284C184.723 134.929 184.597 135.512 184.344 136.036C184.097 136.559 183.73 136.977 183.244 137.29C182.758 137.598 182.16 137.752 181.45 137.752ZM183.924 137.535V135.188H183.721V129.968H185.416V137.535H183.924ZM187.077 137.535V129.968H188.569V131.81L188.387 131.572C188.481 131.32 188.604 131.091 188.758 130.885C188.917 130.675 189.106 130.502 189.326 130.367C189.513 130.241 189.718 130.143 189.943 130.073C190.172 129.998 190.405 129.954 190.643 129.94C190.882 129.921 191.113 129.93 191.337 129.968V131.544C191.113 131.479 190.854 131.458 190.559 131.481C190.27 131.504 190.008 131.586 189.774 131.726C189.541 131.852 189.349 132.014 189.2 132.21C189.055 132.406 188.948 132.63 188.878 132.882C188.808 133.13 188.772 133.399 188.772 133.688V137.535H187.077ZM194.412 137.535L191.665 129.968H193.354L195.26 135.454L197.159 129.968H198.854L196.108 137.535H194.412ZM202.97 137.745C202.204 137.745 201.532 137.58 200.952 137.248C200.373 136.916 199.92 136.456 199.593 135.867C199.271 135.279 199.11 134.602 199.11 133.835C199.11 133.009 199.268 132.292 199.586 131.684C199.904 131.072 200.345 130.598 200.91 130.262C201.476 129.926 202.13 129.757 202.872 129.757C203.657 129.757 204.323 129.942 204.869 130.311C205.421 130.675 205.829 131.191 206.096 131.859C206.362 132.527 206.462 133.315 206.397 134.221H204.722V133.604C204.717 132.782 204.573 132.182 204.288 131.803C204.003 131.425 203.554 131.236 202.942 131.236C202.251 131.236 201.737 131.451 201.401 131.88C201.064 132.306 200.896 132.929 200.896 133.751C200.896 134.517 201.064 135.111 201.401 135.531C201.737 135.952 202.228 136.162 202.872 136.162C203.288 136.162 203.645 136.071 203.944 135.889C204.248 135.702 204.482 135.433 204.645 135.083L206.313 135.587C206.023 136.269 205.575 136.799 204.967 137.178C204.365 137.556 203.699 137.745 202.97 137.745ZM200.364 134.221V132.946H205.57V134.221H200.364ZM208.51 140.899L209.968 136.898L209.996 138.075L206.695 129.968H208.454L210.794 135.966H210.346L212.623 129.968H214.312L210.094 140.899H208.51Z" fill="white"/>
<path d="M109.105 130.535C108.277 130.535 107.605 131.207 107.605 132.035C107.605 132.864 108.277 133.535 109.105 133.535V130.535ZM136.06 133.096C136.646 132.51 136.646 131.56 136.06 130.974L126.515 121.429C125.929 120.843 124.979 120.843 124.393 121.429C123.807 122.014 123.807 122.964 124.393 123.55L132.879 132.035L124.393 140.52C123.807 141.106 123.807 142.056 124.393 142.642C124.979 143.228 125.929 143.228 126.515 142.642L136.06 133.096ZM109.105 133.535H135V130.535H109.105V133.535Z" fill="#B3B3B3"/>
<path d="M51.0527 92.9999C51.0527 93.8284 51.7243 94.4999 52.5527 94.4999C53.3812 94.4999 54.0527 93.8284 54.0527 92.9999H51.0527ZM170.061 36.0958C170.646 35.51 170.646 34.5603 170.061 33.9745L160.515 24.4286C159.929 23.8428 158.979 23.8428 158.393 24.4286C157.808 25.0143 157.808 25.9641 158.393 26.5499L166.879 35.0352L158.393 43.5204C157.808 44.1062 157.808 45.056 158.393 45.6418C158.979 46.2275 159.929 46.2275 160.515 45.6418L170.061 36.0958ZM54.0527 92.9999V59.0351H51.0527V92.9999H54.0527ZM76.5527 36.5352H169V33.5352H76.5527V36.5352ZM54.0527 59.0351C54.0527 46.6087 64.1263 36.5352 76.5527 36.5352V33.5352C62.4695 33.5352 51.0527 44.9519 51.0527 59.0351H54.0527Z" fill="#B3B3B3"/>
</a>
<a xlink:href="/projects/pinterest/#contextual-inquiries">
<rect x="278" y="97" width="105.106" height="70.0704" rx="10" fill="#BD081C"/>
<path d="M299.081 127.245C298.072 127.245 297.208 127.026 296.488 126.587C295.769 126.143 295.215 125.526 294.827 124.737C294.444 123.947 294.253 123.032 294.253 121.99C294.253 120.948 294.444 120.033 294.827 119.243C295.215 118.454 295.769 117.84 296.488 117.4C297.208 116.957 298.072 116.735 299.081 116.735C300.244 116.735 301.213 117.027 301.989 117.611C302.764 118.19 303.308 118.972 303.621 119.958L301.919 120.428C301.722 119.769 301.388 119.255 300.917 118.886C300.445 118.512 299.833 118.325 299.081 118.325C298.403 118.325 297.838 118.477 297.385 118.781C296.937 119.084 296.598 119.512 296.369 120.063C296.145 120.61 296.03 121.252 296.026 121.99C296.026 122.728 296.138 123.373 296.362 123.924C296.591 124.471 296.932 124.896 297.385 125.199C297.838 125.503 298.403 125.655 299.081 125.655C299.833 125.655 300.445 125.468 300.917 125.094C301.388 124.72 301.722 124.207 301.919 123.553L303.621 124.022C303.308 125.008 302.764 125.793 301.989 126.376C301.213 126.956 300.244 127.245 299.081 127.245ZM308.194 127.245C307.437 127.245 306.776 127.075 306.211 126.734C305.646 126.393 305.207 125.923 304.894 125.325C304.585 124.723 304.431 124.031 304.431 123.251C304.431 122.457 304.59 121.761 304.908 121.163C305.225 120.565 305.667 120.098 306.232 119.762C306.797 119.426 307.451 119.257 308.194 119.257C308.955 119.257 309.619 119.428 310.184 119.769C310.749 120.11 311.188 120.582 311.501 121.184C311.814 121.782 311.971 122.471 311.971 123.251C311.971 124.036 311.812 124.73 311.494 125.332C311.181 125.93 310.742 126.4 310.177 126.741C309.612 127.077 308.951 127.245 308.194 127.245ZM308.194 125.662C308.867 125.662 309.366 125.438 309.693 124.989C310.02 124.541 310.184 123.961 310.184 123.251C310.184 122.518 310.018 121.934 309.686 121.5C309.355 121.06 308.857 120.841 308.194 120.841C307.741 120.841 307.367 120.944 307.073 121.149C306.783 121.35 306.568 121.633 306.428 121.997C306.288 122.357 306.218 122.775 306.218 123.251C306.218 123.985 306.384 124.571 306.715 125.01C307.052 125.445 307.545 125.662 308.194 125.662ZM318.44 127.035V123.391C318.44 123.153 318.424 122.889 318.391 122.6C318.359 122.31 318.282 122.032 318.16 121.766C318.043 121.495 317.866 121.273 317.628 121.1C317.394 120.927 317.076 120.841 316.675 120.841C316.46 120.841 316.247 120.876 316.037 120.946C315.827 121.016 315.635 121.138 315.462 121.31C315.294 121.479 315.159 121.712 315.056 122.011C314.953 122.305 314.902 122.684 314.902 123.146L313.9 122.719C313.9 122.074 314.024 121.49 314.271 120.967C314.524 120.444 314.893 120.028 315.378 119.72C315.864 119.407 316.462 119.25 317.172 119.25C317.733 119.25 318.195 119.344 318.56 119.531C318.924 119.717 319.214 119.956 319.428 120.245C319.643 120.535 319.802 120.843 319.905 121.17C320.008 121.497 320.073 121.808 320.101 122.102C320.134 122.392 320.15 122.628 320.15 122.81V127.035H318.44ZM313.192 127.035V119.468H314.699V121.815H314.902V127.035H313.192ZM326.106 127.035C325.606 127.129 325.116 127.168 324.634 127.154C324.158 127.145 323.73 127.059 323.352 126.895C322.974 126.727 322.686 126.463 322.49 126.103C322.317 125.776 322.226 125.442 322.217 125.101C322.208 124.76 322.203 124.375 322.203 123.945V117.365H323.885V123.847C323.885 124.151 323.887 124.417 323.892 124.646C323.901 124.875 323.95 125.062 324.039 125.206C324.207 125.487 324.476 125.643 324.845 125.676C325.214 125.708 325.634 125.69 326.106 125.62V127.035ZM320.83 120.792V119.468H326.106V120.792H320.83ZM330.482 127.245C329.716 127.245 329.043 127.08 328.464 126.748C327.885 126.416 327.432 125.956 327.105 125.367C326.782 124.779 326.621 124.102 326.621 123.335C326.621 122.509 326.78 121.792 327.098 121.184C327.415 120.572 327.857 120.098 328.422 119.762C328.987 119.426 329.641 119.257 330.384 119.257C331.169 119.257 331.834 119.442 332.381 119.811C332.932 120.175 333.341 120.691 333.607 121.359C333.873 122.027 333.974 122.815 333.909 123.721H332.234V123.104C332.229 122.282 332.084 121.682 331.799 121.303C331.514 120.925 331.066 120.736 330.454 120.736C329.763 120.736 329.249 120.951 328.912 121.38C328.576 121.806 328.408 122.429 328.408 123.251C328.408 124.017 328.576 124.611 328.912 125.031C329.249 125.452 329.739 125.662 330.384 125.662C330.8 125.662 331.157 125.571 331.456 125.389C331.76 125.202 331.993 124.933 332.157 124.583L333.824 125.087C333.535 125.769 333.086 126.299 332.479 126.678C331.876 127.056 331.211 127.245 330.482 127.245ZM327.875 123.721V122.446H333.082V123.721H327.875ZM334.049 127.035L336.817 123.209L334.105 119.468H336.095L337.798 121.885L339.473 119.468H341.463L338.751 123.209L341.533 127.035H339.543L337.798 124.534L336.039 127.035H334.049ZM346.777 127.035C346.277 127.129 345.787 127.168 345.305 127.154C344.829 127.145 344.401 127.059 344.023 126.895C343.645 126.727 343.357 126.463 343.161 126.103C342.988 125.776 342.897 125.442 342.888 125.101C342.879 124.76 342.874 124.375 342.874 123.945V117.365H344.556V123.847C344.556 124.151 344.558 124.417 344.563 124.646C344.572 124.875 344.621 125.062 344.71 125.206C344.878 125.487 345.147 125.643 345.516 125.676C345.885 125.708 346.305 125.69 346.777 125.62V127.035ZM341.501 120.792V119.468H346.777V120.792H341.501ZM350.934 127.252C350.373 127.252 349.911 127.159 349.546 126.972C349.182 126.785 348.892 126.547 348.677 126.257C348.462 125.968 348.304 125.659 348.201 125.332C348.098 125.005 348.03 124.697 347.998 124.408C347.97 124.113 347.956 123.875 347.956 123.693V119.468H349.665V123.111C349.665 123.345 349.682 123.609 349.714 123.903C349.747 124.193 349.822 124.473 349.939 124.744C350.06 125.01 350.238 125.23 350.471 125.403C350.709 125.575 351.029 125.662 351.431 125.662C351.646 125.662 351.859 125.627 352.069 125.557C352.279 125.487 352.468 125.367 352.636 125.199C352.809 125.026 352.947 124.791 353.05 124.492C353.153 124.193 353.204 123.814 353.204 123.356L354.206 123.784C354.206 124.429 354.08 125.012 353.828 125.536C353.58 126.059 353.213 126.477 352.727 126.79C352.242 127.098 351.644 127.252 350.934 127.252ZM353.407 127.035V124.688H353.204V119.468H354.9V127.035H353.407ZM358.676 127.245C358.13 127.245 357.667 127.143 357.289 126.937C356.91 126.727 356.623 126.449 356.427 126.103C356.235 125.758 356.14 125.377 356.14 124.961C356.14 124.597 356.2 124.27 356.322 123.98C356.443 123.686 356.63 123.434 356.882 123.223C357.135 123.008 357.462 122.833 357.863 122.698C358.167 122.6 358.522 122.511 358.928 122.432C359.339 122.352 359.783 122.28 360.26 122.214C360.741 122.144 361.243 122.069 361.766 121.99L361.164 122.333C361.168 121.81 361.051 121.425 360.813 121.177C360.575 120.93 360.173 120.806 359.608 120.806C359.267 120.806 358.938 120.885 358.62 121.044C358.302 121.203 358.081 121.476 357.954 121.864L356.413 121.38C356.6 120.74 356.955 120.227 357.478 119.839C358.006 119.451 358.716 119.257 359.608 119.257C360.281 119.257 360.872 119.367 361.381 119.587C361.895 119.806 362.275 120.166 362.523 120.666C362.658 120.932 362.74 121.205 362.768 121.486C362.796 121.761 362.81 122.062 362.81 122.389V127.035H361.332V125.396L361.577 125.662C361.236 126.208 360.837 126.61 360.379 126.867C359.926 127.119 359.358 127.245 358.676 127.245ZM359.012 125.9C359.395 125.9 359.722 125.832 359.993 125.697C360.264 125.561 360.479 125.396 360.638 125.199C360.802 125.003 360.911 124.819 360.967 124.646C361.056 124.431 361.105 124.186 361.115 123.91C361.129 123.63 361.136 123.403 361.136 123.23L361.654 123.384C361.145 123.464 360.708 123.534 360.344 123.595C359.979 123.655 359.666 123.714 359.405 123.77C359.143 123.821 358.912 123.88 358.711 123.945C358.515 124.015 358.349 124.097 358.214 124.19C358.078 124.284 357.973 124.391 357.898 124.513C357.828 124.634 357.793 124.777 357.793 124.94C357.793 125.127 357.84 125.293 357.933 125.438C358.027 125.578 358.162 125.69 358.34 125.774C358.522 125.858 358.746 125.9 359.012 125.9ZM364.466 127.035V116.735H366.155V127.035H364.466ZM303.113 148.035V137.945H304.802V148.035H303.113ZM311.827 148.035V144.391C311.827 144.153 311.811 143.889 311.778 143.6C311.745 143.31 311.668 143.032 311.547 142.766C311.43 142.495 311.252 142.273 311.014 142.1C310.781 141.927 310.463 141.841 310.061 141.841C309.846 141.841 309.634 141.876 309.424 141.946C309.213 142.016 309.022 142.138 308.849 142.31C308.681 142.479 308.545 142.712 308.443 143.011C308.34 143.305 308.289 143.684 308.289 144.146L307.287 143.719C307.287 143.074 307.41 142.49 307.658 141.967C307.91 141.444 308.279 141.028 308.765 140.72C309.251 140.407 309.849 140.25 310.559 140.25C311.119 140.25 311.582 140.344 311.946 140.531C312.311 140.717 312.6 140.956 312.815 141.245C313.03 141.535 313.189 141.843 313.292 142.17C313.394 142.497 313.46 142.808 313.488 143.102C313.52 143.392 313.537 143.628 313.537 143.81V148.035H311.827ZM306.579 148.035V140.468H308.085V142.815H308.289V148.035H306.579ZM318.091 148.245C317.395 148.245 316.788 148.07 316.269 147.72C315.751 147.369 315.349 146.893 315.064 146.29C314.779 145.688 314.637 145.008 314.637 144.251C314.637 143.485 314.779 142.803 315.064 142.205C315.354 141.603 315.762 141.129 316.29 140.783C316.818 140.433 317.439 140.257 318.154 140.257C318.873 140.257 319.476 140.433 319.962 140.783C320.452 141.129 320.824 141.603 321.076 142.205C321.328 142.808 321.454 143.49 321.454 144.251C321.454 145.003 321.328 145.683 321.076 146.29C320.824 146.893 320.448 147.369 319.948 147.72C319.448 148.07 318.829 148.245 318.091 148.245ZM318.35 146.732C318.803 146.732 319.168 146.629 319.443 146.424C319.724 146.213 319.927 145.921 320.053 145.548C320.184 145.174 320.249 144.742 320.249 144.251C320.249 143.756 320.184 143.324 320.053 142.955C319.927 142.581 319.728 142.292 319.457 142.086C319.186 141.876 318.836 141.771 318.406 141.771C317.953 141.771 317.58 141.883 317.285 142.107C316.991 142.327 316.774 142.626 316.634 143.004C316.493 143.378 316.423 143.794 316.423 144.251C316.423 144.714 316.491 145.134 316.627 145.513C316.767 145.886 316.979 146.183 317.264 146.403C317.549 146.622 317.911 146.732 318.35 146.732ZM320.039 151.399V145.779H320.249V140.468H321.742V151.399H320.039ZM326.236 148.252C325.675 148.252 325.213 148.159 324.848 147.972C324.484 147.785 324.194 147.547 323.98 147.257C323.765 146.968 323.606 146.659 323.503 146.332C323.4 146.005 323.333 145.697 323.3 145.408C323.272 145.113 323.258 144.875 323.258 144.693V140.468H324.968V144.111C324.968 144.345 324.984 144.609 325.017 144.903C325.049 145.193 325.124 145.473 325.241 145.744C325.362 146.01 325.54 146.23 325.773 146.403C326.012 146.575 326.332 146.662 326.733 146.662C326.948 146.662 327.161 146.627 327.371 146.557C327.581 146.487 327.77 146.367 327.939 146.199C328.111 146.026 328.249 145.791 328.352 145.492C328.455 145.193 328.506 144.814 328.506 144.356L329.508 144.784C329.508 145.429 329.382 146.012 329.13 146.536C328.882 147.059 328.515 147.477 328.03 147.79C327.544 148.098 326.946 148.252 326.236 148.252ZM328.709 148.035V145.688H328.506V140.468H330.202V148.035H328.709ZM332.002 139.318V137.77H333.691V139.318H332.002ZM332.002 148.035V140.468H333.691V148.035H332.002ZM335.482 148.035V140.468H336.974V142.31L336.792 142.072C336.885 141.82 337.009 141.591 337.163 141.385C337.322 141.175 337.511 141.002 337.731 140.867C337.918 140.741 338.123 140.643 338.348 140.573C338.576 140.498 338.81 140.454 339.048 140.44C339.286 140.421 339.518 140.43 339.742 140.468V142.044C339.518 141.979 339.258 141.958 338.964 141.981C338.675 142.004 338.413 142.086 338.179 142.226C337.946 142.352 337.754 142.514 337.605 142.71C337.46 142.906 337.353 143.13 337.282 143.382C337.212 143.63 337.177 143.899 337.177 144.188V148.035H335.482ZM340.911 139.318V137.77H342.6V139.318H340.911ZM340.911 148.035V140.468H342.6V148.035H340.911ZM347.831 148.245C347.065 148.245 346.392 148.08 345.813 147.748C345.233 147.416 344.78 146.956 344.453 146.367C344.131 145.779 343.97 145.102 343.97 144.335C343.97 143.509 344.129 142.792 344.446 142.184C344.764 141.572 345.205 141.098 345.771 140.762C346.336 140.426 346.99 140.257 347.733 140.257C348.517 140.257 349.183 140.442 349.73 140.811C350.281 141.175 350.69 141.691 350.956 142.359C351.222 143.027 351.323 143.815 351.257 144.721H349.582V144.104C349.578 143.282 349.433 142.682 349.148 142.303C348.863 141.925 348.415 141.736 347.803 141.736C347.111 141.736 346.597 141.951 346.261 142.38C345.925 142.806 345.757 143.429 345.757 144.251C345.757 145.017 345.925 145.611 346.261 146.031C346.597 146.452 347.088 146.662 347.733 146.662C348.148 146.662 348.506 146.571 348.805 146.389C349.108 146.202 349.342 145.933 349.505 145.583L351.173 146.087C350.883 146.769 350.435 147.299 349.828 147.678C349.225 148.056 348.559 148.245 347.831 148.245ZM345.224 144.721V143.446H350.43V144.721H345.224ZM355.434 148.245C354.5 148.245 353.741 148.035 353.157 147.615C352.573 147.194 352.218 146.603 352.092 145.842L353.816 145.576C353.904 145.949 354.101 146.244 354.404 146.459C354.708 146.673 355.091 146.781 355.553 146.781C355.96 146.781 356.273 146.701 356.492 146.543C356.716 146.379 356.829 146.157 356.829 145.877C356.829 145.704 356.787 145.566 356.702 145.464C356.623 145.356 356.446 145.253 356.17 145.155C355.894 145.057 355.472 144.933 354.902 144.784C354.266 144.616 353.762 144.436 353.388 144.244C353.014 144.048 352.746 143.817 352.582 143.551C352.419 143.284 352.337 142.962 352.337 142.584C352.337 142.112 352.461 141.701 352.708 141.35C352.956 141 353.302 140.731 353.745 140.545C354.189 140.353 354.712 140.257 355.315 140.257C355.904 140.257 356.425 140.348 356.878 140.531C357.335 140.713 357.704 140.972 357.985 141.308C358.265 141.645 358.438 142.039 358.503 142.493L356.78 142.801C356.738 142.479 356.59 142.224 356.338 142.037C356.091 141.85 355.759 141.745 355.343 141.722C354.946 141.698 354.626 141.759 354.383 141.904C354.14 142.044 354.019 142.243 354.019 142.5C354.019 142.644 354.068 142.768 354.166 142.871C354.264 142.974 354.46 143.077 354.755 143.179C355.053 143.282 355.497 143.408 356.086 143.558C356.688 143.712 357.17 143.889 357.529 144.09C357.894 144.286 358.155 144.522 358.314 144.798C358.478 145.074 358.559 145.408 358.559 145.8C358.559 146.561 358.281 147.159 357.725 147.594C357.174 148.028 356.411 148.245 355.434 148.245Z" fill="white"/>
<path d="M248.106 130.535C247.277 130.535 246.606 131.207 246.606 132.035C246.606 132.864 247.277 133.535 248.106 133.535V130.535ZM275.061 133.096C275.647 132.51 275.647 131.56 275.061 130.974L265.515 121.429C264.929 120.843 263.979 120.843 263.393 121.429C262.808 122.014 262.808 122.964 263.393 123.55L271.879 132.035L263.393 140.52C262.808 141.106 262.808 142.056 263.393 142.642C263.979 143.228 264.929 143.228 265.515 142.642L275.061 133.096ZM248.106 133.535H274V130.535H248.106V133.535Z" fill="#B3B3B3"/>
</a>
</svg>
