<svg width="246" height="245" viewBox="0 0 246 245" fill="none" xmlns="http://www.w3.org/2000/svg">
<path d="M245.5 122.5C245.5 138.668 242.3 154.675 236.083 169.6L151.271 134.275C152.825 130.544 153.625 126.542 153.625 122.5H245.5Z" fill="#A4CCE1"/>
<path d="M236.083 169.6C226.771 191.958 211.04 211.054 190.878 224.475C170.716 237.895 147.028 245.038 122.808 245L122.952 153.125C129.007 153.134 134.929 151.349 139.969 147.994C145.01 144.639 148.943 139.865 151.271 134.275L236.083 169.6Z" fill="#7EA8BE"/>
<path d="M122.808 245C98.5881 244.962 74.9229 237.745 54.8031 224.262C34.6834 210.778 19.0121 191.633 9.76977 169.246L94.6924 134.186C97.003 139.783 100.921 144.57 105.951 147.94C110.981 151.311 116.897 153.115 122.952 153.125L122.808 245Z" fill="#4B91C6"/>
<path d="M9.76977 169.246C0.527452 146.858 -1.87109 122.234 2.87725 98.4838C7.6256 74.7338 19.3077 52.9244 36.4473 35.8116L101.362 100.828C97.0769 105.106 94.1564 110.558 92.9693 116.496C91.7822 122.433 92.3819 128.59 94.6924 134.186L9.76977 169.246Z" fill="#2E6E9E"/>
<path d="M36.4473 35.8116C47.8885 24.3883 61.4778 15.3428 76.4316 9.1967L111.358 94.1742C107.619 95.7107 104.222 97.9721 101.362 100.828L36.4473 35.8116Z" fill="#28536B"/>
<path d="M76.4316 9.1967C95.0382 1.54928 115.242 -1.39813 135.258 0.61481C155.274 2.62775 174.486 9.5391 191.197 20.7383C207.908 31.9376 221.604 47.08 231.075 64.8279C240.546 82.5759 245.5 102.383 245.5 122.5L153.625 122.5C153.625 117.471 152.386 112.519 150.019 108.082C147.651 103.645 144.227 99.8594 140.049 97.0596C135.871 94.2598 131.068 92.5319 126.064 92.0287C121.06 91.5255 116.01 92.2623 111.358 94.1742L76.4316 9.1967Z" fill="#BFD3DF"/>
<path d="M134.325 29.15C133.952 29.15 133.607 29.0733 133.29 28.92C132.973 28.7667 132.703 28.555 132.48 28.285C132.257 28.015 132.097 27.705 132 27.355L132.705 27.165C132.768 27.425 132.883 27.65 133.05 27.84C133.217 28.0267 133.412 28.1717 133.635 28.275C133.862 28.3783 134.098 28.43 134.345 28.43C134.665 28.43 134.952 28.3533 135.205 28.2C135.462 28.0433 135.665 27.8367 135.815 27.58C135.965 27.3233 136.04 27.0417 136.04 26.735C136.04 26.4183 135.962 26.1333 135.805 25.88C135.648 25.6233 135.442 25.42 135.185 25.27C134.928 25.12 134.648 25.045 134.345 25.045C134.005 25.045 133.712 25.12 133.465 25.27C133.218 25.4167 133.022 25.6017 132.875 25.825L132.205 25.545L132.425 21.8H136.27V22.505H132.75L133.115 22.16L132.92 25.355L132.735 25.11C132.942 24.8733 133.192 24.6883 133.485 24.555C133.778 24.4217 134.087 24.355 134.41 24.355C134.853 24.355 135.253 24.4617 135.61 24.675C135.967 24.885 136.25 25.17 136.46 25.53C136.67 25.89 136.775 26.2917 136.775 26.735C136.775 27.175 136.663 27.5783 136.44 27.945C136.217 28.3083 135.92 28.6 135.55 28.82C135.18 29.04 134.772 29.15 134.325 29.15ZM139.841 27.685V25.715H137.871V25.085H139.841V23.115H140.471V25.085H142.436V25.715H140.471V27.685H139.841Z" fill="white"/>
<path d="M134.135 39.145C133.778 39.145 133.45 39.0817 133.15 38.955C132.85 38.8283 132.592 38.6483 132.375 38.415C132.158 38.1783 132 37.8967 131.9 37.57L132.6 37.36C132.72 37.7167 132.917 37.9867 133.19 38.17C133.467 38.3533 133.778 38.4417 134.125 38.435C134.445 38.4283 134.72 38.3567 134.95 38.22C135.183 38.0833 135.362 37.8933 135.485 37.65C135.608 37.4067 135.67 37.125 135.67 36.805C135.67 36.315 135.527 35.9217 135.24 35.625C134.957 35.325 134.582 35.175 134.115 35.175C133.985 35.175 133.848 35.1933 133.705 35.23C133.562 35.2633 133.428 35.3117 133.305 35.375L132.935 34.79L135.735 32.205L135.855 32.505H132.185V31.8H136.345V32.515L133.905 34.845L133.895 34.555C134.395 34.4917 134.835 34.5483 135.215 34.725C135.595 34.9017 135.892 35.1717 136.105 35.535C136.322 35.895 136.43 36.3183 136.43 36.805C136.43 37.265 136.33 37.6717 136.13 38.025C135.933 38.375 135.662 38.65 135.315 38.85C134.968 39.0467 134.575 39.145 134.135 39.145ZM138.982 39V32.62L137.627 33.435V32.61L138.982 31.8H139.727V39H138.982ZM141.363 39V38.145H142.218V39H141.363ZM145.698 39.145C145.341 39.145 145.013 39.0817 144.713 38.955C144.413 38.8283 144.154 38.6483 143.938 38.415C143.721 38.1783 143.563 37.8967 143.463 37.57L144.163 37.36C144.283 37.7167 144.479 37.9867 144.753 38.17C145.029 38.3533 145.341 38.4417 145.688 38.435C146.008 38.4283 146.283 38.3567 146.513 38.22C146.746 38.0833 146.924 37.8933 147.048 37.65C147.171 37.4067 147.233 37.125 147.233 36.805C147.233 36.315 147.089 35.9217 146.803 35.625C146.519 35.325 146.144 35.175 145.678 35.175C145.548 35.175 145.411 35.1933 145.268 35.23C145.124 35.2633 144.991 35.3117 144.868 35.375L144.498 34.79L147.298 32.205L147.418 32.505H143.748V31.8H147.908V32.515L145.468 34.845L145.458 34.555C145.958 34.4917 146.398 34.5483 146.778 34.725C147.158 34.9017 147.454 35.1717 147.668 35.535C147.884 35.895 147.993 36.3183 147.993 36.805C147.993 37.265 147.893 37.6717 147.693 38.025C147.496 38.375 147.224 38.65 146.878 38.85C146.531 39.0467 146.138 39.145 145.698 39.145ZM149.99 39L149.49 38.5L156.205 31.8L156.705 32.295L149.99 39ZM155.205 39.15C154.875 39.15 154.573 39.07 154.3 38.91C154.03 38.7467 153.813 38.53 153.65 38.26C153.487 37.9867 153.405 37.6833 153.405 37.35C153.405 37.0233 153.488 36.7233 153.655 36.45C153.822 36.1767 154.042 35.9583 154.315 35.795C154.588 35.6317 154.885 35.55 155.205 35.55C155.535 35.55 155.837 35.6317 156.11 35.795C156.383 35.955 156.6 36.1717 156.76 36.445C156.923 36.715 157.005 37.0167 157.005 37.35C157.005 37.6833 156.923 37.9867 156.76 38.26C156.6 38.53 156.383 38.7467 156.11 38.91C155.837 39.07 155.535 39.15 155.205 39.15ZM155.205 38.485C155.408 38.485 155.597 38.4333 155.77 38.33C155.943 38.2267 156.082 38.09 156.185 37.92C156.288 37.7467 156.34 37.5567 156.34 37.35C156.34 37.1433 156.288 36.955 156.185 36.785C156.082 36.6117 155.943 36.4733 155.77 36.37C155.597 36.2667 155.408 36.215 155.205 36.215C154.998 36.215 154.808 36.2667 154.635 36.37C154.465 36.4733 154.327 36.6117 154.22 36.785C154.117 36.955 154.065 37.1433 154.065 37.35C154.065 37.5567 154.117 37.7467 154.22 37.92C154.327 38.09 154.465 38.2267 154.635 38.33C154.808 38.4333 154.998 38.485 155.205 38.485ZM150.99 35.25C150.66 35.25 150.358 35.17 150.085 35.01C149.812 34.8467 149.593 34.63 149.43 34.36C149.27 34.0867 149.19 33.7833 149.19 33.45C149.19 33.1233 149.273 32.8233 149.44 32.55C149.607 32.2767 149.827 32.0583 150.1 31.895C150.373 31.7317 150.67 31.65 150.99 31.65C151.32 31.65 151.62 31.7317 151.89 31.895C152.163 32.055 152.382 32.2717 152.545 32.545C152.708 32.815 152.79 33.1167 152.79 33.45C152.79 33.7833 152.708 34.0867 152.545 34.36C152.382 34.63 152.163 34.8467 151.89 35.01C151.62 35.17 151.32 35.25 150.99 35.25ZM150.99 34.585C151.197 34.585 151.385 34.5333 151.555 34.43C151.728 34.3267 151.867 34.19 151.97 34.02C152.073 33.8467 152.125 33.6567 152.125 33.45C152.125 33.2433 152.073 33.055 151.97 32.885C151.867 32.7117 151.728 32.5733 151.555 32.47C151.385 32.3667 151.197 32.315 150.99 32.315C150.783 32.315 150.593 32.3667 150.42 32.47C150.25 32.5733 150.113 32.7117 150.01 32.885C149.907 33.055 149.855 33.2433 149.855 33.45C149.855 33.6567 149.907 33.8467 150.01 34.02C150.113 34.19 150.25 34.3267 150.42 34.43C150.593 34.5333 150.783 34.585 150.99 34.585Z" fill="white"/>
<path d="M206.55 137.15C206.107 137.15 205.707 137.047 205.35 136.84C204.997 136.633 204.717 136.353 204.51 136C204.303 135.643 204.2 135.243 204.2 134.8V132C204.2 131.557 204.303 131.158 204.51 130.805C204.717 130.448 204.997 130.167 205.35 129.96C205.707 129.753 206.107 129.65 206.55 129.65C206.993 129.65 207.392 129.753 207.745 129.96C208.102 130.167 208.383 130.448 208.59 130.805C208.797 131.158 208.9 131.557 208.9 132V134.8C208.9 135.243 208.797 135.643 208.59 136C208.383 136.353 208.102 136.633 207.745 136.84C207.392 137.047 206.993 137.15 206.55 137.15ZM206.55 136.44C206.847 136.44 207.117 136.368 207.36 136.225C207.603 136.078 207.797 135.883 207.94 135.64C208.083 135.397 208.155 135.128 208.155 134.835V131.965C208.155 131.668 208.083 131.398 207.94 131.155C207.797 130.912 207.603 130.718 207.36 130.575C207.117 130.428 206.847 130.355 206.55 130.355C206.253 130.355 205.983 130.428 205.74 130.575C205.497 130.718 205.303 130.912 205.16 131.155C205.017 131.398 204.945 131.668 204.945 131.965V134.835C204.945 135.128 205.017 135.397 205.16 135.64C205.303 135.883 205.497 136.078 205.74 136.225C205.983 136.368 206.253 136.44 206.55 136.44Z" fill="white"/>
<path d="M206.635 147.15C206.185 147.15 205.775 147.042 205.405 146.825C205.038 146.605 204.745 146.308 204.525 145.935C204.308 145.558 204.2 145.135 204.2 144.665V142.17C204.2 141.687 204.308 141.257 204.525 140.88C204.742 140.5 205.037 140.202 205.41 139.985C205.787 139.765 206.213 139.655 206.69 139.655C207.1 139.655 207.48 139.745 207.83 139.925C208.183 140.105 208.472 140.357 208.695 140.68L208.13 141.145C207.977 140.905 207.773 140.713 207.52 140.57C207.267 140.427 206.99 140.355 206.69 140.355C206.353 140.355 206.053 140.437 205.79 140.6C205.527 140.763 205.32 140.978 205.17 141.245C205.02 141.508 204.945 141.795 204.945 142.105V143.675L204.76 143.465C204.97 143.135 205.245 142.868 205.585 142.665C205.928 142.462 206.302 142.36 206.705 142.36C207.152 142.36 207.553 142.467 207.91 142.68C208.267 142.89 208.55 143.175 208.76 143.535C208.97 143.895 209.075 144.298 209.075 144.745C209.075 145.188 208.963 145.592 208.74 145.955C208.52 146.318 208.225 146.608 207.855 146.825C207.488 147.042 207.082 147.15 206.635 147.15ZM206.635 146.435C206.948 146.435 207.233 146.36 207.49 146.21C207.75 146.06 207.955 145.857 208.105 145.6C208.258 145.343 208.335 145.058 208.335 144.745C208.335 144.432 208.258 144.147 208.105 143.89C207.955 143.63 207.752 143.425 207.495 143.275C207.238 143.122 206.953 143.045 206.64 143.045C206.327 143.045 206.042 143.122 205.785 143.275C205.528 143.425 205.323 143.63 205.17 143.89C205.02 144.147 204.945 144.432 204.945 144.745C204.945 145.055 205.02 145.338 205.17 145.595C205.32 145.852 205.523 146.057 205.78 146.21C206.037 146.36 206.322 146.435 206.635 146.435ZM210.541 147V146.145H211.396V147H210.541ZM214.875 147.145C214.519 147.145 214.19 147.082 213.89 146.955C213.59 146.828 213.332 146.648 213.115 146.415C212.899 146.178 212.74 145.897 212.64 145.57L213.34 145.36C213.46 145.717 213.657 145.987 213.93 146.17C214.207 146.353 214.519 146.442 214.865 146.435C215.185 146.428 215.46 146.357 215.69 146.22C215.924 146.083 216.102 145.893 216.225 145.65C216.349 145.407 216.41 145.125 216.41 144.805C216.41 144.315 216.267 143.922 215.98 143.625C215.697 143.325 215.322 143.175 214.855 143.175C214.725 143.175 214.589 143.193 214.445 143.23C214.302 143.263 214.169 143.312 214.045 143.375L213.675 142.79L216.475 140.205L216.595 140.505H212.925V139.8H217.085V140.515L214.645 142.845L214.635 142.555C215.135 142.492 215.575 142.548 215.955 142.725C216.335 142.902 216.632 143.172 216.845 143.535C217.062 143.895 217.17 144.318 217.17 144.805C217.17 145.265 217.07 145.672 216.87 146.025C216.674 146.375 216.402 146.65 216.055 146.85C215.709 147.047 215.315 147.145 214.875 147.145ZM219.168 147L218.668 146.5L225.383 139.8L225.883 140.295L219.168 147ZM224.383 147.15C224.053 147.15 223.751 147.07 223.478 146.91C223.208 146.747 222.991 146.53 222.828 146.26C222.664 145.987 222.583 145.683 222.583 145.35C222.583 145.023 222.666 144.723 222.833 144.45C222.999 144.177 223.219 143.958 223.493 143.795C223.766 143.632 224.063 143.55 224.383 143.55C224.713 143.55 225.014 143.632 225.288 143.795C225.561 143.955 225.778 144.172 225.938 144.445C226.101 144.715 226.183 145.017 226.183 145.35C226.183 145.683 226.101 145.987 225.938 146.26C225.778 146.53 225.561 146.747 225.288 146.91C225.014 147.07 224.713 147.15 224.383 147.15ZM224.383 146.485C224.586 146.485 224.774 146.433 224.948 146.33C225.121 146.227 225.259 146.09 225.363 145.92C225.466 145.747 225.518 145.557 225.518 145.35C225.518 145.143 225.466 144.955 225.363 144.785C225.259 144.612 225.121 144.473 224.948 144.37C224.774 144.267 224.586 144.215 224.383 144.215C224.176 144.215 223.986 144.267 223.813 144.37C223.643 144.473 223.504 144.612 223.398 144.785C223.294 144.955 223.243 145.143 223.243 145.35C223.243 145.557 223.294 145.747 223.398 145.92C223.504 146.09 223.643 146.227 223.813 146.33C223.986 146.433 224.176 146.485 224.383 146.485ZM220.168 143.25C219.838 143.25 219.536 143.17 219.263 143.01C218.989 142.847 218.771 142.63 218.608 142.36C218.448 142.087 218.368 141.783 218.368 141.45C218.368 141.123 218.451 140.823 218.618 140.55C218.784 140.277 219.004 140.058 219.278 139.895C219.551 139.732 219.848 139.65 220.168 139.65C220.498 139.65 220.798 139.732 221.068 139.895C221.341 140.055 221.559 140.272 221.723 140.545C221.886 140.815 221.968 141.117 221.968 141.45C221.968 141.783 221.886 142.087 221.723 142.36C221.559 142.63 221.341 142.847 221.068 143.01C220.798 143.17 220.498 143.25 220.168 143.25ZM220.168 142.585C220.374 142.585 220.563 142.533 220.733 142.43C220.906 142.327 221.044 142.19 221.148 142.02C221.251 141.847 221.303 141.657 221.303 141.45C221.303 141.243 221.251 141.055 221.148 140.885C221.044 140.712 220.906 140.573 220.733 140.47C220.563 140.367 220.374 140.315 220.168 140.315C219.961 140.315 219.771 140.367 219.598 140.47C219.428 140.573 219.291 140.712 219.188 140.885C219.084 141.055 219.033 141.243 219.033 141.45C219.033 141.657 219.084 141.847 219.188 142.02C219.291 142.19 219.428 142.327 219.598 142.43C219.771 142.533 219.961 142.585 220.168 142.585Z" fill="white"/>
<path d="M64.37 43V41.605H61V40.905L63.41 35.8H64.235L61.825 40.905H64.37V38.805H65.11V40.905H65.895V41.605H65.11V43H64.37Z" fill="white"/>
<path d="M63.635 53.15C63.185 53.15 62.775 53.0417 62.405 52.825C62.0383 52.605 61.745 52.3083 61.525 51.935C61.3083 51.5583 61.2 51.135 61.2 50.665V48.17C61.2 47.6867 61.3083 47.2567 61.525 46.88C61.7417 46.5 62.0367 46.2017 62.41 45.985C62.7867 45.765 63.2133 45.655 63.69 45.655C64.1 45.655 64.48 45.745 64.83 45.925C65.1833 46.105 65.4717 46.3567 65.695 46.68L65.13 47.145C64.9767 46.905 64.7733 46.7133 64.52 46.57C64.2667 46.4267 63.99 46.355 63.69 46.355C63.3533 46.355 63.0533 46.4367 62.79 46.6C62.5267 46.7633 62.32 46.9783 62.17 47.245C62.02 47.5083 61.945 47.795 61.945 48.105V49.675L61.76 49.465C61.97 49.135 62.245 48.8683 62.585 48.665C62.9283 48.4617 63.3017 48.36 63.705 48.36C64.1517 48.36 64.5533 48.4667 64.91 48.68C65.2667 48.89 65.55 49.175 65.76 49.535C65.97 49.895 66.075 50.2983 66.075 50.745C66.075 51.1883 65.9633 51.5917 65.74 51.955C65.52 52.3183 65.225 52.6083 64.855 52.825C64.4883 53.0417 64.0817 53.15 63.635 53.15ZM63.635 52.435C63.9483 52.435 64.2333 52.36 64.49 52.21C64.75 52.06 64.955 51.8567 65.105 51.6C65.2583 51.3433 65.335 51.0583 65.335 50.745C65.335 50.4317 65.2583 50.1467 65.105 49.89C64.955 49.63 64.7517 49.425 64.495 49.275C64.2383 49.1217 63.9533 49.045 63.64 49.045C63.3267 49.045 63.0417 49.1217 62.785 49.275C62.5283 49.425 62.3233 49.63 62.17 49.89C62.02 50.1467 61.945 50.4317 61.945 50.745C61.945 51.055 62.02 51.3383 62.17 51.595C62.32 51.8517 62.5233 52.0567 62.78 52.21C63.0367 52.36 63.3217 52.435 63.635 52.435ZM67.5412 53V52.145H68.3962V53H67.5412ZM71.8752 53.145C71.5186 53.145 71.1902 53.0817 70.8902 52.955C70.5902 52.8283 70.3319 52.6483 70.1152 52.415C69.8986 52.1783 69.7402 51.8967 69.6402 51.57L70.3402 51.36C70.4602 51.7167 70.6569 51.9867 70.9302 52.17C71.2069 52.3533 71.5186 52.4417 71.8652 52.435C72.1852 52.4283 72.4602 52.3567 72.6902 52.22C72.9236 52.0833 73.1019 51.8933 73.2252 51.65C73.3486 51.4067 73.4102 51.125 73.4102 50.805C73.4102 50.315 73.2669 49.9217 72.9802 49.625C72.6969 49.325 72.3219 49.175 71.8552 49.175C71.7252 49.175 71.5886 49.1933 71.4452 49.23C71.3019 49.2633 71.1686 49.3117 71.0452 49.375L70.6752 48.79L73.4752 46.205L73.5952 46.505H69.9252V45.8H74.0852V46.515L71.6452 48.845L71.6352 48.555C72.1352 48.4917 72.5752 48.5483 72.9552 48.725C73.3352 48.9017 73.6319 49.1717 73.8452 49.535C74.0619 49.895 74.1702 50.3183 74.1702 50.805C74.1702 51.265 74.0702 51.6717 73.8702 52.025C73.6736 52.375 73.4019 52.65 73.0552 52.85C72.7086 53.0467 72.3152 53.145 71.8752 53.145ZM76.1676 53L75.6676 52.5L82.3826 45.8L82.8826 46.295L76.1676 53ZM81.3826 53.15C81.0526 53.15 80.7509 53.07 80.4776 52.91C80.2076 52.7467 79.9909 52.53 79.8276 52.26C79.6642 51.9867 79.5826 51.6833 79.5826 51.35C79.5826 51.0233 79.6659 50.7233 79.8326 50.45C79.9992 50.1767 80.2192 49.9583 80.4926 49.795C80.7659 49.6317 81.0626 49.55 81.3826 49.55C81.7126 49.55 82.0142 49.6317 82.2876 49.795C82.5609 49.955 82.7776 50.1717 82.9376 50.445C83.1009 50.715 83.1826 51.0167 83.1826 51.35C83.1826 51.6833 83.1009 51.9867 82.9376 52.26C82.7776 52.53 82.5609 52.7467 82.2876 52.91C82.0142 53.07 81.7126 53.15 81.3826 53.15ZM81.3826 52.485C81.5859 52.485 81.7742 52.4333 81.9476 52.33C82.1209 52.2267 82.2592 52.09 82.3626 51.92C82.4659 51.7467 82.5176 51.5567 82.5176 51.35C82.5176 51.1433 82.4659 50.955 82.3626 50.785C82.2592 50.6117 82.1209 50.4733 81.9476 50.37C81.7742 50.2667 81.5859 50.215 81.3826 50.215C81.1759 50.215 80.9859 50.2667 80.8126 50.37C80.6426 50.4733 80.5042 50.6117 80.3976 50.785C80.2942 50.955 80.2426 51.1433 80.2426 51.35C80.2426 51.5567 80.2942 51.7467 80.3976 51.92C80.5042 52.09 80.6426 52.2267 80.8126 52.33C80.9859 52.4333 81.1759 52.485 81.3826 52.485ZM77.1676 49.25C76.8376 49.25 76.5359 49.17 76.2626 49.01C75.9892 48.8467 75.7709 48.63 75.6076 48.36C75.4476 48.0867 75.3676 47.7833 75.3676 47.45C75.3676 47.1233 75.4509 46.8233 75.6176 46.55C75.7842 46.2767 76.0042 46.0583 76.2776 45.895C76.5509 45.7317 76.8476 45.65 77.1676 45.65C77.4976 45.65 77.7976 45.7317 78.0676 45.895C78.3409 46.055 78.5592 46.2717 78.7226 46.545C78.8859 46.815 78.9676 47.1167 78.9676 47.45C78.9676 47.7833 78.8859 48.0867 78.7226 48.36C78.5592 48.63 78.3409 48.8467 78.0676 49.01C77.7976 49.17 77.4976 49.25 77.1676 49.25ZM77.1676 48.585C77.3742 48.585 77.5626 48.5333 77.7326 48.43C77.9059 48.3267 78.0442 48.19 78.1476 48.02C78.2509 47.8467 78.3026 47.6567 78.3026 47.45C78.3026 47.2433 78.2509 47.055 78.1476 46.885C78.0442 46.7117 77.9059 46.5733 77.7326 46.47C77.5626 46.3667 77.3742 46.315 77.1676 46.315C76.9609 46.315 76.7709 46.3667 76.5976 46.47C76.4276 46.5733 76.2909 46.7117 76.1876 46.885C76.0842 47.055 76.0326 47.2433 76.0326 47.45C76.0326 47.6567 76.0842 47.8467 76.1876 48.02C76.2909 48.19 76.4276 48.3267 76.5976 48.43C76.7709 48.5333 76.9609 48.585 77.1676 48.585Z" fill="white"/>
<path d="M146.455 190V183.62L145.1 184.435V183.61L146.455 182.8H147.2V190H146.455Z" fill="white"/>
<path d="M146.455 200V193.62L145.1 194.435V193.61L146.455 192.8H147.2V200H146.455ZM151.291 200.15C150.841 200.15 150.443 200.06 150.096 199.88C149.753 199.7 149.483 199.448 149.286 199.125C149.093 198.798 148.996 198.417 148.996 197.98C148.996 197.533 149.105 197.137 149.321 196.79C149.538 196.44 149.868 196.175 150.311 195.995L150.301 196.285C149.931 196.148 149.65 195.925 149.456 195.615C149.263 195.305 149.166 194.962 149.166 194.585C149.166 194.185 149.258 193.842 149.441 193.555C149.625 193.265 149.875 193.042 150.191 192.885C150.511 192.728 150.878 192.65 151.291 192.65C151.705 192.65 152.071 192.728 152.391 192.885C152.711 193.042 152.963 193.265 153.146 193.555C153.33 193.842 153.421 194.185 153.421 194.585C153.421 194.962 153.328 195.303 153.141 195.61C152.958 195.917 152.676 196.142 152.296 196.285L152.271 195.995C152.715 196.172 153.046 196.435 153.266 196.785C153.49 197.135 153.601 197.533 153.601 197.98C153.601 198.417 153.503 198.798 153.306 199.125C153.11 199.448 152.838 199.7 152.491 199.88C152.145 200.06 151.745 200.15 151.291 200.15ZM151.291 199.445C151.745 199.445 152.113 199.32 152.396 199.07C152.68 198.817 152.821 198.453 152.821 197.98C152.821 197.5 152.681 197.137 152.401 196.89C152.121 196.64 151.751 196.515 151.291 196.515C150.831 196.515 150.463 196.64 150.186 196.89C149.91 197.137 149.771 197.5 149.771 197.98C149.771 198.453 149.911 198.817 150.191 199.07C150.471 199.32 150.838 199.445 151.291 199.445ZM151.291 195.805C151.691 195.805 152.016 195.703 152.266 195.5C152.516 195.293 152.641 194.988 152.641 194.585C152.641 194.182 152.516 193.88 152.266 193.68C152.016 193.477 151.691 193.375 151.291 193.375C150.891 193.375 150.566 193.477 150.316 193.68C150.07 193.88 149.946 194.182 149.946 194.585C149.946 194.988 150.07 195.293 150.316 195.5C150.566 195.703 150.891 195.805 151.291 195.805ZM155.037 200V199.145H155.892V200H155.037ZM159.631 200.15C159.181 200.15 158.783 200.06 158.436 199.88C158.093 199.7 157.823 199.448 157.626 199.125C157.433 198.798 157.336 198.417 157.336 197.98C157.336 197.533 157.445 197.137 157.661 196.79C157.878 196.44 158.208 196.175 158.651 195.995L158.641 196.285C158.271 196.148 157.99 195.925 157.796 195.615C157.603 195.305 157.506 194.962 157.506 194.585C157.506 194.185 157.598 193.842 157.781 193.555C157.965 193.265 158.215 193.042 158.531 192.885C158.851 192.728 159.218 192.65 159.631 192.65C160.045 192.65 160.411 192.728 160.731 192.885C161.051 193.042 161.303 193.265 161.486 193.555C161.67 193.842 161.761 194.185 161.761 194.585C161.761 194.962 161.668 195.303 161.481 195.61C161.298 195.917 161.016 196.142 160.636 196.285L160.611 195.995C161.055 196.172 161.386 196.435 161.606 196.785C161.83 197.135 161.941 197.533 161.941 197.98C161.941 198.417 161.843 198.798 161.646 199.125C161.45 199.448 161.178 199.7 160.831 199.88C160.485 200.06 160.085 200.15 159.631 200.15ZM159.631 199.445C160.085 199.445 160.453 199.32 160.736 199.07C161.02 198.817 161.161 198.453 161.161 197.98C161.161 197.5 161.021 197.137 160.741 196.89C160.461 196.64 160.091 196.515 159.631 196.515C159.171 196.515 158.803 196.64 158.526 196.89C158.25 197.137 158.111 197.5 158.111 197.98C158.111 198.453 158.251 198.817 158.531 199.07C158.811 199.32 159.178 199.445 159.631 199.445ZM159.631 195.805C160.031 195.805 160.356 195.703 160.606 195.5C160.856 195.293 160.981 194.988 160.981 194.585C160.981 194.182 160.856 193.88 160.606 193.68C160.356 193.477 160.031 193.375 159.631 193.375C159.231 193.375 158.906 193.477 158.656 193.68C158.41 193.88 158.286 194.182 158.286 194.585C158.286 194.988 158.41 195.293 158.656 195.5C158.906 195.703 159.231 195.805 159.631 195.805ZM163.937 200L163.437 199.5L170.152 192.8L170.652 193.295L163.937 200ZM169.152 200.15C168.822 200.15 168.52 200.07 168.247 199.91C167.977 199.747 167.76 199.53 167.597 199.26C167.434 198.987 167.352 198.683 167.352 198.35C167.352 198.023 167.435 197.723 167.602 197.45C167.769 197.177 167.989 196.958 168.262 196.795C168.535 196.632 168.832 196.55 169.152 196.55C169.482 196.55 169.784 196.632 170.057 196.795C170.33 196.955 170.547 197.172 170.707 197.445C170.87 197.715 170.952 198.017 170.952 198.35C170.952 198.683 170.87 198.987 170.707 199.26C170.547 199.53 170.33 199.747 170.057 199.91C169.784 200.07 169.482 200.15 169.152 200.15ZM169.152 199.485C169.355 199.485 169.544 199.433 169.717 199.33C169.89 199.227 170.029 199.09 170.132 198.92C170.235 198.747 170.287 198.557 170.287 198.35C170.287 198.143 170.235 197.955 170.132 197.785C170.029 197.612 169.89 197.473 169.717 197.37C169.544 197.267 169.355 197.215 169.152 197.215C168.945 197.215 168.755 197.267 168.582 197.37C168.412 197.473 168.274 197.612 168.167 197.785C168.064 197.955 168.012 198.143 168.012 198.35C168.012 198.557 168.064 198.747 168.167 198.92C168.274 199.09 168.412 199.227 168.582 199.33C168.755 199.433 168.945 199.485 169.152 199.485ZM164.937 196.25C164.607 196.25 164.305 196.17 164.032 196.01C163.759 195.847 163.54 195.63 163.377 195.36C163.217 195.087 163.137 194.783 163.137 194.45C163.137 194.123 163.22 193.823 163.387 193.55C163.554 193.277 163.774 193.058 164.047 192.895C164.32 192.732 164.617 192.65 164.937 192.65C165.267 192.65 165.567 192.732 165.837 192.895C166.11 193.055 166.329 193.272 166.492 193.545C166.655 193.815 166.737 194.117 166.737 194.45C166.737 194.783 166.655 195.087 166.492 195.36C166.329 195.63 166.11 195.847 165.837 196.01C165.567 196.17 165.267 196.25 164.937 196.25ZM164.937 195.585C165.144 195.585 165.332 195.533 165.502 195.43C165.675 195.327 165.814 195.19 165.917 195.02C166.02 194.847 166.072 194.657 166.072 194.45C166.072 194.243 166.02 194.055 165.917 193.885C165.814 193.712 165.675 193.573 165.502 193.47C165.332 193.367 165.144 193.315 164.937 193.315C164.73 193.315 164.54 193.367 164.367 193.47C164.197 193.573 164.06 193.712 163.957 193.885C163.854 194.055 163.802 194.243 163.802 194.45C163.802 194.657 163.854 194.847 163.957 195.02C164.06 195.19 164.197 195.327 164.367 195.43C164.54 195.533 164.73 195.585 164.937 195.585Z" fill="white"/>
<path d="M57 179.995L57.005 179.325L60.26 176.385C60.54 176.132 60.725 175.892 60.815 175.665C60.9083 175.435 60.955 175.195 60.955 174.945C60.955 174.648 60.885 174.38 60.745 174.14C60.605 173.9 60.4167 173.71 60.18 173.57C59.9433 173.427 59.6783 173.355 59.385 173.355C59.0783 173.355 58.805 173.428 58.565 173.575C58.325 173.722 58.135 173.915 57.995 174.155C57.8583 174.395 57.7917 174.657 57.795 174.94H57.045C57.045 174.503 57.1483 174.112 57.355 173.765C57.5617 173.418 57.8417 173.147 58.195 172.95C58.5483 172.75 58.9483 172.65 59.395 172.65C59.8317 172.65 60.2233 172.753 60.57 172.96C60.92 173.163 61.195 173.44 61.395 173.79C61.5983 174.137 61.7 174.523 61.7 174.95C61.7 175.25 61.6633 175.515 61.59 175.745C61.52 175.972 61.4083 176.183 61.255 176.38C61.105 176.573 60.9133 176.773 60.68 176.98L57.79 179.59L57.675 179.29H61.7V179.995H57Z" fill="white"/>
<path d="M58.455 190V183.62L57.1 184.435V183.61L58.455 182.8H59.2V190H58.455ZM63.2915 190.15C62.8415 190.15 62.4432 190.06 62.0965 189.88C61.7532 189.7 61.4832 189.448 61.2865 189.125C61.0932 188.798 60.9965 188.417 60.9965 187.98C60.9965 187.533 61.1048 187.137 61.3215 186.79C61.5382 186.44 61.8682 186.175 62.3115 185.995L62.3015 186.285C61.9315 186.148 61.6498 185.925 61.4565 185.615C61.2632 185.305 61.1665 184.962 61.1665 184.585C61.1665 184.185 61.2582 183.842 61.4415 183.555C61.6248 183.265 61.8748 183.042 62.1915 182.885C62.5115 182.728 62.8782 182.65 63.2915 182.65C63.7048 182.65 64.0715 182.728 64.3915 182.885C64.7115 183.042 64.9632 183.265 65.1465 183.555C65.3298 183.842 65.4215 184.185 65.4215 184.585C65.4215 184.962 65.3282 185.303 65.1415 185.61C64.9582 185.917 64.6765 186.142 64.2965 186.285L64.2715 185.995C64.7148 186.172 65.0465 186.435 65.2665 186.785C65.4898 187.135 65.6015 187.533 65.6015 187.98C65.6015 188.417 65.5032 188.798 65.3065 189.125C65.1098 189.448 64.8382 189.7 64.4915 189.88C64.1448 190.06 63.7448 190.15 63.2915 190.15ZM63.2915 189.445C63.7448 189.445 64.1132 189.32 64.3965 189.07C64.6798 188.817 64.8215 188.453 64.8215 187.98C64.8215 187.5 64.6815 187.137 64.4015 186.89C64.1215 186.64 63.7515 186.515 63.2915 186.515C62.8315 186.515 62.4632 186.64 62.1865 186.89C61.9098 187.137 61.7715 187.5 61.7715 187.98C61.7715 188.453 61.9115 188.817 62.1915 189.07C62.4715 189.32 62.8382 189.445 63.2915 189.445ZM63.2915 185.805C63.6915 185.805 64.0165 185.703 64.2665 185.5C64.5165 185.293 64.6415 184.988 64.6415 184.585C64.6415 184.182 64.5165 183.88 64.2665 183.68C64.0165 183.477 63.6915 183.375 63.2915 183.375C62.8915 183.375 62.5665 183.477 62.3165 183.68C62.0698 183.88 61.9465 184.182 61.9465 184.585C61.9465 184.988 62.0698 185.293 62.3165 185.5C62.5665 185.703 62.8915 185.805 63.2915 185.805ZM67.0373 190V189.145H67.8923V190H67.0373ZM71.6313 190.15C71.1813 190.15 70.783 190.06 70.4363 189.88C70.093 189.7 69.823 189.448 69.6263 189.125C69.433 188.798 69.3363 188.417 69.3363 187.98C69.3363 187.533 69.4447 187.137 69.6613 186.79C69.878 186.44 70.208 186.175 70.6513 185.995L70.6413 186.285C70.2713 186.148 69.9897 185.925 69.7963 185.615C69.603 185.305 69.5063 184.962 69.5063 184.585C69.5063 184.185 69.598 183.842 69.7813 183.555C69.9647 183.265 70.2147 183.042 70.5313 182.885C70.8513 182.728 71.218 182.65 71.6313 182.65C72.0447 182.65 72.4113 182.728 72.7313 182.885C73.0513 183.042 73.303 183.265 73.4863 183.555C73.6697 183.842 73.7613 184.185 73.7613 184.585C73.7613 184.962 73.668 185.303 73.4813 185.61C73.298 185.917 73.0163 186.142 72.6363 186.285L72.6113 185.995C73.0547 186.172 73.3863 186.435 73.6063 186.785C73.8297 187.135 73.9413 187.533 73.9413 187.98C73.9413 188.417 73.843 188.798 73.6463 189.125C73.4497 189.448 73.178 189.7 72.8313 189.88C72.4847 190.06 72.0847 190.15 71.6313 190.15ZM71.6313 189.445C72.0847 189.445 72.453 189.32 72.7363 189.07C73.0197 188.817 73.1613 188.453 73.1613 187.98C73.1613 187.5 73.0213 187.137 72.7413 186.89C72.4613 186.64 72.0913 186.515 71.6313 186.515C71.1713 186.515 70.803 186.64 70.5263 186.89C70.2497 187.137 70.1113 187.5 70.1113 187.98C70.1113 188.453 70.2513 188.817 70.5313 189.07C70.8113 189.32 71.178 189.445 71.6313 189.445ZM71.6313 185.805C72.0313 185.805 72.3563 185.703 72.6063 185.5C72.8563 185.293 72.9813 184.988 72.9813 184.585C72.9813 184.182 72.8563 183.88 72.6063 183.68C72.3563 183.477 72.0313 183.375 71.6313 183.375C71.2313 183.375 70.9063 183.477 70.6563 183.68C70.4097 183.88 70.2863 184.182 70.2863 184.585C70.2863 184.988 70.4097 185.293 70.6563 185.5C70.9063 185.703 71.2313 185.805 71.6313 185.805ZM75.9371 190L75.4371 189.5L82.1521 182.8L82.6521 183.295L75.9371 190ZM81.1521 190.15C80.8221 190.15 80.5204 190.07 80.2471 189.91C79.9771 189.747 79.7604 189.53 79.5971 189.26C79.4338 188.987 79.3521 188.683 79.3521 188.35C79.3521 188.023 79.4354 187.723 79.6021 187.45C79.7688 187.177 79.9888 186.958 80.2621 186.795C80.5354 186.632 80.8321 186.55 81.1521 186.55C81.4821 186.55 81.7838 186.632 82.0571 186.795C82.3304 186.955 82.5471 187.172 82.7071 187.445C82.8704 187.715 82.9521 188.017 82.9521 188.35C82.9521 188.683 82.8704 188.987 82.7071 189.26C82.5471 189.53 82.3304 189.747 82.0571 189.91C81.7838 190.07 81.4821 190.15 81.1521 190.15ZM81.1521 189.485C81.3554 189.485 81.5438 189.433 81.7171 189.33C81.8904 189.227 82.0288 189.09 82.1321 188.92C82.2354 188.747 82.2871 188.557 82.2871 188.35C82.2871 188.143 82.2354 187.955 82.1321 187.785C82.0288 187.612 81.8904 187.473 81.7171 187.37C81.5438 187.267 81.3554 187.215 81.1521 187.215C80.9454 187.215 80.7554 187.267 80.5821 187.37C80.4121 187.473 80.2738 187.612 80.1671 187.785C80.0638 187.955 80.0121 188.143 80.0121 188.35C80.0121 188.557 80.0638 188.747 80.1671 188.92C80.2738 189.09 80.4121 189.227 80.5821 189.33C80.7554 189.433 80.9454 189.485 81.1521 189.485ZM76.9371 186.25C76.6071 186.25 76.3054 186.17 76.0321 186.01C75.7588 185.847 75.5404 185.63 75.3771 185.36C75.2171 185.087 75.1371 184.783 75.1371 184.45C75.1371 184.123 75.2204 183.823 75.3871 183.55C75.5538 183.277 75.7738 183.058 76.0471 182.895C76.3204 182.732 76.6171 182.65 76.9371 182.65C77.2671 182.65 77.5671 182.732 77.8371 182.895C78.1104 183.055 78.3288 183.272 78.4921 183.545C78.6554 183.815 78.7371 184.117 78.7371 184.45C78.7371 184.783 78.6554 185.087 78.4921 185.36C78.3288 185.63 78.1104 185.847 77.8371 186.01C77.5671 186.17 77.2671 186.25 76.9371 186.25ZM76.9371 185.585C77.1438 185.585 77.3321 185.533 77.5021 185.43C77.6754 185.327 77.8138 185.19 77.9171 185.02C78.0204 184.847 78.0721 184.657 78.0721 184.45C78.0721 184.243 78.0204 184.055 77.9171 183.885C77.8138 183.712 77.6754 183.573 77.5021 183.47C77.3321 183.367 77.1438 183.315 76.9371 183.315C76.7304 183.315 76.5404 183.367 76.3671 183.47C76.1971 183.573 76.0604 183.712 75.9571 183.885C75.8538 184.055 75.8021 184.243 75.8021 184.45C75.8021 184.657 75.8538 184.847 75.9571 185.02C76.0604 185.19 76.1971 185.327 76.3671 185.43C76.5404 185.533 76.7304 185.585 76.9371 185.585Z" fill="white"/>
<path d="M35.135 92.145C34.7783 92.145 34.45 92.0817 34.15 91.955C33.85 91.8283 33.5917 91.6483 33.375 91.415C33.1583 91.1783 33 90.8967 32.9 90.57L33.6 90.36C33.72 90.7167 33.9167 90.9867 34.19 91.17C34.4667 91.3533 34.7783 91.4417 35.125 91.435C35.445 91.4283 35.72 91.3567 35.95 91.22C36.1833 91.0833 36.3617 90.8933 36.485 90.65C36.6083 90.4067 36.67 90.125 36.67 89.805C36.67 89.315 36.5267 88.9217 36.24 88.625C35.9567 88.325 35.5817 88.175 35.115 88.175C34.985 88.175 34.8483 88.1933 34.705 88.23C34.5617 88.2633 34.4283 88.3117 34.305 88.375L33.935 87.79L36.735 85.205L36.855 85.505H33.185V84.8H37.345V85.515L34.905 87.845L34.895 87.555C35.395 87.4917 35.835 87.5483 36.215 87.725C36.595 87.9017 36.8917 88.1717 37.105 88.535C37.3217 88.895 37.43 89.3183 37.43 89.805C37.43 90.265 37.33 90.6717 37.13 91.025C36.9333 91.375 36.6617 91.65 36.315 91.85C35.9683 92.0467 35.575 92.145 35.135 92.145Z" fill="white"/>
<path d="M34.455 102V95.62L33.1 96.435V95.61L34.455 94.8H35.2V102H34.455ZM39.2915 102.15C38.8415 102.15 38.4432 102.06 38.0965 101.88C37.7532 101.7 37.4832 101.448 37.2865 101.125C37.0932 100.798 36.9965 100.417 36.9965 99.98C36.9965 99.5333 37.1048 99.1367 37.3215 98.79C37.5382 98.44 37.8682 98.175 38.3115 97.995L38.3015 98.285C37.9315 98.1483 37.6498 97.925 37.4565 97.615C37.2632 97.305 37.1665 96.9617 37.1665 96.585C37.1665 96.185 37.2582 95.8417 37.4415 95.555C37.6248 95.265 37.8748 95.0417 38.1915 94.885C38.5115 94.7283 38.8782 94.65 39.2915 94.65C39.7048 94.65 40.0715 94.7283 40.3915 94.885C40.7115 95.0417 40.9632 95.265 41.1465 95.555C41.3298 95.8417 41.4215 96.185 41.4215 96.585C41.4215 96.9617 41.3282 97.3033 41.1415 97.61C40.9582 97.9167 40.6765 98.1417 40.2965 98.285L40.2715 97.995C40.7148 98.1717 41.0465 98.435 41.2665 98.785C41.4898 99.135 41.6015 99.5333 41.6015 99.98C41.6015 100.417 41.5032 100.798 41.3065 101.125C41.1098 101.448 40.8382 101.7 40.4915 101.88C40.1448 102.06 39.7448 102.15 39.2915 102.15ZM39.2915 101.445C39.7448 101.445 40.1132 101.32 40.3965 101.07C40.6798 100.817 40.8215 100.453 40.8215 99.98C40.8215 99.5 40.6815 99.1367 40.4015 98.89C40.1215 98.64 39.7515 98.515 39.2915 98.515C38.8315 98.515 38.4632 98.64 38.1865 98.89C37.9098 99.1367 37.7715 99.5 37.7715 99.98C37.7715 100.453 37.9115 100.817 38.1915 101.07C38.4715 101.32 38.8382 101.445 39.2915 101.445ZM39.2915 97.805C39.6915 97.805 40.0165 97.7033 40.2665 97.5C40.5165 97.2933 40.6415 96.9883 40.6415 96.585C40.6415 96.1817 40.5165 95.88 40.2665 95.68C40.0165 95.4767 39.6915 95.375 39.2915 95.375C38.8915 95.375 38.5665 95.4767 38.3165 95.68C38.0698 95.88 37.9465 96.1817 37.9465 96.585C37.9465 96.9883 38.0698 97.2933 38.3165 97.5C38.5665 97.7033 38.8915 97.805 39.2915 97.805ZM43.0373 102V101.145H43.8923V102H43.0373ZM47.6313 102.15C47.1813 102.15 46.783 102.06 46.4363 101.88C46.093 101.7 45.823 101.448 45.6263 101.125C45.433 100.798 45.3363 100.417 45.3363 99.98C45.3363 99.5333 45.4447 99.1367 45.6613 98.79C45.878 98.44 46.208 98.175 46.6513 97.995L46.6413 98.285C46.2713 98.1483 45.9897 97.925 45.7963 97.615C45.603 97.305 45.5063 96.9617 45.5063 96.585C45.5063 96.185 45.598 95.8417 45.7813 95.555C45.9647 95.265 46.2147 95.0417 46.5313 94.885C46.8513 94.7283 47.218 94.65 47.6313 94.65C48.0447 94.65 48.4113 94.7283 48.7313 94.885C49.0513 95.0417 49.303 95.265 49.4863 95.555C49.6697 95.8417 49.7613 96.185 49.7613 96.585C49.7613 96.9617 49.668 97.3033 49.4813 97.61C49.298 97.9167 49.0163 98.1417 48.6363 98.285L48.6113 97.995C49.0547 98.1717 49.3863 98.435 49.6063 98.785C49.8297 99.135 49.9413 99.5333 49.9413 99.98C49.9413 100.417 49.843 100.798 49.6463 101.125C49.4497 101.448 49.178 101.7 48.8313 101.88C48.4847 102.06 48.0847 102.15 47.6313 102.15ZM47.6313 101.445C48.0847 101.445 48.453 101.32 48.7363 101.07C49.0197 100.817 49.1613 100.453 49.1613 99.98C49.1613 99.5 49.0213 99.1367 48.7413 98.89C48.4613 98.64 48.0913 98.515 47.6313 98.515C47.1713 98.515 46.803 98.64 46.5263 98.89C46.2497 99.1367 46.1113 99.5 46.1113 99.98C46.1113 100.453 46.2513 100.817 46.5313 101.07C46.8113 101.32 47.178 101.445 47.6313 101.445ZM47.6313 97.805C48.0313 97.805 48.3563 97.7033 48.6063 97.5C48.8563 97.2933 48.9813 96.9883 48.9813 96.585C48.9813 96.1817 48.8563 95.88 48.6063 95.68C48.3563 95.4767 48.0313 95.375 47.6313 95.375C47.2313 95.375 46.9063 95.4767 46.6563 95.68C46.4097 95.88 46.2863 96.1817 46.2863 96.585C46.2863 96.9883 46.4097 97.2933 46.6563 97.5C46.9063 97.7033 47.2313 97.805 47.6313 97.805ZM51.9371 102L51.4371 101.5L58.1521 94.8L58.6521 95.295L51.9371 102ZM57.1521 102.15C56.8221 102.15 56.5204 102.07 56.2471 101.91C55.9771 101.747 55.7604 101.53 55.5971 101.26C55.4338 100.987 55.3521 100.683 55.3521 100.35C55.3521 100.023 55.4354 99.7233 55.6021 99.45C55.7688 99.1767 55.9888 98.9583 56.2621 98.795C56.5354 98.6317 56.8321 98.55 57.1521 98.55C57.4821 98.55 57.7838 98.6317 58.0571 98.795C58.3304 98.955 58.5471 99.1717 58.7071 99.445C58.8704 99.715 58.9521 100.017 58.9521 100.35C58.9521 100.683 58.8704 100.987 58.7071 101.26C58.5471 101.53 58.3304 101.747 58.0571 101.91C57.7838 102.07 57.4821 102.15 57.1521 102.15ZM57.1521 101.485C57.3554 101.485 57.5438 101.433 57.7171 101.33C57.8904 101.227 58.0288 101.09 58.1321 100.92C58.2354 100.747 58.2871 100.557 58.2871 100.35C58.2871 100.143 58.2354 99.955 58.1321 99.785C58.0288 99.6117 57.8904 99.4733 57.7171 99.37C57.5438 99.2667 57.3554 99.215 57.1521 99.215C56.9454 99.215 56.7554 99.2667 56.5821 99.37C56.4121 99.4733 56.2738 99.6117 56.1671 99.785C56.0638 99.955 56.0121 100.143 56.0121 100.35C56.0121 100.557 56.0638 100.747 56.1671 100.92C56.2738 101.09 56.4121 101.227 56.5821 101.33C56.7554 101.433 56.9454 101.485 57.1521 101.485ZM52.9371 98.25C52.6071 98.25 52.3054 98.17 52.0321 98.01C51.7588 97.8467 51.5404 97.63 51.3771 97.36C51.2171 97.0867 51.1371 96.7833 51.1371 96.45C51.1371 96.1233 51.2204 95.8233 51.3871 95.55C51.5538 95.2767 51.7738 95.0583 52.0471 94.895C52.3204 94.7317 52.6171 94.65 52.9371 94.65C53.2671 94.65 53.5671 94.7317 53.8371 94.895C54.1104 95.055 54.3288 95.2717 54.4921 95.545C54.6554 95.815 54.7371 96.1167 54.7371 96.45C54.7371 96.7833 54.6554 97.0867 54.4921 97.36C54.3288 97.63 54.1104 97.8467 53.8371 98.01C53.5671 98.17 53.2671 98.25 52.9371 98.25ZM52.9371 97.585C53.1438 97.585 53.3321 97.5333 53.5021 97.43C53.6754 97.3267 53.8138 97.19 53.9171 97.02C54.0204 96.8467 54.0721 96.6567 54.0721 96.45C54.0721 96.2433 54.0204 96.055 53.9171 95.885C53.8138 95.7117 53.6754 95.5733 53.5021 95.47C53.3321 95.3667 53.1438 95.315 52.9371 95.315C52.7304 95.315 52.5404 95.3667 52.3671 95.47C52.1971 95.5733 52.0604 95.7117 51.9571 95.885C51.8538 96.055 51.8021 96.2433 51.8021 96.45C51.8021 96.6567 51.8538 96.8467 51.9571 97.02C52.0604 97.19 52.1971 97.3267 52.3671 97.43C52.5404 97.5333 52.7304 97.585 52.9371 97.585Z" fill="white"/>
</svg>
