<svg width="246" height="245" viewBox="0 0 246 245" fill="none" xmlns="http://www.w3.org/2000/svg">
<path d="M245.5 122.5C245.5 146.769 238.291 170.491 224.788 190.657C211.285 210.823 192.097 226.524 169.657 235.767L134.664 150.817C140.274 148.506 145.071 144.581 148.447 139.539C151.823 134.498 153.625 128.567 153.625 122.5H245.5Z" fill="#538FB0"/>
<path d="M169.657 235.767C147.277 244.985 122.669 247.368 98.9365 242.613C75.2044 237.859 53.4126 226.181 36.3115 209.053C19.2103 191.925 7.56636 170.115 2.84912 146.375C-1.86812 122.635 0.552813 98.0306 9.80638 75.6657L94.7016 110.791C92.3882 116.383 91.783 122.534 92.9623 128.469C94.1416 134.404 97.0526 139.856 101.328 144.138C105.603 148.42 111.051 151.34 116.984 152.528C122.917 153.717 129.069 153.121 134.664 150.817L169.657 235.767Z" fill="#28536B"/>
<path d="M9.80638 75.6657C20.6433 49.4739 40.2279 27.8508 65.2221 14.4816C90.2164 1.11247 119.073 -3.17529 146.875 2.34912C174.677 7.87354 199.702 22.8682 217.686 44.7775C235.67 66.6869 245.5 94.1549 245.5 122.5L153.625 122.5C153.625 115.414 151.168 108.547 146.672 103.069C142.176 97.5921 135.919 93.8434 128.969 92.4623C122.018 91.0812 114.804 92.1531 108.556 95.4954C102.307 98.8377 97.4108 104.243 94.7016 110.791L9.80638 75.6657Z" fill="#BFD3DF"/>
<path d="M109.005 27.8099C108.548 27.8099 108.133 27.6999 107.76 27.4799C107.39 27.2599 107.095 26.9599 106.875 26.5799C106.658 26.1966 106.55 25.7649 106.55 25.2849V22.8899C106.55 22.3866 106.658 21.9416 106.875 21.5549C107.095 21.1649 107.395 20.8616 107.775 20.6449C108.158 20.4249 108.595 20.3149 109.085 20.3149C109.482 20.3149 109.85 20.3966 110.19 20.5599C110.533 20.7199 110.822 20.9516 111.055 21.2549L110.39 21.8449C110.247 21.6349 110.06 21.4682 109.83 21.3449C109.6 21.2216 109.352 21.1599 109.085 21.1599C108.768 21.1599 108.487 21.2366 108.24 21.3899C107.997 21.5399 107.805 21.7399 107.665 21.9899C107.525 22.2366 107.455 22.5032 107.455 22.7899V24.2349L107.26 24.0149C107.47 23.7149 107.737 23.4749 108.06 23.2949C108.383 23.1149 108.733 23.0249 109.11 23.0249C109.557 23.0249 109.957 23.1299 110.31 23.3399C110.667 23.5499 110.947 23.8349 111.15 24.1949C111.357 24.5516 111.46 24.9532 111.46 25.3999C111.46 25.8466 111.348 26.2516 111.125 26.6149C110.902 26.9782 110.603 27.2682 110.23 27.4849C109.86 27.7016 109.452 27.8099 109.005 27.8099ZM109.005 26.9499C109.292 26.9499 109.553 26.8816 109.79 26.7449C110.027 26.6049 110.213 26.4182 110.35 26.1849C110.49 25.9482 110.56 25.6866 110.56 25.3999C110.56 25.1132 110.49 24.8516 110.35 24.6149C110.213 24.3782 110.027 24.1916 109.79 24.0549C109.557 23.9149 109.297 23.8449 109.01 23.8449C108.723 23.8449 108.462 23.9149 108.225 24.0549C107.992 24.1916 107.805 24.3782 107.665 24.6149C107.525 24.8516 107.455 25.1132 107.455 25.3999C107.455 25.6832 107.523 25.9432 107.66 26.1799C107.8 26.4132 107.987 26.5999 108.22 26.7399C108.457 26.8799 108.718 26.9499 109.005 26.9499ZM114.571 26.3349V24.4249H112.661V23.6899H114.571V21.7849H115.306V23.6899H117.211V24.4249H115.306V26.3349H114.571ZM126.97 27.6599L126.975 24.2049C126.975 23.8016 126.866 23.4866 126.65 23.2599C126.436 23.0299 126.158 22.9149 125.815 22.9149C125.615 22.9149 125.425 22.9616 125.245 23.0549C125.065 23.1449 124.918 23.2882 124.805 23.4849C124.691 23.6782 124.635 23.9266 124.635 24.2299L124.165 24.0399C124.158 23.6566 124.236 23.3216 124.4 23.0349C124.566 22.7449 124.793 22.5199 125.08 22.3599C125.366 22.1999 125.69 22.1199 126.05 22.1199C126.613 22.1199 127.056 22.2916 127.38 22.6349C127.703 22.9749 127.865 23.4332 127.865 24.0099L127.86 27.6599H126.97ZM120.51 27.6599V22.2599H121.305V23.7049H121.405V27.6599H120.51ZM123.745 27.6599L123.75 24.2399C123.75 23.8266 123.643 23.5032 123.43 23.2699C123.216 23.0332 122.933 22.9149 122.58 22.9149C122.23 22.9149 121.946 23.0349 121.73 23.2749C121.513 23.5149 121.405 23.8332 121.405 24.2299L120.935 23.9499C120.935 23.5999 121.018 23.2866 121.185 23.0099C121.351 22.7332 121.578 22.5166 121.865 22.3599C122.151 22.1999 122.476 22.1199 122.84 22.1199C123.203 22.1199 123.52 22.1966 123.79 22.3499C124.06 22.5032 124.268 22.7232 124.415 23.0099C124.561 23.2932 124.635 23.6316 124.635 24.0249L124.63 27.6599H123.745ZM131.418 27.8099C130.882 27.8099 130.418 27.6882 130.028 27.4449C129.642 27.2016 129.343 26.8649 129.133 26.4349C128.923 26.0049 128.818 25.5116 128.818 24.9549C128.818 24.3882 128.925 23.8916 129.138 23.4649C129.352 23.0382 129.653 22.7066 130.043 22.4699C130.433 22.2299 130.892 22.1099 131.418 22.1099C131.958 22.1099 132.423 22.2316 132.813 22.4749C133.203 22.7149 133.502 23.0499 133.708 23.4799C133.918 23.9066 134.023 24.3982 134.023 24.9549C134.023 25.5182 133.918 26.0149 133.708 26.4449C133.498 26.8716 133.198 27.2066 132.808 27.4499C132.418 27.6899 131.955 27.8099 131.418 27.8099ZM131.418 26.9649C131.978 26.9649 132.395 26.7782 132.668 26.4049C132.942 26.0316 133.078 25.5482 133.078 24.9549C133.078 24.3449 132.94 23.8599 132.663 23.4999C132.387 23.1366 131.972 22.9549 131.418 22.9549C131.042 22.9549 130.732 23.0399 130.488 23.2099C130.245 23.3799 130.063 23.6149 129.943 23.9149C129.823 24.2149 129.763 24.5616 129.763 24.9549C129.763 25.5616 129.903 26.0482 130.183 26.4149C130.463 26.7816 130.875 26.9649 131.418 26.9649ZM138.969 27.6599V24.9549C138.969 24.6982 138.946 24.4516 138.899 24.2149C138.856 23.9782 138.777 23.7666 138.664 23.5799C138.554 23.3899 138.404 23.2399 138.214 23.1299C138.027 23.0199 137.791 22.9649 137.504 22.9649C137.281 22.9649 137.077 23.0032 136.894 23.0799C136.714 23.1532 136.559 23.2666 136.429 23.4199C136.299 23.5732 136.197 23.7666 136.124 23.9999C136.054 24.2299 136.019 24.5016 136.019 24.8149L135.434 24.6349C135.434 24.1116 135.527 23.6632 135.714 23.2899C135.904 22.9132 136.169 22.6249 136.509 22.4249C136.852 22.2216 137.256 22.1199 137.719 22.1199C138.069 22.1199 138.367 22.1749 138.614 22.2849C138.861 22.3949 139.066 22.5416 139.229 22.7249C139.392 22.9049 139.521 23.1082 139.614 23.3349C139.707 23.5582 139.772 23.7866 139.809 24.0199C139.849 24.2499 139.869 24.4682 139.869 24.6749V27.6599H138.969ZM135.119 27.6599V22.2599H135.919V23.7049H136.019V27.6599H135.119ZM144.184 27.6599C143.864 27.7232 143.547 27.7482 143.234 27.7349C142.924 27.7249 142.647 27.6632 142.404 27.5499C142.161 27.4332 141.976 27.2532 141.849 27.0099C141.742 26.7966 141.684 26.5816 141.674 26.3649C141.667 26.1449 141.664 25.8966 141.664 25.6199V20.7599H142.554V25.5799C142.554 25.7999 142.556 25.9882 142.559 26.1449C142.566 26.3016 142.601 26.4366 142.664 26.5499C142.784 26.7632 142.974 26.8882 143.234 26.9249C143.497 26.9616 143.814 26.9516 144.184 26.8949V27.6599ZM140.569 22.9949V22.2599H144.184V22.9949H140.569ZM149.125 27.6599V24.9549C149.125 24.6982 149.102 24.4516 149.055 24.2149C149.012 23.9782 148.934 23.7666 148.82 23.5799C148.71 23.3899 148.56 23.2399 148.37 23.1299C148.184 23.0199 147.947 22.9649 147.66 22.9649C147.437 22.9649 147.234 23.0032 147.05 23.0799C146.87 23.1532 146.715 23.2666 146.585 23.4199C146.455 23.5732 146.354 23.7666 146.28 23.9999C146.21 24.2299 146.175 24.5016 146.175 24.8149L145.59 24.6349C145.59 24.1116 145.684 23.6632 145.87 23.2899C146.06 22.9132 146.325 22.6249 146.665 22.4249C147.009 22.2216 147.412 22.1199 147.875 22.1199C148.225 22.1199 148.524 22.1749 148.77 22.2849C149.017 22.3949 149.222 22.5416 149.385 22.7249C149.549 22.9049 149.677 23.1082 149.77 23.3349C149.864 23.5582 149.929 23.7866 149.965 24.0199C150.005 24.2499 150.025 24.4682 150.025 24.6749V27.6599H149.125ZM145.275 27.6599V20.4599H146.075V24.4349H146.175V27.6599H145.275ZM153.365 27.8049C152.722 27.8049 152.194 27.6649 151.78 27.3849C151.37 27.1016 151.119 26.7066 151.025 26.1999L151.935 26.0549C152.009 26.3482 152.177 26.5816 152.44 26.7549C152.704 26.9249 153.03 27.0099 153.42 27.0099C153.79 27.0099 154.08 26.9332 154.29 26.7799C154.5 26.6266 154.605 26.4182 154.605 26.1549C154.605 26.0016 154.57 25.8782 154.5 25.7849C154.43 25.6882 154.285 25.5982 154.065 25.5149C153.849 25.4316 153.52 25.3316 153.08 25.2149C152.604 25.0882 152.229 24.9566 151.955 24.8199C151.682 24.6832 151.487 24.5249 151.37 24.3449C151.254 24.1649 151.195 23.9466 151.195 23.6899C151.195 23.3732 151.282 23.0966 151.455 22.8599C151.629 22.6199 151.87 22.4349 152.18 22.3049C152.494 22.1749 152.857 22.1099 153.27 22.1099C153.68 22.1099 154.047 22.1749 154.37 22.3049C154.694 22.4349 154.954 22.6199 155.15 22.8599C155.35 23.0966 155.469 23.3732 155.505 23.6899L154.595 23.8549C154.552 23.5649 154.412 23.3366 154.175 23.1699C153.942 23.0032 153.64 22.9149 153.27 22.9049C152.92 22.8916 152.635 22.9532 152.415 23.0899C152.199 23.2266 152.09 23.4116 152.09 23.6449C152.09 23.7749 152.13 23.8866 152.21 23.9799C152.294 24.0732 152.445 24.1616 152.665 24.2449C152.889 24.3282 153.212 24.4232 153.635 24.5299C154.112 24.6499 154.487 24.7816 154.76 24.9249C155.037 25.0649 155.234 25.2316 155.35 25.4249C155.467 25.6149 155.525 25.8499 155.525 26.1299C155.525 26.6499 155.334 27.0599 154.95 27.3599C154.567 27.6566 154.039 27.8049 153.365 27.8049Z" fill="white"/>
<path d="M109.66 37.9502V36.6252H106.35V35.7802L108.725 30.7502H109.735L107.36 35.7802H109.66V33.7552H110.56V35.7802H111.31V36.6252H110.56V37.9502H109.66ZM114.482 38.0902C114.125 38.0902 113.794 38.0252 113.487 37.8952C113.18 37.7619 112.915 37.5752 112.692 37.3352C112.472 37.0919 112.31 36.8035 112.207 36.4702L113.062 36.2252C113.172 36.5585 113.355 36.8119 113.612 36.9852C113.869 37.1585 114.157 37.2435 114.477 37.2402C114.77 37.2335 115.024 37.1669 115.237 37.0402C115.454 36.9102 115.62 36.7335 115.737 36.5102C115.857 36.2869 115.917 36.0285 115.917 35.7352C115.917 35.2885 115.784 34.9269 115.517 34.6502C115.25 34.3702 114.9 34.2302 114.467 34.2302C114.347 34.2302 114.22 34.2469 114.087 34.2802C113.957 34.3135 113.835 34.3602 113.722 34.4202L113.292 33.7152L115.962 31.3002L116.077 31.6002H112.492V30.7502H116.737V31.6052L114.462 33.7852L114.452 33.4702C114.929 33.4369 115.345 33.5152 115.702 33.7052C116.059 33.8952 116.335 34.1669 116.532 34.5202C116.732 34.8735 116.832 35.2785 116.832 35.7352C116.832 36.1952 116.729 36.6019 116.522 36.9552C116.315 37.3085 116.035 37.5869 115.682 37.7902C115.329 37.9902 114.929 38.0902 114.482 38.0902ZM118.292 37.9502V36.9702H119.272V37.9502H118.292ZM123.077 38.1002C122.617 38.1002 122.211 38.0085 121.857 37.8252C121.504 37.6385 121.227 37.3802 121.027 37.0502C120.827 36.7202 120.727 36.3352 120.727 35.8952C120.727 35.4652 120.829 35.0769 121.032 34.7302C121.239 34.3835 121.549 34.1169 121.962 33.9302L121.947 34.2552C121.611 34.0919 121.352 33.8619 121.172 33.5652C120.992 33.2652 120.902 32.9335 120.902 32.5702C120.902 32.1635 120.996 31.8135 121.182 31.5202C121.369 31.2269 121.626 31.0002 121.952 30.8402C122.279 30.6802 122.654 30.6002 123.077 30.6002C123.501 30.6002 123.876 30.6802 124.202 30.8402C124.529 31.0002 124.786 31.2269 124.972 31.5202C125.159 31.8135 125.252 32.1635 125.252 32.5702C125.252 32.9335 125.167 33.2635 124.997 33.5602C124.827 33.8535 124.566 34.0852 124.212 34.2552L124.192 33.9352C124.606 34.1152 124.916 34.3802 125.122 34.7302C125.332 35.0769 125.437 35.4652 125.437 35.8952C125.437 36.3352 125.336 36.7202 125.132 37.0502C124.932 37.3802 124.654 37.6385 124.297 37.8252C123.944 38.0085 123.537 38.1002 123.077 38.1002ZM123.077 37.2502C123.497 37.2502 123.837 37.1352 124.097 36.9052C124.361 36.6719 124.492 36.3352 124.492 35.8952C124.492 35.4519 124.362 35.1152 124.102 34.8852C123.846 34.6519 123.504 34.5352 123.077 34.5352C122.654 34.5352 122.312 34.6519 122.052 34.8852C121.796 35.1152 121.667 35.4519 121.667 35.8952C121.667 36.3352 121.797 36.6719 122.057 36.9052C122.317 37.1352 122.657 37.2502 123.077 37.2502ZM123.077 33.6802C123.444 33.6802 123.741 33.5885 123.967 33.4052C124.194 33.2185 124.307 32.9402 124.307 32.5702C124.307 32.2002 124.194 31.9235 123.967 31.7402C123.741 31.5535 123.444 31.4602 123.077 31.4602C122.714 31.4602 122.417 31.5535 122.187 31.7402C121.961 31.9235 121.847 32.2002 121.847 32.5702C121.847 32.9402 121.961 33.2185 122.187 33.4052C122.417 33.5885 122.714 33.6802 123.077 33.6802ZM127.535 37.9502L126.935 37.3502L133.545 30.7502L134.145 31.3502L127.535 37.9502ZM132.645 38.1002C132.315 38.1002 132.014 38.0202 131.74 37.8602C131.47 37.6969 131.254 37.4802 131.09 37.2102C130.927 36.9369 130.845 36.6335 130.845 36.3002C130.845 35.9735 130.929 35.6735 131.095 35.4002C131.262 35.1269 131.482 34.9085 131.755 34.7452C132.029 34.5819 132.325 34.5002 132.645 34.5002C132.975 34.5002 133.277 34.5819 133.55 34.7452C133.824 34.9052 134.04 35.1219 134.2 35.3952C134.364 35.6652 134.445 35.9669 134.445 36.3002C134.445 36.6335 134.364 36.9369 134.2 37.2102C134.04 37.4802 133.824 37.6969 133.55 37.8602C133.277 38.0202 132.975 38.1002 132.645 38.1002ZM132.645 37.3152C132.829 37.3152 132.997 37.2685 133.15 37.1752C133.307 37.0819 133.43 36.9585 133.52 36.8052C133.614 36.6519 133.66 36.4835 133.66 36.3002C133.66 36.1169 133.614 35.9485 133.52 35.7952C133.43 35.6385 133.307 35.5152 133.15 35.4252C132.997 35.3319 132.829 35.2852 132.645 35.2852C132.462 35.2852 132.294 35.3319 132.14 35.4252C131.987 35.5152 131.864 35.6385 131.77 35.7952C131.677 35.9485 131.63 36.1169 131.63 36.3002C131.63 36.4835 131.677 36.6519 131.77 36.8052C131.864 36.9585 131.987 37.0819 132.14 37.1752C132.294 37.2685 132.462 37.3152 132.645 37.3152ZM128.435 34.2002C128.105 34.2002 127.804 34.1202 127.53 33.9602C127.257 33.7969 127.039 33.5802 126.875 33.3102C126.715 33.0369 126.635 32.7335 126.635 32.4002C126.635 32.0735 126.719 31.7735 126.885 31.5002C127.052 31.2269 127.272 31.0085 127.545 30.8452C127.819 30.6819 128.115 30.6002 128.435 30.6002C128.765 30.6002 129.065 30.6819 129.335 30.8452C129.609 31.0052 129.827 31.2219 129.99 31.4952C130.154 31.7652 130.235 32.0669 130.235 32.4002C130.235 32.7335 130.154 33.0369 129.99 33.3102C129.827 33.5802 129.609 33.7969 129.335 33.9602C129.065 34.1202 128.765 34.2002 128.435 34.2002ZM128.435 33.4152C128.619 33.4152 128.787 33.3685 128.94 33.2752C129.097 33.1819 129.22 33.0585 129.31 32.9052C129.404 32.7519 129.45 32.5835 129.45 32.4002C129.45 32.2169 129.404 32.0485 129.31 31.8952C129.22 31.7385 129.097 31.6152 128.94 31.5252C128.787 31.4319 128.619 31.3852 128.435 31.3852C128.252 31.3852 128.084 31.4319 127.93 31.5252C127.777 31.6152 127.654 31.7385 127.56 31.8952C127.467 32.0485 127.42 32.2169 127.42 32.4002C127.42 32.5835 127.467 32.7519 127.56 32.9052C127.654 33.0585 127.777 33.1819 127.93 33.2752C128.084 33.3685 128.252 33.4152 128.435 33.4152Z" fill="white"/>
<path d="M21.3049 136.58C20.9482 136.58 20.6165 136.515 20.3099 136.385C20.0032 136.252 19.7382 136.065 19.5149 135.825C19.2949 135.582 19.1332 135.294 19.0299 134.96L19.8849 134.715C19.9949 135.049 20.1782 135.302 20.4349 135.475C20.6915 135.649 20.9799 135.734 21.2999 135.73C21.5932 135.724 21.8465 135.657 22.0599 135.53C22.2765 135.4 22.4432 135.224 22.5599 135C22.6799 134.777 22.7399 134.519 22.7399 134.225C22.7399 133.779 22.6065 133.417 22.3399 133.14C22.0732 132.86 21.7232 132.72 21.2899 132.72C21.1699 132.72 21.0432 132.737 20.9099 132.77C20.7799 132.804 20.6582 132.85 20.5449 132.91L20.1149 132.205L22.7849 129.79L22.8999 130.09H19.3149V129.24H23.5599V130.095L21.2849 132.275L21.2749 131.96C21.7515 131.927 22.1682 132.005 22.5249 132.195C22.8815 132.385 23.1582 132.657 23.3549 133.01C23.5549 133.364 23.6549 133.769 23.6549 134.225C23.6549 134.685 23.5515 135.092 23.3449 135.445C23.1382 135.799 22.8582 136.077 22.5049 136.28C22.1515 136.48 21.7515 136.58 21.3049 136.58ZM25.3349 136.44L27.9249 130.095H24.6549V129.24H28.8799V130.095L26.2949 136.44H25.3349ZM29.7438 136.44V135.46H30.7238V136.44H29.7438ZM34.4091 136.59C34.0391 136.59 33.6941 136.514 33.3741 136.36C33.0574 136.207 32.7858 135.997 32.5591 135.73C32.3358 135.46 32.1758 135.15 32.0791 134.8L32.9341 134.57C32.9941 134.807 33.1008 135.012 33.2541 135.185C33.4074 135.355 33.5858 135.489 33.7891 135.585C33.9958 135.679 34.2108 135.725 34.4341 135.725C34.7274 135.725 34.9908 135.655 35.2241 135.515C35.4608 135.372 35.6474 135.184 35.7841 134.95C35.9208 134.714 35.9891 134.455 35.9891 134.175C35.9891 133.885 35.9174 133.624 35.7741 133.39C35.6341 133.154 35.4458 132.967 35.2091 132.83C34.9724 132.694 34.7141 132.625 34.4341 132.625C34.1174 132.625 33.8458 132.692 33.6191 132.825C33.3958 132.955 33.2191 133.115 33.0891 133.305L32.2991 133.005L32.5191 129.24H36.3841V130.085H32.9491L33.3441 129.715L33.1591 132.73L32.9641 132.475C33.1641 132.262 33.4024 132.097 33.6791 131.98C33.9591 131.864 34.2441 131.805 34.5341 131.805C34.9808 131.805 35.3808 131.91 35.7341 132.12C36.0874 132.327 36.3674 132.61 36.5741 132.97C36.7808 133.327 36.8841 133.729 36.8841 134.175C36.8841 134.619 36.7708 135.024 36.5441 135.39C36.3174 135.754 36.0158 136.045 35.6391 136.265C35.2658 136.482 34.8558 136.59 34.4091 136.59ZM38.8799 136.44L38.2799 135.84L44.8899 129.24L45.4899 129.84L38.8799 136.44ZM43.9899 136.59C43.6599 136.59 43.3582 136.51 43.0849 136.35C42.8149 136.187 42.5982 135.97 42.4349 135.7C42.2715 135.427 42.1899 135.124 42.1899 134.79C42.1899 134.464 42.2732 134.164 42.4399 133.89C42.6065 133.617 42.8265 133.399 43.0999 133.235C43.3732 133.072 43.6699 132.99 43.9899 132.99C44.3199 132.99 44.6215 133.072 44.8949 133.235C45.1682 133.395 45.3849 133.612 45.5449 133.885C45.7082 134.155 45.7899 134.457 45.7899 134.79C45.7899 135.124 45.7082 135.427 45.5449 135.7C45.3849 135.97 45.1682 136.187 44.8949 136.35C44.6215 136.51 44.3199 136.59 43.9899 136.59ZM43.9899 135.805C44.1732 135.805 44.3415 135.759 44.4949 135.665C44.6515 135.572 44.7749 135.449 44.8649 135.295C44.9582 135.142 45.0049 134.974 45.0049 134.79C45.0049 134.607 44.9582 134.439 44.8649 134.285C44.7749 134.129 44.6515 134.005 44.4949 133.915C44.3415 133.822 44.1732 133.775 43.9899 133.775C43.8065 133.775 43.6382 133.822 43.4849 133.915C43.3315 134.005 43.2082 134.129 43.1149 134.285C43.0215 134.439 42.9749 134.607 42.9749 134.79C42.9749 134.974 43.0215 135.142 43.1149 135.295C43.2082 135.449 43.3315 135.572 43.4849 135.665C43.6382 135.759 43.8065 135.805 43.9899 135.805ZM39.7799 132.69C39.4499 132.69 39.1482 132.61 38.8749 132.45C38.6015 132.287 38.3832 132.07 38.2199 131.8C38.0599 131.527 37.9799 131.224 37.9799 130.89C37.9799 130.564 38.0632 130.264 38.2299 129.99C38.3965 129.717 38.6165 129.499 38.8899 129.335C39.1632 129.172 39.4599 129.09 39.7799 129.09C40.1099 129.09 40.4099 129.172 40.6799 129.335C40.9532 129.495 41.1715 129.712 41.3349 129.985C41.4982 130.255 41.5799 130.557 41.5799 130.89C41.5799 131.224 41.4982 131.527 41.3349 131.8C41.1715 132.07 40.9532 132.287 40.6799 132.45C40.4099 132.61 40.1099 132.69 39.7799 132.69ZM39.7799 131.905C39.9632 131.905 40.1315 131.859 40.2849 131.765C40.4415 131.672 40.5649 131.549 40.6549 131.395C40.7482 131.242 40.7949 131.074 40.7949 130.89C40.7949 130.707 40.7482 130.539 40.6549 130.385C40.5649 130.229 40.4415 130.105 40.2849 130.015C40.1315 129.922 39.9632 129.875 39.7799 129.875C39.5965 129.875 39.4282 129.922 39.2749 130.015C39.1215 130.105 38.9982 130.229 38.9049 130.385C38.8115 130.539 38.7649 130.707 38.7649 130.89C38.7649 131.074 38.8115 131.242 38.9049 131.395C38.9982 131.549 39.1215 131.672 39.2749 131.765C39.4282 131.859 39.5965 131.905 39.7799 131.905Z" fill="white"/>
<path d="M21.3049 126.29C20.9482 126.29 20.6165 126.225 20.3099 126.095C20.0032 125.962 19.7382 125.775 19.5149 125.535C19.2949 125.292 19.1332 125.003 19.0299 124.67L19.8849 124.425C19.9949 124.758 20.1782 125.012 20.4349 125.185C20.6915 125.358 20.9799 125.443 21.2999 125.44C21.5932 125.433 21.8465 125.367 22.0599 125.24C22.2765 125.11 22.4432 124.933 22.5599 124.71C22.6799 124.487 22.7399 124.228 22.7399 123.935C22.7399 123.488 22.6065 123.127 22.3399 122.85C22.0732 122.57 21.7232 122.43 21.2899 122.43C21.1699 122.43 21.0432 122.447 20.9099 122.48C20.7799 122.513 20.6582 122.56 20.5449 122.62L20.1149 121.915L22.7849 119.5L22.8999 119.8H19.3149V118.95H23.5599V119.805L21.2849 121.985L21.2749 121.67C21.7515 121.637 22.1682 121.715 22.5249 121.905C22.8815 122.095 23.1582 122.367 23.3549 122.72C23.5549 123.073 23.6549 123.478 23.6549 123.935C23.6549 124.395 23.5515 124.802 23.3449 125.155C23.1382 125.508 22.8582 125.787 22.5049 125.99C22.1515 126.19 21.7515 126.29 21.3049 126.29ZM24.8549 122.915V122.18H27.8549V122.915H24.8549ZM31.2841 126.3C30.9141 126.3 30.5691 126.223 30.2491 126.07C29.9324 125.917 29.6608 125.707 29.4341 125.44C29.2108 125.17 29.0508 124.86 28.9541 124.51L29.8091 124.28C29.8691 124.517 29.9758 124.722 30.1291 124.895C30.2824 125.065 30.4608 125.198 30.6641 125.295C30.8708 125.388 31.0858 125.435 31.3091 125.435C31.6024 125.435 31.8658 125.365 32.0991 125.225C32.3358 125.082 32.5224 124.893 32.6591 124.66C32.7958 124.423 32.8641 124.165 32.8641 123.885C32.8641 123.595 32.7924 123.333 32.6491 123.1C32.5091 122.863 32.3208 122.677 32.0841 122.54C31.8474 122.403 31.5891 122.335 31.3091 122.335C30.9924 122.335 30.7208 122.402 30.4941 122.535C30.2708 122.665 30.0941 122.825 29.9641 123.015L29.1741 122.715L29.3941 118.95H33.2591V119.795H29.8241L30.2191 119.425L30.0341 122.44L29.8391 122.185C30.0391 121.972 30.2774 121.807 30.5541 121.69C30.8341 121.573 31.1191 121.515 31.4091 121.515C31.8558 121.515 32.2558 121.62 32.6091 121.83C32.9624 122.037 33.2424 122.32 33.4491 122.68C33.6558 123.037 33.7591 123.438 33.7591 123.885C33.7591 124.328 33.6458 124.733 33.4191 125.1C33.1924 125.463 32.8908 125.755 32.5141 125.975C32.1408 126.192 31.7308 126.3 31.2841 126.3ZM43.4118 126.15L43.4168 122.695C43.4168 122.292 43.3085 121.977 43.0918 121.75C42.8785 121.52 42.6002 121.405 42.2568 121.405C42.0568 121.405 41.8668 121.452 41.6868 121.545C41.5068 121.635 41.3602 121.778 41.2468 121.975C41.1335 122.168 41.0768 122.417 41.0768 122.72L40.6068 122.53C40.6002 122.147 40.6785 121.812 40.8418 121.525C41.0085 121.235 41.2352 121.01 41.5218 120.85C41.8085 120.69 42.1318 120.61 42.4918 120.61C43.0552 120.61 43.4985 120.782 43.8218 121.125C44.1452 121.465 44.3068 121.923 44.3068 122.5L44.3018 126.15H43.4118ZM36.9518 126.15V120.75H37.7468V122.195H37.8468V126.15H36.9518ZM40.1868 126.15L40.1918 122.73C40.1918 122.317 40.0852 121.993 39.8718 121.76C39.6585 121.523 39.3752 121.405 39.0218 121.405C38.6718 121.405 38.3885 121.525 38.1718 121.765C37.9552 122.005 37.8468 122.323 37.8468 122.72L37.3768 122.44C37.3768 122.09 37.4602 121.777 37.6268 121.5C37.7935 121.223 38.0202 121.007 38.3068 120.85C38.5935 120.69 38.9185 120.61 39.2818 120.61C39.6452 120.61 39.9618 120.687 40.2318 120.84C40.5018 120.993 40.7102 121.213 40.8568 121.5C41.0035 121.783 41.0768 122.122 41.0768 122.515L41.0718 126.15H40.1868ZM47.8604 126.3C47.3237 126.3 46.8604 126.178 46.4704 125.935C46.0837 125.692 45.7854 125.355 45.5754 124.925C45.3654 124.495 45.2604 124.002 45.2604 123.445C45.2604 122.878 45.367 122.382 45.5804 121.955C45.7937 121.528 46.0954 121.197 46.4854 120.96C46.8754 120.72 47.3337 120.6 47.8604 120.6C48.4004 120.6 48.8654 120.722 49.2554 120.965C49.6454 121.205 49.9437 121.54 50.1504 121.97C50.3604 122.397 50.4654 122.888 50.4654 123.445C50.4654 124.008 50.3604 124.505 50.1504 124.935C49.9404 125.362 49.6404 125.697 49.2504 125.94C48.8604 126.18 48.397 126.3 47.8604 126.3ZM47.8604 125.455C48.4204 125.455 48.837 125.268 49.1104 124.895C49.3837 124.522 49.5204 124.038 49.5204 123.445C49.5204 122.835 49.382 122.35 49.1054 121.99C48.8287 121.627 48.4137 121.445 47.8604 121.445C47.4837 121.445 47.1737 121.53 46.9304 121.7C46.687 121.87 46.5054 122.105 46.3854 122.405C46.2654 122.705 46.2054 123.052 46.2054 123.445C46.2054 124.052 46.3454 124.538 46.6254 124.905C46.9054 125.272 47.317 125.455 47.8604 125.455ZM55.4112 126.15V123.445C55.4112 123.188 55.3879 122.942 55.3412 122.705C55.2979 122.468 55.2195 122.257 55.1062 122.07C54.9962 121.88 54.8462 121.73 54.6562 121.62C54.4695 121.51 54.2329 121.455 53.9462 121.455C53.7229 121.455 53.5195 121.493 53.3362 121.57C53.1562 121.643 53.0012 121.757 52.8712 121.91C52.7412 122.063 52.6395 122.257 52.5662 122.49C52.4962 122.72 52.4612 122.992 52.4612 123.305L51.8762 123.125C51.8762 122.602 51.9695 122.153 52.1562 121.78C52.3462 121.403 52.6112 121.115 52.9512 120.915C53.2945 120.712 53.6979 120.61 54.1612 120.61C54.5112 120.61 54.8095 120.665 55.0562 120.775C55.3029 120.885 55.5079 121.032 55.6712 121.215C55.8345 121.395 55.9629 121.598 56.0562 121.825C56.1495 122.048 56.2145 122.277 56.2512 122.51C56.2912 122.74 56.3112 122.958 56.3112 123.165V126.15H55.4112ZM51.5612 126.15V120.75H52.3612V122.195H52.4612V126.15H51.5612ZM60.6261 126.15C60.3061 126.213 59.9895 126.238 59.6761 126.225C59.3661 126.215 59.0895 126.153 58.8461 126.04C58.6028 125.923 58.4178 125.743 58.2911 125.5C58.1845 125.287 58.1261 125.072 58.1161 124.855C58.1095 124.635 58.1061 124.387 58.1061 124.11V119.25H58.9961V124.07C58.9961 124.29 58.9978 124.478 59.0011 124.635C59.0078 124.792 59.0428 124.927 59.1061 125.04C59.2261 125.253 59.4161 125.378 59.6761 125.415C59.9395 125.452 60.2561 125.442 60.6261 125.385V126.15ZM57.0111 121.485V120.75H60.6261V121.485H57.0111ZM65.5675 126.15V123.445C65.5675 123.188 65.5441 122.942 65.4975 122.705C65.4541 122.468 65.3758 122.257 65.2625 122.07C65.1525 121.88 65.0025 121.73 64.8125 121.62C64.6258 121.51 64.3891 121.455 64.1025 121.455C63.8791 121.455 63.6758 121.493 63.4925 121.57C63.3125 121.643 63.1575 121.757 63.0275 121.91C62.8975 122.063 62.7958 122.257 62.7225 122.49C62.6525 122.72 62.6175 122.992 62.6175 123.305L62.0325 123.125C62.0325 122.602 62.1258 122.153 62.3125 121.78C62.5025 121.403 62.7675 121.115 63.1075 120.915C63.4508 120.712 63.8541 120.61 64.3175 120.61C64.6675 120.61 64.9658 120.665 65.2125 120.775C65.4591 120.885 65.6641 121.032 65.8275 121.215C65.9908 121.395 66.1191 121.598 66.2125 121.825C66.3058 122.048 66.3708 122.277 66.4075 122.51C66.4475 122.74 66.4675 122.958 66.4675 123.165V126.15H65.5675ZM61.7175 126.15V118.95H62.5175V122.925H62.6175V126.15H61.7175ZM69.8074 126.295C69.164 126.295 68.6357 126.155 68.2224 125.875C67.8124 125.592 67.5607 125.197 67.4674 124.69L68.3774 124.545C68.4507 124.838 68.619 125.072 68.8824 125.245C69.1457 125.415 69.4724 125.5 69.8624 125.5C70.2324 125.5 70.5224 125.423 70.7324 125.27C70.9424 125.117 71.0474 124.908 71.0474 124.645C71.0474 124.492 71.0124 124.368 70.9424 124.275C70.8724 124.178 70.7274 124.088 70.5074 124.005C70.2907 123.922 69.9624 123.822 69.5224 123.705C69.0457 123.578 68.6707 123.447 68.3974 123.31C68.124 123.173 67.929 123.015 67.8124 122.835C67.6957 122.655 67.6374 122.437 67.6374 122.18C67.6374 121.863 67.724 121.587 67.8974 121.35C68.0707 121.11 68.3124 120.925 68.6224 120.795C68.9357 120.665 69.299 120.6 69.7124 120.6C70.1224 120.6 70.489 120.665 70.8124 120.795C71.1357 120.925 71.3957 121.11 71.5924 121.35C71.7924 121.587 71.9107 121.863 71.9474 122.18L71.0374 122.345C70.994 122.055 70.854 121.827 70.6174 121.66C70.384 121.493 70.0824 121.405 69.7124 121.395C69.3624 121.382 69.0774 121.443 68.8574 121.58C68.6407 121.717 68.5324 121.902 68.5324 122.135C68.5324 122.265 68.5724 122.377 68.6524 122.47C68.7357 122.563 68.8874 122.652 69.1074 122.735C69.3307 122.818 69.654 122.913 70.0774 123.02C70.554 123.14 70.929 123.272 71.2024 123.415C71.479 123.555 71.6757 123.722 71.7924 123.915C71.909 124.105 71.9674 124.34 71.9674 124.62C71.9674 125.14 71.7757 125.55 71.3924 125.85C71.009 126.147 70.4807 126.295 69.8074 126.295Z" fill="white"/>
<path d="M171.015 154.08V147.865L169.66 148.685V147.69L171.015 146.88H171.92V154.08H171.015ZM176.072 154.23C175.612 154.23 175.206 154.138 174.852 153.955C174.499 153.768 174.222 153.51 174.022 153.18C173.822 152.85 173.722 152.465 173.722 152.025C173.722 151.595 173.824 151.207 174.027 150.86C174.234 150.513 174.544 150.247 174.957 150.06L174.942 150.385C174.606 150.222 174.347 149.992 174.167 149.695C173.987 149.395 173.897 149.063 173.897 148.7C173.897 148.293 173.991 147.943 174.177 147.65C174.364 147.357 174.621 147.13 174.947 146.97C175.274 146.81 175.649 146.73 176.072 146.73C176.496 146.73 176.871 146.81 177.197 146.97C177.524 147.13 177.781 147.357 177.967 147.65C178.154 147.943 178.247 148.293 178.247 148.7C178.247 149.063 178.162 149.393 177.992 149.69C177.822 149.983 177.561 150.215 177.207 150.385L177.187 150.065C177.601 150.245 177.911 150.51 178.117 150.86C178.327 151.207 178.432 151.595 178.432 152.025C178.432 152.465 178.331 152.85 178.127 153.18C177.927 153.51 177.649 153.768 177.292 153.955C176.939 154.138 176.532 154.23 176.072 154.23ZM176.072 153.38C176.492 153.38 176.832 153.265 177.092 153.035C177.356 152.802 177.487 152.465 177.487 152.025C177.487 151.582 177.357 151.245 177.097 151.015C176.841 150.782 176.499 150.665 176.072 150.665C175.649 150.665 175.307 150.782 175.047 151.015C174.791 151.245 174.662 151.582 174.662 152.025C174.662 152.465 174.792 152.802 175.052 153.035C175.312 153.265 175.652 153.38 176.072 153.38ZM176.072 149.81C176.439 149.81 176.736 149.718 176.962 149.535C177.189 149.348 177.302 149.07 177.302 148.7C177.302 148.33 177.189 148.053 176.962 147.87C176.736 147.683 176.439 147.59 176.072 147.59C175.709 147.59 175.412 147.683 175.182 147.87C174.956 148.053 174.842 148.33 174.842 148.7C174.842 149.07 174.956 149.348 175.182 149.535C175.412 149.718 175.709 149.81 176.072 149.81ZM179.891 154.08V153.1H180.871V154.08H179.891ZM184.676 154.23C184.216 154.23 183.809 154.138 183.456 153.955C183.102 153.768 182.826 153.51 182.626 153.18C182.426 152.85 182.326 152.465 182.326 152.025C182.326 151.595 182.427 151.207 182.631 150.86C182.837 150.513 183.147 150.247 183.561 150.06L183.546 150.385C183.209 150.222 182.951 149.992 182.771 149.695C182.591 149.395 182.501 149.063 182.501 148.7C182.501 148.293 182.594 147.943 182.781 147.65C182.967 147.357 183.224 147.13 183.551 146.97C183.877 146.81 184.252 146.73 184.676 146.73C185.099 146.73 185.474 146.81 185.801 146.97C186.127 147.13 186.384 147.357 186.571 147.65C186.757 147.943 186.851 148.293 186.851 148.7C186.851 149.063 186.766 149.393 186.596 149.69C186.426 149.983 186.164 150.215 185.811 150.385L185.791 150.065C186.204 150.245 186.514 150.51 186.721 150.86C186.931 151.207 187.036 151.595 187.036 152.025C187.036 152.465 186.934 152.85 186.731 153.18C186.531 153.51 186.252 153.768 185.896 153.955C185.542 154.138 185.136 154.23 184.676 154.23ZM184.676 153.38C185.096 153.38 185.436 153.265 185.696 153.035C185.959 152.802 186.091 152.465 186.091 152.025C186.091 151.582 185.961 151.245 185.701 151.015C185.444 150.782 185.102 150.665 184.676 150.665C184.252 150.665 183.911 150.782 183.651 151.015C183.394 151.245 183.266 151.582 183.266 152.025C183.266 152.465 183.396 152.802 183.656 153.035C183.916 153.265 184.256 153.38 184.676 153.38ZM184.676 149.81C185.042 149.81 185.339 149.718 185.566 149.535C185.792 149.348 185.906 149.07 185.906 148.7C185.906 148.33 185.792 148.053 185.566 147.87C185.339 147.683 185.042 147.59 184.676 147.59C184.312 147.59 184.016 147.683 183.786 147.87C183.559 148.053 183.446 148.33 183.446 148.7C183.446 149.07 183.559 149.348 183.786 149.535C184.016 149.718 184.312 149.81 184.676 149.81ZM189.134 154.08L188.534 153.48L195.144 146.88L195.744 147.48L189.134 154.08ZM194.244 154.23C193.914 154.23 193.612 154.15 193.339 153.99C193.069 153.827 192.852 153.61 192.689 153.34C192.526 153.067 192.444 152.763 192.444 152.43C192.444 152.103 192.527 151.803 192.694 151.53C192.861 151.257 193.081 151.038 193.354 150.875C193.627 150.712 193.924 150.63 194.244 150.63C194.574 150.63 194.876 150.712 195.149 150.875C195.422 151.035 195.639 151.252 195.799 151.525C195.962 151.795 196.044 152.097 196.044 152.43C196.044 152.763 195.962 153.067 195.799 153.34C195.639 153.61 195.422 153.827 195.149 153.99C194.876 154.15 194.574 154.23 194.244 154.23ZM194.244 153.445C194.427 153.445 194.596 153.398 194.749 153.305C194.906 153.212 195.029 153.088 195.119 152.935C195.212 152.782 195.259 152.613 195.259 152.43C195.259 152.247 195.212 152.078 195.119 151.925C195.029 151.768 194.906 151.645 194.749 151.555C194.596 151.462 194.427 151.415 194.244 151.415C194.061 151.415 193.892 151.462 193.739 151.555C193.586 151.645 193.462 151.768 193.369 151.925C193.276 152.078 193.229 152.247 193.229 152.43C193.229 152.613 193.276 152.782 193.369 152.935C193.462 153.088 193.586 153.212 193.739 153.305C193.892 153.398 194.061 153.445 194.244 153.445ZM190.034 150.33C189.704 150.33 189.402 150.25 189.129 150.09C188.856 149.927 188.637 149.71 188.474 149.44C188.314 149.167 188.234 148.863 188.234 148.53C188.234 148.203 188.317 147.903 188.484 147.63C188.651 147.357 188.871 147.138 189.144 146.975C189.417 146.812 189.714 146.73 190.034 146.73C190.364 146.73 190.664 146.812 190.934 146.975C191.207 147.135 191.426 147.352 191.589 147.625C191.752 147.895 191.834 148.197 191.834 148.53C191.834 148.863 191.752 149.167 191.589 149.44C191.426 149.71 191.207 149.927 190.934 150.09C190.664 150.25 190.364 150.33 190.034 150.33ZM190.034 149.545C190.217 149.545 190.386 149.498 190.539 149.405C190.696 149.312 190.819 149.188 190.909 149.035C191.002 148.882 191.049 148.713 191.049 148.53C191.049 148.347 191.002 148.178 190.909 148.025C190.819 147.868 190.696 147.745 190.539 147.655C190.386 147.562 190.217 147.515 190.034 147.515C189.851 147.515 189.682 147.562 189.529 147.655C189.376 147.745 189.252 147.868 189.159 148.025C189.066 148.178 189.019 148.347 189.019 148.53C189.019 148.713 189.066 148.882 189.159 149.035C189.252 149.188 189.376 149.312 189.529 149.405C189.682 149.498 189.851 149.545 190.034 149.545Z" fill="white"/>
<path d="M171.015 143.79V137.575L169.66 138.395V137.4L171.015 136.59H171.92V143.79H171.015ZM173.722 140.555V139.82H176.722V140.555H173.722ZM177.822 143.785L177.827 142.985L181.022 140.11C181.288 139.87 181.467 139.643 181.557 139.43C181.65 139.213 181.697 138.992 181.697 138.765C181.697 138.488 181.633 138.238 181.507 138.015C181.38 137.792 181.207 137.615 180.987 137.485C180.77 137.355 180.523 137.29 180.247 137.29C179.96 137.29 179.705 137.358 179.482 137.495C179.258 137.628 179.082 137.807 178.952 138.03C178.825 138.253 178.763 138.497 178.767 138.76H177.857C177.857 138.307 177.962 137.907 178.172 137.56C178.382 137.21 178.667 136.937 179.027 136.74C179.39 136.54 179.802 136.44 180.262 136.44C180.708 136.44 181.108 136.543 181.462 136.75C181.815 136.953 182.093 137.232 182.297 137.585C182.503 137.935 182.607 138.332 182.607 138.775C182.607 139.088 182.567 139.36 182.487 139.59C182.41 139.82 182.29 140.033 182.127 140.23C181.963 140.423 181.758 140.63 181.512 140.85L178.857 143.235L178.742 142.935H182.607V143.785H177.822ZM192.26 143.79L192.265 140.335C192.265 139.932 192.156 139.617 191.94 139.39C191.726 139.16 191.448 139.045 191.105 139.045C190.905 139.045 190.715 139.092 190.535 139.185C190.355 139.275 190.208 139.418 190.095 139.615C189.981 139.808 189.925 140.057 189.925 140.36L189.455 140.17C189.448 139.787 189.526 139.452 189.69 139.165C189.856 138.875 190.083 138.65 190.37 138.49C190.656 138.33 190.98 138.25 191.34 138.25C191.903 138.25 192.346 138.422 192.67 138.765C192.993 139.105 193.155 139.563 193.155 140.14L193.15 143.79H192.26ZM185.8 143.79V138.39H186.595V139.835H186.695V143.79H185.8ZM189.035 143.79L189.04 140.37C189.04 139.957 188.933 139.633 188.72 139.4C188.506 139.163 188.223 139.045 187.87 139.045C187.52 139.045 187.236 139.165 187.02 139.405C186.803 139.645 186.695 139.963 186.695 140.36L186.225 140.08C186.225 139.73 186.308 139.417 186.475 139.14C186.641 138.863 186.868 138.647 187.155 138.49C187.441 138.33 187.766 138.25 188.13 138.25C188.493 138.25 188.81 138.327 189.08 138.48C189.35 138.633 189.558 138.853 189.705 139.14C189.851 139.423 189.925 139.762 189.925 140.155L189.92 143.79H189.035ZM196.708 143.94C196.172 143.94 195.708 143.818 195.318 143.575C194.932 143.332 194.633 142.995 194.423 142.565C194.213 142.135 194.108 141.642 194.108 141.085C194.108 140.518 194.215 140.022 194.428 139.595C194.642 139.168 194.943 138.837 195.333 138.6C195.723 138.36 196.182 138.24 196.708 138.24C197.248 138.24 197.713 138.362 198.103 138.605C198.493 138.845 198.792 139.18 198.998 139.61C199.208 140.037 199.313 140.528 199.313 141.085C199.313 141.648 199.208 142.145 198.998 142.575C198.788 143.002 198.488 143.337 198.098 143.58C197.708 143.82 197.245 143.94 196.708 143.94ZM196.708 143.095C197.268 143.095 197.685 142.908 197.958 142.535C198.232 142.162 198.368 141.678 198.368 141.085C198.368 140.475 198.23 139.99 197.953 139.63C197.677 139.267 197.262 139.085 196.708 139.085C196.332 139.085 196.022 139.17 195.778 139.34C195.535 139.51 195.353 139.745 195.233 140.045C195.113 140.345 195.053 140.692 195.053 141.085C195.053 141.692 195.193 142.178 195.473 142.545C195.753 142.912 196.165 143.095 196.708 143.095ZM204.259 143.79V141.085C204.259 140.828 204.236 140.582 204.189 140.345C204.146 140.108 204.067 139.897 203.954 139.71C203.844 139.52 203.694 139.37 203.504 139.26C203.317 139.15 203.081 139.095 202.794 139.095C202.571 139.095 202.367 139.133 202.184 139.21C202.004 139.283 201.849 139.397 201.719 139.55C201.589 139.703 201.487 139.897 201.414 140.13C201.344 140.36 201.309 140.632 201.309 140.945L200.724 140.765C200.724 140.242 200.817 139.793 201.004 139.42C201.194 139.043 201.459 138.755 201.799 138.555C202.142 138.352 202.546 138.25 203.009 138.25C203.359 138.25 203.657 138.305 203.904 138.415C204.151 138.525 204.356 138.672 204.519 138.855C204.682 139.035 204.811 139.238 204.904 139.465C204.997 139.688 205.062 139.917 205.099 140.15C205.139 140.38 205.159 140.598 205.159 140.805V143.79H204.259ZM200.409 143.79V138.39H201.209V139.835H201.309V143.79H200.409ZM209.474 143.79C209.154 143.853 208.837 143.878 208.524 143.865C208.214 143.855 207.937 143.793 207.694 143.68C207.451 143.563 207.266 143.383 207.139 143.14C207.032 142.927 206.974 142.712 206.964 142.495C206.957 142.275 206.954 142.027 206.954 141.75V136.89H207.844V141.71C207.844 141.93 207.846 142.118 207.849 142.275C207.856 142.432 207.891 142.567 207.954 142.68C208.074 142.893 208.264 143.018 208.524 143.055C208.787 143.092 209.104 143.082 209.474 143.025V143.79ZM205.859 139.125V138.39H209.474V139.125H205.859ZM214.415 143.79V141.085C214.415 140.828 214.392 140.582 214.345 140.345C214.302 140.108 214.224 139.897 214.11 139.71C214 139.52 213.85 139.37 213.66 139.26C213.474 139.15 213.237 139.095 212.95 139.095C212.727 139.095 212.524 139.133 212.34 139.21C212.16 139.283 212.005 139.397 211.875 139.55C211.745 139.703 211.644 139.897 211.57 140.13C211.5 140.36 211.465 140.632 211.465 140.945L210.88 140.765C210.88 140.242 210.974 139.793 211.16 139.42C211.35 139.043 211.615 138.755 211.955 138.555C212.299 138.352 212.702 138.25 213.165 138.25C213.515 138.25 213.814 138.305 214.06 138.415C214.307 138.525 214.512 138.672 214.675 138.855C214.839 139.035 214.967 139.238 215.06 139.465C215.154 139.688 215.219 139.917 215.255 140.15C215.295 140.38 215.315 140.598 215.315 140.805V143.79H214.415ZM210.565 143.79V136.59H211.365V140.565H211.465V143.79H210.565ZM218.655 143.935C218.012 143.935 217.484 143.795 217.07 143.515C216.66 143.232 216.409 142.837 216.315 142.33L217.225 142.185C217.299 142.478 217.467 142.712 217.73 142.885C217.994 143.055 218.32 143.14 218.71 143.14C219.08 143.14 219.37 143.063 219.58 142.91C219.79 142.757 219.895 142.548 219.895 142.285C219.895 142.132 219.86 142.008 219.79 141.915C219.72 141.818 219.575 141.728 219.355 141.645C219.139 141.562 218.81 141.462 218.37 141.345C217.894 141.218 217.519 141.087 217.245 140.95C216.972 140.813 216.777 140.655 216.66 140.475C216.544 140.295 216.485 140.077 216.485 139.82C216.485 139.503 216.572 139.227 216.745 138.99C216.919 138.75 217.16 138.565 217.47 138.435C217.784 138.305 218.147 138.24 218.56 138.24C218.97 138.24 219.337 138.305 219.66 138.435C219.984 138.565 220.244 138.75 220.44 138.99C220.64 139.227 220.759 139.503 220.795 139.82L219.885 139.985C219.842 139.695 219.702 139.467 219.465 139.3C219.232 139.133 218.93 139.045 218.56 139.035C218.21 139.022 217.925 139.083 217.705 139.22C217.489 139.357 217.38 139.542 217.38 139.775C217.38 139.905 217.42 140.017 217.5 140.11C217.584 140.203 217.735 140.292 217.955 140.375C218.179 140.458 218.502 140.553 218.925 140.66C219.402 140.78 219.777 140.912 220.05 141.055C220.327 141.195 220.524 141.362 220.64 141.555C220.757 141.745 220.815 141.98 220.815 142.26C220.815 142.78 220.624 143.19 220.24 143.49C219.857 143.787 219.329 143.935 218.655 143.935Z" fill="white"/>
</svg>
